%TF.GenerationSoftware,KiCad,Pcbnew,8.0.5-8.0.5-0~ubuntu24.04.1*%
%TF.CreationDate,2024-10-23T09:38:31+02:00*%
%TF.ProjectId,SensorConnector_PCB,53656e73-6f72-4436-9f6e-6e6563746f72,rev?*%
%TF.SameCoordinates,Original*%
%TF.FileFunction,Copper,L1,Top*%
%TF.FilePolarity,Positive*%
%FSLAX46Y46*%
G04 Gerber Fmt 4.6, Leading zero omitted, Abs format (unit mm)*
G04 Created by KiCad (PCBNEW 8.0.5-8.0.5-0~ubuntu24.04.1) date 2024-10-23 09:38:31*
%MOMM*%
%LPD*%
G01*
G04 APERTURE LIST*
G04 Aperture macros list*
%AMRoundRect*
0 Rectangle with rounded corners*
0 $1 Rounding radius*
0 $2 $3 $4 $5 $6 $7 $8 $9 X,Y pos of 4 corners*
0 Add a 4 corners polygon primitive as box body*
4,1,4,$2,$3,$4,$5,$6,$7,$8,$9,$2,$3,0*
0 Add four circle primitives for the rounded corners*
1,1,$1+$1,$2,$3*
1,1,$1+$1,$4,$5*
1,1,$1+$1,$6,$7*
1,1,$1+$1,$8,$9*
0 Add four rect primitives between the rounded corners*
20,1,$1+$1,$2,$3,$4,$5,0*
20,1,$1+$1,$4,$5,$6,$7,0*
20,1,$1+$1,$6,$7,$8,$9,0*
20,1,$1+$1,$8,$9,$2,$3,0*%
G04 Aperture macros list end*
%TA.AperFunction,ComponentPad*%
%ADD10RoundRect,0.250000X-0.600000X-0.725000X0.600000X-0.725000X0.600000X0.725000X-0.600000X0.725000X0*%
%TD*%
%TA.AperFunction,ComponentPad*%
%ADD11O,1.700000X1.950000*%
%TD*%
%TA.AperFunction,ComponentPad*%
%ADD12RoundRect,0.250000X0.600000X0.725000X-0.600000X0.725000X-0.600000X-0.725000X0.600000X-0.725000X0*%
%TD*%
%TA.AperFunction,ComponentPad*%
%ADD13C,0.800000*%
%TD*%
%TA.AperFunction,ComponentPad*%
%ADD14C,6.400000*%
%TD*%
%TA.AperFunction,ComponentPad*%
%ADD15RoundRect,0.250000X-0.725000X0.600000X-0.725000X-0.600000X0.725000X-0.600000X0.725000X0.600000X0*%
%TD*%
%TA.AperFunction,ComponentPad*%
%ADD16O,1.950000X1.700000*%
%TD*%
%TA.AperFunction,ComponentPad*%
%ADD17RoundRect,0.250000X0.725000X-0.600000X0.725000X0.600000X-0.725000X0.600000X-0.725000X-0.600000X0*%
%TD*%
%TA.AperFunction,Conductor*%
%ADD18C,0.400000*%
%TD*%
G04 APERTURE END LIST*
D10*
%TO.P,J105,1,Pin_1*%
%TO.N,/Capteur_dist_S*%
X109300000Y-85200000D03*
D11*
%TO.P,J105,2,Pin_2*%
%TO.N,/Capteur_dist_N*%
X111800000Y-85200000D03*
%TO.P,J105,3,Pin_3*%
%TO.N,/Capteur_dist_W*%
X114300000Y-85200000D03*
%TO.P,J105,4,Pin_4*%
%TO.N,/Capteur_dist_E*%
X116800000Y-85200000D03*
%TO.P,J105,5,Pin_5*%
%TO.N,+5V*%
X119300000Y-85200000D03*
%TO.P,J105,6,Pin_6*%
%TO.N,GND*%
X121800000Y-85200000D03*
%TD*%
D12*
%TO.P,J101,1,Pin_1*%
%TO.N,GND*%
X111700000Y-71850000D03*
D11*
%TO.P,J101,2,Pin_2*%
%TO.N,+5V*%
X109200000Y-71850000D03*
%TO.P,J101,3,Pin_3*%
%TO.N,/Capteur_dist_N*%
X106700000Y-71850000D03*
%TD*%
D13*
%TO.P,H101,1,1*%
%TO.N,GND*%
X97600000Y-70000000D03*
X98302944Y-68302944D03*
X98302944Y-71697056D03*
X100000000Y-67600000D03*
D14*
X100000000Y-70000000D03*
D13*
X100000000Y-72400000D03*
X101697056Y-68302944D03*
X101697056Y-71697056D03*
X102400000Y-70000000D03*
%TD*%
D15*
%TO.P,J103,1,Pin_1*%
%TO.N,GND*%
X103050000Y-77900000D03*
D16*
%TO.P,J103,2,Pin_2*%
%TO.N,+5V*%
X103050000Y-80400000D03*
%TO.P,J103,3,Pin_3*%
%TO.N,/Capteur_dist_S*%
X103050000Y-82900000D03*
%TD*%
D13*
%TO.P,H104,1,1*%
%TO.N,GND*%
X127600000Y-90000000D03*
X128302944Y-88302944D03*
X128302944Y-91697056D03*
X130000000Y-87600000D03*
D14*
X130000000Y-90000000D03*
D13*
X130000000Y-92400000D03*
X131697056Y-88302944D03*
X131697056Y-91697056D03*
X132400000Y-90000000D03*
%TD*%
D12*
%TO.P,J102,1,Pin_1*%
%TO.N,GND*%
X123300000Y-71850000D03*
D11*
%TO.P,J102,2,Pin_2*%
%TO.N,+5V*%
X120800000Y-71850000D03*
%TO.P,J102,3,Pin_3*%
%TO.N,/Capteur_dist_W*%
X118300000Y-71850000D03*
%TD*%
D17*
%TO.P,J104,1,Pin_1*%
%TO.N,GND*%
X127950000Y-82900000D03*
D16*
%TO.P,J104,2,Pin_2*%
%TO.N,+5V*%
X127950000Y-80400000D03*
%TO.P,J104,3,Pin_3*%
%TO.N,/Capteur_dist_E*%
X127950000Y-77900000D03*
%TD*%
D13*
%TO.P,H102,1,1*%
%TO.N,GND*%
X127600000Y-70000000D03*
X128302944Y-68302944D03*
X128302944Y-71697056D03*
X130000000Y-67600000D03*
D14*
X130000000Y-70000000D03*
D13*
X130000000Y-72400000D03*
X131697056Y-68302944D03*
X131697056Y-71697056D03*
X132400000Y-70000000D03*
%TD*%
%TO.P,H103,1,1*%
%TO.N,GND*%
X97600000Y-90000000D03*
X98302944Y-88302944D03*
X98302944Y-91697056D03*
X100000000Y-87600000D03*
D14*
X100000000Y-90000000D03*
D13*
X100000000Y-92400000D03*
X101697056Y-88302944D03*
X101697056Y-91697056D03*
X102400000Y-90000000D03*
%TD*%
D18*
%TO.N,/Capteur_dist_N*%
X106700000Y-80100000D02*
X111800000Y-85200000D01*
X106700000Y-71850000D02*
X106700000Y-80100000D01*
%TO.N,/Capteur_dist_W*%
X118300000Y-71850000D02*
X118500000Y-72050000D01*
X118500000Y-78250000D02*
X114300000Y-82450000D01*
X114300000Y-82450000D02*
X114300000Y-85200000D01*
X118500000Y-72050000D02*
X118500000Y-78250000D01*
%TO.N,/Capteur_dist_S*%
X103050000Y-82900000D02*
X107000000Y-82900000D01*
X107000000Y-82900000D02*
X109300000Y-85200000D01*
%TO.N,/Capteur_dist_E*%
X127950000Y-77900000D02*
X124100000Y-77900000D01*
X124100000Y-77900000D02*
X116800000Y-85200000D01*
%TD*%
%TA.AperFunction,Conductor*%
%TO.N,+5V*%
G36*
X128267646Y-66520185D02*
G01*
X128313401Y-66572989D01*
X128323345Y-66642147D01*
X128294320Y-66705703D01*
X128256902Y-66734985D01*
X128147206Y-66790877D01*
X127821917Y-67002122D01*
X127520488Y-67246215D01*
X127520480Y-67246222D01*
X127246222Y-67520480D01*
X127246215Y-67520488D01*
X127002122Y-67821917D01*
X126790877Y-68147206D01*
X126614787Y-68492802D01*
X126475788Y-68854905D01*
X126375397Y-69229570D01*
X126375397Y-69229572D01*
X126314722Y-69612660D01*
X126294422Y-69999999D01*
X126294422Y-70000000D01*
X126314722Y-70387339D01*
X126375397Y-70770427D01*
X126375397Y-70770429D01*
X126475788Y-71145094D01*
X126614787Y-71507197D01*
X126790877Y-71852793D01*
X127002122Y-72178082D01*
X127002124Y-72178084D01*
X127246219Y-72479516D01*
X127520484Y-72753781D01*
X127520488Y-72753784D01*
X127821917Y-72997877D01*
X128130922Y-73198547D01*
X128147211Y-73209125D01*
X128492806Y-73385214D01*
X128854913Y-73524214D01*
X129229567Y-73624602D01*
X129612662Y-73685278D01*
X129978576Y-73704455D01*
X129999999Y-73705578D01*
X130000000Y-73705578D01*
X130000001Y-73705578D01*
X130020301Y-73704514D01*
X130387338Y-73685278D01*
X130770433Y-73624602D01*
X131145087Y-73524214D01*
X131507194Y-73385214D01*
X131852789Y-73209125D01*
X132178084Y-72997876D01*
X132479516Y-72753781D01*
X132753781Y-72479516D01*
X132997876Y-72178084D01*
X133209125Y-71852789D01*
X133265015Y-71743097D01*
X133312989Y-71692302D01*
X133380810Y-71675507D01*
X133446945Y-71698044D01*
X133490397Y-71752759D01*
X133499500Y-71799393D01*
X133499500Y-88200606D01*
X133479815Y-88267645D01*
X133427011Y-88313400D01*
X133357853Y-88323344D01*
X133294297Y-88294319D01*
X133265015Y-88256901D01*
X133209122Y-88147206D01*
X132997877Y-87821917D01*
X132753784Y-87520488D01*
X132753781Y-87520484D01*
X132479516Y-87246219D01*
X132178084Y-87002124D01*
X132178082Y-87002122D01*
X131852793Y-86790877D01*
X131507197Y-86614787D01*
X131145094Y-86475788D01*
X131145087Y-86475786D01*
X130770433Y-86375398D01*
X130770429Y-86375397D01*
X130770428Y-86375397D01*
X130387339Y-86314722D01*
X130000001Y-86294422D01*
X129999999Y-86294422D01*
X129612660Y-86314722D01*
X129229572Y-86375397D01*
X129229570Y-86375397D01*
X128854905Y-86475788D01*
X128492802Y-86614787D01*
X128147206Y-86790877D01*
X127821917Y-87002122D01*
X127520488Y-87246215D01*
X127520480Y-87246222D01*
X127246222Y-87520480D01*
X127246215Y-87520488D01*
X127002122Y-87821917D01*
X126790877Y-88147206D01*
X126614787Y-88492802D01*
X126475788Y-88854905D01*
X126375397Y-89229570D01*
X126375397Y-89229572D01*
X126314722Y-89612662D01*
X126294422Y-90000000D01*
X126314722Y-90387338D01*
X126375398Y-90770433D01*
X126430215Y-90975015D01*
X126475788Y-91145094D01*
X126614787Y-91507197D01*
X126790877Y-91852793D01*
X127002122Y-92178082D01*
X127002124Y-92178084D01*
X127246219Y-92479516D01*
X127520484Y-92753781D01*
X127520488Y-92753784D01*
X127821917Y-92997877D01*
X128147206Y-93209122D01*
X128147211Y-93209125D01*
X128256902Y-93265015D01*
X128307698Y-93312989D01*
X128324493Y-93380810D01*
X128301956Y-93446945D01*
X128247241Y-93490397D01*
X128200607Y-93499500D01*
X101799393Y-93499500D01*
X101732354Y-93479815D01*
X101686599Y-93427011D01*
X101676655Y-93357853D01*
X101705680Y-93294297D01*
X101743098Y-93265015D01*
X101852789Y-93209125D01*
X102178084Y-92997876D01*
X102479516Y-92753781D01*
X102753781Y-92479516D01*
X102997876Y-92178084D01*
X103209125Y-91852789D01*
X103385214Y-91507194D01*
X103524214Y-91145087D01*
X103624602Y-90770433D01*
X103685278Y-90387338D01*
X103705578Y-90000000D01*
X103685278Y-89612662D01*
X103624602Y-89229567D01*
X103524214Y-88854913D01*
X103385214Y-88492806D01*
X103209125Y-88147211D01*
X102997876Y-87821916D01*
X102753781Y-87520484D01*
X102479516Y-87246219D01*
X102178084Y-87002124D01*
X102178082Y-87002122D01*
X101852793Y-86790877D01*
X101507197Y-86614787D01*
X101145094Y-86475788D01*
X101145087Y-86475786D01*
X100770433Y-86375398D01*
X100770429Y-86375397D01*
X100770428Y-86375397D01*
X100387339Y-86314722D01*
X100000001Y-86294422D01*
X99999999Y-86294422D01*
X99612660Y-86314722D01*
X99229572Y-86375397D01*
X99229570Y-86375397D01*
X98854905Y-86475788D01*
X98492802Y-86614787D01*
X98147206Y-86790877D01*
X97821917Y-87002122D01*
X97520488Y-87246215D01*
X97520480Y-87246222D01*
X97246222Y-87520480D01*
X97246215Y-87520488D01*
X97002122Y-87821917D01*
X96790877Y-88147206D01*
X96734985Y-88256901D01*
X96687010Y-88307697D01*
X96619189Y-88324492D01*
X96553054Y-88301955D01*
X96509603Y-88247240D01*
X96500500Y-88200606D01*
X96500500Y-82793713D01*
X101574500Y-82793713D01*
X101574500Y-83006286D01*
X101607753Y-83216239D01*
X101673444Y-83418414D01*
X101769951Y-83607820D01*
X101894890Y-83779786D01*
X102045213Y-83930109D01*
X102217179Y-84055048D01*
X102217181Y-84055049D01*
X102217184Y-84055051D01*
X102406588Y-84151557D01*
X102608757Y-84217246D01*
X102818713Y-84250500D01*
X102818714Y-84250500D01*
X103281286Y-84250500D01*
X103281287Y-84250500D01*
X103491243Y-84217246D01*
X103693412Y-84151557D01*
X103882816Y-84055051D01*
X103904789Y-84039086D01*
X104054786Y-83930109D01*
X104054788Y-83930106D01*
X104054792Y-83930104D01*
X104205104Y-83779792D01*
X104298229Y-83651614D01*
X104353558Y-83608949D01*
X104398547Y-83600500D01*
X106658481Y-83600500D01*
X106725520Y-83620185D01*
X106746162Y-83636819D01*
X107913181Y-84803838D01*
X107946666Y-84865161D01*
X107949500Y-84891519D01*
X107949500Y-85975001D01*
X107949501Y-85975018D01*
X107960000Y-86077796D01*
X107960001Y-86077799D01*
X108005894Y-86216294D01*
X108015186Y-86244334D01*
X108107288Y-86393656D01*
X108231344Y-86517712D01*
X108380666Y-86609814D01*
X108547203Y-86664999D01*
X108649991Y-86675500D01*
X109950008Y-86675499D01*
X110052797Y-86664999D01*
X110219334Y-86609814D01*
X110368656Y-86517712D01*
X110492712Y-86393656D01*
X110584814Y-86244334D01*
X110584814Y-86244331D01*
X110588178Y-86238879D01*
X110640126Y-86192154D01*
X110709088Y-86180931D01*
X110773170Y-86208774D01*
X110781398Y-86216294D01*
X110920213Y-86355109D01*
X111092179Y-86480048D01*
X111092181Y-86480049D01*
X111092184Y-86480051D01*
X111281588Y-86576557D01*
X111483757Y-86642246D01*
X111693713Y-86675500D01*
X111693714Y-86675500D01*
X111906286Y-86675500D01*
X111906287Y-86675500D01*
X112116243Y-86642246D01*
X112318412Y-86576557D01*
X112507816Y-86480051D01*
X112529789Y-86464086D01*
X112679786Y-86355109D01*
X112679788Y-86355106D01*
X112679792Y-86355104D01*
X112830104Y-86204792D01*
X112949683Y-86040204D01*
X113005011Y-85997540D01*
X113074624Y-85991561D01*
X113136420Y-86024166D01*
X113150313Y-86040199D01*
X113252560Y-86180931D01*
X113269896Y-86204792D01*
X113420213Y-86355109D01*
X113592179Y-86480048D01*
X113592181Y-86480049D01*
X113592184Y-86480051D01*
X113781588Y-86576557D01*
X113983757Y-86642246D01*
X114193713Y-86675500D01*
X114193714Y-86675500D01*
X114406286Y-86675500D01*
X114406287Y-86675500D01*
X114616243Y-86642246D01*
X114818412Y-86576557D01*
X115007816Y-86480051D01*
X115029789Y-86464086D01*
X115179786Y-86355109D01*
X115179788Y-86355106D01*
X115179792Y-86355104D01*
X115330104Y-86204792D01*
X115449683Y-86040204D01*
X115505011Y-85997540D01*
X115574624Y-85991561D01*
X115636420Y-86024166D01*
X115650313Y-86040199D01*
X115752560Y-86180931D01*
X115769896Y-86204792D01*
X115920213Y-86355109D01*
X116092179Y-86480048D01*
X116092181Y-86480049D01*
X116092184Y-86480051D01*
X116281588Y-86576557D01*
X116483757Y-86642246D01*
X116693713Y-86675500D01*
X116693714Y-86675500D01*
X116906286Y-86675500D01*
X116906287Y-86675500D01*
X117116243Y-86642246D01*
X117318412Y-86576557D01*
X117507816Y-86480051D01*
X117529789Y-86464086D01*
X117679786Y-86355109D01*
X117679788Y-86355106D01*
X117679792Y-86355104D01*
X117830104Y-86204792D01*
X117830106Y-86204788D01*
X117830109Y-86204786D01*
X117955048Y-86032820D01*
X117955047Y-86032820D01*
X117955051Y-86032816D01*
X118051557Y-85843412D01*
X118117246Y-85641243D01*
X118150500Y-85431287D01*
X118150500Y-84968713D01*
X120449500Y-84968713D01*
X120449500Y-85431286D01*
X120482753Y-85641239D01*
X120548444Y-85843414D01*
X120644951Y-86032820D01*
X120769890Y-86204786D01*
X120920213Y-86355109D01*
X121092179Y-86480048D01*
X121092181Y-86480049D01*
X121092184Y-86480051D01*
X121281588Y-86576557D01*
X121483757Y-86642246D01*
X121693713Y-86675500D01*
X121693714Y-86675500D01*
X121906286Y-86675500D01*
X121906287Y-86675500D01*
X122116243Y-86642246D01*
X122318412Y-86576557D01*
X122507816Y-86480051D01*
X122529789Y-86464086D01*
X122679786Y-86355109D01*
X122679788Y-86355106D01*
X122679792Y-86355104D01*
X122830104Y-86204792D01*
X122830106Y-86204788D01*
X122830109Y-86204786D01*
X122955048Y-86032820D01*
X122955047Y-86032820D01*
X122955051Y-86032816D01*
X123051557Y-85843412D01*
X123117246Y-85641243D01*
X123150500Y-85431287D01*
X123150500Y-84968713D01*
X123117246Y-84758757D01*
X123051557Y-84556588D01*
X122955051Y-84367184D01*
X122955049Y-84367181D01*
X122955048Y-84367179D01*
X122830109Y-84195213D01*
X122679786Y-84044890D01*
X122507820Y-83919951D01*
X122318414Y-83823444D01*
X122318413Y-83823443D01*
X122318412Y-83823443D01*
X122116243Y-83757754D01*
X122116241Y-83757753D01*
X122116240Y-83757753D01*
X121954957Y-83732208D01*
X121906287Y-83724500D01*
X121693713Y-83724500D01*
X121645042Y-83732208D01*
X121483760Y-83757753D01*
X121281585Y-83823444D01*
X121092179Y-83919951D01*
X120920213Y-84044890D01*
X120769890Y-84195213D01*
X120644951Y-84367179D01*
X120548444Y-84556585D01*
X120482753Y-84758760D01*
X120449500Y-84968713D01*
X118150500Y-84968713D01*
X118142806Y-84920136D01*
X118151761Y-84850842D01*
X118177595Y-84813060D01*
X120740673Y-82249983D01*
X126474500Y-82249983D01*
X126474500Y-83550001D01*
X126474501Y-83550018D01*
X126485000Y-83652796D01*
X126485001Y-83652799D01*
X126524070Y-83770699D01*
X126540186Y-83819334D01*
X126632288Y-83968656D01*
X126756344Y-84092712D01*
X126905666Y-84184814D01*
X127072203Y-84239999D01*
X127174991Y-84250500D01*
X128725008Y-84250499D01*
X128827797Y-84239999D01*
X128994334Y-84184814D01*
X129143656Y-84092712D01*
X129267712Y-83968656D01*
X129359814Y-83819334D01*
X129414999Y-83652797D01*
X129425500Y-83550009D01*
X129425499Y-82249992D01*
X129414999Y-82147203D01*
X129359814Y-81980666D01*
X129267712Y-81831344D01*
X129143656Y-81707288D01*
X128994334Y-81615186D01*
X128827797Y-81560001D01*
X128827795Y-81560000D01*
X128725010Y-81549500D01*
X127174998Y-81549500D01*
X127174981Y-81549501D01*
X127072203Y-81560000D01*
X127072200Y-81560001D01*
X126905668Y-81615185D01*
X126905663Y-81615187D01*
X126756342Y-81707289D01*
X126632289Y-81831342D01*
X126540187Y-81980663D01*
X126540186Y-81980666D01*
X126485001Y-82147203D01*
X126485001Y-82147204D01*
X126485000Y-82147204D01*
X126474500Y-82249983D01*
X120740673Y-82249983D01*
X124353838Y-78636819D01*
X124415161Y-78603334D01*
X124441519Y-78600500D01*
X126601453Y-78600500D01*
X126668492Y-78620185D01*
X126701769Y-78651614D01*
X126734414Y-78696545D01*
X126794892Y-78779788D01*
X126945213Y-78930109D01*
X127117179Y-79055048D01*
X127117181Y-79055049D01*
X127117184Y-79055051D01*
X127306588Y-79151557D01*
X127508757Y-79217246D01*
X127718713Y-79250500D01*
X127718714Y-79250500D01*
X128181286Y-79250500D01*
X128181287Y-79250500D01*
X128391243Y-79217246D01*
X128593412Y-79151557D01*
X128782816Y-79055051D01*
X128804789Y-79039086D01*
X128954786Y-78930109D01*
X128954788Y-78930106D01*
X128954792Y-78930104D01*
X129105104Y-78779792D01*
X129105106Y-78779788D01*
X129105109Y-78779786D01*
X129230048Y-78607820D01*
X129230047Y-78607820D01*
X129230051Y-78607816D01*
X129326557Y-78418412D01*
X129392246Y-78216243D01*
X129425500Y-78006287D01*
X129425500Y-77793713D01*
X129392246Y-77583757D01*
X129326557Y-77381588D01*
X129230051Y-77192184D01*
X129230049Y-77192181D01*
X129230048Y-77192179D01*
X129105109Y-77020213D01*
X128954786Y-76869890D01*
X128782820Y-76744951D01*
X128593414Y-76648444D01*
X128593413Y-76648443D01*
X128593412Y-76648443D01*
X128391243Y-76582754D01*
X128391241Y-76582753D01*
X128391240Y-76582753D01*
X128229957Y-76557208D01*
X128181287Y-76549500D01*
X127718713Y-76549500D01*
X127670042Y-76557208D01*
X127508760Y-76582753D01*
X127306585Y-76648444D01*
X127117179Y-76744951D01*
X126945213Y-76869890D01*
X126794892Y-77020211D01*
X126726573Y-77114247D01*
X126701770Y-77148385D01*
X126646442Y-77191051D01*
X126601453Y-77199500D01*
X124031004Y-77199500D01*
X123895677Y-77226418D01*
X123895667Y-77226421D01*
X123768192Y-77279222D01*
X123653454Y-77355887D01*
X117272127Y-83737214D01*
X117210804Y-83770699D01*
X117146130Y-83767465D01*
X117145434Y-83767238D01*
X117116243Y-83757754D01*
X117116239Y-83757753D01*
X117116238Y-83757753D01*
X116986559Y-83737214D01*
X116906287Y-83724500D01*
X116693713Y-83724500D01*
X116645042Y-83732208D01*
X116483760Y-83757753D01*
X116281585Y-83823444D01*
X116092179Y-83919951D01*
X115920213Y-84044890D01*
X115769894Y-84195209D01*
X115769890Y-84195214D01*
X115650318Y-84359793D01*
X115594989Y-84402459D01*
X115525375Y-84408438D01*
X115463580Y-84375833D01*
X115449682Y-84359793D01*
X115330109Y-84195214D01*
X115330105Y-84195209D01*
X115179786Y-84044890D01*
X115051615Y-83951770D01*
X115008949Y-83896441D01*
X115000500Y-83851452D01*
X115000500Y-82791519D01*
X115020185Y-82724480D01*
X115036819Y-82703838D01*
X119044112Y-78696545D01*
X119044114Y-78696543D01*
X119120775Y-78581811D01*
X119173580Y-78454328D01*
X119200500Y-78318994D01*
X119200500Y-78181006D01*
X119200500Y-73035758D01*
X119220185Y-72968719D01*
X119236819Y-72948077D01*
X119330104Y-72854792D01*
X119330106Y-72854788D01*
X119330109Y-72854786D01*
X119455048Y-72682820D01*
X119455047Y-72682820D01*
X119455051Y-72682816D01*
X119551557Y-72493412D01*
X119617246Y-72291243D01*
X119650500Y-72081287D01*
X119650500Y-71618713D01*
X119617246Y-71408757D01*
X119551557Y-71206588D01*
X119484501Y-71074983D01*
X121949500Y-71074983D01*
X121949500Y-72625001D01*
X121949501Y-72625018D01*
X121960000Y-72727796D01*
X121960001Y-72727799D01*
X121968611Y-72753781D01*
X122015186Y-72894334D01*
X122107288Y-73043656D01*
X122231344Y-73167712D01*
X122380666Y-73259814D01*
X122547203Y-73314999D01*
X122649991Y-73325500D01*
X123950008Y-73325499D01*
X124052797Y-73314999D01*
X124219334Y-73259814D01*
X124368656Y-73167712D01*
X124492712Y-73043656D01*
X124584814Y-72894334D01*
X124639999Y-72727797D01*
X124650500Y-72625009D01*
X124650499Y-71074992D01*
X124639999Y-70972203D01*
X124584814Y-70805666D01*
X124492712Y-70656344D01*
X124368656Y-70532288D01*
X124219334Y-70440186D01*
X124052797Y-70385001D01*
X124052795Y-70385000D01*
X123950010Y-70374500D01*
X122649998Y-70374500D01*
X122649981Y-70374501D01*
X122547203Y-70385000D01*
X122547200Y-70385001D01*
X122380668Y-70440185D01*
X122380663Y-70440187D01*
X122231342Y-70532289D01*
X122107289Y-70656342D01*
X122015187Y-70805663D01*
X122015186Y-70805666D01*
X121960001Y-70972203D01*
X121960001Y-70972204D01*
X121960000Y-70972204D01*
X121949500Y-71074983D01*
X119484501Y-71074983D01*
X119455051Y-71017184D01*
X119455049Y-71017181D01*
X119455048Y-71017179D01*
X119330109Y-70845213D01*
X119179786Y-70694890D01*
X119007820Y-70569951D01*
X118818414Y-70473444D01*
X118818413Y-70473443D01*
X118818412Y-70473443D01*
X118616243Y-70407754D01*
X118616241Y-70407753D01*
X118616240Y-70407753D01*
X118454957Y-70382208D01*
X118406287Y-70374500D01*
X118193713Y-70374500D01*
X118145042Y-70382208D01*
X117983760Y-70407753D01*
X117781585Y-70473444D01*
X117592179Y-70569951D01*
X117420213Y-70694890D01*
X117269890Y-70845213D01*
X117144951Y-71017179D01*
X117048444Y-71206585D01*
X116982753Y-71408760D01*
X116949500Y-71618713D01*
X116949500Y-72081287D01*
X116982754Y-72291243D01*
X117043926Y-72479511D01*
X117048444Y-72493414D01*
X117144951Y-72682820D01*
X117269890Y-72854786D01*
X117420213Y-73005109D01*
X117592182Y-73130050D01*
X117592184Y-73130051D01*
X117731795Y-73201186D01*
X117782590Y-73249159D01*
X117799500Y-73311670D01*
X117799500Y-77908480D01*
X117779815Y-77975519D01*
X117763181Y-77996161D01*
X113755888Y-82003453D01*
X113755887Y-82003454D01*
X113679222Y-82118192D01*
X113626421Y-82245667D01*
X113626418Y-82245677D01*
X113599500Y-82381004D01*
X113599500Y-83851452D01*
X113579815Y-83918491D01*
X113548385Y-83951770D01*
X113420213Y-84044890D01*
X113269894Y-84195209D01*
X113269890Y-84195214D01*
X113150318Y-84359793D01*
X113094989Y-84402459D01*
X113025375Y-84408438D01*
X112963580Y-84375833D01*
X112949682Y-84359793D01*
X112830109Y-84195214D01*
X112830105Y-84195209D01*
X112679786Y-84044890D01*
X112507820Y-83919951D01*
X112318414Y-83823444D01*
X112318413Y-83823443D01*
X112318412Y-83823443D01*
X112116243Y-83757754D01*
X112116241Y-83757753D01*
X112116240Y-83757753D01*
X111954957Y-83732208D01*
X111906287Y-83724500D01*
X111693713Y-83724500D01*
X111654202Y-83730757D01*
X111483759Y-83757753D01*
X111483754Y-83757754D01*
X111453866Y-83767465D01*
X111384025Y-83769458D01*
X111327871Y-83737214D01*
X107436819Y-79846162D01*
X107403334Y-79784839D01*
X107400500Y-79758481D01*
X107400500Y-73198547D01*
X107420185Y-73131508D01*
X107451614Y-73098230D01*
X107579792Y-73005104D01*
X107730104Y-72854792D01*
X107730106Y-72854788D01*
X107730109Y-72854786D01*
X107855048Y-72682820D01*
X107855047Y-72682820D01*
X107855051Y-72682816D01*
X107951557Y-72493412D01*
X108017246Y-72291243D01*
X108050500Y-72081287D01*
X108050500Y-71618713D01*
X108017246Y-71408757D01*
X107951557Y-71206588D01*
X107884501Y-71074983D01*
X110349500Y-71074983D01*
X110349500Y-72625001D01*
X110349501Y-72625018D01*
X110360000Y-72727796D01*
X110360001Y-72727799D01*
X110368611Y-72753781D01*
X110415186Y-72894334D01*
X110507288Y-73043656D01*
X110631344Y-73167712D01*
X110780666Y-73259814D01*
X110947203Y-73314999D01*
X111049991Y-73325500D01*
X112350008Y-73325499D01*
X112452797Y-73314999D01*
X112619334Y-73259814D01*
X112768656Y-73167712D01*
X112892712Y-73043656D01*
X112984814Y-72894334D01*
X113039999Y-72727797D01*
X113050500Y-72625009D01*
X113050499Y-71074992D01*
X113039999Y-70972203D01*
X112984814Y-70805666D01*
X112892712Y-70656344D01*
X112768656Y-70532288D01*
X112619334Y-70440186D01*
X112452797Y-70385001D01*
X112452795Y-70385000D01*
X112350010Y-70374500D01*
X111049998Y-70374500D01*
X111049981Y-70374501D01*
X110947203Y-70385000D01*
X110947200Y-70385001D01*
X110780668Y-70440185D01*
X110780663Y-70440187D01*
X110631342Y-70532289D01*
X110507289Y-70656342D01*
X110415187Y-70805663D01*
X110415186Y-70805666D01*
X110360001Y-70972203D01*
X110360001Y-70972204D01*
X110360000Y-70972204D01*
X110349500Y-71074983D01*
X107884501Y-71074983D01*
X107855051Y-71017184D01*
X107855049Y-71017181D01*
X107855048Y-71017179D01*
X107730109Y-70845213D01*
X107579786Y-70694890D01*
X107407820Y-70569951D01*
X107218414Y-70473444D01*
X107218413Y-70473443D01*
X107218412Y-70473443D01*
X107016243Y-70407754D01*
X107016241Y-70407753D01*
X107016240Y-70407753D01*
X106854957Y-70382208D01*
X106806287Y-70374500D01*
X106593713Y-70374500D01*
X106545042Y-70382208D01*
X106383760Y-70407753D01*
X106181585Y-70473444D01*
X105992179Y-70569951D01*
X105820213Y-70694890D01*
X105669890Y-70845213D01*
X105544951Y-71017179D01*
X105448444Y-71206585D01*
X105382753Y-71408760D01*
X105349500Y-71618713D01*
X105349500Y-72081287D01*
X105382754Y-72291243D01*
X105443926Y-72479511D01*
X105448444Y-72493414D01*
X105544951Y-72682820D01*
X105669890Y-72854786D01*
X105820211Y-73005107D01*
X105873272Y-73043657D01*
X105948385Y-73098229D01*
X105991051Y-73153558D01*
X105999500Y-73198547D01*
X105999500Y-80031006D01*
X105999500Y-80168994D01*
X105999500Y-80168996D01*
X105999499Y-80168996D01*
X106026418Y-80304322D01*
X106026421Y-80304332D01*
X106079222Y-80431807D01*
X106155887Y-80546545D01*
X106155888Y-80546546D01*
X109122162Y-83512819D01*
X109155647Y-83574142D01*
X109150663Y-83643834D01*
X109108791Y-83699767D01*
X109043327Y-83724184D01*
X109034481Y-83724500D01*
X108866519Y-83724500D01*
X108799480Y-83704815D01*
X108778838Y-83688181D01*
X107446546Y-82355888D01*
X107446545Y-82355887D01*
X107331807Y-82279222D01*
X107204332Y-82226421D01*
X107204322Y-82226418D01*
X107068996Y-82199500D01*
X107068994Y-82199500D01*
X107068993Y-82199500D01*
X104398547Y-82199500D01*
X104331508Y-82179815D01*
X104298230Y-82148385D01*
X104205108Y-82020213D01*
X104205107Y-82020211D01*
X104054786Y-81869890D01*
X103882820Y-81744951D01*
X103693414Y-81648444D01*
X103693413Y-81648443D01*
X103693412Y-81648443D01*
X103491243Y-81582754D01*
X103491241Y-81582753D01*
X103491240Y-81582753D01*
X103329957Y-81557208D01*
X103281287Y-81549500D01*
X102818713Y-81549500D01*
X102770042Y-81557208D01*
X102608760Y-81582753D01*
X102406585Y-81648444D01*
X102217179Y-81744951D01*
X102045213Y-81869890D01*
X101894890Y-82020213D01*
X101769951Y-82192179D01*
X101673444Y-82381585D01*
X101607753Y-82583760D01*
X101574500Y-82793713D01*
X96500500Y-82793713D01*
X96500500Y-77249983D01*
X101574500Y-77249983D01*
X101574500Y-78550001D01*
X101574501Y-78550018D01*
X101585000Y-78652796D01*
X101585001Y-78652799D01*
X101627081Y-78779786D01*
X101640186Y-78819334D01*
X101732288Y-78968656D01*
X101856344Y-79092712D01*
X102005666Y-79184814D01*
X102172203Y-79239999D01*
X102274991Y-79250500D01*
X103825008Y-79250499D01*
X103927797Y-79239999D01*
X104094334Y-79184814D01*
X104243656Y-79092712D01*
X104367712Y-78968656D01*
X104459814Y-78819334D01*
X104514999Y-78652797D01*
X104525500Y-78550009D01*
X104525499Y-77249992D01*
X104514999Y-77147203D01*
X104459814Y-76980666D01*
X104367712Y-76831344D01*
X104243656Y-76707288D01*
X104094334Y-76615186D01*
X103927797Y-76560001D01*
X103927795Y-76560000D01*
X103825010Y-76549500D01*
X102274998Y-76549500D01*
X102274981Y-76549501D01*
X102172203Y-76560000D01*
X102172200Y-76560001D01*
X102005668Y-76615185D01*
X102005663Y-76615187D01*
X101856342Y-76707289D01*
X101732289Y-76831342D01*
X101640187Y-76980663D01*
X101640186Y-76980666D01*
X101585001Y-77147203D01*
X101585001Y-77147204D01*
X101585000Y-77147204D01*
X101574500Y-77249983D01*
X96500500Y-77249983D01*
X96500500Y-71799393D01*
X96520185Y-71732354D01*
X96572989Y-71686599D01*
X96642147Y-71676655D01*
X96705703Y-71705680D01*
X96734984Y-71743097D01*
X96782429Y-71836214D01*
X96790877Y-71852793D01*
X97002122Y-72178082D01*
X97002124Y-72178084D01*
X97246219Y-72479516D01*
X97520484Y-72753781D01*
X97520488Y-72753784D01*
X97821917Y-72997877D01*
X98130922Y-73198547D01*
X98147211Y-73209125D01*
X98492806Y-73385214D01*
X98854913Y-73524214D01*
X99229567Y-73624602D01*
X99612662Y-73685278D01*
X99978576Y-73704455D01*
X99999999Y-73705578D01*
X100000000Y-73705578D01*
X100000001Y-73705578D01*
X100020301Y-73704514D01*
X100387338Y-73685278D01*
X100770433Y-73624602D01*
X101145087Y-73524214D01*
X101507194Y-73385214D01*
X101852789Y-73209125D01*
X102178084Y-72997876D01*
X102479516Y-72753781D01*
X102753781Y-72479516D01*
X102997876Y-72178084D01*
X103209125Y-71852789D01*
X103385214Y-71507194D01*
X103524214Y-71145087D01*
X103624602Y-70770433D01*
X103685278Y-70387338D01*
X103705578Y-70000000D01*
X103685278Y-69612662D01*
X103624602Y-69229567D01*
X103524214Y-68854913D01*
X103385214Y-68492806D01*
X103209125Y-68147211D01*
X102997876Y-67821916D01*
X102753781Y-67520484D01*
X102479516Y-67246219D01*
X102178084Y-67002124D01*
X102178082Y-67002122D01*
X101852793Y-66790877D01*
X101743098Y-66734985D01*
X101692302Y-66687011D01*
X101675507Y-66619190D01*
X101698044Y-66553055D01*
X101752759Y-66509603D01*
X101799393Y-66500500D01*
X128200607Y-66500500D01*
X128267646Y-66520185D01*
G37*
%TD.AperFunction*%
%TD*%
M02*
