M48
; DRILL file {KiCad 8.0.5-8.0.5-0~ubuntu24.04.1} date 2024-10-23T09:38:41+0200
; FORMAT={-:-/ absolute / inch / decimal}
; #@! TF.CreationDate,2024-10-23T09:38:41+02:00
; #@! TF.GenerationSoftware,Kicad,Pcbnew,8.0.5-8.0.5-0~ubuntu24.04.1
; #@! TF.FileFunction,Plated,1,2,PTH
FMAT,2
INCH
; #@! TA.AperFunction,Plated,PTH,ComponentDrill
T1C0.0197
; #@! TA.AperFunction,Plated,PTH,ComponentDrill
T2C0.0374
; #@! TA.AperFunction,Plated,PTH,ComponentDrill
T3C0.1260
%
G90
G05
T1
X3.8425Y-2.7559
X3.8425Y-3.5433
X3.8702Y-2.6891
X3.8702Y-2.8227
X3.8702Y-3.4765
X3.8702Y-3.6101
X3.937Y-2.6614
X3.937Y-2.8504
X3.937Y-3.4488
X3.937Y-3.6378
X4.0038Y-2.6891
X4.0038Y-2.8227
X4.0038Y-3.4765
X4.0038Y-3.6101
X4.0315Y-2.7559
X4.0315Y-3.5433
X5.0236Y-2.7559
X5.0236Y-3.5433
X5.0513Y-2.6891
X5.0513Y-2.8227
X5.0513Y-3.4765
X5.0513Y-3.6101
X5.1181Y-2.6614
X5.1181Y-2.8504
X5.1181Y-3.4488
X5.1181Y-3.6378
X5.1849Y-2.6891
X5.1849Y-2.8227
X5.1849Y-3.4765
X5.1849Y-3.6101
X5.2126Y-2.7559
X5.2126Y-3.5433
T2
X4.0571Y-3.0669
X4.0571Y-3.1654
X4.0571Y-3.2638
X4.2008Y-2.8287
X4.2992Y-2.8287
X4.3031Y-3.3543
X4.3976Y-2.8287
X4.4016Y-3.3543
X4.5Y-3.3543
X4.5984Y-3.3543
X4.6575Y-2.8287
X4.6969Y-3.3543
X4.7559Y-2.8287
X4.7953Y-3.3543
X4.8543Y-2.8287
X5.0374Y-3.0669
X5.0374Y-3.1654
X5.0374Y-3.2638
T3
X3.937Y-2.7559
X3.937Y-3.5433
X5.1181Y-2.7559
X5.1181Y-3.5433
M30
