%TF.GenerationSoftware,KiCad,Pcbnew,8.0.5-8.0.5-0~ubuntu24.04.1*%
%TF.CreationDate,2024-10-23T09:38:31+02:00*%
%TF.ProjectId,SensorConnector_PCB,53656e73-6f72-4436-9f6e-6e6563746f72,rev?*%
%TF.SameCoordinates,Original*%
%TF.FileFunction,Copper,L2,Bot*%
%TF.FilePolarity,Positive*%
%FSLAX46Y46*%
G04 Gerber Fmt 4.6, Leading zero omitted, Abs format (unit mm)*
G04 Created by KiCad (PCBNEW 8.0.5-8.0.5-0~ubuntu24.04.1) date 2024-10-23 09:38:31*
%MOMM*%
%LPD*%
G01*
G04 APERTURE LIST*
G04 Aperture macros list*
%AMRoundRect*
0 Rectangle with rounded corners*
0 $1 Rounding radius*
0 $2 $3 $4 $5 $6 $7 $8 $9 X,Y pos of 4 corners*
0 Add a 4 corners polygon primitive as box body*
4,1,4,$2,$3,$4,$5,$6,$7,$8,$9,$2,$3,0*
0 Add four circle primitives for the rounded corners*
1,1,$1+$1,$2,$3*
1,1,$1+$1,$4,$5*
1,1,$1+$1,$6,$7*
1,1,$1+$1,$8,$9*
0 Add four rect primitives between the rounded corners*
20,1,$1+$1,$2,$3,$4,$5,0*
20,1,$1+$1,$4,$5,$6,$7,0*
20,1,$1+$1,$6,$7,$8,$9,0*
20,1,$1+$1,$8,$9,$2,$3,0*%
G04 Aperture macros list end*
%TA.AperFunction,ComponentPad*%
%ADD10RoundRect,0.250000X-0.600000X-0.725000X0.600000X-0.725000X0.600000X0.725000X-0.600000X0.725000X0*%
%TD*%
%TA.AperFunction,ComponentPad*%
%ADD11O,1.700000X1.950000*%
%TD*%
%TA.AperFunction,ComponentPad*%
%ADD12RoundRect,0.250000X0.600000X0.725000X-0.600000X0.725000X-0.600000X-0.725000X0.600000X-0.725000X0*%
%TD*%
%TA.AperFunction,ComponentPad*%
%ADD13C,0.800000*%
%TD*%
%TA.AperFunction,ComponentPad*%
%ADD14C,6.400000*%
%TD*%
%TA.AperFunction,ComponentPad*%
%ADD15RoundRect,0.250000X-0.725000X0.600000X-0.725000X-0.600000X0.725000X-0.600000X0.725000X0.600000X0*%
%TD*%
%TA.AperFunction,ComponentPad*%
%ADD16O,1.950000X1.700000*%
%TD*%
%TA.AperFunction,ComponentPad*%
%ADD17RoundRect,0.250000X0.725000X-0.600000X0.725000X0.600000X-0.725000X0.600000X-0.725000X-0.600000X0*%
%TD*%
G04 APERTURE END LIST*
D10*
%TO.P,J105,1,Pin_1*%
%TO.N,/Capteur_dist_S*%
X109300000Y-85200000D03*
D11*
%TO.P,J105,2,Pin_2*%
%TO.N,/Capteur_dist_N*%
X111800000Y-85200000D03*
%TO.P,J105,3,Pin_3*%
%TO.N,/Capteur_dist_W*%
X114300000Y-85200000D03*
%TO.P,J105,4,Pin_4*%
%TO.N,/Capteur_dist_E*%
X116800000Y-85200000D03*
%TO.P,J105,5,Pin_5*%
%TO.N,+5V*%
X119300000Y-85200000D03*
%TO.P,J105,6,Pin_6*%
%TO.N,GND*%
X121800000Y-85200000D03*
%TD*%
D12*
%TO.P,J101,1,Pin_1*%
%TO.N,GND*%
X111700000Y-71850000D03*
D11*
%TO.P,J101,2,Pin_2*%
%TO.N,+5V*%
X109200000Y-71850000D03*
%TO.P,J101,3,Pin_3*%
%TO.N,/Capteur_dist_N*%
X106700000Y-71850000D03*
%TD*%
D13*
%TO.P,H101,1,1*%
%TO.N,GND*%
X97600000Y-70000000D03*
X98302944Y-68302944D03*
X98302944Y-71697056D03*
X100000000Y-67600000D03*
D14*
X100000000Y-70000000D03*
D13*
X100000000Y-72400000D03*
X101697056Y-68302944D03*
X101697056Y-71697056D03*
X102400000Y-70000000D03*
%TD*%
D15*
%TO.P,J103,1,Pin_1*%
%TO.N,GND*%
X103050000Y-77900000D03*
D16*
%TO.P,J103,2,Pin_2*%
%TO.N,+5V*%
X103050000Y-80400000D03*
%TO.P,J103,3,Pin_3*%
%TO.N,/Capteur_dist_S*%
X103050000Y-82900000D03*
%TD*%
D13*
%TO.P,H104,1,1*%
%TO.N,GND*%
X127600000Y-90000000D03*
X128302944Y-88302944D03*
X128302944Y-91697056D03*
X130000000Y-87600000D03*
D14*
X130000000Y-90000000D03*
D13*
X130000000Y-92400000D03*
X131697056Y-88302944D03*
X131697056Y-91697056D03*
X132400000Y-90000000D03*
%TD*%
D12*
%TO.P,J102,1,Pin_1*%
%TO.N,GND*%
X123300000Y-71850000D03*
D11*
%TO.P,J102,2,Pin_2*%
%TO.N,+5V*%
X120800000Y-71850000D03*
%TO.P,J102,3,Pin_3*%
%TO.N,/Capteur_dist_W*%
X118300000Y-71850000D03*
%TD*%
D17*
%TO.P,J104,1,Pin_1*%
%TO.N,GND*%
X127950000Y-82900000D03*
D16*
%TO.P,J104,2,Pin_2*%
%TO.N,+5V*%
X127950000Y-80400000D03*
%TO.P,J104,3,Pin_3*%
%TO.N,/Capteur_dist_E*%
X127950000Y-77900000D03*
%TD*%
D13*
%TO.P,H102,1,1*%
%TO.N,GND*%
X127600000Y-70000000D03*
X128302944Y-68302944D03*
X128302944Y-71697056D03*
X130000000Y-67600000D03*
D14*
X130000000Y-70000000D03*
D13*
X130000000Y-72400000D03*
X131697056Y-68302944D03*
X131697056Y-71697056D03*
X132400000Y-70000000D03*
%TD*%
%TO.P,H103,1,1*%
%TO.N,GND*%
X97600000Y-90000000D03*
X98302944Y-88302944D03*
X98302944Y-91697056D03*
X100000000Y-87600000D03*
D14*
X100000000Y-90000000D03*
D13*
X100000000Y-92400000D03*
X101697056Y-88302944D03*
X101697056Y-91697056D03*
X102400000Y-90000000D03*
%TD*%
%TA.AperFunction,Conductor*%
%TO.N,GND*%
G36*
X130003032Y-66500648D02*
G01*
X130336929Y-66517052D01*
X130349037Y-66518245D01*
X130452146Y-66533539D01*
X130676699Y-66566849D01*
X130688617Y-66569219D01*
X131009951Y-66649709D01*
X131021588Y-66653240D01*
X131092806Y-66678722D01*
X131333467Y-66764832D01*
X131344688Y-66769479D01*
X131644163Y-66911120D01*
X131654871Y-66916844D01*
X131938988Y-67087137D01*
X131949106Y-67093897D01*
X132215170Y-67291224D01*
X132224576Y-67298944D01*
X132470013Y-67521395D01*
X132478604Y-67529986D01*
X132665755Y-67736475D01*
X132701055Y-67775423D01*
X132708775Y-67784829D01*
X132906102Y-68050893D01*
X132912862Y-68061011D01*
X133041776Y-68276092D01*
X133083148Y-68345116D01*
X133088885Y-68355848D01*
X133230514Y-68655297D01*
X133235170Y-68666540D01*
X133346759Y-68978411D01*
X133350292Y-68990055D01*
X133430777Y-69311369D01*
X133433151Y-69323305D01*
X133481754Y-69650962D01*
X133482947Y-69663071D01*
X133499351Y-69996966D01*
X133499500Y-70003051D01*
X133499500Y-89996948D01*
X133499351Y-90003033D01*
X133482947Y-90336928D01*
X133481754Y-90349037D01*
X133433151Y-90676694D01*
X133430777Y-90688630D01*
X133350292Y-91009944D01*
X133346759Y-91021588D01*
X133235170Y-91333459D01*
X133230514Y-91344702D01*
X133088885Y-91644151D01*
X133083148Y-91654883D01*
X132912862Y-91938988D01*
X132906102Y-91949106D01*
X132708775Y-92215170D01*
X132701055Y-92224576D01*
X132478611Y-92470006D01*
X132470006Y-92478611D01*
X132224576Y-92701055D01*
X132215170Y-92708775D01*
X131949106Y-92906102D01*
X131938988Y-92912862D01*
X131654883Y-93083148D01*
X131644151Y-93088885D01*
X131344702Y-93230514D01*
X131333459Y-93235170D01*
X131021588Y-93346759D01*
X131009944Y-93350292D01*
X130688630Y-93430777D01*
X130676694Y-93433151D01*
X130349037Y-93481754D01*
X130336928Y-93482947D01*
X130021989Y-93498419D01*
X130003031Y-93499351D01*
X129996949Y-93499500D01*
X100003051Y-93499500D01*
X99996968Y-93499351D01*
X99976900Y-93498365D01*
X99663071Y-93482947D01*
X99650962Y-93481754D01*
X99323305Y-93433151D01*
X99311369Y-93430777D01*
X98990055Y-93350292D01*
X98978411Y-93346759D01*
X98666540Y-93235170D01*
X98655301Y-93230515D01*
X98355844Y-93088883D01*
X98345121Y-93083150D01*
X98061011Y-92912862D01*
X98050893Y-92906102D01*
X97784829Y-92708775D01*
X97775423Y-92701055D01*
X97736475Y-92665755D01*
X97529986Y-92478604D01*
X97521395Y-92470013D01*
X97298944Y-92224576D01*
X97291224Y-92215170D01*
X97093897Y-91949106D01*
X97087137Y-91938988D01*
X96916844Y-91654871D01*
X96911120Y-91644163D01*
X96769479Y-91344688D01*
X96764829Y-91333459D01*
X96653240Y-91021588D01*
X96649707Y-91009944D01*
X96640958Y-90975015D01*
X96569219Y-90688617D01*
X96566848Y-90676694D01*
X96518245Y-90349037D01*
X96517052Y-90336927D01*
X96500649Y-90003032D01*
X96500500Y-89996948D01*
X96500500Y-84424983D01*
X107949500Y-84424983D01*
X107949500Y-85975001D01*
X107949501Y-85975018D01*
X107960000Y-86077796D01*
X107960001Y-86077799D01*
X108005894Y-86216294D01*
X108015186Y-86244334D01*
X108107288Y-86393656D01*
X108231344Y-86517712D01*
X108380666Y-86609814D01*
X108547203Y-86664999D01*
X108649991Y-86675500D01*
X109950008Y-86675499D01*
X110052797Y-86664999D01*
X110219334Y-86609814D01*
X110368656Y-86517712D01*
X110492712Y-86393656D01*
X110584814Y-86244334D01*
X110584814Y-86244331D01*
X110588178Y-86238879D01*
X110640126Y-86192154D01*
X110709088Y-86180931D01*
X110773170Y-86208774D01*
X110781398Y-86216294D01*
X110920213Y-86355109D01*
X111092179Y-86480048D01*
X111092181Y-86480049D01*
X111092184Y-86480051D01*
X111281588Y-86576557D01*
X111483757Y-86642246D01*
X111693713Y-86675500D01*
X111693714Y-86675500D01*
X111906286Y-86675500D01*
X111906287Y-86675500D01*
X112116243Y-86642246D01*
X112318412Y-86576557D01*
X112507816Y-86480051D01*
X112529789Y-86464086D01*
X112679786Y-86355109D01*
X112679788Y-86355106D01*
X112679792Y-86355104D01*
X112830104Y-86204792D01*
X112949683Y-86040204D01*
X113005011Y-85997540D01*
X113074624Y-85991561D01*
X113136420Y-86024166D01*
X113150313Y-86040199D01*
X113252560Y-86180931D01*
X113269896Y-86204792D01*
X113420213Y-86355109D01*
X113592179Y-86480048D01*
X113592181Y-86480049D01*
X113592184Y-86480051D01*
X113781588Y-86576557D01*
X113983757Y-86642246D01*
X114193713Y-86675500D01*
X114193714Y-86675500D01*
X114406286Y-86675500D01*
X114406287Y-86675500D01*
X114616243Y-86642246D01*
X114818412Y-86576557D01*
X115007816Y-86480051D01*
X115029789Y-86464086D01*
X115179786Y-86355109D01*
X115179788Y-86355106D01*
X115179792Y-86355104D01*
X115330104Y-86204792D01*
X115449683Y-86040204D01*
X115505011Y-85997540D01*
X115574624Y-85991561D01*
X115636420Y-86024166D01*
X115650313Y-86040199D01*
X115752560Y-86180931D01*
X115769896Y-86204792D01*
X115920213Y-86355109D01*
X116092179Y-86480048D01*
X116092181Y-86480049D01*
X116092184Y-86480051D01*
X116281588Y-86576557D01*
X116483757Y-86642246D01*
X116693713Y-86675500D01*
X116693714Y-86675500D01*
X116906286Y-86675500D01*
X116906287Y-86675500D01*
X117116243Y-86642246D01*
X117318412Y-86576557D01*
X117507816Y-86480051D01*
X117529789Y-86464086D01*
X117679786Y-86355109D01*
X117679788Y-86355106D01*
X117679792Y-86355104D01*
X117830104Y-86204792D01*
X117949683Y-86040204D01*
X118005011Y-85997540D01*
X118074624Y-85991561D01*
X118136420Y-86024166D01*
X118150313Y-86040199D01*
X118252560Y-86180931D01*
X118269896Y-86204792D01*
X118420213Y-86355109D01*
X118592179Y-86480048D01*
X118592181Y-86480049D01*
X118592184Y-86480051D01*
X118781588Y-86576557D01*
X118983757Y-86642246D01*
X119193713Y-86675500D01*
X119193714Y-86675500D01*
X119406286Y-86675500D01*
X119406287Y-86675500D01*
X119616243Y-86642246D01*
X119818412Y-86576557D01*
X120007816Y-86480051D01*
X120029789Y-86464086D01*
X120179786Y-86355109D01*
X120179788Y-86355106D01*
X120179792Y-86355104D01*
X120330104Y-86204792D01*
X120330106Y-86204788D01*
X120330109Y-86204786D01*
X120455048Y-86032820D01*
X120455047Y-86032820D01*
X120455051Y-86032816D01*
X120551557Y-85843412D01*
X120617246Y-85641243D01*
X120650500Y-85431287D01*
X120650500Y-84968713D01*
X120617246Y-84758757D01*
X120551557Y-84556588D01*
X120455051Y-84367184D01*
X120455049Y-84367181D01*
X120455048Y-84367179D01*
X120330109Y-84195213D01*
X120179786Y-84044890D01*
X120007820Y-83919951D01*
X119818414Y-83823444D01*
X119818413Y-83823443D01*
X119818412Y-83823443D01*
X119616243Y-83757754D01*
X119616241Y-83757753D01*
X119616240Y-83757753D01*
X119454957Y-83732208D01*
X119406287Y-83724500D01*
X119193713Y-83724500D01*
X119145042Y-83732208D01*
X118983760Y-83757753D01*
X118781585Y-83823444D01*
X118592179Y-83919951D01*
X118420213Y-84044890D01*
X118269894Y-84195209D01*
X118269890Y-84195214D01*
X118150318Y-84359793D01*
X118094989Y-84402459D01*
X118025375Y-84408438D01*
X117963580Y-84375833D01*
X117949682Y-84359793D01*
X117830109Y-84195214D01*
X117830105Y-84195209D01*
X117679786Y-84044890D01*
X117507820Y-83919951D01*
X117318414Y-83823444D01*
X117318413Y-83823443D01*
X117318412Y-83823443D01*
X117116243Y-83757754D01*
X117116241Y-83757753D01*
X117116240Y-83757753D01*
X116954957Y-83732208D01*
X116906287Y-83724500D01*
X116693713Y-83724500D01*
X116645042Y-83732208D01*
X116483760Y-83757753D01*
X116281585Y-83823444D01*
X116092179Y-83919951D01*
X115920213Y-84044890D01*
X115769894Y-84195209D01*
X115769890Y-84195214D01*
X115650318Y-84359793D01*
X115594989Y-84402459D01*
X115525375Y-84408438D01*
X115463580Y-84375833D01*
X115449682Y-84359793D01*
X115330109Y-84195214D01*
X115330105Y-84195209D01*
X115179786Y-84044890D01*
X115007820Y-83919951D01*
X114818414Y-83823444D01*
X114818413Y-83823443D01*
X114818412Y-83823443D01*
X114616243Y-83757754D01*
X114616241Y-83757753D01*
X114616240Y-83757753D01*
X114454957Y-83732208D01*
X114406287Y-83724500D01*
X114193713Y-83724500D01*
X114145042Y-83732208D01*
X113983760Y-83757753D01*
X113781585Y-83823444D01*
X113592179Y-83919951D01*
X113420213Y-84044890D01*
X113269894Y-84195209D01*
X113269890Y-84195214D01*
X113150318Y-84359793D01*
X113094989Y-84402459D01*
X113025375Y-84408438D01*
X112963580Y-84375833D01*
X112949682Y-84359793D01*
X112830109Y-84195214D01*
X112830105Y-84195209D01*
X112679786Y-84044890D01*
X112507820Y-83919951D01*
X112318414Y-83823444D01*
X112318413Y-83823443D01*
X112318412Y-83823443D01*
X112116243Y-83757754D01*
X112116241Y-83757753D01*
X112116240Y-83757753D01*
X111954957Y-83732208D01*
X111906287Y-83724500D01*
X111693713Y-83724500D01*
X111645042Y-83732208D01*
X111483760Y-83757753D01*
X111281585Y-83823444D01*
X111092179Y-83919951D01*
X110920215Y-84044889D01*
X110781398Y-84183706D01*
X110720075Y-84217190D01*
X110650383Y-84212206D01*
X110594450Y-84170334D01*
X110588178Y-84161120D01*
X110492712Y-84006344D01*
X110368657Y-83882289D01*
X110368656Y-83882288D01*
X110219334Y-83790186D01*
X110052797Y-83735001D01*
X110052795Y-83735000D01*
X109950010Y-83724500D01*
X108649998Y-83724500D01*
X108649981Y-83724501D01*
X108547203Y-83735000D01*
X108547200Y-83735001D01*
X108380668Y-83790185D01*
X108380663Y-83790187D01*
X108231342Y-83882289D01*
X108107289Y-84006342D01*
X108015187Y-84155663D01*
X108015185Y-84155668D01*
X108010325Y-84170334D01*
X107960001Y-84322203D01*
X107960001Y-84322204D01*
X107960000Y-84322204D01*
X107949500Y-84424983D01*
X96500500Y-84424983D01*
X96500500Y-80293713D01*
X101574500Y-80293713D01*
X101574500Y-80506286D01*
X101607753Y-80716239D01*
X101673444Y-80918414D01*
X101769951Y-81107820D01*
X101894890Y-81279786D01*
X102045209Y-81430105D01*
X102045214Y-81430109D01*
X102209793Y-81549682D01*
X102252459Y-81605011D01*
X102258438Y-81674625D01*
X102225833Y-81736420D01*
X102209793Y-81750318D01*
X102045214Y-81869890D01*
X102045209Y-81869894D01*
X101894890Y-82020213D01*
X101769951Y-82192179D01*
X101673444Y-82381585D01*
X101607753Y-82583760D01*
X101574500Y-82793713D01*
X101574500Y-83006286D01*
X101607753Y-83216239D01*
X101673444Y-83418414D01*
X101769951Y-83607820D01*
X101894890Y-83779786D01*
X102045213Y-83930109D01*
X102217179Y-84055048D01*
X102217181Y-84055049D01*
X102217184Y-84055051D01*
X102406588Y-84151557D01*
X102608757Y-84217246D01*
X102818713Y-84250500D01*
X102818714Y-84250500D01*
X103281286Y-84250500D01*
X103281287Y-84250500D01*
X103491243Y-84217246D01*
X103693412Y-84151557D01*
X103882816Y-84055051D01*
X103949859Y-84006342D01*
X104054786Y-83930109D01*
X104054788Y-83930106D01*
X104054792Y-83930104D01*
X104205104Y-83779792D01*
X104205106Y-83779788D01*
X104205109Y-83779786D01*
X104330048Y-83607820D01*
X104330047Y-83607820D01*
X104330051Y-83607816D01*
X104426557Y-83418412D01*
X104492246Y-83216243D01*
X104525500Y-83006287D01*
X104525500Y-82793713D01*
X104492246Y-82583757D01*
X104426557Y-82381588D01*
X104330051Y-82192184D01*
X104330049Y-82192181D01*
X104330048Y-82192179D01*
X104205109Y-82020213D01*
X104054792Y-81869896D01*
X104054784Y-81869890D01*
X103890204Y-81750316D01*
X103847540Y-81694989D01*
X103841561Y-81625376D01*
X103874166Y-81563580D01*
X103890199Y-81549686D01*
X104054792Y-81430104D01*
X104205104Y-81279792D01*
X104205106Y-81279788D01*
X104205109Y-81279786D01*
X104330048Y-81107820D01*
X104330047Y-81107820D01*
X104330051Y-81107816D01*
X104426557Y-80918412D01*
X104492246Y-80716243D01*
X104525500Y-80506287D01*
X104525500Y-80293713D01*
X104492246Y-80083757D01*
X104426557Y-79881588D01*
X104330051Y-79692184D01*
X104330049Y-79692181D01*
X104330048Y-79692179D01*
X104205109Y-79520213D01*
X104054786Y-79369890D01*
X103882820Y-79244951D01*
X103693414Y-79148444D01*
X103693413Y-79148443D01*
X103693412Y-79148443D01*
X103491243Y-79082754D01*
X103491241Y-79082753D01*
X103491240Y-79082753D01*
X103316334Y-79055051D01*
X103281287Y-79049500D01*
X102818713Y-79049500D01*
X102783666Y-79055051D01*
X102608760Y-79082753D01*
X102406585Y-79148444D01*
X102217179Y-79244951D01*
X102045213Y-79369890D01*
X101894890Y-79520213D01*
X101769951Y-79692179D01*
X101673444Y-79881585D01*
X101607753Y-80083760D01*
X101574500Y-80293713D01*
X96500500Y-80293713D01*
X96500500Y-77793713D01*
X126474500Y-77793713D01*
X126474500Y-78006286D01*
X126507753Y-78216239D01*
X126573444Y-78418414D01*
X126669951Y-78607820D01*
X126794890Y-78779786D01*
X126945209Y-78930105D01*
X126945214Y-78930109D01*
X127109793Y-79049682D01*
X127152459Y-79105011D01*
X127158438Y-79174625D01*
X127125833Y-79236420D01*
X127109793Y-79250318D01*
X126945214Y-79369890D01*
X126945209Y-79369894D01*
X126794890Y-79520213D01*
X126669951Y-79692179D01*
X126573444Y-79881585D01*
X126507753Y-80083760D01*
X126474500Y-80293713D01*
X126474500Y-80506286D01*
X126507753Y-80716239D01*
X126573444Y-80918414D01*
X126669951Y-81107820D01*
X126794890Y-81279786D01*
X126945213Y-81430109D01*
X127117179Y-81555048D01*
X127117181Y-81555049D01*
X127117184Y-81555051D01*
X127306588Y-81651557D01*
X127508757Y-81717246D01*
X127718713Y-81750500D01*
X127718714Y-81750500D01*
X128181286Y-81750500D01*
X128181287Y-81750500D01*
X128391243Y-81717246D01*
X128593412Y-81651557D01*
X128782816Y-81555051D01*
X128804789Y-81539086D01*
X128954786Y-81430109D01*
X128954788Y-81430106D01*
X128954792Y-81430104D01*
X129105104Y-81279792D01*
X129105106Y-81279788D01*
X129105109Y-81279786D01*
X129230048Y-81107820D01*
X129230047Y-81107820D01*
X129230051Y-81107816D01*
X129326557Y-80918412D01*
X129392246Y-80716243D01*
X129425500Y-80506287D01*
X129425500Y-80293713D01*
X129392246Y-80083757D01*
X129326557Y-79881588D01*
X129230051Y-79692184D01*
X129230049Y-79692181D01*
X129230048Y-79692179D01*
X129105109Y-79520213D01*
X128954792Y-79369896D01*
X128954784Y-79369890D01*
X128790204Y-79250316D01*
X128747540Y-79194989D01*
X128741561Y-79125376D01*
X128774166Y-79063580D01*
X128790199Y-79049686D01*
X128954792Y-78930104D01*
X129105104Y-78779792D01*
X129105106Y-78779788D01*
X129105109Y-78779786D01*
X129230048Y-78607820D01*
X129230047Y-78607820D01*
X129230051Y-78607816D01*
X129326557Y-78418412D01*
X129392246Y-78216243D01*
X129425500Y-78006287D01*
X129425500Y-77793713D01*
X129392246Y-77583757D01*
X129326557Y-77381588D01*
X129230051Y-77192184D01*
X129230049Y-77192181D01*
X129230048Y-77192179D01*
X129105109Y-77020213D01*
X128954786Y-76869890D01*
X128782820Y-76744951D01*
X128593414Y-76648444D01*
X128593413Y-76648443D01*
X128593412Y-76648443D01*
X128391243Y-76582754D01*
X128391241Y-76582753D01*
X128391240Y-76582753D01*
X128229957Y-76557208D01*
X128181287Y-76549500D01*
X127718713Y-76549500D01*
X127670042Y-76557208D01*
X127508760Y-76582753D01*
X127306585Y-76648444D01*
X127117179Y-76744951D01*
X126945213Y-76869890D01*
X126794890Y-77020213D01*
X126669951Y-77192179D01*
X126573444Y-77381585D01*
X126507753Y-77583760D01*
X126474500Y-77793713D01*
X96500500Y-77793713D01*
X96500500Y-71618713D01*
X105349500Y-71618713D01*
X105349500Y-72081286D01*
X105382753Y-72291239D01*
X105448444Y-72493414D01*
X105544951Y-72682820D01*
X105669890Y-72854786D01*
X105820213Y-73005109D01*
X105992179Y-73130048D01*
X105992181Y-73130049D01*
X105992184Y-73130051D01*
X106181588Y-73226557D01*
X106383757Y-73292246D01*
X106593713Y-73325500D01*
X106593714Y-73325500D01*
X106806286Y-73325500D01*
X106806287Y-73325500D01*
X107016243Y-73292246D01*
X107218412Y-73226557D01*
X107407816Y-73130051D01*
X107429789Y-73114086D01*
X107579786Y-73005109D01*
X107579788Y-73005106D01*
X107579792Y-73005104D01*
X107730104Y-72854792D01*
X107849683Y-72690204D01*
X107905011Y-72647540D01*
X107974624Y-72641561D01*
X108036420Y-72674166D01*
X108050313Y-72690199D01*
X108169892Y-72854786D01*
X108169896Y-72854792D01*
X108320213Y-73005109D01*
X108492179Y-73130048D01*
X108492181Y-73130049D01*
X108492184Y-73130051D01*
X108681588Y-73226557D01*
X108883757Y-73292246D01*
X109093713Y-73325500D01*
X109093714Y-73325500D01*
X109306286Y-73325500D01*
X109306287Y-73325500D01*
X109516243Y-73292246D01*
X109718412Y-73226557D01*
X109907816Y-73130051D01*
X109929789Y-73114086D01*
X110079786Y-73005109D01*
X110079788Y-73005106D01*
X110079792Y-73005104D01*
X110230104Y-72854792D01*
X110230106Y-72854788D01*
X110230109Y-72854786D01*
X110355048Y-72682820D01*
X110355047Y-72682820D01*
X110355051Y-72682816D01*
X110451557Y-72493412D01*
X110517246Y-72291243D01*
X110550500Y-72081287D01*
X110550500Y-71618713D01*
X116949500Y-71618713D01*
X116949500Y-72081286D01*
X116982753Y-72291239D01*
X117048444Y-72493414D01*
X117144951Y-72682820D01*
X117269890Y-72854786D01*
X117420213Y-73005109D01*
X117592179Y-73130048D01*
X117592181Y-73130049D01*
X117592184Y-73130051D01*
X117781588Y-73226557D01*
X117983757Y-73292246D01*
X118193713Y-73325500D01*
X118193714Y-73325500D01*
X118406286Y-73325500D01*
X118406287Y-73325500D01*
X118616243Y-73292246D01*
X118818412Y-73226557D01*
X119007816Y-73130051D01*
X119029789Y-73114086D01*
X119179786Y-73005109D01*
X119179788Y-73005106D01*
X119179792Y-73005104D01*
X119330104Y-72854792D01*
X119449683Y-72690204D01*
X119505011Y-72647540D01*
X119574624Y-72641561D01*
X119636420Y-72674166D01*
X119650313Y-72690199D01*
X119769892Y-72854786D01*
X119769896Y-72854792D01*
X119920213Y-73005109D01*
X120092179Y-73130048D01*
X120092181Y-73130049D01*
X120092184Y-73130051D01*
X120281588Y-73226557D01*
X120483757Y-73292246D01*
X120693713Y-73325500D01*
X120693714Y-73325500D01*
X120906286Y-73325500D01*
X120906287Y-73325500D01*
X121116243Y-73292246D01*
X121318412Y-73226557D01*
X121507816Y-73130051D01*
X121529789Y-73114086D01*
X121679786Y-73005109D01*
X121679788Y-73005106D01*
X121679792Y-73005104D01*
X121830104Y-72854792D01*
X121830106Y-72854788D01*
X121830109Y-72854786D01*
X121955048Y-72682820D01*
X121955047Y-72682820D01*
X121955051Y-72682816D01*
X122051557Y-72493412D01*
X122117246Y-72291243D01*
X122150500Y-72081287D01*
X122150500Y-71618713D01*
X122117246Y-71408757D01*
X122051557Y-71206588D01*
X121955051Y-71017184D01*
X121955049Y-71017181D01*
X121955048Y-71017179D01*
X121830109Y-70845213D01*
X121679786Y-70694890D01*
X121507820Y-70569951D01*
X121318414Y-70473444D01*
X121318413Y-70473443D01*
X121318412Y-70473443D01*
X121116243Y-70407754D01*
X121116241Y-70407753D01*
X121116240Y-70407753D01*
X120954957Y-70382208D01*
X120906287Y-70374500D01*
X120693713Y-70374500D01*
X120645042Y-70382208D01*
X120483760Y-70407753D01*
X120281585Y-70473444D01*
X120092179Y-70569951D01*
X119920213Y-70694890D01*
X119769894Y-70845209D01*
X119769890Y-70845214D01*
X119650318Y-71009793D01*
X119594989Y-71052459D01*
X119525375Y-71058438D01*
X119463580Y-71025833D01*
X119449682Y-71009793D01*
X119330109Y-70845214D01*
X119330105Y-70845209D01*
X119179786Y-70694890D01*
X119007820Y-70569951D01*
X118818414Y-70473444D01*
X118818413Y-70473443D01*
X118818412Y-70473443D01*
X118616243Y-70407754D01*
X118616241Y-70407753D01*
X118616240Y-70407753D01*
X118454957Y-70382208D01*
X118406287Y-70374500D01*
X118193713Y-70374500D01*
X118145042Y-70382208D01*
X117983760Y-70407753D01*
X117781585Y-70473444D01*
X117592179Y-70569951D01*
X117420213Y-70694890D01*
X117269890Y-70845213D01*
X117144951Y-71017179D01*
X117048444Y-71206585D01*
X116982753Y-71408760D01*
X116949500Y-71618713D01*
X110550500Y-71618713D01*
X110517246Y-71408757D01*
X110451557Y-71206588D01*
X110355051Y-71017184D01*
X110355049Y-71017181D01*
X110355048Y-71017179D01*
X110230109Y-70845213D01*
X110079786Y-70694890D01*
X109907820Y-70569951D01*
X109718414Y-70473444D01*
X109718413Y-70473443D01*
X109718412Y-70473443D01*
X109516243Y-70407754D01*
X109516241Y-70407753D01*
X109516240Y-70407753D01*
X109354957Y-70382208D01*
X109306287Y-70374500D01*
X109093713Y-70374500D01*
X109045042Y-70382208D01*
X108883760Y-70407753D01*
X108681585Y-70473444D01*
X108492179Y-70569951D01*
X108320213Y-70694890D01*
X108169894Y-70845209D01*
X108169890Y-70845214D01*
X108050318Y-71009793D01*
X107994989Y-71052459D01*
X107925375Y-71058438D01*
X107863580Y-71025833D01*
X107849682Y-71009793D01*
X107730109Y-70845214D01*
X107730105Y-70845209D01*
X107579786Y-70694890D01*
X107407820Y-70569951D01*
X107218414Y-70473444D01*
X107218413Y-70473443D01*
X107218412Y-70473443D01*
X107016243Y-70407754D01*
X107016241Y-70407753D01*
X107016240Y-70407753D01*
X106854957Y-70382208D01*
X106806287Y-70374500D01*
X106593713Y-70374500D01*
X106545042Y-70382208D01*
X106383760Y-70407753D01*
X106181585Y-70473444D01*
X105992179Y-70569951D01*
X105820213Y-70694890D01*
X105669890Y-70845213D01*
X105544951Y-71017179D01*
X105448444Y-71206585D01*
X105382753Y-71408760D01*
X105349500Y-71618713D01*
X96500500Y-71618713D01*
X96500500Y-70003051D01*
X96500649Y-69996967D01*
X96517052Y-69663072D01*
X96518245Y-69650962D01*
X96566849Y-69323296D01*
X96569218Y-69311385D01*
X96649710Y-68990043D01*
X96653240Y-68978411D01*
X96764835Y-68666525D01*
X96769476Y-68655318D01*
X96911124Y-68355828D01*
X96916840Y-68345136D01*
X97087145Y-68060998D01*
X97093888Y-68050905D01*
X97291232Y-67784818D01*
X97298935Y-67775433D01*
X97521405Y-67529975D01*
X97529975Y-67521405D01*
X97775433Y-67298935D01*
X97784818Y-67291232D01*
X98050905Y-67093888D01*
X98060998Y-67087145D01*
X98345136Y-66916840D01*
X98355828Y-66911124D01*
X98655318Y-66769476D01*
X98666525Y-66764835D01*
X98978412Y-66653239D01*
X98990043Y-66649710D01*
X99311385Y-66569218D01*
X99323296Y-66566849D01*
X99650962Y-66518244D01*
X99663068Y-66517052D01*
X99996967Y-66500648D01*
X100003051Y-66500500D01*
X100065892Y-66500500D01*
X129934108Y-66500500D01*
X129996949Y-66500500D01*
X130003032Y-66500648D01*
G37*
%TD.AperFunction*%
%TD*%
M02*
