M48
; DRILL file {KiCad 8.0.5-8.0.5-0~ubuntu24.04.1} date 2024-10-23T11:08:09+0200
; FORMAT={-:-/ absolute / inch / decimal}
; #@! TF.CreationDate,2024-10-23T11:08:09+02:00
; #@! TF.GenerationSoftware,Kicad,Pcbnew,8.0.5-8.0.5-0~ubuntu24.04.1
; #@! TF.FileFunction,Plated,1,4,PTH
FMAT,2
INCH
; #@! TA.AperFunction,Plated,PTH,ViaDrill
T1C0.0118
; #@! TA.AperFunction,Plated,PTH,ComponentDrill
T2C0.0197
; #@! TA.AperFunction,Plated,PTH,ComponentDrill
T3C0.0374
; #@! TA.AperFunction,Plated,PTH,ComponentDrill
T4C0.0394
; #@! TA.AperFunction,Plated,PTH,ComponentDrill
T5C0.0728
; #@! TA.AperFunction,Plated,PTH,ComponentDrill
T6C0.1260
%
G90
G05
T1
X1.4646Y-1.7146
X1.4665Y-1.8799
X1.4921Y-3.3268
X1.5748Y-1.8012
X1.5787Y-3.3307
X1.6181Y-2.7598
X1.6614Y-3.3701
X1.685Y-2.7598
X1.7008Y-1.7205
X1.7028Y-1.8799
X1.7028Y-3.6024
X1.748Y-2.7598
X1.815Y-2.7598
X1.8386Y-3.6024
X1.8681Y-3.2185
X1.874Y-3.6024
X1.878Y-2.7598
X1.8799Y-1.7323
X1.9094Y-2.1949
X1.9134Y-2.3356
X1.9134Y-2.4134
X1.9134Y-2.4961
X1.9213Y-3.1929
X1.9242Y-2.8504
X1.9252Y-2.6142
X1.9252Y-2.6969
X1.9272Y-1.9409
X1.9276Y-2.1398
X1.9478Y-2.0344
X1.9577Y-3.1476
X1.9685Y-2.8937
X1.9756Y-3.0281
X1.9803Y-1.9902
X2.0079Y-2.7461
X2.0138Y-2.06
X2.0394Y-2.2913
X2.063Y-3.0344
X2.0719Y-3.1476
X2.074Y-2.0304
X2.0748Y-1.9705
X2.0866Y-1.7323
X2.0866Y-2.5689
X2.0886Y-3.0344
X2.0965Y-1.9094
X2.1004Y-2.4803
X2.1073Y-3.1427
X2.1083Y-2.375
X2.1122Y-2.0965
X2.1142Y-3.0344
X2.123Y-2.8602
X2.124Y-3.0866
X2.127Y-3.1319
X2.1309Y-2.9616
X2.1319Y-3.0551
X2.1358Y-2.2933
X2.1398Y-2.8061
X2.1398Y-2.9882
X2.1457Y-2.9134
X2.1506Y-1.9242
X2.1594Y-2.4803
X2.1772Y-2.3386
X2.1772Y-2.4134
X2.1821Y-2.5984
X2.1831Y-2.815
X2.1831Y-2.9114
X2.1949Y-2.6289
X2.1969Y-2.9882
X2.2047Y-2.0807
X2.2165Y-2.311
X2.2185Y-2.5531
X2.2185Y-2.9429
X2.2244Y-2.185
X2.2293Y-2.3573
X2.2323Y-2.5
X2.249Y-2.122
X2.2618Y-1.7303
X2.2618Y-2.2087
X2.2805Y-2.5413
X2.2933Y-3.1693
X2.3012Y-2.0082
X2.3031Y-3.0118
X2.3031Y-3.061
X2.3051Y-1.9491
X2.3051Y-2.0594
X2.3199Y-3.1152
X2.3258Y-2.8888
X2.3258Y-2.9104
X2.3297Y-2.1998
X2.3366Y-2.8415
X2.3425Y-2.7067
X2.3425Y-2.7953
X2.3445Y-1.9491
X2.3445Y-2.0594
X2.3484Y-2.9104
X2.3504Y-2.6358
X2.372Y-2.9104
X2.378Y-3.1161
X2.3839Y-1.9491
X2.3839Y-2.0594
X2.3858Y-2.122
X2.3878Y-2.0082
X2.3917Y-3.0315
X2.3991Y-2.534
X2.4016Y-2.8622
X2.4035Y-2.2904
X2.4114Y-2.5787
X2.4114Y-2.6378
X2.4114Y-2.7067
X2.4114Y-2.7953
X2.435Y-3.1152
X2.437Y-2.2913
X2.4409Y-2.3583
X2.4459Y-2.5246
X2.4488Y-2.1969
X2.4508Y-1.4764
X2.4508Y-1.6043
X2.4508Y-1.7126
X2.4596Y-2.4793
X2.4675Y-2.8445
X2.4696Y-2.5433
X2.4705Y-2.4392
X2.4705Y-2.7067
X2.4921Y-2.563
X2.5Y-2.063
X2.5098Y-2.6476
X2.5098Y-3.0315
X2.5167Y-1.9311
X2.5177Y-2.6004
X2.5394Y-2.8376
X2.5394Y-2.937
X2.554Y-2.2295
X2.5546Y-2.1974
X2.5679Y-2.6644
X2.5787Y-2.1486
X2.5856Y-2.2116
X2.5984Y-2.3543
X2.5984Y-2.4646
X2.5984Y-3.0413
X2.5984Y-3.2087
X2.6142Y-2.0177
X2.6142Y-2.1063
X2.6181Y-1.7421
X2.6299Y-2.9724
X2.6339Y-2.9232
X2.6368Y-1.9193
X2.6407Y-2.7677
X2.6504Y-2.0481
X2.6555Y-1.9764
X2.6555Y-2.4087
X2.6821Y-2.9163
X2.687Y-2.0807
X2.689Y-2.7618
X2.6928Y-2.1183
X2.7087Y-2.4646
X2.7087Y-3.2047
X2.7116Y-1.9193
X2.7126Y-2.3543
X2.7165Y-3.061
X2.7283Y-2.9291
X2.7451Y-2.2357
X2.7549Y-2.5856
X2.7554Y-2.7623
X2.7598Y-2.9252
X2.7864Y-2.0768
X2.7894Y-2.6486
X2.7953Y-3.2185
X2.7992Y-2.9606
X2.8051Y-2.8839
X2.8071Y-2.8228
X2.815Y-1.7421
X2.8321Y-2.347
X2.8327Y-2.2106
X2.8504Y-2.3781
X2.872Y-3.0906
X2.878Y-2.5974
X2.8789Y-2.1171
X2.8819Y-2.002
X2.8858Y-1.9469
X2.8858Y-2.0571
X2.8941Y-2.4195
X2.8957Y-2.3898
X2.8957Y-2.6467
X2.9152Y-2.3644
X2.9213Y-2.9291
X2.9252Y-1.9469
X2.9252Y-2.0571
X2.9283Y-2.6604
X2.9331Y-2.3365
X2.936Y-3.124
X2.937Y-2.437
X2.9606Y-1.9469
X2.9606Y-2.0571
X2.9685Y-2.002
X2.9716Y-2.935
X2.9862Y-2.8799
X2.9902Y-2.3819
X2.998Y-2.1161
X3.0079Y-1.7185
X3.0148Y-2.5108
X3.0453Y-2.5728
X3.0709Y-2.0768
X3.0748Y-2.752
X3.0758Y-2.9882
X3.0764Y-1.9268
X3.1004Y-3.2185
X3.1083Y-2.9626
X3.1102Y-3.1201
X3.1161Y-2.6791
X3.1181Y-3.0472
X3.1388Y-2.9104
X3.1731Y-1.9764
X3.1732Y-2.0571
X3.1791Y-2.2146
X3.1933Y-1.9019
X3.2047Y-3.1535
X3.2776Y-3.376
X3.3366Y-2.2146
X3.3543Y-1.9961
X3.3543Y-2.0472
X3.3583Y-1.8976
X3.3671Y-3.0
X3.3701Y-1.8476
X3.372Y-2.0976
X3.4055Y-2.9724
X3.4646Y-2.2146
X3.4921Y-3.378
T2
X1.4803Y-1.5748
X1.4803Y-3.5039
X1.508Y-1.508
X1.508Y-1.6416
X1.508Y-3.4371
X1.508Y-3.5708
X1.5748Y-1.4803
X1.5748Y-1.6693
X1.5748Y-3.4094
X1.5748Y-3.5984
X1.6416Y-1.508
X1.6416Y-1.6416
X1.6416Y-3.4371
X1.6416Y-3.5708
X1.6693Y-1.5748
X1.6693Y-3.5039
X3.2913Y-1.5748
X3.2913Y-3.5039
X3.319Y-1.508
X3.319Y-1.6416
X3.319Y-3.4371
X3.319Y-3.5708
X3.3858Y-1.4803
X3.3858Y-1.6693
X3.3858Y-3.4094
X3.3858Y-3.5984
X3.4526Y-1.508
X3.4526Y-1.6416
X3.4526Y-3.4371
X3.4526Y-3.5708
X3.4803Y-1.5748
X3.4803Y-3.5039
T3
X1.7874Y-2.0157
X1.7874Y-2.1142
X1.7874Y-2.2126
X1.7874Y-2.311
X1.8386Y-1.7874
X1.937Y-1.7874
X2.0354Y-1.7874
X2.1339Y-1.7874
X2.2323Y-1.7874
X2.3307Y-1.7874
X2.4449Y-3.2913
X2.5433Y-3.2913
X2.5728Y-1.7874
X2.6417Y-3.2913
X2.6713Y-1.7874
X2.7402Y-3.2913
X2.7697Y-1.7874
X2.8386Y-3.2913
X2.8681Y-1.7874
X2.937Y-3.2913
X2.9665Y-1.7874
X3.0354Y-3.2913
X3.065Y-1.7874
X3.1339Y-3.2913
X3.1732Y-2.3425
X3.1732Y-2.4409
X3.1732Y-2.5394
X3.1732Y-2.6378
X3.1732Y-2.7362
X3.1732Y-2.8346
T4
X1.7874Y-2.5433
X1.7874Y-2.6417
X2.1102Y-3.2913
X2.2087Y-3.2913
T5
X1.5709Y-2.8543
X1.5709Y-3.0394
X1.5709Y-3.2244
T6
X1.5748Y-1.5748
X1.5748Y-3.5039
X3.3858Y-1.5748
X3.3858Y-3.5039
M30
