%TF.GenerationSoftware,KiCad,Pcbnew,8.0.5-8.0.5-0~ubuntu24.04.1*%
%TF.CreationDate,2024-10-23T11:08:18+02:00*%
%TF.ProjectId,TagBot,54616742-6f74-42e6-9b69-6361645f7063,rev?*%
%TF.SameCoordinates,Original*%
%TF.FileFunction,Soldermask,Bot*%
%TF.FilePolarity,Negative*%
%FSLAX46Y46*%
G04 Gerber Fmt 4.6, Leading zero omitted, Abs format (unit mm)*
G04 Created by KiCad (PCBNEW 8.0.5-8.0.5-0~ubuntu24.04.1) date 2024-10-23 11:08:18*
%MOMM*%
%LPD*%
G01*
G04 APERTURE LIST*
G04 Aperture macros list*
%AMRoundRect*
0 Rectangle with rounded corners*
0 $1 Rounding radius*
0 $2 $3 $4 $5 $6 $7 $8 $9 X,Y pos of 4 corners*
0 Add a 4 corners polygon primitive as box body*
4,1,4,$2,$3,$4,$5,$6,$7,$8,$9,$2,$3,0*
0 Add four circle primitives for the rounded corners*
1,1,$1+$1,$2,$3*
1,1,$1+$1,$4,$5*
1,1,$1+$1,$6,$7*
1,1,$1+$1,$8,$9*
0 Add four rect primitives between the rounded corners*
20,1,$1+$1,$2,$3,$4,$5,0*
20,1,$1+$1,$4,$5,$6,$7,0*
20,1,$1+$1,$6,$7,$8,$9,0*
20,1,$1+$1,$8,$9,$2,$3,0*%
G04 Aperture macros list end*
%ADD10RoundRect,0.250000X-0.600000X-0.750000X0.600000X-0.750000X0.600000X0.750000X-0.600000X0.750000X0*%
%ADD11O,1.700000X2.000000*%
%ADD12C,0.800000*%
%ADD13C,6.400000*%
%ADD14C,1.500000*%
%ADD15RoundRect,0.250000X0.600000X0.725000X-0.600000X0.725000X-0.600000X-0.725000X0.600000X-0.725000X0*%
%ADD16O,1.700000X1.950000*%
%ADD17C,2.979000*%
%ADD18RoundRect,0.250000X-0.750000X0.600000X-0.750000X-0.600000X0.750000X-0.600000X0.750000X0.600000X0*%
%ADD19O,2.000000X1.700000*%
%ADD20RoundRect,0.250000X0.725000X-0.600000X0.725000X0.600000X-0.725000X0.600000X-0.725000X-0.600000X0*%
%ADD21O,1.950000X1.700000*%
%ADD22RoundRect,0.250000X-0.725000X0.600000X-0.725000X-0.600000X0.725000X-0.600000X0.725000X0.600000X0*%
%ADD23RoundRect,0.250000X-0.600000X-0.725000X0.600000X-0.725000X0.600000X0.725000X-0.600000X0.725000X0*%
G04 APERTURE END LIST*
D10*
%TO.C,Charg*%
X53600000Y-83600000D03*
D11*
X56100000Y-83600000D03*
%TD*%
D12*
%TO.C,H103*%
X37600000Y-89000000D03*
X38302944Y-87302944D03*
X38302944Y-90697056D03*
X40000000Y-86600000D03*
D13*
X40000000Y-89000000D03*
D12*
X40000000Y-91400000D03*
X41697056Y-87302944D03*
X41697056Y-90697056D03*
X42400000Y-89000000D03*
%TD*%
D14*
%TO.C,RIGHT_REV*%
X76100000Y-55850000D03*
%TD*%
D15*
%TO.C,J1001*%
X77850000Y-45400000D03*
D16*
X75350000Y-45400000D03*
X72850000Y-45400000D03*
X70350000Y-45400000D03*
X67850000Y-45400000D03*
X65350000Y-45400000D03*
%TD*%
D12*
%TO.C,H101*%
X37600000Y-40000000D03*
X38302944Y-38302944D03*
X38302944Y-41697056D03*
X40000000Y-37600000D03*
D13*
X40000000Y-40000000D03*
D12*
X40000000Y-42400000D03*
X41697056Y-38302944D03*
X41697056Y-41697056D03*
X42400000Y-40000000D03*
%TD*%
D17*
%TO.C,charg*%
X39900000Y-81900000D03*
X39900000Y-77200000D03*
X39900000Y-72500000D03*
%TD*%
D18*
%TO.C,Batt*%
X45400000Y-64600000D03*
D19*
X45400000Y-67100000D03*
%TD*%
D14*
%TO.C,RIGHT_FWD*%
X69750000Y-54150000D03*
%TD*%
%TO.C,TPLEFT_FWD*%
X67250000Y-55350000D03*
%TD*%
D15*
%TO.C,J1002*%
X59200000Y-45400000D03*
D16*
X56700000Y-45400000D03*
X54200000Y-45400000D03*
X51700000Y-45400000D03*
X49200000Y-45400000D03*
X46700000Y-45400000D03*
%TD*%
D20*
%TO.C,LIDAR*%
X80600000Y-72000000D03*
D21*
X80600000Y-69500000D03*
X80600000Y-67000000D03*
X80600000Y-64500000D03*
X80600000Y-62000000D03*
X80600000Y-59500000D03*
%TD*%
D14*
%TO.C,LEFT_REV*%
X64950000Y-52075000D03*
%TD*%
D22*
%TO.C,J1101*%
X45400000Y-51200000D03*
D21*
X45400000Y-53700000D03*
X45400000Y-56200000D03*
X45400000Y-58700000D03*
%TD*%
D12*
%TO.C,H104*%
X83600000Y-89000000D03*
X84302944Y-87302944D03*
X84302944Y-90697056D03*
X86000000Y-86600000D03*
D13*
X86000000Y-89000000D03*
D12*
X86000000Y-91400000D03*
X87697056Y-87302944D03*
X87697056Y-90697056D03*
X88400000Y-89000000D03*
%TD*%
%TO.C,H102*%
X83600000Y-40000000D03*
X84302944Y-38302944D03*
X84302944Y-41697056D03*
X86000000Y-37600000D03*
D13*
X86000000Y-40000000D03*
D12*
X86000000Y-42400000D03*
X87697056Y-38302944D03*
X87697056Y-41697056D03*
X88400000Y-40000000D03*
%TD*%
D23*
%TO.C,J901*%
X62100000Y-83600000D03*
D16*
X64600000Y-83600000D03*
X67100000Y-83600000D03*
X69600000Y-83600000D03*
X72100000Y-83600000D03*
X74600000Y-83600000D03*
X77100000Y-83600000D03*
X79600000Y-83600000D03*
%TD*%
D14*
%TO.C,MISO*%
X66275000Y-68900000D03*
%TD*%
M02*
