%TF.GenerationSoftware,KiCad,Pcbnew,8.0.5-8.0.5-0~ubuntu24.04.1*%
%TF.CreationDate,2024-10-23T11:08:18+02:00*%
%TF.ProjectId,TagBot,54616742-6f74-42e6-9b69-6361645f7063,rev?*%
%TF.SameCoordinates,Original*%
%TF.FileFunction,Legend,Bot*%
%TF.FilePolarity,Positive*%
%FSLAX46Y46*%
G04 Gerber Fmt 4.6, Leading zero omitted, Abs format (unit mm)*
G04 Created by KiCad (PCBNEW 8.0.5-8.0.5-0~ubuntu24.04.1) date 2024-10-23 11:08:18*
%MOMM*%
%LPD*%
G01*
G04 APERTURE LIST*
%ADD10C,0.150000*%
%ADD11C,0.100000*%
%ADD12C,0.120000*%
G04 APERTURE END LIST*
D10*
G36*
X48846175Y-88614981D02*
G01*
X48890867Y-88659673D01*
X48939411Y-88756760D01*
X48939411Y-89092781D01*
X48890867Y-89189868D01*
X48846175Y-89234560D01*
X48749087Y-89283104D01*
X48536877Y-89283104D01*
X48470364Y-89249847D01*
X48470364Y-88599694D01*
X48536877Y-88566438D01*
X48749087Y-88566438D01*
X48846175Y-88614981D01*
G37*
G36*
X46369985Y-88614981D02*
G01*
X46414677Y-88659673D01*
X46463221Y-88756760D01*
X46463221Y-89092781D01*
X46414677Y-89189868D01*
X46369985Y-89234560D01*
X46272897Y-89283104D01*
X46122592Y-89283104D01*
X46025506Y-89234561D01*
X45980813Y-89189868D01*
X45932269Y-89092780D01*
X45932269Y-88756762D01*
X45980813Y-88659674D01*
X46025506Y-88614981D01*
X46122592Y-88566438D01*
X46272897Y-88566438D01*
X46369985Y-88614981D01*
G37*
G36*
X47701317Y-89283104D02*
G01*
X47298783Y-89283104D01*
X47201695Y-89234560D01*
X47157003Y-89189868D01*
X47108460Y-89092780D01*
X47108460Y-88942475D01*
X47157003Y-88845388D01*
X47197782Y-88804609D01*
X47355153Y-88752152D01*
X47701317Y-88752152D01*
X47701317Y-89283104D01*
G37*
G36*
X47701317Y-88602152D02*
G01*
X47360688Y-88602152D01*
X47263601Y-88553608D01*
X47218907Y-88508914D01*
X47170364Y-88411827D01*
X47170364Y-88323428D01*
X47218907Y-88226341D01*
X47263601Y-88181647D01*
X47360688Y-88133104D01*
X47701317Y-88133104D01*
X47701317Y-88602152D01*
G37*
G36*
X49661822Y-88929948D02*
G01*
X49675554Y-88935203D01*
X49678241Y-88935393D01*
X49680731Y-88936425D01*
X49695363Y-88937866D01*
X49987182Y-88937866D01*
X50072795Y-88980672D01*
X50115601Y-89066284D01*
X50115601Y-89154686D01*
X50072795Y-89240298D01*
X49987182Y-89283104D01*
X49713067Y-89283104D01*
X49646554Y-89249847D01*
X49646554Y-88922313D01*
X49661822Y-88929948D01*
G37*
G36*
X53910890Y-88609243D02*
G01*
X53953696Y-88694855D01*
X53953696Y-88833285D01*
X53484649Y-88739475D01*
X53484649Y-88694857D01*
X53527455Y-88609243D01*
X53613067Y-88566438D01*
X53825277Y-88566438D01*
X53910890Y-88609243D01*
G37*
G36*
X55655698Y-88614981D02*
G01*
X55700390Y-88659673D01*
X55748934Y-88756760D01*
X55748934Y-89092781D01*
X55700390Y-89189868D01*
X55655698Y-89234560D01*
X55558610Y-89283104D01*
X55408305Y-89283104D01*
X55311219Y-89234561D01*
X55266526Y-89189868D01*
X55217982Y-89092780D01*
X55217982Y-88756762D01*
X55266526Y-88659674D01*
X55311219Y-88614981D01*
X55408305Y-88566438D01*
X55558610Y-88566438D01*
X55655698Y-88614981D01*
G37*
G36*
X57791792Y-88664057D02*
G01*
X57389259Y-88664057D01*
X57292171Y-88615513D01*
X57247478Y-88570820D01*
X57198935Y-88473733D01*
X57198935Y-88323427D01*
X57247478Y-88226340D01*
X57292171Y-88181648D01*
X57389259Y-88133104D01*
X57791792Y-88133104D01*
X57791792Y-88664057D01*
G37*
G36*
X48784269Y-86088720D02*
G01*
X48828963Y-86133414D01*
X48881742Y-86238972D01*
X48939411Y-86469648D01*
X48939411Y-86760705D01*
X48881742Y-86991382D01*
X48828963Y-87096941D01*
X48784270Y-87141633D01*
X48687183Y-87190177D01*
X48598782Y-87190177D01*
X48501696Y-87141634D01*
X48457003Y-87096941D01*
X48404223Y-86991381D01*
X48346554Y-86760704D01*
X48346554Y-86469649D01*
X48404223Y-86238972D01*
X48457002Y-86133414D01*
X48501696Y-86088720D01*
X48598783Y-86040177D01*
X48687183Y-86040177D01*
X48784269Y-86088720D01*
G37*
G36*
X52622364Y-86088720D02*
G01*
X52667058Y-86133414D01*
X52719837Y-86238972D01*
X52777506Y-86469648D01*
X52777506Y-86760705D01*
X52719837Y-86991382D01*
X52667058Y-87096941D01*
X52622365Y-87141633D01*
X52525278Y-87190177D01*
X52436877Y-87190177D01*
X52339791Y-87141634D01*
X52295098Y-87096941D01*
X52242318Y-86991381D01*
X52184649Y-86760704D01*
X52184649Y-86469649D01*
X52242318Y-86238972D01*
X52295097Y-86133414D01*
X52339791Y-86088720D01*
X52436878Y-86040177D01*
X52525278Y-86040177D01*
X52622364Y-86088720D01*
G37*
G36*
X58208604Y-90010882D02*
G01*
X44772600Y-90010882D01*
X44772600Y-88476806D01*
X44917044Y-88476806D01*
X44917044Y-88506070D01*
X44928243Y-88533106D01*
X44948935Y-88553798D01*
X44975971Y-88564997D01*
X44990603Y-88566438D01*
X45225127Y-88566438D01*
X45225127Y-89154685D01*
X45182320Y-89240298D01*
X45096707Y-89283104D01*
X44990603Y-89283104D01*
X44975971Y-89284545D01*
X44948935Y-89295744D01*
X44928243Y-89316436D01*
X44917044Y-89343472D01*
X44917044Y-89372736D01*
X44928243Y-89399772D01*
X44948935Y-89420464D01*
X44975971Y-89431663D01*
X44990603Y-89433104D01*
X45114412Y-89433104D01*
X45129044Y-89431663D01*
X45131533Y-89430631D01*
X45134221Y-89430441D01*
X45147953Y-89425186D01*
X45271762Y-89363282D01*
X45274208Y-89361742D01*
X45275364Y-89361357D01*
X45276802Y-89360109D01*
X45284205Y-89355450D01*
X45290365Y-89348346D01*
X45297472Y-89342184D01*
X45302131Y-89334781D01*
X45303379Y-89333343D01*
X45303764Y-89332187D01*
X45305304Y-89329741D01*
X45367209Y-89205931D01*
X45372464Y-89192199D01*
X45372654Y-89189511D01*
X45373686Y-89187022D01*
X45375127Y-89172390D01*
X45375127Y-88739057D01*
X45782269Y-88739057D01*
X45782269Y-89110485D01*
X45783710Y-89125117D01*
X45784741Y-89127606D01*
X45784932Y-89130294D01*
X45790187Y-89144026D01*
X45852092Y-89267836D01*
X45856055Y-89274132D01*
X45856814Y-89275963D01*
X45858505Y-89278024D01*
X45859925Y-89280279D01*
X45861420Y-89281575D01*
X45866141Y-89287328D01*
X45928046Y-89349233D01*
X45933796Y-89353953D01*
X45935095Y-89355450D01*
X45937349Y-89356869D01*
X45939411Y-89358561D01*
X45941243Y-89359319D01*
X45947538Y-89363282D01*
X46071347Y-89425186D01*
X46085079Y-89430441D01*
X46087766Y-89430631D01*
X46090256Y-89431663D01*
X46104888Y-89433104D01*
X46290602Y-89433104D01*
X46305234Y-89431663D01*
X46307723Y-89430631D01*
X46310411Y-89430441D01*
X46324143Y-89425186D01*
X46447952Y-89363282D01*
X46454249Y-89359318D01*
X46456080Y-89358560D01*
X46458140Y-89356869D01*
X46460395Y-89355450D01*
X46461692Y-89353953D01*
X46467445Y-89349233D01*
X46529350Y-89287328D01*
X46534072Y-89281574D01*
X46535567Y-89280278D01*
X46536984Y-89278026D01*
X46538678Y-89275963D01*
X46539437Y-89274129D01*
X46543399Y-89267836D01*
X46605303Y-89144026D01*
X46610558Y-89130294D01*
X46610748Y-89127606D01*
X46611780Y-89125117D01*
X46613221Y-89110485D01*
X46613221Y-88924771D01*
X46958460Y-88924771D01*
X46958460Y-89110485D01*
X46959901Y-89125117D01*
X46960932Y-89127606D01*
X46961123Y-89130294D01*
X46966378Y-89144026D01*
X47028282Y-89267835D01*
X47032245Y-89274132D01*
X47033004Y-89275963D01*
X47034694Y-89278023D01*
X47036114Y-89280278D01*
X47037610Y-89281575D01*
X47042331Y-89287328D01*
X47104236Y-89349233D01*
X47109989Y-89353955D01*
X47111286Y-89355450D01*
X47113537Y-89356867D01*
X47115601Y-89358561D01*
X47117434Y-89359320D01*
X47123728Y-89363282D01*
X47247538Y-89425186D01*
X47261270Y-89430441D01*
X47263957Y-89430631D01*
X47266447Y-89431663D01*
X47281079Y-89433104D01*
X47776317Y-89433104D01*
X47790949Y-89431663D01*
X47817985Y-89420464D01*
X47838677Y-89399772D01*
X47849876Y-89372736D01*
X47851317Y-89358104D01*
X47851317Y-88491438D01*
X48320364Y-88491438D01*
X48320364Y-89543819D01*
X48321805Y-89558451D01*
X48322835Y-89560939D01*
X48323027Y-89563629D01*
X48328282Y-89577360D01*
X48390187Y-89701169D01*
X48394149Y-89707463D01*
X48394908Y-89709295D01*
X48396601Y-89711357D01*
X48398020Y-89713612D01*
X48399515Y-89714908D01*
X48404236Y-89720661D01*
X48466139Y-89782565D01*
X48471888Y-89787283D01*
X48473189Y-89788783D01*
X48475448Y-89790205D01*
X48477505Y-89791893D01*
X48479332Y-89792650D01*
X48485632Y-89796615D01*
X48609442Y-89858520D01*
X48623174Y-89863775D01*
X48625861Y-89863965D01*
X48628351Y-89864997D01*
X48642983Y-89866438D01*
X48828697Y-89866438D01*
X48843329Y-89864997D01*
X48845818Y-89863965D01*
X48848506Y-89863775D01*
X48862238Y-89858520D01*
X48986048Y-89796615D01*
X48998491Y-89788782D01*
X49017664Y-89766675D01*
X49026918Y-89738914D01*
X49024844Y-89709724D01*
X49011757Y-89683549D01*
X48989649Y-89664376D01*
X48961888Y-89655122D01*
X48932698Y-89657196D01*
X48918966Y-89662451D01*
X48810992Y-89716438D01*
X48660688Y-89716438D01*
X48563600Y-89667894D01*
X48518908Y-89623201D01*
X48470364Y-89526113D01*
X48470364Y-89417552D01*
X48485632Y-89425186D01*
X48499364Y-89430441D01*
X48502051Y-89430631D01*
X48504541Y-89431663D01*
X48519173Y-89433104D01*
X48766792Y-89433104D01*
X48781424Y-89431663D01*
X48783913Y-89430631D01*
X48786601Y-89430441D01*
X48800333Y-89425186D01*
X48924142Y-89363282D01*
X48930439Y-89359318D01*
X48932270Y-89358560D01*
X48934330Y-89356869D01*
X48936585Y-89355450D01*
X48937882Y-89353953D01*
X48943635Y-89349233D01*
X49005540Y-89287328D01*
X49010262Y-89281574D01*
X49011757Y-89280278D01*
X49013174Y-89278026D01*
X49014868Y-89275963D01*
X49015627Y-89274129D01*
X49019589Y-89267836D01*
X49081493Y-89144026D01*
X49086748Y-89130294D01*
X49086938Y-89127606D01*
X49087970Y-89125117D01*
X49089411Y-89110485D01*
X49089411Y-88739057D01*
X49087970Y-88724425D01*
X49086938Y-88721935D01*
X49086748Y-88719248D01*
X49081493Y-88705516D01*
X49067311Y-88677152D01*
X49496554Y-88677152D01*
X49496554Y-89358104D01*
X49497995Y-89372736D01*
X49509194Y-89399772D01*
X49529886Y-89420464D01*
X49556922Y-89431663D01*
X49586186Y-89431663D01*
X49613222Y-89420464D01*
X49626273Y-89407412D01*
X49661822Y-89425186D01*
X49675554Y-89430441D01*
X49678241Y-89430631D01*
X49680731Y-89431663D01*
X49695363Y-89433104D01*
X50004887Y-89433104D01*
X50019519Y-89431663D01*
X50022008Y-89430631D01*
X50024696Y-89430441D01*
X50038428Y-89425186D01*
X50162237Y-89363282D01*
X50164683Y-89361742D01*
X50165839Y-89361357D01*
X50167277Y-89360109D01*
X50174680Y-89355450D01*
X50180843Y-89348344D01*
X50187947Y-89342183D01*
X50192605Y-89334782D01*
X50193854Y-89333343D01*
X50194239Y-89332186D01*
X50195779Y-89329741D01*
X50257683Y-89205931D01*
X50262938Y-89192199D01*
X50263128Y-89189511D01*
X50264160Y-89187022D01*
X50265601Y-89172390D01*
X50265601Y-89048580D01*
X50264160Y-89033948D01*
X50263128Y-89031458D01*
X50262938Y-89028771D01*
X50257683Y-89015039D01*
X50195779Y-88891230D01*
X50194238Y-88888782D01*
X50193854Y-88887629D01*
X50192608Y-88886192D01*
X50187947Y-88878787D01*
X50180840Y-88872623D01*
X50174681Y-88865522D01*
X50167277Y-88860861D01*
X50165839Y-88859614D01*
X50164684Y-88859229D01*
X50162238Y-88857689D01*
X50038428Y-88795784D01*
X50024696Y-88790529D01*
X50022008Y-88790338D01*
X50019519Y-88789307D01*
X50004887Y-88787866D01*
X49713068Y-88787866D01*
X49646554Y-88754608D01*
X49646554Y-88694857D01*
X49689360Y-88609243D01*
X49774972Y-88566438D01*
X49987182Y-88566438D01*
X50095156Y-88620424D01*
X50108888Y-88625679D01*
X50138078Y-88627753D01*
X50165839Y-88618499D01*
X50187947Y-88599325D01*
X50201034Y-88573151D01*
X50203108Y-88543961D01*
X50193854Y-88516199D01*
X50174680Y-88494092D01*
X50162237Y-88486260D01*
X50038428Y-88424356D01*
X50024696Y-88419101D01*
X50022008Y-88418910D01*
X50019519Y-88417879D01*
X50004887Y-88416438D01*
X49757268Y-88416438D01*
X49742636Y-88417879D01*
X49740146Y-88418910D01*
X49737459Y-88419101D01*
X49723727Y-88424356D01*
X49599918Y-88486260D01*
X49597470Y-88487800D01*
X49596317Y-88488185D01*
X49594880Y-88489430D01*
X49587475Y-88494092D01*
X49581311Y-88501198D01*
X49574210Y-88507358D01*
X49569549Y-88514761D01*
X49568302Y-88516200D01*
X49567917Y-88517354D01*
X49566377Y-88519801D01*
X49504472Y-88643611D01*
X49499217Y-88657343D01*
X49499026Y-88660030D01*
X49497995Y-88662520D01*
X49496554Y-88677152D01*
X49067311Y-88677152D01*
X49019589Y-88581706D01*
X49015627Y-88575412D01*
X49014868Y-88573579D01*
X49013174Y-88571515D01*
X49011757Y-88569264D01*
X49010262Y-88567967D01*
X49005540Y-88562214D01*
X48943635Y-88500309D01*
X48937882Y-88495588D01*
X48936585Y-88494092D01*
X48934330Y-88492672D01*
X48932270Y-88490982D01*
X48930439Y-88490223D01*
X48924142Y-88486260D01*
X48800333Y-88424356D01*
X48786601Y-88419101D01*
X48783913Y-88418910D01*
X48781424Y-88417879D01*
X48766792Y-88416438D01*
X48519173Y-88416438D01*
X48504541Y-88417879D01*
X48502051Y-88418910D01*
X48499364Y-88419101D01*
X48485632Y-88424356D01*
X48450083Y-88442129D01*
X48437032Y-88429078D01*
X48409996Y-88417879D01*
X48380732Y-88417879D01*
X48353696Y-88429078D01*
X48333004Y-88449770D01*
X48321805Y-88476806D01*
X48320364Y-88491438D01*
X47851317Y-88491438D01*
X47851317Y-88058104D01*
X47849876Y-88043472D01*
X50488471Y-88043472D01*
X50488471Y-88072736D01*
X50499670Y-88099772D01*
X50520362Y-88120464D01*
X50547398Y-88131663D01*
X50562030Y-88133104D01*
X50858458Y-88133104D01*
X50858458Y-89358104D01*
X50859899Y-89372736D01*
X50871098Y-89399772D01*
X50891790Y-89420464D01*
X50918826Y-89431663D01*
X50948090Y-89431663D01*
X50975126Y-89420464D01*
X50995818Y-89399772D01*
X51007017Y-89372736D01*
X51008458Y-89358104D01*
X51008458Y-88476806D01*
X52469423Y-88476806D01*
X52469423Y-88506070D01*
X52480622Y-88533106D01*
X52501314Y-88553798D01*
X52528350Y-88564997D01*
X52542982Y-88566438D01*
X52777506Y-88566438D01*
X52777506Y-89154685D01*
X52734699Y-89240298D01*
X52649086Y-89283104D01*
X52542982Y-89283104D01*
X52528350Y-89284545D01*
X52501314Y-89295744D01*
X52480622Y-89316436D01*
X52469423Y-89343472D01*
X52469423Y-89372736D01*
X52480622Y-89399772D01*
X52501314Y-89420464D01*
X52528350Y-89431663D01*
X52542982Y-89433104D01*
X52666791Y-89433104D01*
X52681423Y-89431663D01*
X52683912Y-89430631D01*
X52686600Y-89430441D01*
X52700332Y-89425186D01*
X52824141Y-89363282D01*
X52826587Y-89361742D01*
X52827743Y-89361357D01*
X52829181Y-89360109D01*
X52836584Y-89355450D01*
X52842744Y-89348346D01*
X52849851Y-89342184D01*
X52854510Y-89334781D01*
X52855758Y-89333343D01*
X52856143Y-89332187D01*
X52857683Y-89329741D01*
X52919588Y-89205931D01*
X52924843Y-89192199D01*
X52925033Y-89189511D01*
X52926065Y-89187022D01*
X52927506Y-89172390D01*
X52927506Y-88677152D01*
X53334649Y-88677152D01*
X53334649Y-88800961D01*
X53336090Y-88815593D01*
X53338901Y-88822381D01*
X53340328Y-88829590D01*
X53344447Y-88835769D01*
X53347289Y-88842629D01*
X53352484Y-88847824D01*
X53356560Y-88853938D01*
X53362730Y-88858070D01*
X53367981Y-88863321D01*
X53374769Y-88866132D01*
X53380875Y-88870222D01*
X53394940Y-88874505D01*
X53953696Y-88986256D01*
X53953696Y-89154686D01*
X53910890Y-89240298D01*
X53825277Y-89283104D01*
X53613067Y-89283104D01*
X53505095Y-89229118D01*
X53491363Y-89223863D01*
X53462173Y-89221789D01*
X53434412Y-89231043D01*
X53412304Y-89250216D01*
X53399217Y-89276391D01*
X53397143Y-89305581D01*
X53406397Y-89333342D01*
X53425570Y-89355450D01*
X53438013Y-89363282D01*
X53561822Y-89425186D01*
X53575554Y-89430441D01*
X53578241Y-89430631D01*
X53580731Y-89431663D01*
X53595363Y-89433104D01*
X53842982Y-89433104D01*
X53857614Y-89431663D01*
X53860103Y-89430631D01*
X53862791Y-89430441D01*
X53876523Y-89425186D01*
X54000332Y-89363282D01*
X54002778Y-89361742D01*
X54003934Y-89361357D01*
X54005372Y-89360109D01*
X54012775Y-89355450D01*
X54018938Y-89348344D01*
X54026042Y-89342183D01*
X54030700Y-89334782D01*
X54031949Y-89333343D01*
X54032334Y-89332186D01*
X54033874Y-89329741D01*
X54095778Y-89205931D01*
X54101033Y-89192199D01*
X54101223Y-89189511D01*
X54102255Y-89187022D01*
X54103696Y-89172390D01*
X54103696Y-88677152D01*
X54102255Y-88662520D01*
X54101223Y-88660030D01*
X54101033Y-88657343D01*
X54095778Y-88643611D01*
X54033874Y-88519801D01*
X54032334Y-88517355D01*
X54031949Y-88516199D01*
X54030700Y-88514759D01*
X54026042Y-88507359D01*
X54018938Y-88501197D01*
X54012775Y-88494092D01*
X54008559Y-88491438D01*
X54510840Y-88491438D01*
X54510840Y-89605723D01*
X54512281Y-89620355D01*
X54513312Y-89622844D01*
X54513503Y-89625532D01*
X54518758Y-89639264D01*
X54580662Y-89763073D01*
X54582201Y-89765519D01*
X54582587Y-89766675D01*
X54583834Y-89768113D01*
X54588494Y-89775516D01*
X54595597Y-89781676D01*
X54601760Y-89788783D01*
X54609162Y-89793442D01*
X54610601Y-89794690D01*
X54611756Y-89795075D01*
X54614203Y-89796615D01*
X54738013Y-89858520D01*
X54751745Y-89863775D01*
X54754432Y-89863965D01*
X54756922Y-89864997D01*
X54771554Y-89866438D01*
X54833459Y-89866438D01*
X54848091Y-89864997D01*
X54875127Y-89853798D01*
X54895819Y-89833106D01*
X54907018Y-89806070D01*
X54907018Y-89776806D01*
X54895819Y-89749770D01*
X54875127Y-89729078D01*
X54848091Y-89717879D01*
X54833459Y-89716438D01*
X54789259Y-89716438D01*
X54703645Y-89673631D01*
X54660840Y-89588018D01*
X54660840Y-88739057D01*
X55067982Y-88739057D01*
X55067982Y-89110485D01*
X55069423Y-89125117D01*
X55070454Y-89127606D01*
X55070645Y-89130294D01*
X55075900Y-89144026D01*
X55137805Y-89267836D01*
X55141768Y-89274132D01*
X55142527Y-89275963D01*
X55144218Y-89278024D01*
X55145638Y-89280279D01*
X55147133Y-89281575D01*
X55151854Y-89287328D01*
X55213759Y-89349233D01*
X55219509Y-89353953D01*
X55220808Y-89355450D01*
X55223062Y-89356869D01*
X55225124Y-89358561D01*
X55226956Y-89359319D01*
X55233251Y-89363282D01*
X55357060Y-89425186D01*
X55370792Y-89430441D01*
X55373479Y-89430631D01*
X55375969Y-89431663D01*
X55390601Y-89433104D01*
X55576315Y-89433104D01*
X55590947Y-89431663D01*
X55593436Y-89430631D01*
X55596124Y-89430441D01*
X55609856Y-89425186D01*
X55733665Y-89363282D01*
X55739962Y-89359318D01*
X55741793Y-89358560D01*
X55743853Y-89356869D01*
X55746108Y-89355450D01*
X55747405Y-89353953D01*
X55753158Y-89349233D01*
X55815063Y-89287328D01*
X55819785Y-89281574D01*
X55821280Y-89280278D01*
X55822697Y-89278026D01*
X55824391Y-89275963D01*
X55825150Y-89274129D01*
X55829112Y-89267836D01*
X55891016Y-89144026D01*
X55896271Y-89130294D01*
X55896461Y-89127606D01*
X55897493Y-89125117D01*
X55898934Y-89110485D01*
X55898934Y-88739057D01*
X55897493Y-88724425D01*
X55896461Y-88721935D01*
X55896271Y-88719248D01*
X55891016Y-88705516D01*
X55829112Y-88581706D01*
X55825150Y-88575412D01*
X55824391Y-88573579D01*
X55822697Y-88571515D01*
X55821280Y-88569264D01*
X55819785Y-88567967D01*
X55815063Y-88562214D01*
X55753158Y-88500309D01*
X55747405Y-88495588D01*
X55746108Y-88494092D01*
X55743853Y-88492672D01*
X55741793Y-88490982D01*
X55739962Y-88490223D01*
X55733665Y-88486260D01*
X55714757Y-88476806D01*
X56121804Y-88476806D01*
X56121804Y-88506070D01*
X56133003Y-88533106D01*
X56153695Y-88553798D01*
X56180731Y-88564997D01*
X56195363Y-88566438D01*
X56301468Y-88566438D01*
X56398555Y-88614981D01*
X56443248Y-88659674D01*
X56491792Y-88756762D01*
X56491792Y-89358104D01*
X56493233Y-89372736D01*
X56504432Y-89399772D01*
X56525124Y-89420464D01*
X56552160Y-89431663D01*
X56581424Y-89431663D01*
X56608460Y-89420464D01*
X56629152Y-89399772D01*
X56640351Y-89372736D01*
X56641792Y-89358104D01*
X56641792Y-88491438D01*
X56640351Y-88476806D01*
X56629152Y-88449770D01*
X56608460Y-88429078D01*
X56581424Y-88417879D01*
X56552160Y-88417879D01*
X56525124Y-88429078D01*
X56504432Y-88449770D01*
X56493233Y-88476806D01*
X56491792Y-88491438D01*
X56491792Y-88496843D01*
X56490262Y-88495588D01*
X56488965Y-88494092D01*
X56486710Y-88492672D01*
X56484650Y-88490982D01*
X56482819Y-88490223D01*
X56476522Y-88486260D01*
X56352714Y-88424356D01*
X56338982Y-88419101D01*
X56336294Y-88418910D01*
X56333805Y-88417879D01*
X56319173Y-88416438D01*
X56195363Y-88416438D01*
X56180731Y-88417879D01*
X56153695Y-88429078D01*
X56133003Y-88449770D01*
X56121804Y-88476806D01*
X55714757Y-88476806D01*
X55609856Y-88424356D01*
X55596124Y-88419101D01*
X55593436Y-88418910D01*
X55590947Y-88417879D01*
X55576315Y-88416438D01*
X55390601Y-88416438D01*
X55375969Y-88417879D01*
X55373479Y-88418910D01*
X55370792Y-88419101D01*
X55357060Y-88424356D01*
X55233251Y-88486260D01*
X55226956Y-88490222D01*
X55225124Y-88490981D01*
X55223062Y-88492672D01*
X55220808Y-88494092D01*
X55219509Y-88495588D01*
X55213759Y-88500309D01*
X55151854Y-88562214D01*
X55147133Y-88567966D01*
X55145638Y-88569263D01*
X55144218Y-88571517D01*
X55142527Y-88573579D01*
X55141768Y-88575409D01*
X55137805Y-88581706D01*
X55075900Y-88705516D01*
X55070645Y-88719248D01*
X55070454Y-88721935D01*
X55069423Y-88724425D01*
X55067982Y-88739057D01*
X54660840Y-88739057D01*
X54660840Y-88491438D01*
X54659399Y-88476806D01*
X54648200Y-88449770D01*
X54627508Y-88429078D01*
X54600472Y-88417879D01*
X54571208Y-88417879D01*
X54544172Y-88429078D01*
X54523480Y-88449770D01*
X54512281Y-88476806D01*
X54510840Y-88491438D01*
X54008559Y-88491438D01*
X54005372Y-88489432D01*
X54003934Y-88488185D01*
X54002778Y-88487799D01*
X54000332Y-88486260D01*
X53876523Y-88424356D01*
X53862791Y-88419101D01*
X53860103Y-88418910D01*
X53857614Y-88417879D01*
X53842982Y-88416438D01*
X53595363Y-88416438D01*
X53580731Y-88417879D01*
X53578241Y-88418910D01*
X53575554Y-88419101D01*
X53561822Y-88424356D01*
X53438013Y-88486260D01*
X53435565Y-88487800D01*
X53434412Y-88488185D01*
X53432975Y-88489430D01*
X53425570Y-88494092D01*
X53419406Y-88501198D01*
X53412305Y-88507358D01*
X53407644Y-88514761D01*
X53406397Y-88516200D01*
X53406012Y-88517354D01*
X53404472Y-88519801D01*
X53342567Y-88643611D01*
X53337312Y-88657343D01*
X53337121Y-88660030D01*
X53336090Y-88662520D01*
X53334649Y-88677152D01*
X52927506Y-88677152D01*
X52927506Y-88566438D01*
X53038220Y-88566438D01*
X53052852Y-88564997D01*
X53079888Y-88553798D01*
X53100580Y-88533106D01*
X53111779Y-88506070D01*
X53111779Y-88476806D01*
X53100580Y-88449770D01*
X53079888Y-88429078D01*
X53052852Y-88417879D01*
X53038220Y-88416438D01*
X52927506Y-88416438D01*
X52927506Y-88305723D01*
X57048935Y-88305723D01*
X57048935Y-88491438D01*
X57050376Y-88506070D01*
X57051407Y-88508559D01*
X57051598Y-88511247D01*
X57056853Y-88524979D01*
X57118757Y-88648787D01*
X57122720Y-88655084D01*
X57123479Y-88656915D01*
X57125169Y-88658975D01*
X57126589Y-88661230D01*
X57128085Y-88662527D01*
X57132806Y-88668280D01*
X57194711Y-88730185D01*
X57200461Y-88734905D01*
X57201760Y-88736402D01*
X57204014Y-88737821D01*
X57206076Y-88739513D01*
X57207908Y-88740271D01*
X57214203Y-88744234D01*
X57338013Y-88806139D01*
X57351745Y-88811394D01*
X57354432Y-88811584D01*
X57356922Y-88812616D01*
X57371554Y-88814057D01*
X57791792Y-88814057D01*
X57791792Y-89358104D01*
X57793233Y-89372736D01*
X57804432Y-89399772D01*
X57825124Y-89420464D01*
X57852160Y-89431663D01*
X57881424Y-89431663D01*
X57908460Y-89420464D01*
X57929152Y-89399772D01*
X57940351Y-89372736D01*
X57941792Y-89358104D01*
X57941792Y-88058104D01*
X57940351Y-88043472D01*
X57929152Y-88016436D01*
X57908460Y-87995744D01*
X57881424Y-87984545D01*
X57866792Y-87983104D01*
X57371554Y-87983104D01*
X57356922Y-87984545D01*
X57354432Y-87985576D01*
X57351745Y-87985767D01*
X57338013Y-87991022D01*
X57214203Y-88052927D01*
X57207908Y-88056889D01*
X57206076Y-88057648D01*
X57204014Y-88059339D01*
X57201760Y-88060759D01*
X57200461Y-88062255D01*
X57194711Y-88066976D01*
X57132806Y-88128881D01*
X57128085Y-88134633D01*
X57126589Y-88135931D01*
X57125169Y-88138185D01*
X57123479Y-88140246D01*
X57122720Y-88142076D01*
X57118757Y-88148374D01*
X57056853Y-88272182D01*
X57051598Y-88285914D01*
X57051407Y-88288601D01*
X57050376Y-88291091D01*
X57048935Y-88305723D01*
X52927506Y-88305723D01*
X52927506Y-88105378D01*
X54450376Y-88105378D01*
X54450376Y-88134640D01*
X54461575Y-88161677D01*
X54470902Y-88173042D01*
X54532807Y-88234947D01*
X54544172Y-88244275D01*
X54563289Y-88252193D01*
X54571208Y-88255473D01*
X54571209Y-88255473D01*
X54600472Y-88255473D01*
X54627508Y-88244275D01*
X54627513Y-88244269D01*
X54638873Y-88234947D01*
X54700777Y-88173042D01*
X54710105Y-88161676D01*
X54719158Y-88139819D01*
X54721303Y-88134641D01*
X54721303Y-88105378D01*
X54710105Y-88078342D01*
X54700777Y-88066976D01*
X54638873Y-88005071D01*
X54627513Y-87995748D01*
X54627508Y-87995743D01*
X54600472Y-87984545D01*
X54571208Y-87984545D01*
X54563289Y-87987824D01*
X54544172Y-87995743D01*
X54532807Y-88005071D01*
X54470902Y-88066976D01*
X54461575Y-88078341D01*
X54450376Y-88105378D01*
X52927506Y-88105378D01*
X52927506Y-88058104D01*
X52926065Y-88043472D01*
X52914866Y-88016436D01*
X52894174Y-87995744D01*
X52867138Y-87984545D01*
X52837874Y-87984545D01*
X52810838Y-87995744D01*
X52790146Y-88016436D01*
X52778947Y-88043472D01*
X52777506Y-88058104D01*
X52777506Y-88416438D01*
X52542982Y-88416438D01*
X52528350Y-88417879D01*
X52501314Y-88429078D01*
X52480622Y-88449770D01*
X52469423Y-88476806D01*
X51008458Y-88476806D01*
X51008458Y-88133104D01*
X51304887Y-88133104D01*
X51319519Y-88131663D01*
X51346555Y-88120464D01*
X51367247Y-88099772D01*
X51378446Y-88072736D01*
X51378446Y-88043472D01*
X51367247Y-88016436D01*
X51346555Y-87995744D01*
X51319519Y-87984545D01*
X51304887Y-87983104D01*
X50562030Y-87983104D01*
X50547398Y-87984545D01*
X50520362Y-87995744D01*
X50499670Y-88016436D01*
X50488471Y-88043472D01*
X47849876Y-88043472D01*
X47838677Y-88016436D01*
X47817985Y-87995744D01*
X47790949Y-87984545D01*
X47776317Y-87983104D01*
X47342983Y-87983104D01*
X47328351Y-87984545D01*
X47325861Y-87985576D01*
X47323174Y-87985767D01*
X47309442Y-87991022D01*
X47185633Y-88052927D01*
X47179340Y-88056888D01*
X47177506Y-88057648D01*
X47175440Y-88059343D01*
X47173190Y-88060760D01*
X47171894Y-88062253D01*
X47166141Y-88066976D01*
X47104236Y-88128881D01*
X47099515Y-88134633D01*
X47098020Y-88135930D01*
X47096600Y-88138184D01*
X47094909Y-88140246D01*
X47094150Y-88142076D01*
X47090187Y-88148373D01*
X47028282Y-88272182D01*
X47023027Y-88285913D01*
X47022835Y-88288602D01*
X47021805Y-88291091D01*
X47020364Y-88305723D01*
X47020364Y-88429533D01*
X47021805Y-88444165D01*
X47022835Y-88446653D01*
X47023027Y-88449343D01*
X47028282Y-88463074D01*
X47090187Y-88586883D01*
X47094150Y-88593179D01*
X47094909Y-88595010D01*
X47096600Y-88597071D01*
X47098020Y-88599326D01*
X47099515Y-88600622D01*
X47104236Y-88606375D01*
X47157713Y-88659852D01*
X47133552Y-88667906D01*
X47120126Y-88673900D01*
X47118090Y-88675665D01*
X47115602Y-88676696D01*
X47104236Y-88686024D01*
X47042331Y-88747928D01*
X47037610Y-88753680D01*
X47036114Y-88754978D01*
X47034694Y-88757232D01*
X47033004Y-88759293D01*
X47032245Y-88761123D01*
X47028282Y-88767421D01*
X46966378Y-88891230D01*
X46961123Y-88904962D01*
X46960932Y-88907649D01*
X46959901Y-88910139D01*
X46958460Y-88924771D01*
X46613221Y-88924771D01*
X46613221Y-88739057D01*
X46611780Y-88724425D01*
X46610748Y-88721935D01*
X46610558Y-88719248D01*
X46605303Y-88705516D01*
X46543399Y-88581706D01*
X46539437Y-88575412D01*
X46538678Y-88573579D01*
X46536984Y-88571515D01*
X46535567Y-88569264D01*
X46534072Y-88567967D01*
X46529350Y-88562214D01*
X46467445Y-88500309D01*
X46461692Y-88495588D01*
X46460395Y-88494092D01*
X46458140Y-88492672D01*
X46456080Y-88490982D01*
X46454249Y-88490223D01*
X46447952Y-88486260D01*
X46324143Y-88424356D01*
X46310411Y-88419101D01*
X46307723Y-88418910D01*
X46305234Y-88417879D01*
X46290602Y-88416438D01*
X46104888Y-88416438D01*
X46090256Y-88417879D01*
X46087766Y-88418910D01*
X46085079Y-88419101D01*
X46071347Y-88424356D01*
X45947538Y-88486260D01*
X45941243Y-88490222D01*
X45939411Y-88490981D01*
X45937349Y-88492672D01*
X45935095Y-88494092D01*
X45933796Y-88495588D01*
X45928046Y-88500309D01*
X45866141Y-88562214D01*
X45861420Y-88567966D01*
X45859925Y-88569263D01*
X45858505Y-88571517D01*
X45856814Y-88573579D01*
X45856055Y-88575409D01*
X45852092Y-88581706D01*
X45790187Y-88705516D01*
X45784932Y-88719248D01*
X45784741Y-88721935D01*
X45783710Y-88724425D01*
X45782269Y-88739057D01*
X45375127Y-88739057D01*
X45375127Y-88566438D01*
X45485841Y-88566438D01*
X45500473Y-88564997D01*
X45527509Y-88553798D01*
X45548201Y-88533106D01*
X45559400Y-88506070D01*
X45559400Y-88476806D01*
X45548201Y-88449770D01*
X45527509Y-88429078D01*
X45500473Y-88417879D01*
X45485841Y-88416438D01*
X45375127Y-88416438D01*
X45375127Y-88058104D01*
X45373686Y-88043472D01*
X45362487Y-88016436D01*
X45341795Y-87995744D01*
X45314759Y-87984545D01*
X45285495Y-87984545D01*
X45258459Y-87995744D01*
X45237767Y-88016436D01*
X45226568Y-88043472D01*
X45225127Y-88058104D01*
X45225127Y-88416438D01*
X44990603Y-88416438D01*
X44975971Y-88417879D01*
X44948935Y-88429078D01*
X44928243Y-88449770D01*
X44917044Y-88476806D01*
X44772600Y-88476806D01*
X44772600Y-86817212D01*
X45659901Y-86817212D01*
X45659901Y-86846476D01*
X45671100Y-86873512D01*
X45691792Y-86894204D01*
X45718828Y-86905403D01*
X45733460Y-86906844D01*
X45844174Y-86906844D01*
X45844174Y-87265177D01*
X45845615Y-87279809D01*
X45856814Y-87306845D01*
X45877506Y-87327537D01*
X45904542Y-87338736D01*
X45933806Y-87338736D01*
X45960842Y-87327537D01*
X45981534Y-87306845D01*
X45992733Y-87279809D01*
X45994174Y-87265177D01*
X45994174Y-86906844D01*
X46538221Y-86906844D01*
X46545620Y-86906115D01*
X46547601Y-86906256D01*
X46549030Y-86905779D01*
X46552853Y-86905403D01*
X46563947Y-86900807D01*
X46575364Y-86897002D01*
X46577402Y-86895233D01*
X46579889Y-86894204D01*
X46588380Y-86885712D01*
X46597471Y-86877828D01*
X46598677Y-86875416D01*
X46600581Y-86873512D01*
X46605178Y-86862413D01*
X46610558Y-86851654D01*
X46610749Y-86848964D01*
X46611780Y-86846476D01*
X46611780Y-86834455D01*
X46612632Y-86822464D01*
X46611780Y-86818717D01*
X46611780Y-86817212D01*
X46611021Y-86815380D01*
X46609372Y-86808127D01*
X46410929Y-86212796D01*
X46958459Y-86212796D01*
X46958459Y-86336606D01*
X46959188Y-86344011D01*
X46959048Y-86345986D01*
X46959638Y-86348583D01*
X46959900Y-86351238D01*
X46960658Y-86353069D01*
X46962308Y-86360323D01*
X47024213Y-86546037D01*
X47030207Y-86559463D01*
X47031973Y-86561499D01*
X47033004Y-86563988D01*
X47042331Y-86575353D01*
X47657155Y-87190177D01*
X47033459Y-87190177D01*
X47018827Y-87191618D01*
X46991791Y-87202817D01*
X46971099Y-87223509D01*
X46959900Y-87250545D01*
X46959900Y-87279809D01*
X46971099Y-87306845D01*
X46991791Y-87327537D01*
X47018827Y-87338736D01*
X47033459Y-87340177D01*
X47838221Y-87340177D01*
X47852853Y-87338736D01*
X47879889Y-87327537D01*
X47900581Y-87306845D01*
X47911780Y-87279809D01*
X47911780Y-87250545D01*
X47900581Y-87223509D01*
X47891254Y-87212144D01*
X47160915Y-86481805D01*
X47153785Y-86460415D01*
X48196554Y-86460415D01*
X48196554Y-86769939D01*
X48196805Y-86772492D01*
X48196643Y-86773585D01*
X48197452Y-86779058D01*
X48197995Y-86784571D01*
X48198417Y-86785592D01*
X48198793Y-86788129D01*
X48260698Y-87035748D01*
X48261083Y-87036827D01*
X48261122Y-87037367D01*
X48263449Y-87043448D01*
X48265645Y-87049594D01*
X48265967Y-87050029D01*
X48266377Y-87051099D01*
X48328282Y-87174909D01*
X48332245Y-87181205D01*
X48333004Y-87183036D01*
X48334695Y-87185097D01*
X48336115Y-87187352D01*
X48337610Y-87188648D01*
X48342331Y-87194401D01*
X48404236Y-87256306D01*
X48409986Y-87261026D01*
X48411285Y-87262523D01*
X48413539Y-87263942D01*
X48415601Y-87265634D01*
X48417433Y-87266392D01*
X48423728Y-87270355D01*
X48547537Y-87332259D01*
X48561269Y-87337514D01*
X48563956Y-87337704D01*
X48566446Y-87338736D01*
X48581078Y-87340177D01*
X48704888Y-87340177D01*
X48719520Y-87338736D01*
X48722009Y-87337704D01*
X48724697Y-87337514D01*
X48738429Y-87332259D01*
X48862237Y-87270355D01*
X48868534Y-87266391D01*
X48870365Y-87265633D01*
X48872425Y-87263942D01*
X48874680Y-87262523D01*
X48875977Y-87261026D01*
X48881730Y-87256306D01*
X48943635Y-87194401D01*
X48948355Y-87188650D01*
X48949852Y-87187352D01*
X48951271Y-87185097D01*
X48952963Y-87183036D01*
X48953721Y-87181203D01*
X48957684Y-87174909D01*
X49019589Y-87051099D01*
X49019998Y-87050029D01*
X49020321Y-87049594D01*
X49022516Y-87043448D01*
X49024844Y-87037367D01*
X49024882Y-87036827D01*
X49025268Y-87035748D01*
X49087172Y-86788129D01*
X49087547Y-86785591D01*
X49087970Y-86784571D01*
X49088511Y-86779068D01*
X49089323Y-86773584D01*
X49089159Y-86772488D01*
X49089411Y-86769939D01*
X49089411Y-86460415D01*
X49089159Y-86457865D01*
X49089323Y-86456770D01*
X49088511Y-86451285D01*
X49087970Y-86445783D01*
X49087547Y-86444762D01*
X49087172Y-86442225D01*
X49029815Y-86212796D01*
X49434649Y-86212796D01*
X49434649Y-86336606D01*
X49435378Y-86344011D01*
X49435238Y-86345986D01*
X49435828Y-86348583D01*
X49436090Y-86351238D01*
X49436848Y-86353069D01*
X49438498Y-86360323D01*
X49500403Y-86546037D01*
X49506397Y-86559463D01*
X49508163Y-86561499D01*
X49509194Y-86563988D01*
X49518521Y-86575353D01*
X50133345Y-87190177D01*
X49509649Y-87190177D01*
X49495017Y-87191618D01*
X49467981Y-87202817D01*
X49447289Y-87223509D01*
X49436090Y-87250545D01*
X49436090Y-87279809D01*
X49447289Y-87306845D01*
X49467981Y-87327537D01*
X49495017Y-87338736D01*
X49509649Y-87340177D01*
X50314411Y-87340177D01*
X50329043Y-87338736D01*
X50356079Y-87327537D01*
X50376771Y-87306845D01*
X50387970Y-87279809D01*
X50387970Y-87250545D01*
X50376771Y-87223509D01*
X50367444Y-87212144D01*
X49637105Y-86481805D01*
X49584649Y-86324435D01*
X49584649Y-86230501D01*
X49633192Y-86133414D01*
X49677886Y-86088720D01*
X49774973Y-86040177D01*
X50049087Y-86040177D01*
X50146174Y-86088720D01*
X50199472Y-86142019D01*
X50210838Y-86151347D01*
X50237874Y-86162546D01*
X50267137Y-86162546D01*
X50294173Y-86151348D01*
X50314866Y-86130655D01*
X50326065Y-86103619D01*
X50326065Y-86074356D01*
X50314867Y-86047320D01*
X50305539Y-86035954D01*
X50243635Y-85974049D01*
X50237882Y-85969328D01*
X50236586Y-85967833D01*
X50234331Y-85966413D01*
X50232270Y-85964722D01*
X50230439Y-85963963D01*
X50224143Y-85960000D01*
X50110531Y-85903194D01*
X50548935Y-85903194D01*
X50554614Y-85931902D01*
X50561531Y-85944876D01*
X51675817Y-87616304D01*
X51685133Y-87627679D01*
X51709448Y-87643962D01*
X51738142Y-87649701D01*
X51766850Y-87644022D01*
X51791199Y-87627790D01*
X51807482Y-87603475D01*
X51813221Y-87574780D01*
X51807542Y-87546072D01*
X51800625Y-87533099D01*
X51085502Y-86460415D01*
X52034649Y-86460415D01*
X52034649Y-86769939D01*
X52034900Y-86772492D01*
X52034738Y-86773585D01*
X52035547Y-86779058D01*
X52036090Y-86784571D01*
X52036512Y-86785592D01*
X52036888Y-86788129D01*
X52098793Y-87035748D01*
X52099178Y-87036827D01*
X52099217Y-87037367D01*
X52101544Y-87043448D01*
X52103740Y-87049594D01*
X52104062Y-87050029D01*
X52104472Y-87051099D01*
X52166377Y-87174909D01*
X52170340Y-87181205D01*
X52171099Y-87183036D01*
X52172790Y-87185097D01*
X52174210Y-87187352D01*
X52175705Y-87188648D01*
X52180426Y-87194401D01*
X52242331Y-87256306D01*
X52248081Y-87261026D01*
X52249380Y-87262523D01*
X52251634Y-87263942D01*
X52253696Y-87265634D01*
X52255528Y-87266392D01*
X52261823Y-87270355D01*
X52385632Y-87332259D01*
X52399364Y-87337514D01*
X52402051Y-87337704D01*
X52404541Y-87338736D01*
X52419173Y-87340177D01*
X52542983Y-87340177D01*
X52557615Y-87338736D01*
X52560104Y-87337704D01*
X52562792Y-87337514D01*
X52576524Y-87332259D01*
X52700332Y-87270355D01*
X52706629Y-87266391D01*
X52708460Y-87265633D01*
X52710520Y-87263942D01*
X52712775Y-87262523D01*
X52714072Y-87261026D01*
X52719825Y-87256306D01*
X52725586Y-87250545D01*
X53274185Y-87250545D01*
X53274185Y-87279809D01*
X53285384Y-87306845D01*
X53306076Y-87327537D01*
X53333112Y-87338736D01*
X53347744Y-87340177D01*
X54090601Y-87340177D01*
X54105233Y-87338736D01*
X54132269Y-87327537D01*
X54152961Y-87306845D01*
X54164160Y-87279809D01*
X54164160Y-87250545D01*
X54152961Y-87223509D01*
X54132269Y-87202817D01*
X54105233Y-87191618D01*
X54090601Y-87190177D01*
X53794173Y-87190177D01*
X53794173Y-86208148D01*
X53913759Y-86327734D01*
X53919511Y-86332454D01*
X53920808Y-86333950D01*
X53923062Y-86335368D01*
X53925125Y-86337062D01*
X53926956Y-86337820D01*
X53933251Y-86341783D01*
X54057060Y-86403688D01*
X54070792Y-86408943D01*
X54099982Y-86411017D01*
X54127743Y-86401763D01*
X54149850Y-86382590D01*
X54162938Y-86356416D01*
X54165012Y-86327226D01*
X54155758Y-86299464D01*
X54136585Y-86277357D01*
X54124142Y-86269524D01*
X54011218Y-86213062D01*
X53901266Y-86103109D01*
X53781577Y-85923575D01*
X53781543Y-85923533D01*
X53781533Y-85923509D01*
X53781477Y-85923453D01*
X53772262Y-85912199D01*
X53766089Y-85908065D01*
X53761218Y-85903194D01*
X54387030Y-85903194D01*
X54392709Y-85931902D01*
X54399626Y-85944876D01*
X55513912Y-87616304D01*
X55523228Y-87627679D01*
X55547543Y-87643962D01*
X55576237Y-87649701D01*
X55604945Y-87644022D01*
X55629294Y-87627790D01*
X55645577Y-87603475D01*
X55651316Y-87574780D01*
X55645637Y-87546072D01*
X55638720Y-87533099D01*
X54758518Y-86212796D01*
X55872744Y-86212796D01*
X55872744Y-86336606D01*
X55873473Y-86344011D01*
X55873333Y-86345986D01*
X55873923Y-86348583D01*
X55874185Y-86351238D01*
X55874943Y-86353069D01*
X55876593Y-86360323D01*
X55938498Y-86546037D01*
X55944492Y-86559463D01*
X55946258Y-86561499D01*
X55947289Y-86563988D01*
X55956616Y-86575353D01*
X56571440Y-87190177D01*
X55947744Y-87190177D01*
X55933112Y-87191618D01*
X55906076Y-87202817D01*
X55885384Y-87223509D01*
X55874185Y-87250545D01*
X55874185Y-87279809D01*
X55885384Y-87306845D01*
X55906076Y-87327537D01*
X55933112Y-87338736D01*
X55947744Y-87340177D01*
X56752506Y-87340177D01*
X56767138Y-87338736D01*
X56794174Y-87327537D01*
X56814866Y-87306845D01*
X56826065Y-87279809D01*
X56826065Y-87250545D01*
X56814866Y-87223509D01*
X56805539Y-87212144D01*
X56075200Y-86481805D01*
X56022744Y-86324435D01*
X56022744Y-86230501D01*
X56031596Y-86212796D01*
X57110839Y-86212796D01*
X57110839Y-86336606D01*
X57111568Y-86344011D01*
X57111428Y-86345986D01*
X57112018Y-86348583D01*
X57112280Y-86351238D01*
X57113038Y-86353069D01*
X57114688Y-86360323D01*
X57176593Y-86546037D01*
X57182587Y-86559463D01*
X57184353Y-86561499D01*
X57185384Y-86563988D01*
X57194711Y-86575353D01*
X57809535Y-87190177D01*
X57185839Y-87190177D01*
X57171207Y-87191618D01*
X57144171Y-87202817D01*
X57123479Y-87223509D01*
X57112280Y-87250545D01*
X57112280Y-87279809D01*
X57123479Y-87306845D01*
X57144171Y-87327537D01*
X57171207Y-87338736D01*
X57185839Y-87340177D01*
X57990601Y-87340177D01*
X58005233Y-87338736D01*
X58032269Y-87327537D01*
X58052961Y-87306845D01*
X58064160Y-87279809D01*
X58064160Y-87250545D01*
X58052961Y-87223509D01*
X58043634Y-87212144D01*
X57313295Y-86481805D01*
X57260839Y-86324435D01*
X57260839Y-86230501D01*
X57309382Y-86133414D01*
X57354076Y-86088720D01*
X57451163Y-86040177D01*
X57725277Y-86040177D01*
X57822364Y-86088720D01*
X57875662Y-86142019D01*
X57887028Y-86151347D01*
X57914064Y-86162546D01*
X57943327Y-86162546D01*
X57970363Y-86151348D01*
X57991056Y-86130655D01*
X58002255Y-86103619D01*
X58002255Y-86074356D01*
X57991057Y-86047320D01*
X57981729Y-86035954D01*
X57919825Y-85974049D01*
X57914072Y-85969328D01*
X57912776Y-85967833D01*
X57910521Y-85966413D01*
X57908460Y-85964722D01*
X57906629Y-85963963D01*
X57900333Y-85960000D01*
X57776523Y-85898095D01*
X57762791Y-85892840D01*
X57760103Y-85892649D01*
X57757614Y-85891618D01*
X57742982Y-85890177D01*
X57433458Y-85890177D01*
X57418826Y-85891618D01*
X57416336Y-85892649D01*
X57413649Y-85892840D01*
X57399917Y-85898095D01*
X57276108Y-85960000D01*
X57269815Y-85963961D01*
X57267981Y-85964721D01*
X57265915Y-85966416D01*
X57263665Y-85967833D01*
X57262369Y-85969326D01*
X57256616Y-85974049D01*
X57194711Y-86035954D01*
X57189990Y-86041706D01*
X57188495Y-86043003D01*
X57187075Y-86045257D01*
X57185384Y-86047319D01*
X57184625Y-86049149D01*
X57180662Y-86055446D01*
X57118757Y-86179255D01*
X57113502Y-86192986D01*
X57113310Y-86195675D01*
X57112280Y-86198164D01*
X57110839Y-86212796D01*
X56031596Y-86212796D01*
X56071287Y-86133414D01*
X56115981Y-86088720D01*
X56213068Y-86040177D01*
X56487182Y-86040177D01*
X56584269Y-86088720D01*
X56637567Y-86142019D01*
X56648933Y-86151347D01*
X56675969Y-86162546D01*
X56705232Y-86162546D01*
X56732268Y-86151348D01*
X56752961Y-86130655D01*
X56764160Y-86103619D01*
X56764160Y-86074356D01*
X56752962Y-86047320D01*
X56743634Y-86035954D01*
X56681730Y-85974049D01*
X56675977Y-85969328D01*
X56674681Y-85967833D01*
X56672426Y-85966413D01*
X56670365Y-85964722D01*
X56668534Y-85963963D01*
X56662238Y-85960000D01*
X56538428Y-85898095D01*
X56524696Y-85892840D01*
X56522008Y-85892649D01*
X56519519Y-85891618D01*
X56504887Y-85890177D01*
X56195363Y-85890177D01*
X56180731Y-85891618D01*
X56178241Y-85892649D01*
X56175554Y-85892840D01*
X56161822Y-85898095D01*
X56038013Y-85960000D01*
X56031720Y-85963961D01*
X56029886Y-85964721D01*
X56027820Y-85966416D01*
X56025570Y-85967833D01*
X56024274Y-85969326D01*
X56018521Y-85974049D01*
X55956616Y-86035954D01*
X55951895Y-86041706D01*
X55950400Y-86043003D01*
X55948980Y-86045257D01*
X55947289Y-86047319D01*
X55946530Y-86049149D01*
X55942567Y-86055446D01*
X55880662Y-86179255D01*
X55875407Y-86192986D01*
X55875215Y-86195675D01*
X55874185Y-86198164D01*
X55872744Y-86212796D01*
X54758518Y-86212796D01*
X54524434Y-85861670D01*
X54515118Y-85850295D01*
X54490803Y-85834012D01*
X54462109Y-85828273D01*
X54433401Y-85833952D01*
X54409052Y-85850185D01*
X54392769Y-85874500D01*
X54387030Y-85903194D01*
X53761218Y-85903194D01*
X53760841Y-85902817D01*
X53754053Y-85900005D01*
X53747947Y-85895916D01*
X53740665Y-85894459D01*
X53733805Y-85891618D01*
X53726457Y-85891618D01*
X53719252Y-85890177D01*
X53711968Y-85891618D01*
X53704541Y-85891618D01*
X53697751Y-85894430D01*
X53690545Y-85895856D01*
X53684365Y-85899975D01*
X53677505Y-85902817D01*
X53672310Y-85908011D01*
X53666195Y-85912088D01*
X53662061Y-85918260D01*
X53656813Y-85923509D01*
X53654001Y-85930296D01*
X53649912Y-85936403D01*
X53648455Y-85943684D01*
X53645614Y-85950545D01*
X53644188Y-85965021D01*
X53644173Y-85965098D01*
X53644178Y-85965124D01*
X53644173Y-85965177D01*
X53644173Y-87190177D01*
X53347744Y-87190177D01*
X53333112Y-87191618D01*
X53306076Y-87202817D01*
X53285384Y-87223509D01*
X53274185Y-87250545D01*
X52725586Y-87250545D01*
X52781730Y-87194401D01*
X52786450Y-87188650D01*
X52787947Y-87187352D01*
X52789366Y-87185097D01*
X52791058Y-87183036D01*
X52791816Y-87181203D01*
X52795779Y-87174909D01*
X52857684Y-87051099D01*
X52858093Y-87050029D01*
X52858416Y-87049594D01*
X52860611Y-87043448D01*
X52862939Y-87037367D01*
X52862977Y-87036827D01*
X52863363Y-87035748D01*
X52925267Y-86788129D01*
X52925642Y-86785591D01*
X52926065Y-86784571D01*
X52926606Y-86779068D01*
X52927418Y-86773584D01*
X52927254Y-86772488D01*
X52927506Y-86769939D01*
X52927506Y-86460415D01*
X52927254Y-86457865D01*
X52927418Y-86456770D01*
X52926606Y-86451285D01*
X52926065Y-86445783D01*
X52925642Y-86444762D01*
X52925267Y-86442225D01*
X52863363Y-86194606D01*
X52862977Y-86193526D01*
X52862939Y-86192987D01*
X52860611Y-86186905D01*
X52858416Y-86180760D01*
X52858093Y-86180324D01*
X52857684Y-86179255D01*
X52795779Y-86055446D01*
X52791817Y-86049153D01*
X52791058Y-86047319D01*
X52789362Y-86045253D01*
X52787946Y-86043003D01*
X52786452Y-86041707D01*
X52781730Y-86035954D01*
X52719825Y-85974049D01*
X52714072Y-85969328D01*
X52712776Y-85967833D01*
X52710521Y-85966413D01*
X52708460Y-85964722D01*
X52706629Y-85963963D01*
X52700333Y-85960000D01*
X52576524Y-85898095D01*
X52562793Y-85892840D01*
X52560103Y-85892648D01*
X52557615Y-85891618D01*
X52542983Y-85890177D01*
X52419173Y-85890177D01*
X52404541Y-85891618D01*
X52402051Y-85892649D01*
X52399364Y-85892840D01*
X52385632Y-85898095D01*
X52261823Y-85960000D01*
X52255530Y-85963961D01*
X52253696Y-85964721D01*
X52251630Y-85966416D01*
X52249380Y-85967833D01*
X52248084Y-85969326D01*
X52242331Y-85974049D01*
X52180426Y-86035954D01*
X52175705Y-86041706D01*
X52174210Y-86043003D01*
X52172790Y-86045257D01*
X52171099Y-86047319D01*
X52170340Y-86049149D01*
X52166377Y-86055446D01*
X52104472Y-86179255D01*
X52104062Y-86180324D01*
X52103740Y-86180760D01*
X52101547Y-86186896D01*
X52099217Y-86192986D01*
X52099178Y-86193526D01*
X52098793Y-86194606D01*
X52036888Y-86442225D01*
X52036512Y-86444761D01*
X52036090Y-86445783D01*
X52035547Y-86451295D01*
X52034738Y-86456769D01*
X52034900Y-86457861D01*
X52034649Y-86460415D01*
X51085502Y-86460415D01*
X50686339Y-85861670D01*
X50677023Y-85850295D01*
X50652708Y-85834012D01*
X50624014Y-85828273D01*
X50595306Y-85833952D01*
X50570957Y-85850185D01*
X50554674Y-85874500D01*
X50548935Y-85903194D01*
X50110531Y-85903194D01*
X50100333Y-85898095D01*
X50086601Y-85892840D01*
X50083913Y-85892649D01*
X50081424Y-85891618D01*
X50066792Y-85890177D01*
X49757268Y-85890177D01*
X49742636Y-85891618D01*
X49740146Y-85892649D01*
X49737459Y-85892840D01*
X49723727Y-85898095D01*
X49599918Y-85960000D01*
X49593625Y-85963961D01*
X49591791Y-85964721D01*
X49589725Y-85966416D01*
X49587475Y-85967833D01*
X49586179Y-85969326D01*
X49580426Y-85974049D01*
X49518521Y-86035954D01*
X49513800Y-86041706D01*
X49512305Y-86043003D01*
X49510885Y-86045257D01*
X49509194Y-86047319D01*
X49508435Y-86049149D01*
X49504472Y-86055446D01*
X49442567Y-86179255D01*
X49437312Y-86192986D01*
X49437120Y-86195675D01*
X49436090Y-86198164D01*
X49434649Y-86212796D01*
X49029815Y-86212796D01*
X49025268Y-86194606D01*
X49024882Y-86193526D01*
X49024844Y-86192987D01*
X49022516Y-86186905D01*
X49020321Y-86180760D01*
X49019998Y-86180324D01*
X49019589Y-86179255D01*
X48957684Y-86055446D01*
X48953722Y-86049153D01*
X48952963Y-86047319D01*
X48951267Y-86045253D01*
X48949851Y-86043003D01*
X48948357Y-86041707D01*
X48943635Y-86035954D01*
X48881730Y-85974049D01*
X48875977Y-85969328D01*
X48874681Y-85967833D01*
X48872426Y-85966413D01*
X48870365Y-85964722D01*
X48868534Y-85963963D01*
X48862238Y-85960000D01*
X48738429Y-85898095D01*
X48724698Y-85892840D01*
X48722008Y-85892648D01*
X48719520Y-85891618D01*
X48704888Y-85890177D01*
X48581078Y-85890177D01*
X48566446Y-85891618D01*
X48563956Y-85892649D01*
X48561269Y-85892840D01*
X48547537Y-85898095D01*
X48423728Y-85960000D01*
X48417435Y-85963961D01*
X48415601Y-85964721D01*
X48413535Y-85966416D01*
X48411285Y-85967833D01*
X48409989Y-85969326D01*
X48404236Y-85974049D01*
X48342331Y-86035954D01*
X48337610Y-86041706D01*
X48336115Y-86043003D01*
X48334695Y-86045257D01*
X48333004Y-86047319D01*
X48332245Y-86049149D01*
X48328282Y-86055446D01*
X48266377Y-86179255D01*
X48265967Y-86180324D01*
X48265645Y-86180760D01*
X48263452Y-86186896D01*
X48261122Y-86192986D01*
X48261083Y-86193526D01*
X48260698Y-86194606D01*
X48198793Y-86442225D01*
X48198417Y-86444761D01*
X48197995Y-86445783D01*
X48197452Y-86451295D01*
X48196643Y-86456769D01*
X48196805Y-86457861D01*
X48196554Y-86460415D01*
X47153785Y-86460415D01*
X47108459Y-86324435D01*
X47108459Y-86230501D01*
X47157002Y-86133414D01*
X47201696Y-86088720D01*
X47298783Y-86040177D01*
X47572897Y-86040177D01*
X47669984Y-86088720D01*
X47723282Y-86142019D01*
X47734648Y-86151347D01*
X47761684Y-86162546D01*
X47790947Y-86162546D01*
X47817983Y-86151348D01*
X47838676Y-86130655D01*
X47849875Y-86103619D01*
X47849875Y-86074356D01*
X47838677Y-86047320D01*
X47829349Y-86035954D01*
X47767445Y-85974049D01*
X47761692Y-85969328D01*
X47760396Y-85967833D01*
X47758141Y-85966413D01*
X47756080Y-85964722D01*
X47754249Y-85963963D01*
X47747953Y-85960000D01*
X47624143Y-85898095D01*
X47610411Y-85892840D01*
X47607723Y-85892649D01*
X47605234Y-85891618D01*
X47590602Y-85890177D01*
X47281078Y-85890177D01*
X47266446Y-85891618D01*
X47263956Y-85892649D01*
X47261269Y-85892840D01*
X47247537Y-85898095D01*
X47123728Y-85960000D01*
X47117435Y-85963961D01*
X47115601Y-85964721D01*
X47113535Y-85966416D01*
X47111285Y-85967833D01*
X47109989Y-85969326D01*
X47104236Y-85974049D01*
X47042331Y-86035954D01*
X47037610Y-86041706D01*
X47036115Y-86043003D01*
X47034695Y-86045257D01*
X47033004Y-86047319D01*
X47032245Y-86049149D01*
X47028282Y-86055446D01*
X46966377Y-86179255D01*
X46961122Y-86192986D01*
X46960930Y-86195675D01*
X46959900Y-86198164D01*
X46958459Y-86212796D01*
X46410929Y-86212796D01*
X46299849Y-85879556D01*
X46293855Y-85866131D01*
X46274681Y-85844023D01*
X46248508Y-85830937D01*
X46219318Y-85828862D01*
X46191556Y-85838116D01*
X46169448Y-85857290D01*
X46156362Y-85883463D01*
X46154287Y-85912653D01*
X46157547Y-85926990D01*
X46434164Y-86756844D01*
X45994174Y-86756844D01*
X45994174Y-86398511D01*
X45992733Y-86383879D01*
X45981534Y-86356843D01*
X45960842Y-86336151D01*
X45933806Y-86324952D01*
X45904542Y-86324952D01*
X45877506Y-86336151D01*
X45856814Y-86356843D01*
X45845615Y-86383879D01*
X45844174Y-86398511D01*
X45844174Y-86756844D01*
X45733460Y-86756844D01*
X45718828Y-86758285D01*
X45691792Y-86769484D01*
X45671100Y-86790176D01*
X45659901Y-86817212D01*
X44772600Y-86817212D01*
X44772600Y-85683829D01*
X58208604Y-85683829D01*
X58208604Y-90010882D01*
G37*
G36*
X67480696Y-90081647D02*
G01*
X67581211Y-90182162D01*
X67635838Y-90400671D01*
X67635838Y-90815537D01*
X67581211Y-91034046D01*
X67480697Y-91134560D01*
X67383610Y-91183104D01*
X67171400Y-91183104D01*
X67074313Y-91134560D01*
X66973799Y-91034046D01*
X66919172Y-90815536D01*
X66919172Y-90400672D01*
X66973799Y-90182162D01*
X67074313Y-90081647D01*
X67171401Y-90033104D01*
X67383610Y-90033104D01*
X67480696Y-90081647D01*
G37*
G36*
X70792982Y-90564057D02*
G01*
X70390449Y-90564057D01*
X70293361Y-90515513D01*
X70248668Y-90470820D01*
X70200125Y-90373733D01*
X70200125Y-90223427D01*
X70248668Y-90126340D01*
X70293361Y-90081648D01*
X70390449Y-90033104D01*
X70792982Y-90033104D01*
X70792982Y-90564057D01*
G37*
G36*
X65964410Y-88471130D02*
G01*
X65561877Y-88471130D01*
X65464789Y-88422586D01*
X65420096Y-88377893D01*
X65371553Y-88280806D01*
X65371553Y-88130500D01*
X65420096Y-88033413D01*
X65464789Y-87988721D01*
X65561877Y-87940177D01*
X65964410Y-87940177D01*
X65964410Y-88471130D01*
G37*
G36*
X67111544Y-88718749D02*
G01*
X66700609Y-88718749D01*
X66906076Y-88102346D01*
X67111544Y-88718749D01*
G37*
G36*
X69525830Y-88718749D02*
G01*
X69114895Y-88718749D01*
X69320362Y-88102346D01*
X69525830Y-88718749D01*
G37*
G36*
X68378696Y-88471130D02*
G01*
X67976163Y-88471130D01*
X67879075Y-88422586D01*
X67834382Y-88377893D01*
X67785839Y-88280806D01*
X67785839Y-88130500D01*
X67834382Y-88033413D01*
X67879075Y-87988721D01*
X67976163Y-87940177D01*
X68378696Y-87940177D01*
X68378696Y-88471130D01*
G37*
G36*
X61909268Y-85895793D02*
G01*
X62009783Y-85996308D01*
X62064410Y-86214817D01*
X62064410Y-86629683D01*
X62009783Y-86848192D01*
X61909269Y-86948706D01*
X61812182Y-86997250D01*
X61599972Y-86997250D01*
X61502885Y-86948706D01*
X61402371Y-86848192D01*
X61347744Y-86629682D01*
X61347744Y-86214818D01*
X61402371Y-85996308D01*
X61502885Y-85895793D01*
X61599973Y-85847250D01*
X61812182Y-85847250D01*
X61909268Y-85895793D01*
G37*
G36*
X67914030Y-85895793D02*
G01*
X68014545Y-85996308D01*
X68069172Y-86214817D01*
X68069172Y-86629683D01*
X68014545Y-86848192D01*
X67914031Y-86948706D01*
X67816944Y-86997250D01*
X67604734Y-86997250D01*
X67507647Y-86948706D01*
X67407133Y-86848192D01*
X67352506Y-86629682D01*
X67352506Y-86214818D01*
X67407133Y-85996308D01*
X67507647Y-85895793D01*
X67604735Y-85847250D01*
X67816944Y-85847250D01*
X67914030Y-85895793D01*
G37*
G36*
X69307268Y-86378203D02*
G01*
X68904735Y-86378203D01*
X68807647Y-86329659D01*
X68762954Y-86284966D01*
X68714411Y-86187879D01*
X68714411Y-86037573D01*
X68762954Y-85940486D01*
X68807647Y-85895794D01*
X68904735Y-85847250D01*
X69307268Y-85847250D01*
X69307268Y-86378203D01*
G37*
G36*
X70454402Y-86625822D02*
G01*
X70043467Y-86625822D01*
X70248934Y-86009419D01*
X70454402Y-86625822D01*
G37*
G36*
X75173140Y-91477548D02*
G01*
X61053300Y-91477548D01*
X61053300Y-89943472D01*
X65656327Y-89943472D01*
X65656327Y-89972736D01*
X65667526Y-89999772D01*
X65688218Y-90020464D01*
X65715254Y-90031663D01*
X65729886Y-90033104D01*
X66026314Y-90033104D01*
X66026314Y-91258104D01*
X66027755Y-91272736D01*
X66038954Y-91299772D01*
X66059646Y-91320464D01*
X66086682Y-91331663D01*
X66115946Y-91331663D01*
X66142982Y-91320464D01*
X66163674Y-91299772D01*
X66174873Y-91272736D01*
X66176314Y-91258104D01*
X66176314Y-90391438D01*
X66769172Y-90391438D01*
X66769172Y-90824771D01*
X66769423Y-90827324D01*
X66769261Y-90828417D01*
X66770070Y-90833890D01*
X66770613Y-90839403D01*
X66771035Y-90840424D01*
X66771411Y-90842961D01*
X66833316Y-91090580D01*
X66838263Y-91104426D01*
X66841582Y-91108906D01*
X66843716Y-91114057D01*
X66853044Y-91125423D01*
X66976853Y-91249233D01*
X66982605Y-91253953D01*
X66983903Y-91255450D01*
X66986158Y-91256869D01*
X66988218Y-91258560D01*
X66990047Y-91259317D01*
X66996345Y-91263282D01*
X67120155Y-91325186D01*
X67133887Y-91330441D01*
X67136574Y-91330631D01*
X67139064Y-91331663D01*
X67153696Y-91333104D01*
X67401315Y-91333104D01*
X67415947Y-91331663D01*
X67418436Y-91330631D01*
X67421124Y-91330441D01*
X67434856Y-91325186D01*
X67558664Y-91263282D01*
X67564961Y-91259318D01*
X67566792Y-91258560D01*
X67568852Y-91256869D01*
X67571107Y-91255450D01*
X67572404Y-91253953D01*
X67578157Y-91249233D01*
X67701967Y-91125423D01*
X67711295Y-91114058D01*
X67713429Y-91108904D01*
X67716748Y-91104426D01*
X67721695Y-91090580D01*
X67783599Y-90842961D01*
X67783974Y-90840423D01*
X67784397Y-90839403D01*
X67784938Y-90833900D01*
X67785750Y-90828416D01*
X67785586Y-90827320D01*
X67785838Y-90824771D01*
X67785838Y-90391438D01*
X67785586Y-90388888D01*
X67785750Y-90387793D01*
X67784938Y-90382308D01*
X67784397Y-90376806D01*
X67783974Y-90375785D01*
X67783599Y-90373248D01*
X67721695Y-90125629D01*
X67716748Y-90111783D01*
X67713429Y-90107304D01*
X67711295Y-90102151D01*
X67701967Y-90090786D01*
X67678464Y-90067283D01*
X68132518Y-90067283D01*
X68132518Y-90096546D01*
X68143717Y-90123582D01*
X68164410Y-90144275D01*
X68191446Y-90155473D01*
X68220709Y-90155473D01*
X68247745Y-90144274D01*
X68259110Y-90134947D01*
X68308495Y-90085560D01*
X68465866Y-90033104D01*
X68565335Y-90033104D01*
X68722704Y-90085560D01*
X68825390Y-90188246D01*
X68878169Y-90293804D01*
X68935838Y-90524480D01*
X68935838Y-90691727D01*
X68878169Y-90922404D01*
X68825390Y-91027963D01*
X68722704Y-91130648D01*
X68565335Y-91183104D01*
X68465868Y-91183104D01*
X68308495Y-91130647D01*
X68259110Y-91081262D01*
X68247745Y-91071935D01*
X68220709Y-91060736D01*
X68191446Y-91060736D01*
X68164410Y-91071934D01*
X68143717Y-91092627D01*
X68132518Y-91119663D01*
X68132518Y-91148926D01*
X68143716Y-91175962D01*
X68153044Y-91187328D01*
X68214947Y-91249232D01*
X68226313Y-91258560D01*
X68228803Y-91259591D01*
X68230839Y-91261357D01*
X68244264Y-91267351D01*
X68429979Y-91329255D01*
X68437232Y-91330904D01*
X68439064Y-91331663D01*
X68441718Y-91331924D01*
X68444316Y-91332515D01*
X68446290Y-91332374D01*
X68453696Y-91333104D01*
X68577505Y-91333104D01*
X68584910Y-91332374D01*
X68586885Y-91332515D01*
X68589482Y-91331924D01*
X68592137Y-91331663D01*
X68593968Y-91330904D01*
X68601222Y-91329255D01*
X68786936Y-91267351D01*
X68800362Y-91261357D01*
X68802398Y-91259590D01*
X68804887Y-91258560D01*
X68816252Y-91249233D01*
X68940062Y-91125423D01*
X68944782Y-91119672D01*
X68946279Y-91118374D01*
X68947698Y-91116119D01*
X68949390Y-91114058D01*
X68950148Y-91112225D01*
X68954111Y-91105931D01*
X69016016Y-90982121D01*
X69016425Y-90981051D01*
X69016748Y-90980616D01*
X69018943Y-90974470D01*
X69021271Y-90968389D01*
X69021309Y-90967849D01*
X69021695Y-90966770D01*
X69083599Y-90719151D01*
X69083974Y-90716613D01*
X69084397Y-90715593D01*
X69084938Y-90710090D01*
X69085750Y-90704606D01*
X69085586Y-90703510D01*
X69085838Y-90700961D01*
X69085838Y-90515247D01*
X69085586Y-90512697D01*
X69085750Y-90511602D01*
X69084938Y-90506117D01*
X69084397Y-90500615D01*
X69083974Y-90499594D01*
X69083599Y-90497057D01*
X69021695Y-90249438D01*
X69021309Y-90248358D01*
X69021271Y-90247819D01*
X69018943Y-90241737D01*
X69016748Y-90235592D01*
X69016425Y-90235156D01*
X69016016Y-90234087D01*
X68954111Y-90110278D01*
X68950149Y-90103985D01*
X68949390Y-90102151D01*
X68947694Y-90100085D01*
X68946278Y-90097835D01*
X68944784Y-90096539D01*
X68940062Y-90090786D01*
X68816252Y-89966976D01*
X68805441Y-89958104D01*
X69492982Y-89958104D01*
X69492982Y-91258104D01*
X69494423Y-91272736D01*
X69505622Y-91299772D01*
X69526314Y-91320464D01*
X69553350Y-91331663D01*
X69582614Y-91331663D01*
X69609650Y-91320464D01*
X69630342Y-91299772D01*
X69641541Y-91272736D01*
X69642982Y-91258104D01*
X69642982Y-90205723D01*
X70050125Y-90205723D01*
X70050125Y-90391438D01*
X70051566Y-90406070D01*
X70052597Y-90408559D01*
X70052788Y-90411247D01*
X70058043Y-90424979D01*
X70119947Y-90548787D01*
X70123910Y-90555084D01*
X70124669Y-90556915D01*
X70126359Y-90558975D01*
X70127779Y-90561230D01*
X70129275Y-90562527D01*
X70133996Y-90568280D01*
X70195901Y-90630185D01*
X70201651Y-90634905D01*
X70202950Y-90636402D01*
X70205204Y-90637821D01*
X70207266Y-90639513D01*
X70209098Y-90640271D01*
X70215393Y-90644234D01*
X70339203Y-90706139D01*
X70352935Y-90711394D01*
X70355622Y-90711584D01*
X70358112Y-90712616D01*
X70372744Y-90714057D01*
X70414408Y-90714057D01*
X70063683Y-91215094D01*
X70056472Y-91227908D01*
X70050143Y-91256479D01*
X70055228Y-91285296D01*
X70070955Y-91309975D01*
X70094929Y-91326757D01*
X70123500Y-91333086D01*
X70152317Y-91328001D01*
X70176996Y-91312274D01*
X70186567Y-91301114D01*
X70597507Y-90714057D01*
X70792982Y-90714057D01*
X70792982Y-91258104D01*
X70794423Y-91272736D01*
X70805622Y-91299772D01*
X70826314Y-91320464D01*
X70853350Y-91331663D01*
X70882614Y-91331663D01*
X70909650Y-91320464D01*
X70930342Y-91299772D01*
X70941541Y-91272736D01*
X70942982Y-91258104D01*
X70942982Y-89958104D01*
X70941541Y-89943472D01*
X71289661Y-89943472D01*
X71289661Y-89972736D01*
X71300860Y-89999772D01*
X71321552Y-90020464D01*
X71348588Y-90031663D01*
X71363220Y-90033104D01*
X71907268Y-90033104D01*
X71907268Y-90502152D01*
X71548934Y-90502152D01*
X71534302Y-90503593D01*
X71507266Y-90514792D01*
X71486574Y-90535484D01*
X71475375Y-90562520D01*
X71475375Y-90591784D01*
X71486574Y-90618820D01*
X71507266Y-90639512D01*
X71534302Y-90650711D01*
X71548934Y-90652152D01*
X71907268Y-90652152D01*
X71907268Y-91258104D01*
X71908709Y-91272736D01*
X71919908Y-91299772D01*
X71940600Y-91320464D01*
X71967636Y-91331663D01*
X71996900Y-91331663D01*
X72023936Y-91320464D01*
X72044628Y-91299772D01*
X72055827Y-91272736D01*
X72057268Y-91258104D01*
X72057268Y-91181569D01*
X73456328Y-91181569D01*
X73456328Y-91210832D01*
X73467527Y-91237868D01*
X73476854Y-91249233D01*
X73538759Y-91311137D01*
X73550125Y-91320465D01*
X73565316Y-91326757D01*
X73577160Y-91331663D01*
X73577161Y-91331663D01*
X73606423Y-91331663D01*
X73606424Y-91331663D01*
X73633460Y-91320464D01*
X73644825Y-91311137D01*
X73706729Y-91249233D01*
X73716056Y-91237868D01*
X73727255Y-91210832D01*
X73727255Y-91181569D01*
X73724933Y-91175963D01*
X73716057Y-91154533D01*
X73706729Y-91143167D01*
X73644825Y-91081262D01*
X73633465Y-91071939D01*
X73633460Y-91071934D01*
X73606424Y-91060736D01*
X73577160Y-91060736D01*
X73569241Y-91064015D01*
X73550124Y-91071934D01*
X73538759Y-91081262D01*
X73476854Y-91143167D01*
X73467527Y-91154532D01*
X73467526Y-91154533D01*
X73456328Y-91181569D01*
X72057268Y-91181569D01*
X72057268Y-90067283D01*
X74075376Y-90067283D01*
X74075376Y-90096546D01*
X74086575Y-90123582D01*
X74107268Y-90144275D01*
X74134304Y-90155473D01*
X74163567Y-90155473D01*
X74190603Y-90144274D01*
X74201968Y-90134947D01*
X74251353Y-90085560D01*
X74408724Y-90033104D01*
X74508193Y-90033104D01*
X74665562Y-90085560D01*
X74768248Y-90188246D01*
X74821027Y-90293804D01*
X74878696Y-90524480D01*
X74878696Y-90691727D01*
X74821027Y-90922404D01*
X74768248Y-91027963D01*
X74665562Y-91130648D01*
X74508193Y-91183104D01*
X74408726Y-91183104D01*
X74251353Y-91130647D01*
X74201968Y-91081262D01*
X74190603Y-91071935D01*
X74163567Y-91060736D01*
X74134304Y-91060736D01*
X74107268Y-91071934D01*
X74086575Y-91092627D01*
X74075376Y-91119663D01*
X74075376Y-91148926D01*
X74086574Y-91175962D01*
X74095902Y-91187328D01*
X74157805Y-91249232D01*
X74169171Y-91258560D01*
X74171661Y-91259591D01*
X74173697Y-91261357D01*
X74187122Y-91267351D01*
X74372837Y-91329255D01*
X74380090Y-91330904D01*
X74381922Y-91331663D01*
X74384576Y-91331924D01*
X74387174Y-91332515D01*
X74389148Y-91332374D01*
X74396554Y-91333104D01*
X74520363Y-91333104D01*
X74527768Y-91332374D01*
X74529743Y-91332515D01*
X74532340Y-91331924D01*
X74534995Y-91331663D01*
X74536826Y-91330904D01*
X74544080Y-91329255D01*
X74729794Y-91267351D01*
X74743220Y-91261357D01*
X74745256Y-91259590D01*
X74747745Y-91258560D01*
X74759110Y-91249233D01*
X74882920Y-91125423D01*
X74887640Y-91119672D01*
X74889137Y-91118374D01*
X74890556Y-91116119D01*
X74892248Y-91114058D01*
X74893006Y-91112225D01*
X74896969Y-91105931D01*
X74958874Y-90982121D01*
X74959283Y-90981051D01*
X74959606Y-90980616D01*
X74961801Y-90974470D01*
X74964129Y-90968389D01*
X74964167Y-90967849D01*
X74964553Y-90966770D01*
X75026457Y-90719151D01*
X75026832Y-90716613D01*
X75027255Y-90715593D01*
X75027796Y-90710090D01*
X75028608Y-90704606D01*
X75028444Y-90703510D01*
X75028696Y-90700961D01*
X75028696Y-90515247D01*
X75028444Y-90512697D01*
X75028608Y-90511602D01*
X75027796Y-90506117D01*
X75027255Y-90500615D01*
X75026832Y-90499594D01*
X75026457Y-90497057D01*
X74964553Y-90249438D01*
X74964167Y-90248358D01*
X74964129Y-90247819D01*
X74961801Y-90241737D01*
X74959606Y-90235592D01*
X74959283Y-90235156D01*
X74958874Y-90234087D01*
X74896969Y-90110278D01*
X74893007Y-90103985D01*
X74892248Y-90102151D01*
X74890552Y-90100085D01*
X74889136Y-90097835D01*
X74887642Y-90096539D01*
X74882920Y-90090786D01*
X74759110Y-89966976D01*
X74747745Y-89957649D01*
X74745256Y-89956618D01*
X74743220Y-89954852D01*
X74729794Y-89948858D01*
X74544080Y-89886953D01*
X74536826Y-89885303D01*
X74534995Y-89884545D01*
X74532340Y-89884283D01*
X74529743Y-89883693D01*
X74527768Y-89883833D01*
X74520363Y-89883104D01*
X74396554Y-89883104D01*
X74389148Y-89883833D01*
X74387174Y-89883693D01*
X74384576Y-89884283D01*
X74381922Y-89884545D01*
X74380090Y-89885303D01*
X74372837Y-89886953D01*
X74187122Y-89948858D01*
X74173696Y-89954852D01*
X74171659Y-89956618D01*
X74169171Y-89957649D01*
X74157805Y-89966977D01*
X74095902Y-90028881D01*
X74086574Y-90040247D01*
X74075376Y-90067283D01*
X72057268Y-90067283D01*
X72057268Y-89958104D01*
X72055827Y-89943472D01*
X72044628Y-89916436D01*
X72023936Y-89895744D01*
X71996900Y-89884545D01*
X71982268Y-89883104D01*
X71363220Y-89883104D01*
X71348588Y-89884545D01*
X71321552Y-89895744D01*
X71300860Y-89916436D01*
X71289661Y-89943472D01*
X70941541Y-89943472D01*
X70930342Y-89916436D01*
X70909650Y-89895744D01*
X70882614Y-89884545D01*
X70867982Y-89883104D01*
X70372744Y-89883104D01*
X70358112Y-89884545D01*
X70355622Y-89885576D01*
X70352935Y-89885767D01*
X70339203Y-89891022D01*
X70215393Y-89952927D01*
X70209098Y-89956889D01*
X70207266Y-89957648D01*
X70205204Y-89959339D01*
X70202950Y-89960759D01*
X70201651Y-89962255D01*
X70195901Y-89966976D01*
X70133996Y-90028881D01*
X70129275Y-90034633D01*
X70127779Y-90035931D01*
X70126359Y-90038185D01*
X70124669Y-90040246D01*
X70123910Y-90042076D01*
X70119947Y-90048374D01*
X70058043Y-90172182D01*
X70052788Y-90185914D01*
X70052597Y-90188601D01*
X70051566Y-90191091D01*
X70050125Y-90205723D01*
X69642982Y-90205723D01*
X69642982Y-89958104D01*
X69641541Y-89943472D01*
X69630342Y-89916436D01*
X69609650Y-89895744D01*
X69582614Y-89884545D01*
X69553350Y-89884545D01*
X69526314Y-89895744D01*
X69505622Y-89916436D01*
X69494423Y-89943472D01*
X69492982Y-89958104D01*
X68805441Y-89958104D01*
X68804887Y-89957649D01*
X68802398Y-89956618D01*
X68800362Y-89954852D01*
X68786936Y-89948858D01*
X68601222Y-89886953D01*
X68593968Y-89885303D01*
X68592137Y-89884545D01*
X68589482Y-89884283D01*
X68586885Y-89883693D01*
X68584910Y-89883833D01*
X68577505Y-89883104D01*
X68453696Y-89883104D01*
X68446290Y-89883833D01*
X68444316Y-89883693D01*
X68441718Y-89884283D01*
X68439064Y-89884545D01*
X68437232Y-89885303D01*
X68429979Y-89886953D01*
X68244264Y-89948858D01*
X68230838Y-89954852D01*
X68228801Y-89956618D01*
X68226313Y-89957649D01*
X68214947Y-89966977D01*
X68153044Y-90028881D01*
X68143716Y-90040247D01*
X68132518Y-90067283D01*
X67678464Y-90067283D01*
X67578157Y-89966976D01*
X67572404Y-89962255D01*
X67571108Y-89960760D01*
X67568853Y-89959340D01*
X67566792Y-89957649D01*
X67564961Y-89956890D01*
X67558665Y-89952927D01*
X67434856Y-89891022D01*
X67421125Y-89885767D01*
X67418435Y-89885575D01*
X67415947Y-89884545D01*
X67401315Y-89883104D01*
X67153696Y-89883104D01*
X67139064Y-89884545D01*
X67136574Y-89885576D01*
X67133887Y-89885767D01*
X67120155Y-89891022D01*
X66996345Y-89952927D01*
X66990045Y-89956891D01*
X66988218Y-89957649D01*
X66986161Y-89959337D01*
X66983902Y-89960759D01*
X66982602Y-89962257D01*
X66976853Y-89966976D01*
X66853044Y-90090786D01*
X66843716Y-90102152D01*
X66841582Y-90107302D01*
X66838263Y-90111783D01*
X66833316Y-90125629D01*
X66771411Y-90373248D01*
X66771035Y-90375784D01*
X66770613Y-90376806D01*
X66770070Y-90382318D01*
X66769261Y-90387792D01*
X66769423Y-90388884D01*
X66769172Y-90391438D01*
X66176314Y-90391438D01*
X66176314Y-90033104D01*
X66472743Y-90033104D01*
X66487375Y-90031663D01*
X66514411Y-90020464D01*
X66535103Y-89999772D01*
X66546302Y-89972736D01*
X66546302Y-89943472D01*
X66535103Y-89916436D01*
X66514411Y-89895744D01*
X66487375Y-89884545D01*
X66472743Y-89883104D01*
X65729886Y-89883104D01*
X65715254Y-89884545D01*
X65688218Y-89895744D01*
X65667526Y-89916436D01*
X65656327Y-89943472D01*
X61053300Y-89943472D01*
X61053300Y-87850545D01*
X64108708Y-87850545D01*
X64108708Y-87879809D01*
X64119907Y-87906845D01*
X64140599Y-87927537D01*
X64167635Y-87938736D01*
X64182267Y-87940177D01*
X64478695Y-87940177D01*
X64478695Y-89165177D01*
X64480136Y-89179809D01*
X64491335Y-89206845D01*
X64512027Y-89227537D01*
X64539063Y-89238736D01*
X64568327Y-89238736D01*
X64595363Y-89227537D01*
X64616055Y-89206845D01*
X64627254Y-89179809D01*
X64628695Y-89165177D01*
X64628695Y-88112796D01*
X65221553Y-88112796D01*
X65221553Y-88298511D01*
X65222994Y-88313143D01*
X65224025Y-88315632D01*
X65224216Y-88318320D01*
X65229471Y-88332052D01*
X65291375Y-88455860D01*
X65295338Y-88462157D01*
X65296097Y-88463988D01*
X65297787Y-88466048D01*
X65299207Y-88468303D01*
X65300703Y-88469600D01*
X65305424Y-88475353D01*
X65367329Y-88537258D01*
X65373079Y-88541978D01*
X65374378Y-88543475D01*
X65376632Y-88544894D01*
X65378694Y-88546586D01*
X65380526Y-88547344D01*
X65386821Y-88551307D01*
X65510631Y-88613212D01*
X65524363Y-88618467D01*
X65527050Y-88618657D01*
X65529540Y-88619689D01*
X65544172Y-88621130D01*
X65585836Y-88621130D01*
X65235111Y-89122167D01*
X65227900Y-89134981D01*
X65221571Y-89163552D01*
X65226656Y-89192369D01*
X65242383Y-89217048D01*
X65266357Y-89233830D01*
X65294928Y-89240159D01*
X65323745Y-89235074D01*
X65348424Y-89219347D01*
X65357995Y-89208187D01*
X65768935Y-88621130D01*
X65964410Y-88621130D01*
X65964410Y-89165177D01*
X65965851Y-89179809D01*
X65977050Y-89206845D01*
X65997742Y-89227537D01*
X66024778Y-89238736D01*
X66054042Y-89238736D01*
X66081078Y-89227537D01*
X66101770Y-89206845D01*
X66112969Y-89179809D01*
X66114410Y-89165177D01*
X66114410Y-89155797D01*
X66398332Y-89155797D01*
X66400407Y-89184987D01*
X66413493Y-89211160D01*
X66435600Y-89230334D01*
X66463363Y-89239588D01*
X66492553Y-89237513D01*
X66518726Y-89224427D01*
X66537900Y-89202320D01*
X66543894Y-89188894D01*
X66650609Y-88868749D01*
X67161544Y-88868749D01*
X67268259Y-89188894D01*
X67274253Y-89202319D01*
X67293427Y-89224426D01*
X67319600Y-89237513D01*
X67348790Y-89239588D01*
X67376552Y-89230334D01*
X67398660Y-89211160D01*
X67411746Y-89184987D01*
X67413821Y-89155797D01*
X67410561Y-89141460D01*
X67067673Y-88112796D01*
X67635839Y-88112796D01*
X67635839Y-88298511D01*
X67637280Y-88313143D01*
X67638311Y-88315632D01*
X67638502Y-88318320D01*
X67643757Y-88332052D01*
X67705661Y-88455860D01*
X67709624Y-88462157D01*
X67710383Y-88463988D01*
X67712073Y-88466048D01*
X67713493Y-88468303D01*
X67714989Y-88469600D01*
X67719710Y-88475353D01*
X67781615Y-88537258D01*
X67787365Y-88541978D01*
X67788664Y-88543475D01*
X67790918Y-88544894D01*
X67792980Y-88546586D01*
X67794812Y-88547344D01*
X67801107Y-88551307D01*
X67924917Y-88613212D01*
X67938649Y-88618467D01*
X67941336Y-88618657D01*
X67943826Y-88619689D01*
X67958458Y-88621130D01*
X68378696Y-88621130D01*
X68378696Y-89165177D01*
X68380137Y-89179809D01*
X68391336Y-89206845D01*
X68412028Y-89227537D01*
X68439064Y-89238736D01*
X68468328Y-89238736D01*
X68495364Y-89227537D01*
X68516056Y-89206845D01*
X68527255Y-89179809D01*
X68528696Y-89165177D01*
X68528696Y-89155797D01*
X68812618Y-89155797D01*
X68814693Y-89184987D01*
X68827779Y-89211160D01*
X68849886Y-89230334D01*
X68877649Y-89239588D01*
X68906839Y-89237513D01*
X68933012Y-89224427D01*
X68952186Y-89202320D01*
X68958180Y-89188894D01*
X69064895Y-88868749D01*
X69575830Y-88868749D01*
X69682545Y-89188894D01*
X69688539Y-89202319D01*
X69707713Y-89224426D01*
X69733886Y-89237513D01*
X69763076Y-89239588D01*
X69790838Y-89230334D01*
X69812946Y-89211160D01*
X69826032Y-89184987D01*
X69828107Y-89155797D01*
X69824847Y-89141460D01*
X69399420Y-87865177D01*
X70112030Y-87865177D01*
X70112030Y-89165177D01*
X70113471Y-89179809D01*
X70124670Y-89206845D01*
X70145362Y-89227537D01*
X70172398Y-89238736D01*
X70201662Y-89238736D01*
X70228698Y-89227537D01*
X70249390Y-89206845D01*
X70260589Y-89179809D01*
X70262030Y-89165177D01*
X70262030Y-88559225D01*
X70854887Y-88559225D01*
X70854887Y-89165177D01*
X70856328Y-89179809D01*
X70867527Y-89206845D01*
X70888219Y-89227537D01*
X70915255Y-89238736D01*
X70944519Y-89238736D01*
X70971555Y-89227537D01*
X70992247Y-89206845D01*
X71003446Y-89179809D01*
X71004887Y-89165177D01*
X71004887Y-87974356D01*
X71413471Y-87974356D01*
X71413471Y-88003619D01*
X71424670Y-88030655D01*
X71445363Y-88051348D01*
X71472399Y-88062546D01*
X71501662Y-88062546D01*
X71528698Y-88051347D01*
X71540063Y-88042020D01*
X71589448Y-87992633D01*
X71746819Y-87940177D01*
X71846288Y-87940177D01*
X72003657Y-87992633D01*
X72106343Y-88095319D01*
X72159122Y-88200877D01*
X72216791Y-88431553D01*
X72216791Y-88598800D01*
X72159122Y-88829477D01*
X72106343Y-88935036D01*
X72003657Y-89037721D01*
X71846288Y-89090177D01*
X71746821Y-89090177D01*
X71589448Y-89037720D01*
X71540063Y-88988335D01*
X71528698Y-88979008D01*
X71501662Y-88967809D01*
X71472399Y-88967809D01*
X71445363Y-88979007D01*
X71424670Y-88999700D01*
X71413471Y-89026736D01*
X71413471Y-89055999D01*
X71424669Y-89083035D01*
X71433997Y-89094401D01*
X71495900Y-89156305D01*
X71507266Y-89165633D01*
X71509756Y-89166664D01*
X71511792Y-89168430D01*
X71525217Y-89174424D01*
X71710932Y-89236328D01*
X71718185Y-89237977D01*
X71720017Y-89238736D01*
X71722671Y-89238997D01*
X71725269Y-89239588D01*
X71727243Y-89239447D01*
X71734649Y-89240177D01*
X71858458Y-89240177D01*
X71865863Y-89239447D01*
X71867838Y-89239588D01*
X71870435Y-89238997D01*
X71873090Y-89238736D01*
X71874921Y-89237977D01*
X71882175Y-89236328D01*
X72067889Y-89174424D01*
X72081315Y-89168430D01*
X72083351Y-89166663D01*
X72085840Y-89165633D01*
X72097205Y-89156306D01*
X72164869Y-89088642D01*
X73703947Y-89088642D01*
X73703947Y-89117905D01*
X73715146Y-89144941D01*
X73724473Y-89156306D01*
X73786378Y-89218210D01*
X73797744Y-89227538D01*
X73804495Y-89230334D01*
X73824779Y-89238736D01*
X73824780Y-89238736D01*
X73854042Y-89238736D01*
X73854043Y-89238736D01*
X73881079Y-89227537D01*
X73892444Y-89218210D01*
X73954348Y-89156306D01*
X73959076Y-89150545D01*
X74199185Y-89150545D01*
X74199185Y-89179809D01*
X74210384Y-89206845D01*
X74231076Y-89227537D01*
X74258112Y-89238736D01*
X74272744Y-89240177D01*
X74891792Y-89240177D01*
X74906424Y-89238736D01*
X74933460Y-89227537D01*
X74954152Y-89206845D01*
X74965351Y-89179809D01*
X74965351Y-89179808D01*
X74966792Y-89165177D01*
X74966792Y-87865177D01*
X74965351Y-87850545D01*
X74954152Y-87823509D01*
X74933460Y-87802817D01*
X74906424Y-87791618D01*
X74877160Y-87791618D01*
X74850124Y-87802817D01*
X74829432Y-87823509D01*
X74818233Y-87850545D01*
X74816792Y-87865177D01*
X74816792Y-89090177D01*
X74272744Y-89090177D01*
X74258112Y-89091618D01*
X74231076Y-89102817D01*
X74210384Y-89123509D01*
X74199185Y-89150545D01*
X73959076Y-89150545D01*
X73963675Y-89144941D01*
X73974874Y-89117905D01*
X73974874Y-89088642D01*
X73972552Y-89083036D01*
X73963676Y-89061606D01*
X73954348Y-89050240D01*
X73892444Y-88988335D01*
X73881084Y-88979012D01*
X73881079Y-88979007D01*
X73854043Y-88967809D01*
X73824779Y-88967809D01*
X73816860Y-88971088D01*
X73797743Y-88979007D01*
X73786378Y-88988335D01*
X73724473Y-89050240D01*
X73715146Y-89061605D01*
X73715145Y-89061606D01*
X73703947Y-89088642D01*
X72164869Y-89088642D01*
X72221015Y-89032496D01*
X72225735Y-89026745D01*
X72227232Y-89025447D01*
X72228651Y-89023192D01*
X72230343Y-89021131D01*
X72231101Y-89019298D01*
X72235064Y-89013004D01*
X72296969Y-88889194D01*
X72297378Y-88888124D01*
X72297701Y-88887689D01*
X72299896Y-88881543D01*
X72302224Y-88875462D01*
X72302262Y-88874922D01*
X72302648Y-88873843D01*
X72364552Y-88626224D01*
X72364927Y-88623686D01*
X72365350Y-88622666D01*
X72365891Y-88617163D01*
X72366703Y-88611679D01*
X72366539Y-88610583D01*
X72366791Y-88608034D01*
X72366791Y-88422320D01*
X72366539Y-88419770D01*
X72366703Y-88418675D01*
X72365891Y-88413190D01*
X72365350Y-88407688D01*
X72364927Y-88406667D01*
X72364552Y-88404130D01*
X72302648Y-88156511D01*
X72302262Y-88155431D01*
X72302224Y-88154892D01*
X72299896Y-88148810D01*
X72297701Y-88142665D01*
X72297378Y-88142229D01*
X72296969Y-88141160D01*
X72235064Y-88017351D01*
X72231102Y-88011058D01*
X72230343Y-88009224D01*
X72228647Y-88007158D01*
X72227231Y-88004908D01*
X72225737Y-88003612D01*
X72221015Y-87997859D01*
X72097205Y-87874049D01*
X72085840Y-87864722D01*
X72083351Y-87863691D01*
X72081315Y-87861925D01*
X72067889Y-87855931D01*
X71882175Y-87794026D01*
X71874921Y-87792376D01*
X71873090Y-87791618D01*
X71870435Y-87791356D01*
X71867838Y-87790766D01*
X71865863Y-87790906D01*
X71858458Y-87790177D01*
X71734649Y-87790177D01*
X71727243Y-87790906D01*
X71725269Y-87790766D01*
X71722671Y-87791356D01*
X71720017Y-87791618D01*
X71718185Y-87792376D01*
X71710932Y-87794026D01*
X71525217Y-87855931D01*
X71511791Y-87861925D01*
X71509754Y-87863691D01*
X71507266Y-87864722D01*
X71495900Y-87874050D01*
X71433997Y-87935954D01*
X71424669Y-87947320D01*
X71413471Y-87974356D01*
X71004887Y-87974356D01*
X71004887Y-87865177D01*
X71003446Y-87850545D01*
X70992247Y-87823509D01*
X70971555Y-87802817D01*
X70944519Y-87791618D01*
X70915255Y-87791618D01*
X70888219Y-87802817D01*
X70867527Y-87823509D01*
X70856328Y-87850545D01*
X70854887Y-87865177D01*
X70854887Y-88409225D01*
X70262030Y-88409225D01*
X70262030Y-87865177D01*
X70260589Y-87850545D01*
X70249390Y-87823509D01*
X70228698Y-87802817D01*
X70201662Y-87791618D01*
X70172398Y-87791618D01*
X70145362Y-87802817D01*
X70124670Y-87823509D01*
X70113471Y-87850545D01*
X70112030Y-87865177D01*
X69399420Y-87865177D01*
X69391514Y-87841460D01*
X69385520Y-87828034D01*
X69382010Y-87823987D01*
X69379613Y-87819193D01*
X69372504Y-87813027D01*
X69366346Y-87805927D01*
X69361557Y-87803532D01*
X69357506Y-87800019D01*
X69348576Y-87797042D01*
X69340173Y-87792841D01*
X69334832Y-87792461D01*
X69329743Y-87790765D01*
X69320355Y-87791432D01*
X69310983Y-87790766D01*
X69305901Y-87792459D01*
X69300553Y-87792840D01*
X69292139Y-87797046D01*
X69283220Y-87800020D01*
X69279172Y-87803530D01*
X69274380Y-87805927D01*
X69268217Y-87813031D01*
X69261113Y-87819194D01*
X69258717Y-87823985D01*
X69255206Y-87828034D01*
X69249212Y-87841459D01*
X68815878Y-89141460D01*
X68812618Y-89155797D01*
X68528696Y-89155797D01*
X68528696Y-87865177D01*
X68527255Y-87850545D01*
X68516056Y-87823509D01*
X68495364Y-87802817D01*
X68468328Y-87791618D01*
X68453696Y-87790177D01*
X67958458Y-87790177D01*
X67943826Y-87791618D01*
X67941336Y-87792649D01*
X67938649Y-87792840D01*
X67924917Y-87798095D01*
X67801107Y-87860000D01*
X67794812Y-87863962D01*
X67792980Y-87864721D01*
X67790918Y-87866412D01*
X67788664Y-87867832D01*
X67787365Y-87869328D01*
X67781615Y-87874049D01*
X67719710Y-87935954D01*
X67714989Y-87941706D01*
X67713493Y-87943004D01*
X67712073Y-87945258D01*
X67710383Y-87947319D01*
X67709624Y-87949149D01*
X67705661Y-87955447D01*
X67643757Y-88079255D01*
X67638502Y-88092987D01*
X67638311Y-88095674D01*
X67637280Y-88098164D01*
X67635839Y-88112796D01*
X67067673Y-88112796D01*
X66977228Y-87841460D01*
X66971234Y-87828034D01*
X66967724Y-87823987D01*
X66965327Y-87819193D01*
X66958218Y-87813027D01*
X66952060Y-87805927D01*
X66947271Y-87803532D01*
X66943220Y-87800019D01*
X66934290Y-87797042D01*
X66925887Y-87792841D01*
X66920546Y-87792461D01*
X66915457Y-87790765D01*
X66906069Y-87791432D01*
X66896697Y-87790766D01*
X66891615Y-87792459D01*
X66886267Y-87792840D01*
X66877853Y-87797046D01*
X66868934Y-87800020D01*
X66864886Y-87803530D01*
X66860094Y-87805927D01*
X66853931Y-87813031D01*
X66846827Y-87819194D01*
X66844431Y-87823985D01*
X66840920Y-87828034D01*
X66834926Y-87841459D01*
X66401592Y-89141460D01*
X66398332Y-89155797D01*
X66114410Y-89155797D01*
X66114410Y-87865177D01*
X66112969Y-87850545D01*
X66101770Y-87823509D01*
X66081078Y-87802817D01*
X66054042Y-87791618D01*
X66039410Y-87790177D01*
X65544172Y-87790177D01*
X65529540Y-87791618D01*
X65527050Y-87792649D01*
X65524363Y-87792840D01*
X65510631Y-87798095D01*
X65386821Y-87860000D01*
X65380526Y-87863962D01*
X65378694Y-87864721D01*
X65376632Y-87866412D01*
X65374378Y-87867832D01*
X65373079Y-87869328D01*
X65367329Y-87874049D01*
X65305424Y-87935954D01*
X65300703Y-87941706D01*
X65299207Y-87943004D01*
X65297787Y-87945258D01*
X65296097Y-87947319D01*
X65295338Y-87949149D01*
X65291375Y-87955447D01*
X65229471Y-88079255D01*
X65224216Y-88092987D01*
X65224025Y-88095674D01*
X65222994Y-88098164D01*
X65221553Y-88112796D01*
X64628695Y-88112796D01*
X64628695Y-87940177D01*
X64925124Y-87940177D01*
X64939756Y-87938736D01*
X64966792Y-87927537D01*
X64987484Y-87906845D01*
X64998683Y-87879809D01*
X64998683Y-87850545D01*
X64987484Y-87823509D01*
X64966792Y-87802817D01*
X64939756Y-87791618D01*
X64925124Y-87790177D01*
X64182267Y-87790177D01*
X64167635Y-87791618D01*
X64140599Y-87802817D01*
X64119907Y-87823509D01*
X64108708Y-87850545D01*
X61053300Y-87850545D01*
X61053300Y-86205584D01*
X61197744Y-86205584D01*
X61197744Y-86638917D01*
X61197995Y-86641470D01*
X61197833Y-86642563D01*
X61198642Y-86648036D01*
X61199185Y-86653549D01*
X61199607Y-86654570D01*
X61199983Y-86657107D01*
X61261888Y-86904726D01*
X61266835Y-86918572D01*
X61270154Y-86923052D01*
X61272288Y-86928203D01*
X61281616Y-86939569D01*
X61405425Y-87063379D01*
X61411177Y-87068099D01*
X61412475Y-87069596D01*
X61414730Y-87071015D01*
X61416790Y-87072706D01*
X61418619Y-87073463D01*
X61424917Y-87077428D01*
X61548727Y-87139332D01*
X61562459Y-87144587D01*
X61565146Y-87144777D01*
X61567636Y-87145809D01*
X61582268Y-87147250D01*
X61829887Y-87147250D01*
X61844519Y-87145809D01*
X61847008Y-87144777D01*
X61849696Y-87144587D01*
X61863428Y-87139332D01*
X61987236Y-87077428D01*
X61993533Y-87073464D01*
X61995364Y-87072706D01*
X61997424Y-87071015D01*
X61999679Y-87069596D01*
X62000976Y-87068099D01*
X62006729Y-87063379D01*
X62012490Y-87057618D01*
X62437280Y-87057618D01*
X62437280Y-87086882D01*
X62448479Y-87113918D01*
X62469171Y-87134610D01*
X62496207Y-87145809D01*
X62510839Y-87147250D01*
X63129887Y-87147250D01*
X63144519Y-87145809D01*
X63171555Y-87134610D01*
X63192247Y-87113918D01*
X63203446Y-87086882D01*
X63203446Y-87086881D01*
X63204887Y-87072250D01*
X63204887Y-87057618D01*
X63489661Y-87057618D01*
X63489661Y-87086882D01*
X63500860Y-87113918D01*
X63521552Y-87134610D01*
X63548588Y-87145809D01*
X63563220Y-87147250D01*
X64182268Y-87147250D01*
X64196900Y-87145809D01*
X64223936Y-87134610D01*
X64244628Y-87113918D01*
X64255827Y-87086882D01*
X64255827Y-87086881D01*
X64257268Y-87072250D01*
X64257268Y-85772250D01*
X64255827Y-85757618D01*
X64665851Y-85757618D01*
X64665851Y-85786882D01*
X64677050Y-85813918D01*
X64697742Y-85834610D01*
X64724778Y-85845809D01*
X64739410Y-85847250D01*
X65283458Y-85847250D01*
X65283458Y-86316298D01*
X64925124Y-86316298D01*
X64910492Y-86317739D01*
X64883456Y-86328938D01*
X64862764Y-86349630D01*
X64851565Y-86376666D01*
X64851565Y-86405930D01*
X64862764Y-86432966D01*
X64883456Y-86453658D01*
X64910492Y-86464857D01*
X64925124Y-86466298D01*
X65283458Y-86466298D01*
X65283458Y-86997250D01*
X64739410Y-86997250D01*
X64724778Y-86998691D01*
X64697742Y-87009890D01*
X64677050Y-87030582D01*
X64665851Y-87057618D01*
X64665851Y-87086882D01*
X64677050Y-87113918D01*
X64697742Y-87134610D01*
X64724778Y-87145809D01*
X64739410Y-87147250D01*
X65358458Y-87147250D01*
X65373090Y-87145809D01*
X65400126Y-87134610D01*
X65420818Y-87113918D01*
X65432017Y-87086882D01*
X65432017Y-87086881D01*
X65433458Y-87072250D01*
X65433458Y-85772250D01*
X65902506Y-85772250D01*
X65902506Y-87072250D01*
X65902876Y-87076013D01*
X65902689Y-87077489D01*
X65903210Y-87079399D01*
X65903947Y-87086882D01*
X65907764Y-87096097D01*
X65910389Y-87105721D01*
X65913316Y-87109501D01*
X65915146Y-87113918D01*
X65922196Y-87120968D01*
X65928306Y-87128858D01*
X65932459Y-87131231D01*
X65935838Y-87134610D01*
X65945050Y-87138426D01*
X65953715Y-87143377D01*
X65958458Y-87143979D01*
X65962874Y-87145809D01*
X65972848Y-87145809D01*
X65982745Y-87147067D01*
X65987357Y-87145809D01*
X65992138Y-87145809D01*
X66001353Y-87141991D01*
X66010977Y-87139367D01*
X66014757Y-87136439D01*
X66019174Y-87134610D01*
X66026224Y-87127559D01*
X66034114Y-87121450D01*
X66038466Y-87115317D01*
X66039866Y-87113918D01*
X66040435Y-87112543D01*
X66042624Y-87109460D01*
X66645363Y-86054667D01*
X66645363Y-87072250D01*
X66646804Y-87086882D01*
X66658003Y-87113918D01*
X66678695Y-87134610D01*
X66705731Y-87145809D01*
X66734995Y-87145809D01*
X66762031Y-87134610D01*
X66782723Y-87113918D01*
X66793922Y-87086882D01*
X66795363Y-87072250D01*
X66795363Y-86205584D01*
X67202506Y-86205584D01*
X67202506Y-86638917D01*
X67202757Y-86641470D01*
X67202595Y-86642563D01*
X67203404Y-86648036D01*
X67203947Y-86653549D01*
X67204369Y-86654570D01*
X67204745Y-86657107D01*
X67266650Y-86904726D01*
X67271597Y-86918572D01*
X67274916Y-86923052D01*
X67277050Y-86928203D01*
X67286378Y-86939569D01*
X67410187Y-87063379D01*
X67415939Y-87068099D01*
X67417237Y-87069596D01*
X67419492Y-87071015D01*
X67421552Y-87072706D01*
X67423381Y-87073463D01*
X67429679Y-87077428D01*
X67553489Y-87139332D01*
X67567221Y-87144587D01*
X67569908Y-87144777D01*
X67572398Y-87145809D01*
X67587030Y-87147250D01*
X67834649Y-87147250D01*
X67849281Y-87145809D01*
X67851770Y-87144777D01*
X67854458Y-87144587D01*
X67868190Y-87139332D01*
X67991998Y-87077428D01*
X67998295Y-87073464D01*
X68000126Y-87072706D01*
X68002186Y-87071015D01*
X68004441Y-87069596D01*
X68005738Y-87068099D01*
X68011491Y-87063379D01*
X68135301Y-86939569D01*
X68144629Y-86928204D01*
X68146763Y-86923050D01*
X68150082Y-86918572D01*
X68155029Y-86904726D01*
X68216933Y-86657107D01*
X68217308Y-86654569D01*
X68217731Y-86653549D01*
X68218272Y-86648046D01*
X68219084Y-86642562D01*
X68218920Y-86641466D01*
X68219172Y-86638917D01*
X68219172Y-86205584D01*
X68218920Y-86203034D01*
X68219084Y-86201939D01*
X68218272Y-86196454D01*
X68217731Y-86190952D01*
X68217308Y-86189931D01*
X68216933Y-86187394D01*
X68175052Y-86019869D01*
X68564411Y-86019869D01*
X68564411Y-86205584D01*
X68565852Y-86220216D01*
X68566883Y-86222705D01*
X68567074Y-86225393D01*
X68572329Y-86239125D01*
X68634233Y-86362933D01*
X68638196Y-86369230D01*
X68638955Y-86371061D01*
X68640645Y-86373121D01*
X68642065Y-86375376D01*
X68643561Y-86376673D01*
X68648282Y-86382426D01*
X68710187Y-86444331D01*
X68715937Y-86449051D01*
X68717236Y-86450548D01*
X68719490Y-86451967D01*
X68721552Y-86453659D01*
X68723384Y-86454417D01*
X68729679Y-86458380D01*
X68853489Y-86520285D01*
X68867221Y-86525540D01*
X68869908Y-86525730D01*
X68872398Y-86526762D01*
X68887030Y-86528203D01*
X68928694Y-86528203D01*
X68577969Y-87029240D01*
X68570758Y-87042054D01*
X68564429Y-87070625D01*
X68569514Y-87099442D01*
X68585241Y-87124121D01*
X68609215Y-87140903D01*
X68637786Y-87147232D01*
X68666603Y-87142147D01*
X68691282Y-87126420D01*
X68700853Y-87115260D01*
X69111793Y-86528203D01*
X69307268Y-86528203D01*
X69307268Y-87072250D01*
X69308709Y-87086882D01*
X69319908Y-87113918D01*
X69340600Y-87134610D01*
X69367636Y-87145809D01*
X69396900Y-87145809D01*
X69423936Y-87134610D01*
X69444628Y-87113918D01*
X69455827Y-87086882D01*
X69457268Y-87072250D01*
X69457268Y-87062870D01*
X69741190Y-87062870D01*
X69743265Y-87092060D01*
X69756351Y-87118233D01*
X69778458Y-87137407D01*
X69806221Y-87146661D01*
X69835411Y-87144586D01*
X69861584Y-87131500D01*
X69880758Y-87109393D01*
X69886752Y-87095967D01*
X69993467Y-86775822D01*
X70504402Y-86775822D01*
X70611117Y-87095967D01*
X70617111Y-87109392D01*
X70636285Y-87131499D01*
X70662458Y-87144586D01*
X70691648Y-87146661D01*
X70719410Y-87137407D01*
X70741518Y-87118233D01*
X70754604Y-87092060D01*
X70756679Y-87062870D01*
X70753419Y-87048533D01*
X70364385Y-85881429D01*
X70980138Y-85881429D01*
X70980138Y-85910692D01*
X70991337Y-85937728D01*
X71012030Y-85958421D01*
X71039066Y-85969619D01*
X71068329Y-85969619D01*
X71095365Y-85958420D01*
X71106730Y-85949093D01*
X71156115Y-85899706D01*
X71313486Y-85847250D01*
X71412955Y-85847250D01*
X71570324Y-85899706D01*
X71673010Y-86002392D01*
X71725789Y-86107950D01*
X71783458Y-86338626D01*
X71783458Y-86505873D01*
X71725789Y-86736550D01*
X71673010Y-86842109D01*
X71570324Y-86944794D01*
X71412955Y-86997250D01*
X71313488Y-86997250D01*
X71156115Y-86944793D01*
X71106730Y-86895408D01*
X71095365Y-86886081D01*
X71068329Y-86874882D01*
X71039066Y-86874882D01*
X71012030Y-86886080D01*
X70991337Y-86906773D01*
X70980138Y-86933809D01*
X70980138Y-86963072D01*
X70991336Y-86990108D01*
X71000664Y-87001474D01*
X71062567Y-87063378D01*
X71073933Y-87072706D01*
X71076423Y-87073737D01*
X71078459Y-87075503D01*
X71091884Y-87081497D01*
X71277599Y-87143401D01*
X71284852Y-87145050D01*
X71286684Y-87145809D01*
X71289338Y-87146070D01*
X71291936Y-87146661D01*
X71293910Y-87146520D01*
X71301316Y-87147250D01*
X71425125Y-87147250D01*
X71432530Y-87146520D01*
X71434505Y-87146661D01*
X71437102Y-87146070D01*
X71439757Y-87145809D01*
X71441588Y-87145050D01*
X71448842Y-87143401D01*
X71634556Y-87081497D01*
X71647982Y-87075503D01*
X71650018Y-87073736D01*
X71652507Y-87072706D01*
X71663872Y-87063379D01*
X71731536Y-86995715D01*
X73270614Y-86995715D01*
X73270614Y-87024978D01*
X73281813Y-87052014D01*
X73291140Y-87063379D01*
X73353045Y-87125283D01*
X73364411Y-87134611D01*
X73375894Y-87139367D01*
X73391446Y-87145809D01*
X73391447Y-87145809D01*
X73420709Y-87145809D01*
X73420710Y-87145809D01*
X73447746Y-87134610D01*
X73459111Y-87125283D01*
X73521015Y-87063379D01*
X73530342Y-87052014D01*
X73541541Y-87024978D01*
X73541541Y-86995715D01*
X73539219Y-86990109D01*
X73530343Y-86968679D01*
X73521015Y-86957313D01*
X73459111Y-86895408D01*
X73447751Y-86886085D01*
X73447746Y-86886080D01*
X73420710Y-86874882D01*
X73391446Y-86874882D01*
X73383527Y-86878161D01*
X73364410Y-86886080D01*
X73353045Y-86895408D01*
X73291140Y-86957313D01*
X73281813Y-86968678D01*
X73281812Y-86968679D01*
X73270614Y-86995715D01*
X71731536Y-86995715D01*
X71787682Y-86939569D01*
X71792402Y-86933818D01*
X71793899Y-86932520D01*
X71795318Y-86930265D01*
X71797010Y-86928204D01*
X71797768Y-86926371D01*
X71801731Y-86920077D01*
X71863636Y-86796267D01*
X71864045Y-86795197D01*
X71864368Y-86794762D01*
X71866563Y-86788616D01*
X71868891Y-86782535D01*
X71868929Y-86781995D01*
X71869315Y-86780916D01*
X71931219Y-86533297D01*
X71931594Y-86530759D01*
X71932017Y-86529739D01*
X71932558Y-86524236D01*
X71933370Y-86518752D01*
X71933206Y-86517656D01*
X71933458Y-86515107D01*
X71933458Y-86329393D01*
X71933206Y-86326843D01*
X71933370Y-86325748D01*
X71932558Y-86320263D01*
X71932017Y-86314761D01*
X71931594Y-86313740D01*
X71931219Y-86311203D01*
X71869315Y-86063584D01*
X71868929Y-86062504D01*
X71868891Y-86061965D01*
X71866563Y-86055883D01*
X71864368Y-86049738D01*
X71864045Y-86049302D01*
X71863636Y-86048233D01*
X71801731Y-85924424D01*
X71797769Y-85918131D01*
X71797010Y-85916297D01*
X71795314Y-85914231D01*
X71793898Y-85911981D01*
X71792404Y-85910685D01*
X71787682Y-85904932D01*
X71663872Y-85781122D01*
X71653061Y-85772250D01*
X73950125Y-85772250D01*
X73950125Y-87072250D01*
X73951566Y-87086882D01*
X73962765Y-87113918D01*
X73983457Y-87134610D01*
X74010493Y-87145809D01*
X74039757Y-87145809D01*
X74066793Y-87134610D01*
X74087485Y-87113918D01*
X74098684Y-87086882D01*
X74100125Y-87072250D01*
X74100125Y-86110318D01*
X74390494Y-86732539D01*
X74393668Y-86737898D01*
X74394328Y-86739711D01*
X74395502Y-86740993D01*
X74397988Y-86745189D01*
X74406397Y-86752889D01*
X74414092Y-86761292D01*
X74417110Y-86762700D01*
X74419569Y-86764952D01*
X74430281Y-86768847D01*
X74440610Y-86773668D01*
X74443938Y-86773814D01*
X74447070Y-86774953D01*
X74458464Y-86774452D01*
X74469846Y-86774952D01*
X74472974Y-86773814D01*
X74476306Y-86773668D01*
X74486641Y-86768844D01*
X74497347Y-86764952D01*
X74499802Y-86762702D01*
X74502824Y-86761293D01*
X74510525Y-86752882D01*
X74518928Y-86745188D01*
X74521411Y-86740995D01*
X74522588Y-86739711D01*
X74523248Y-86737895D01*
X74526422Y-86732538D01*
X74816792Y-86110317D01*
X74816792Y-87072250D01*
X74818233Y-87086882D01*
X74829432Y-87113918D01*
X74850124Y-87134610D01*
X74877160Y-87145809D01*
X74906424Y-87145809D01*
X74933460Y-87134610D01*
X74954152Y-87113918D01*
X74965351Y-87086882D01*
X74966792Y-87072250D01*
X74966792Y-85772250D01*
X74965844Y-85762628D01*
X74965922Y-85760862D01*
X74965577Y-85759913D01*
X74965351Y-85757618D01*
X74960369Y-85745591D01*
X74955922Y-85733361D01*
X74954792Y-85732127D01*
X74954152Y-85730582D01*
X74944946Y-85721376D01*
X74936158Y-85711780D01*
X74934642Y-85711072D01*
X74933460Y-85709890D01*
X74921438Y-85704910D01*
X74909640Y-85699404D01*
X74907968Y-85699330D01*
X74906424Y-85698691D01*
X74893405Y-85698691D01*
X74880404Y-85698120D01*
X74878834Y-85698691D01*
X74877160Y-85698691D01*
X74865133Y-85703672D01*
X74852903Y-85708120D01*
X74851669Y-85709249D01*
X74850124Y-85709890D01*
X74840918Y-85719095D01*
X74831322Y-85727884D01*
X74830147Y-85729866D01*
X74829432Y-85730582D01*
X74828753Y-85732218D01*
X74823828Y-85740534D01*
X74458458Y-86523468D01*
X74093089Y-85740534D01*
X74088163Y-85732218D01*
X74087485Y-85730582D01*
X74086769Y-85729866D01*
X74085595Y-85727884D01*
X74075998Y-85719095D01*
X74066793Y-85709890D01*
X74065247Y-85709249D01*
X74064014Y-85708120D01*
X74051783Y-85703672D01*
X74039757Y-85698691D01*
X74038083Y-85698691D01*
X74036513Y-85698120D01*
X74023512Y-85698691D01*
X74010493Y-85698691D01*
X74008948Y-85699330D01*
X74007277Y-85699404D01*
X73995478Y-85704910D01*
X73983457Y-85709890D01*
X73982274Y-85711072D01*
X73980759Y-85711780D01*
X73971970Y-85721376D01*
X73962765Y-85730582D01*
X73962124Y-85732127D01*
X73960995Y-85733361D01*
X73956547Y-85745591D01*
X73951566Y-85757618D01*
X73951339Y-85759913D01*
X73950995Y-85760862D01*
X73951072Y-85762628D01*
X73950125Y-85772250D01*
X71653061Y-85772250D01*
X71652507Y-85771795D01*
X71650018Y-85770764D01*
X71647982Y-85768998D01*
X71634556Y-85763004D01*
X71448842Y-85701099D01*
X71441588Y-85699449D01*
X71439757Y-85698691D01*
X71437102Y-85698429D01*
X71434505Y-85697839D01*
X71432530Y-85697979D01*
X71425125Y-85697250D01*
X71301316Y-85697250D01*
X71293910Y-85697979D01*
X71291936Y-85697839D01*
X71289338Y-85698429D01*
X71286684Y-85698691D01*
X71284852Y-85699449D01*
X71277599Y-85701099D01*
X71091884Y-85763004D01*
X71078458Y-85768998D01*
X71076421Y-85770764D01*
X71073933Y-85771795D01*
X71062567Y-85781123D01*
X71000664Y-85843027D01*
X70991336Y-85854393D01*
X70980138Y-85881429D01*
X70364385Y-85881429D01*
X70320086Y-85748533D01*
X70314092Y-85735107D01*
X70310582Y-85731060D01*
X70308185Y-85726266D01*
X70301076Y-85720100D01*
X70294918Y-85713000D01*
X70290129Y-85710605D01*
X70286078Y-85707092D01*
X70277148Y-85704115D01*
X70268745Y-85699914D01*
X70263404Y-85699534D01*
X70258315Y-85697838D01*
X70248927Y-85698505D01*
X70239555Y-85697839D01*
X70234473Y-85699532D01*
X70229125Y-85699913D01*
X70220711Y-85704119D01*
X70211792Y-85707093D01*
X70207744Y-85710603D01*
X70202952Y-85713000D01*
X70196789Y-85720104D01*
X70189685Y-85726267D01*
X70187289Y-85731058D01*
X70183778Y-85735107D01*
X70177784Y-85748532D01*
X69744450Y-87048533D01*
X69741190Y-87062870D01*
X69457268Y-87062870D01*
X69457268Y-85772250D01*
X69455827Y-85757618D01*
X69444628Y-85730582D01*
X69423936Y-85709890D01*
X69396900Y-85698691D01*
X69382268Y-85697250D01*
X68887030Y-85697250D01*
X68872398Y-85698691D01*
X68869908Y-85699722D01*
X68867221Y-85699913D01*
X68853489Y-85705168D01*
X68729679Y-85767073D01*
X68723384Y-85771035D01*
X68721552Y-85771794D01*
X68719490Y-85773485D01*
X68717236Y-85774905D01*
X68715937Y-85776401D01*
X68710187Y-85781122D01*
X68648282Y-85843027D01*
X68643561Y-85848779D01*
X68642065Y-85850077D01*
X68640645Y-85852331D01*
X68638955Y-85854392D01*
X68638196Y-85856222D01*
X68634233Y-85862520D01*
X68572329Y-85986328D01*
X68567074Y-86000060D01*
X68566883Y-86002747D01*
X68565852Y-86005237D01*
X68564411Y-86019869D01*
X68175052Y-86019869D01*
X68155029Y-85939775D01*
X68150082Y-85925929D01*
X68146763Y-85921450D01*
X68144629Y-85916297D01*
X68135301Y-85904932D01*
X68011491Y-85781122D01*
X68005738Y-85776401D01*
X68004442Y-85774906D01*
X68002187Y-85773486D01*
X68000126Y-85771795D01*
X67998295Y-85771036D01*
X67991999Y-85767073D01*
X67868190Y-85705168D01*
X67854459Y-85699913D01*
X67851769Y-85699721D01*
X67849281Y-85698691D01*
X67834649Y-85697250D01*
X67587030Y-85697250D01*
X67572398Y-85698691D01*
X67569908Y-85699722D01*
X67567221Y-85699913D01*
X67553489Y-85705168D01*
X67429679Y-85767073D01*
X67423379Y-85771037D01*
X67421552Y-85771795D01*
X67419495Y-85773483D01*
X67417236Y-85774905D01*
X67415936Y-85776403D01*
X67410187Y-85781122D01*
X67286378Y-85904932D01*
X67277050Y-85916298D01*
X67274916Y-85921448D01*
X67271597Y-85925929D01*
X67266650Y-85939775D01*
X67204745Y-86187394D01*
X67204369Y-86189930D01*
X67203947Y-86190952D01*
X67203404Y-86196464D01*
X67202595Y-86201938D01*
X67202757Y-86203030D01*
X67202506Y-86205584D01*
X66795363Y-86205584D01*
X66795363Y-85772250D01*
X66794992Y-85768487D01*
X66795180Y-85767012D01*
X66794659Y-85765101D01*
X66793922Y-85757618D01*
X66790103Y-85748400D01*
X66787480Y-85738780D01*
X66784553Y-85735001D01*
X66782723Y-85730582D01*
X66775666Y-85723525D01*
X66769562Y-85715643D01*
X66765413Y-85713272D01*
X66762031Y-85709890D01*
X66752810Y-85706070D01*
X66744154Y-85701124D01*
X66739414Y-85700521D01*
X66734995Y-85698691D01*
X66725013Y-85698691D01*
X66715124Y-85697434D01*
X66710515Y-85698691D01*
X66705731Y-85698691D01*
X66696513Y-85702509D01*
X66686892Y-85705133D01*
X66683111Y-85708060D01*
X66678695Y-85709890D01*
X66671641Y-85716943D01*
X66663755Y-85723051D01*
X66659403Y-85729181D01*
X66658003Y-85730582D01*
X66657433Y-85731956D01*
X66655245Y-85735040D01*
X66052506Y-86789833D01*
X66052506Y-85772250D01*
X66051065Y-85757618D01*
X66039866Y-85730582D01*
X66019174Y-85709890D01*
X65992138Y-85698691D01*
X65962874Y-85698691D01*
X65935838Y-85709890D01*
X65915146Y-85730582D01*
X65903947Y-85757618D01*
X65902506Y-85772250D01*
X65433458Y-85772250D01*
X65432017Y-85757618D01*
X65420818Y-85730582D01*
X65400126Y-85709890D01*
X65373090Y-85698691D01*
X65358458Y-85697250D01*
X64739410Y-85697250D01*
X64724778Y-85698691D01*
X64697742Y-85709890D01*
X64677050Y-85730582D01*
X64665851Y-85757618D01*
X64255827Y-85757618D01*
X64244628Y-85730582D01*
X64223936Y-85709890D01*
X64196900Y-85698691D01*
X64167636Y-85698691D01*
X64140600Y-85709890D01*
X64119908Y-85730582D01*
X64108709Y-85757618D01*
X64107268Y-85772250D01*
X64107268Y-86997250D01*
X63563220Y-86997250D01*
X63548588Y-86998691D01*
X63521552Y-87009890D01*
X63500860Y-87030582D01*
X63489661Y-87057618D01*
X63204887Y-87057618D01*
X63204887Y-85772250D01*
X63203446Y-85757618D01*
X63192247Y-85730582D01*
X63171555Y-85709890D01*
X63144519Y-85698691D01*
X63115255Y-85698691D01*
X63088219Y-85709890D01*
X63067527Y-85730582D01*
X63056328Y-85757618D01*
X63054887Y-85772250D01*
X63054887Y-86997250D01*
X62510839Y-86997250D01*
X62496207Y-86998691D01*
X62469171Y-87009890D01*
X62448479Y-87030582D01*
X62437280Y-87057618D01*
X62012490Y-87057618D01*
X62130539Y-86939569D01*
X62139867Y-86928204D01*
X62142001Y-86923050D01*
X62145320Y-86918572D01*
X62150267Y-86904726D01*
X62212171Y-86657107D01*
X62212546Y-86654569D01*
X62212969Y-86653549D01*
X62213510Y-86648046D01*
X62214322Y-86642562D01*
X62214158Y-86641466D01*
X62214410Y-86638917D01*
X62214410Y-86205584D01*
X62214158Y-86203034D01*
X62214322Y-86201939D01*
X62213510Y-86196454D01*
X62212969Y-86190952D01*
X62212546Y-86189931D01*
X62212171Y-86187394D01*
X62150267Y-85939775D01*
X62145320Y-85925929D01*
X62142001Y-85921450D01*
X62139867Y-85916297D01*
X62130539Y-85904932D01*
X62006729Y-85781122D01*
X62000976Y-85776401D01*
X61999680Y-85774906D01*
X61997425Y-85773486D01*
X61995364Y-85771795D01*
X61993533Y-85771036D01*
X61987237Y-85767073D01*
X61863428Y-85705168D01*
X61849697Y-85699913D01*
X61847007Y-85699721D01*
X61844519Y-85698691D01*
X61829887Y-85697250D01*
X61582268Y-85697250D01*
X61567636Y-85698691D01*
X61565146Y-85699722D01*
X61562459Y-85699913D01*
X61548727Y-85705168D01*
X61424917Y-85767073D01*
X61418617Y-85771037D01*
X61416790Y-85771795D01*
X61414733Y-85773483D01*
X61412474Y-85774905D01*
X61411174Y-85776403D01*
X61405425Y-85781122D01*
X61281616Y-85904932D01*
X61272288Y-85916298D01*
X61270154Y-85921448D01*
X61266835Y-85925929D01*
X61261888Y-85939775D01*
X61199983Y-86187394D01*
X61199607Y-86189930D01*
X61199185Y-86190952D01*
X61198642Y-86196464D01*
X61197833Y-86201938D01*
X61197995Y-86203030D01*
X61197744Y-86205584D01*
X61053300Y-86205584D01*
X61053300Y-85552806D01*
X75173140Y-85552806D01*
X75173140Y-91477548D01*
G37*
D11*
X79876189Y-54664895D02*
X80142856Y-54283942D01*
X80333332Y-54664895D02*
X80333332Y-53864895D01*
X80333332Y-53864895D02*
X80028570Y-53864895D01*
X80028570Y-53864895D02*
X79952380Y-53902990D01*
X79952380Y-53902990D02*
X79914285Y-53941085D01*
X79914285Y-53941085D02*
X79876189Y-54017276D01*
X79876189Y-54017276D02*
X79876189Y-54131561D01*
X79876189Y-54131561D02*
X79914285Y-54207752D01*
X79914285Y-54207752D02*
X79952380Y-54245847D01*
X79952380Y-54245847D02*
X80028570Y-54283942D01*
X80028570Y-54283942D02*
X80333332Y-54283942D01*
X79533332Y-54664895D02*
X79533332Y-53864895D01*
X78733333Y-53902990D02*
X78809523Y-53864895D01*
X78809523Y-53864895D02*
X78923809Y-53864895D01*
X78923809Y-53864895D02*
X79038095Y-53902990D01*
X79038095Y-53902990D02*
X79114285Y-53979180D01*
X79114285Y-53979180D02*
X79152380Y-54055371D01*
X79152380Y-54055371D02*
X79190476Y-54207752D01*
X79190476Y-54207752D02*
X79190476Y-54322038D01*
X79190476Y-54322038D02*
X79152380Y-54474419D01*
X79152380Y-54474419D02*
X79114285Y-54550609D01*
X79114285Y-54550609D02*
X79038095Y-54626800D01*
X79038095Y-54626800D02*
X78923809Y-54664895D01*
X78923809Y-54664895D02*
X78847618Y-54664895D01*
X78847618Y-54664895D02*
X78733333Y-54626800D01*
X78733333Y-54626800D02*
X78695237Y-54588704D01*
X78695237Y-54588704D02*
X78695237Y-54322038D01*
X78695237Y-54322038D02*
X78847618Y-54322038D01*
X78352380Y-54664895D02*
X78352380Y-53864895D01*
X78352380Y-54245847D02*
X77895237Y-54245847D01*
X77895237Y-54664895D02*
X77895237Y-53864895D01*
X77628571Y-53864895D02*
X77171428Y-53864895D01*
X77400000Y-54664895D02*
X77400000Y-53864895D01*
X77095238Y-54741085D02*
X76485714Y-54741085D01*
X75838094Y-54664895D02*
X76104761Y-54283942D01*
X76295237Y-54664895D02*
X76295237Y-53864895D01*
X76295237Y-53864895D02*
X75990475Y-53864895D01*
X75990475Y-53864895D02*
X75914285Y-53902990D01*
X75914285Y-53902990D02*
X75876190Y-53941085D01*
X75876190Y-53941085D02*
X75838094Y-54017276D01*
X75838094Y-54017276D02*
X75838094Y-54131561D01*
X75838094Y-54131561D02*
X75876190Y-54207752D01*
X75876190Y-54207752D02*
X75914285Y-54245847D01*
X75914285Y-54245847D02*
X75990475Y-54283942D01*
X75990475Y-54283942D02*
X76295237Y-54283942D01*
X75495237Y-54245847D02*
X75228571Y-54245847D01*
X75114285Y-54664895D02*
X75495237Y-54664895D01*
X75495237Y-54664895D02*
X75495237Y-53864895D01*
X75495237Y-53864895D02*
X75114285Y-53864895D01*
X74885713Y-53864895D02*
X74619046Y-54664895D01*
X74619046Y-54664895D02*
X74352380Y-53864895D01*
X72321427Y-52866895D02*
X72588094Y-52485942D01*
X72778570Y-52866895D02*
X72778570Y-52066895D01*
X72778570Y-52066895D02*
X72473808Y-52066895D01*
X72473808Y-52066895D02*
X72397618Y-52104990D01*
X72397618Y-52104990D02*
X72359523Y-52143085D01*
X72359523Y-52143085D02*
X72321427Y-52219276D01*
X72321427Y-52219276D02*
X72321427Y-52333561D01*
X72321427Y-52333561D02*
X72359523Y-52409752D01*
X72359523Y-52409752D02*
X72397618Y-52447847D01*
X72397618Y-52447847D02*
X72473808Y-52485942D01*
X72473808Y-52485942D02*
X72778570Y-52485942D01*
X71978570Y-52866895D02*
X71978570Y-52066895D01*
X71178571Y-52104990D02*
X71254761Y-52066895D01*
X71254761Y-52066895D02*
X71369047Y-52066895D01*
X71369047Y-52066895D02*
X71483333Y-52104990D01*
X71483333Y-52104990D02*
X71559523Y-52181180D01*
X71559523Y-52181180D02*
X71597618Y-52257371D01*
X71597618Y-52257371D02*
X71635714Y-52409752D01*
X71635714Y-52409752D02*
X71635714Y-52524038D01*
X71635714Y-52524038D02*
X71597618Y-52676419D01*
X71597618Y-52676419D02*
X71559523Y-52752609D01*
X71559523Y-52752609D02*
X71483333Y-52828800D01*
X71483333Y-52828800D02*
X71369047Y-52866895D01*
X71369047Y-52866895D02*
X71292856Y-52866895D01*
X71292856Y-52866895D02*
X71178571Y-52828800D01*
X71178571Y-52828800D02*
X71140475Y-52790704D01*
X71140475Y-52790704D02*
X71140475Y-52524038D01*
X71140475Y-52524038D02*
X71292856Y-52524038D01*
X70797618Y-52866895D02*
X70797618Y-52066895D01*
X70797618Y-52447847D02*
X70340475Y-52447847D01*
X70340475Y-52866895D02*
X70340475Y-52066895D01*
X70073809Y-52066895D02*
X69616666Y-52066895D01*
X69845238Y-52866895D02*
X69845238Y-52066895D01*
X69540476Y-52943085D02*
X68930952Y-52943085D01*
X68473809Y-52447847D02*
X68740475Y-52447847D01*
X68740475Y-52866895D02*
X68740475Y-52066895D01*
X68740475Y-52066895D02*
X68359523Y-52066895D01*
X68130952Y-52066895D02*
X67940476Y-52866895D01*
X67940476Y-52866895D02*
X67788095Y-52295466D01*
X67788095Y-52295466D02*
X67635714Y-52866895D01*
X67635714Y-52866895D02*
X67445238Y-52066895D01*
X67140475Y-52866895D02*
X67140475Y-52066895D01*
X67140475Y-52066895D02*
X66949999Y-52066895D01*
X66949999Y-52066895D02*
X66835713Y-52104990D01*
X66835713Y-52104990D02*
X66759523Y-52181180D01*
X66759523Y-52181180D02*
X66721428Y-52257371D01*
X66721428Y-52257371D02*
X66683332Y-52409752D01*
X66683332Y-52409752D02*
X66683332Y-52524038D01*
X66683332Y-52524038D02*
X66721428Y-52676419D01*
X66721428Y-52676419D02*
X66759523Y-52752609D01*
X66759523Y-52752609D02*
X66835713Y-52828800D01*
X66835713Y-52828800D02*
X66949999Y-52866895D01*
X66949999Y-52866895D02*
X67140475Y-52866895D01*
X70816666Y-56814895D02*
X70359523Y-56814895D01*
X70588095Y-57614895D02*
X70588095Y-56814895D01*
X70092856Y-57614895D02*
X70092856Y-56814895D01*
X70092856Y-56814895D02*
X69788094Y-56814895D01*
X69788094Y-56814895D02*
X69711904Y-56852990D01*
X69711904Y-56852990D02*
X69673809Y-56891085D01*
X69673809Y-56891085D02*
X69635713Y-56967276D01*
X69635713Y-56967276D02*
X69635713Y-57081561D01*
X69635713Y-57081561D02*
X69673809Y-57157752D01*
X69673809Y-57157752D02*
X69711904Y-57195847D01*
X69711904Y-57195847D02*
X69788094Y-57233942D01*
X69788094Y-57233942D02*
X70092856Y-57233942D01*
X68911904Y-57614895D02*
X69292856Y-57614895D01*
X69292856Y-57614895D02*
X69292856Y-56814895D01*
X68645237Y-57195847D02*
X68378571Y-57195847D01*
X68264285Y-57614895D02*
X68645237Y-57614895D01*
X68645237Y-57614895D02*
X68645237Y-56814895D01*
X68645237Y-56814895D02*
X68264285Y-56814895D01*
X67654761Y-57195847D02*
X67921427Y-57195847D01*
X67921427Y-57614895D02*
X67921427Y-56814895D01*
X67921427Y-56814895D02*
X67540475Y-56814895D01*
X67349999Y-56814895D02*
X66892856Y-56814895D01*
X67121428Y-57614895D02*
X67121428Y-56814895D01*
X66816666Y-57691085D02*
X66207142Y-57691085D01*
X65749999Y-57195847D02*
X66016665Y-57195847D01*
X66016665Y-57614895D02*
X66016665Y-56814895D01*
X66016665Y-56814895D02*
X65635713Y-56814895D01*
X65407142Y-56814895D02*
X65216666Y-57614895D01*
X65216666Y-57614895D02*
X65064285Y-57043466D01*
X65064285Y-57043466D02*
X64911904Y-57614895D01*
X64911904Y-57614895D02*
X64721428Y-56814895D01*
X64416665Y-57614895D02*
X64416665Y-56814895D01*
X64416665Y-56814895D02*
X64226189Y-56814895D01*
X64226189Y-56814895D02*
X64111903Y-56852990D01*
X64111903Y-56852990D02*
X64035713Y-56929180D01*
X64035713Y-56929180D02*
X63997618Y-57005371D01*
X63997618Y-57005371D02*
X63959522Y-57157752D01*
X63959522Y-57157752D02*
X63959522Y-57272038D01*
X63959522Y-57272038D02*
X63997618Y-57424419D01*
X63997618Y-57424419D02*
X64035713Y-57500609D01*
X64035713Y-57500609D02*
X64111903Y-57576800D01*
X64111903Y-57576800D02*
X64226189Y-57614895D01*
X64226189Y-57614895D02*
X64416665Y-57614895D01*
X67121428Y-50791895D02*
X67502380Y-50791895D01*
X67502380Y-50791895D02*
X67502380Y-49991895D01*
X66854761Y-50372847D02*
X66588095Y-50372847D01*
X66473809Y-50791895D02*
X66854761Y-50791895D01*
X66854761Y-50791895D02*
X66854761Y-49991895D01*
X66854761Y-49991895D02*
X66473809Y-49991895D01*
X65864285Y-50372847D02*
X66130951Y-50372847D01*
X66130951Y-50791895D02*
X66130951Y-49991895D01*
X66130951Y-49991895D02*
X65749999Y-49991895D01*
X65559523Y-49991895D02*
X65102380Y-49991895D01*
X65330952Y-50791895D02*
X65330952Y-49991895D01*
X65026190Y-50868085D02*
X64416666Y-50868085D01*
X63769046Y-50791895D02*
X64035713Y-50410942D01*
X64226189Y-50791895D02*
X64226189Y-49991895D01*
X64226189Y-49991895D02*
X63921427Y-49991895D01*
X63921427Y-49991895D02*
X63845237Y-50029990D01*
X63845237Y-50029990D02*
X63807142Y-50068085D01*
X63807142Y-50068085D02*
X63769046Y-50144276D01*
X63769046Y-50144276D02*
X63769046Y-50258561D01*
X63769046Y-50258561D02*
X63807142Y-50334752D01*
X63807142Y-50334752D02*
X63845237Y-50372847D01*
X63845237Y-50372847D02*
X63921427Y-50410942D01*
X63921427Y-50410942D02*
X64226189Y-50410942D01*
X63426189Y-50372847D02*
X63159523Y-50372847D01*
X63045237Y-50791895D02*
X63426189Y-50791895D01*
X63426189Y-50791895D02*
X63426189Y-49991895D01*
X63426189Y-49991895D02*
X63045237Y-49991895D01*
X62816665Y-49991895D02*
X62549998Y-50791895D01*
X62549998Y-50791895D02*
X62283332Y-49991895D01*
X69032142Y-67564895D02*
X69032142Y-66764895D01*
X69032142Y-66764895D02*
X68765476Y-67336323D01*
X68765476Y-67336323D02*
X68498809Y-66764895D01*
X68498809Y-66764895D02*
X68498809Y-67564895D01*
X68117856Y-67564895D02*
X68117856Y-66764895D01*
X67775000Y-67526800D02*
X67660714Y-67564895D01*
X67660714Y-67564895D02*
X67470238Y-67564895D01*
X67470238Y-67564895D02*
X67394047Y-67526800D01*
X67394047Y-67526800D02*
X67355952Y-67488704D01*
X67355952Y-67488704D02*
X67317857Y-67412514D01*
X67317857Y-67412514D02*
X67317857Y-67336323D01*
X67317857Y-67336323D02*
X67355952Y-67260133D01*
X67355952Y-67260133D02*
X67394047Y-67222038D01*
X67394047Y-67222038D02*
X67470238Y-67183942D01*
X67470238Y-67183942D02*
X67622619Y-67145847D01*
X67622619Y-67145847D02*
X67698809Y-67107752D01*
X67698809Y-67107752D02*
X67736904Y-67069657D01*
X67736904Y-67069657D02*
X67775000Y-66993466D01*
X67775000Y-66993466D02*
X67775000Y-66917276D01*
X67775000Y-66917276D02*
X67736904Y-66841085D01*
X67736904Y-66841085D02*
X67698809Y-66802990D01*
X67698809Y-66802990D02*
X67622619Y-66764895D01*
X67622619Y-66764895D02*
X67432142Y-66764895D01*
X67432142Y-66764895D02*
X67317857Y-66802990D01*
X66822618Y-66764895D02*
X66670237Y-66764895D01*
X66670237Y-66764895D02*
X66594047Y-66802990D01*
X66594047Y-66802990D02*
X66517856Y-66879180D01*
X66517856Y-66879180D02*
X66479761Y-67031561D01*
X66479761Y-67031561D02*
X66479761Y-67298228D01*
X66479761Y-67298228D02*
X66517856Y-67450609D01*
X66517856Y-67450609D02*
X66594047Y-67526800D01*
X66594047Y-67526800D02*
X66670237Y-67564895D01*
X66670237Y-67564895D02*
X66822618Y-67564895D01*
X66822618Y-67564895D02*
X66898809Y-67526800D01*
X66898809Y-67526800D02*
X66974999Y-67450609D01*
X66974999Y-67450609D02*
X67013095Y-67298228D01*
X67013095Y-67298228D02*
X67013095Y-67031561D01*
X67013095Y-67031561D02*
X66974999Y-66879180D01*
X66974999Y-66879180D02*
X66898809Y-66802990D01*
X66898809Y-66802990D02*
X66822618Y-66764895D01*
D12*
%TO.C,MISO*%
X67225000Y-68900000D02*
G75*
G02*
X65325000Y-68900000I-950000J0D01*
G01*
X65325000Y-68900000D02*
G75*
G02*
X67225000Y-68900000I950000J0D01*
G01*
%TD*%
M02*
