%TF.GenerationSoftware,KiCad,Pcbnew,8.0.5*%
%TF.CreationDate,2024-10-22T23:27:25+02:00*%
%TF.ProjectId,TagBot,54616742-6f74-42e6-9b69-6361645f7063,rev?*%
%TF.SameCoordinates,Original*%
%TF.FileFunction,Copper,L2,Inr*%
%TF.FilePolarity,Positive*%
%FSLAX46Y46*%
G04 Gerber Fmt 4.6, Leading zero omitted, Abs format (unit mm)*
G04 Created by KiCad (PCBNEW 8.0.5) date 2024-10-22 23:27:25*
%MOMM*%
%LPD*%
G01*
G04 APERTURE LIST*
G04 Aperture macros list*
%AMRoundRect*
0 Rectangle with rounded corners*
0 $1 Rounding radius*
0 $2 $3 $4 $5 $6 $7 $8 $9 X,Y pos of 4 corners*
0 Add a 4 corners polygon primitive as box body*
4,1,4,$2,$3,$4,$5,$6,$7,$8,$9,$2,$3,0*
0 Add four circle primitives for the rounded corners*
1,1,$1+$1,$2,$3*
1,1,$1+$1,$4,$5*
1,1,$1+$1,$6,$7*
1,1,$1+$1,$8,$9*
0 Add four rect primitives between the rounded corners*
20,1,$1+$1,$2,$3,$4,$5,0*
20,1,$1+$1,$4,$5,$6,$7,0*
20,1,$1+$1,$6,$7,$8,$9,0*
20,1,$1+$1,$8,$9,$2,$3,0*%
G04 Aperture macros list end*
%TA.AperFunction,ComponentPad*%
%ADD10C,2.775000*%
%TD*%
%TA.AperFunction,ComponentPad*%
%ADD11RoundRect,0.250000X-0.600000X-0.750000X0.600000X-0.750000X0.600000X0.750000X-0.600000X0.750000X0*%
%TD*%
%TA.AperFunction,ComponentPad*%
%ADD12O,1.700000X2.000000*%
%TD*%
%TA.AperFunction,ComponentPad*%
%ADD13C,0.800000*%
%TD*%
%TA.AperFunction,ComponentPad*%
%ADD14C,6.400000*%
%TD*%
%TA.AperFunction,ComponentPad*%
%ADD15RoundRect,0.250000X0.600000X0.725000X-0.600000X0.725000X-0.600000X-0.725000X0.600000X-0.725000X0*%
%TD*%
%TA.AperFunction,ComponentPad*%
%ADD16O,1.700000X1.950000*%
%TD*%
%TA.AperFunction,ComponentPad*%
%ADD17RoundRect,0.250000X-0.750000X0.600000X-0.750000X-0.600000X0.750000X-0.600000X0.750000X0.600000X0*%
%TD*%
%TA.AperFunction,ComponentPad*%
%ADD18O,2.000000X1.700000*%
%TD*%
%TA.AperFunction,ComponentPad*%
%ADD19RoundRect,0.250000X0.725000X-0.600000X0.725000X0.600000X-0.725000X0.600000X-0.725000X-0.600000X0*%
%TD*%
%TA.AperFunction,ComponentPad*%
%ADD20O,1.950000X1.700000*%
%TD*%
%TA.AperFunction,ComponentPad*%
%ADD21RoundRect,0.250000X-0.725000X0.600000X-0.725000X-0.600000X0.725000X-0.600000X0.725000X0.600000X0*%
%TD*%
%TA.AperFunction,ComponentPad*%
%ADD22RoundRect,0.250000X-0.600000X-0.725000X0.600000X-0.725000X0.600000X0.725000X-0.600000X0.725000X0*%
%TD*%
%TA.AperFunction,ViaPad*%
%ADD23C,0.500000*%
%TD*%
G04 APERTURE END LIST*
D10*
%TO.N,Net-(J101-Pin_1)*%
%TO.C,charg*%
X39900000Y-81900000D03*
%TO.N,/Valim*%
X39900000Y-77200000D03*
%TO.N,/Vbatterie*%
X39900000Y-72500000D03*
%TD*%
D11*
%TO.N,Net-(J101-Pin_1)*%
%TO.C,Charg*%
X53600000Y-83600000D03*
D12*
%TO.N,GND*%
X56100000Y-83600000D03*
%TD*%
D13*
%TO.N,GND*%
%TO.C,H103*%
X37600000Y-89000000D03*
X38302944Y-87302944D03*
X38302944Y-90697056D03*
X40000000Y-86600000D03*
D14*
X40000000Y-89000000D03*
D13*
X40000000Y-91400000D03*
X41697056Y-87302944D03*
X41697056Y-90697056D03*
X42400000Y-89000000D03*
%TD*%
D15*
%TO.N,/RIGHT_OUT2*%
%TO.C,J1001*%
X77850000Y-45400000D03*
D16*
%TO.N,GND*%
X75350000Y-45400000D03*
%TO.N,/Encoder_Right_A*%
X72850000Y-45400000D03*
%TO.N,/Encoder_Right_B*%
X70350000Y-45400000D03*
%TO.N,+3.3V*%
X67850000Y-45400000D03*
%TO.N,/RIGHT_OUT1*%
X65350000Y-45400000D03*
%TD*%
D13*
%TO.N,GND*%
%TO.C,H101*%
X37600000Y-40000000D03*
X38302944Y-38302944D03*
X38302944Y-41697056D03*
X40000000Y-37600000D03*
D14*
X40000000Y-40000000D03*
D13*
X40000000Y-42400000D03*
X41697056Y-38302944D03*
X41697056Y-41697056D03*
X42400000Y-40000000D03*
%TD*%
D17*
%TO.N,/Vbatterie*%
%TO.C,Batt*%
X45400000Y-64600000D03*
D18*
%TO.N,GND*%
X45400000Y-67100000D03*
%TD*%
D15*
%TO.N,/LEFT_OUT2*%
%TO.C,J1002*%
X59200000Y-45400000D03*
D16*
%TO.N,GND*%
X56700000Y-45400000D03*
%TO.N,/Encoder_Left_A*%
X54200000Y-45400000D03*
%TO.N,/Encoder_Left_B*%
X51700000Y-45400000D03*
%TO.N,+3.3V*%
X49200000Y-45400000D03*
%TO.N,/LEFT_OUT1*%
X46700000Y-45400000D03*
%TD*%
D19*
%TO.N,Net-(J801-Pin_1)*%
%TO.C,LIDAR*%
X80600000Y-72000000D03*
D20*
%TO.N,Net-(J801-Pin_2)*%
X80600000Y-69500000D03*
%TO.N,Net-(J801-Pin_3)*%
X80600000Y-67000000D03*
%TO.N,Net-(J801-Pin_4)*%
X80600000Y-64500000D03*
%TO.N,+5V*%
X80600000Y-62000000D03*
%TO.N,GND*%
X80600000Y-59500000D03*
%TD*%
D21*
%TO.N,/OLED_SDA*%
%TO.C,J1101*%
X45400000Y-51200000D03*
D20*
%TO.N,/OLED_SCL*%
X45400000Y-53700000D03*
%TO.N,+3.3V*%
X45400000Y-56200000D03*
%TO.N,GND*%
X45400000Y-58700000D03*
%TD*%
D13*
%TO.N,GND*%
%TO.C,H104*%
X83600000Y-89000000D03*
X84302944Y-87302944D03*
X84302944Y-90697056D03*
X86000000Y-86600000D03*
D14*
X86000000Y-89000000D03*
D13*
X86000000Y-91400000D03*
X87697056Y-87302944D03*
X87697056Y-90697056D03*
X88400000Y-89000000D03*
%TD*%
%TO.N,GND*%
%TO.C,H102*%
X83600000Y-40000000D03*
X84302944Y-38302944D03*
X84302944Y-41697056D03*
X86000000Y-37600000D03*
D14*
X86000000Y-40000000D03*
D13*
X86000000Y-42400000D03*
X87697056Y-38302944D03*
X87697056Y-41697056D03*
X88400000Y-40000000D03*
%TD*%
D22*
%TO.N,unconnected-(J901-Pin_1-Pad1)*%
%TO.C,J901*%
X62100000Y-83600000D03*
D16*
%TO.N,Net-(J901-Pin_2)*%
X64600000Y-83600000D03*
%TO.N,Net-(J901-Pin_3)*%
X67100000Y-83600000D03*
%TO.N,Net-(J901-Pin_4)*%
X69600000Y-83600000D03*
%TO.N,GND*%
X72100000Y-83600000D03*
%TO.N,/LIDAR_Input*%
X74600000Y-83600000D03*
%TO.N,/LIDAR_Output*%
X77100000Y-83600000D03*
%TO.N,+5V*%
X79600000Y-83600000D03*
%TD*%
D23*
%TO.N,GND*%
X54250000Y-58250000D03*
X68800000Y-81400000D03*
X75850000Y-73150000D03*
X52625000Y-79950000D03*
X59350000Y-72175000D03*
X69000000Y-77750000D03*
X58450000Y-51007500D03*
X71500000Y-44250000D03*
X59550000Y-49507500D03*
X73200000Y-50850000D03*
X78750000Y-81750000D03*
X48900000Y-68500000D03*
X71250000Y-73250000D03*
X56300000Y-58700000D03*
X78100000Y-69900000D03*
X57450000Y-43950000D03*
X56350000Y-64850000D03*
X61250000Y-68750000D03*
X53525000Y-79825000D03*
X59500000Y-71000000D03*
X66800000Y-75500000D03*
X88700000Y-85800000D03*
X47600000Y-91500000D03*
X53000000Y-44000000D03*
X42800000Y-70100000D03*
X74300000Y-49450000D03*
X63950000Y-66050000D03*
X67450000Y-61180000D03*
X54025000Y-79550000D03*
X54350000Y-75900000D03*
X74575000Y-79350000D03*
X61250000Y-71000000D03*
X85200000Y-50700000D03*
X48875000Y-72400000D03*
X66900000Y-74250000D03*
X47750000Y-44000000D03*
X62200000Y-55800000D03*
X40000000Y-45750000D03*
X62750000Y-68750000D03*
X61000000Y-72700000D03*
X74200000Y-74400000D03*
X58500000Y-77750000D03*
X41100000Y-70100000D03*
X78140000Y-48940000D03*
X66000000Y-59800000D03*
X48900000Y-66400000D03*
X46100000Y-70100000D03*
X63750000Y-67250000D03*
X40100000Y-84600000D03*
X48950000Y-49300000D03*
X63750000Y-77000000D03*
X60550000Y-49507500D03*
X66000000Y-62600000D03*
X61050000Y-58175000D03*
X60650000Y-51007500D03*
X72950000Y-78500000D03*
X59550000Y-52307500D03*
X75200000Y-49450000D03*
X80750000Y-56250000D03*
X58500000Y-76500000D03*
X46700000Y-91500000D03*
X52678768Y-51571232D03*
X68900000Y-59800000D03*
X62250000Y-40750000D03*
X58250000Y-80500000D03*
X50300000Y-50550000D03*
X62250000Y-37500000D03*
X37900000Y-84500000D03*
X59175000Y-55875000D03*
X53350000Y-63000000D03*
X66975000Y-48750000D03*
X57450000Y-56100000D03*
X49725000Y-79950000D03*
X56700000Y-63500000D03*
X43250000Y-47750000D03*
X47700000Y-70100000D03*
X66500000Y-44250000D03*
X43200000Y-43700000D03*
X75950000Y-60500000D03*
X43250000Y-91500000D03*
X54150000Y-77600000D03*
X52700000Y-50050000D03*
X75400000Y-50850000D03*
X51000000Y-69750000D03*
X67450000Y-50200000D03*
X68800000Y-62600000D03*
X78950000Y-75250000D03*
X79000000Y-79250000D03*
X85200000Y-52000000D03*
X69300000Y-74400000D03*
X48600000Y-61300000D03*
X76400000Y-43650000D03*
X47450001Y-81750000D03*
X85300000Y-48200000D03*
X48500000Y-55750000D03*
X65675000Y-56175000D03*
X56625000Y-59875000D03*
X42200000Y-85600000D03*
X64500000Y-72075000D03*
X68125000Y-74075000D03*
X73550000Y-67225000D03*
X79150000Y-68050000D03*
X59700000Y-66950000D03*
X53950000Y-78400000D03*
X86500000Y-75500000D03*
X73300000Y-52250000D03*
X75200000Y-52250000D03*
X63925000Y-49050000D03*
X37200000Y-43550000D03*
X83250000Y-85750000D03*
X50000000Y-73500000D03*
X61250000Y-67000000D03*
X62675000Y-72250000D03*
X66000000Y-77250000D03*
X48960000Y-54350000D03*
X85525000Y-76200000D03*
X67321232Y-52021232D03*
X54500000Y-74000000D03*
X71100000Y-75200000D03*
X62250000Y-43500000D03*
X53550000Y-60325000D03*
X71000000Y-81750000D03*
X61250000Y-65500000D03*
X51150000Y-52325000D03*
X53250000Y-48500000D03*
X51800000Y-58200000D03*
X81400000Y-80100000D03*
X58550000Y-52307500D03*
X84750000Y-56250000D03*
X58550000Y-49507500D03*
X48600000Y-63400000D03*
X57925000Y-64550000D03*
X60750000Y-77000000D03*
X59500000Y-68750000D03*
X54850000Y-63000000D03*
X53000000Y-65250000D03*
X77350000Y-65350000D03*
X88000000Y-56250000D03*
X56500000Y-55500000D03*
X73300000Y-49450000D03*
X73100000Y-65975000D03*
X44400000Y-70100000D03*
X49475000Y-51675000D03*
X74300000Y-52250000D03*
X70850000Y-67275000D03*
X48600000Y-59325000D03*
X60550000Y-52307500D03*
X74500000Y-59346036D03*
X54350000Y-71275000D03*
X37250000Y-47750000D03*
X66000000Y-81500000D03*
%TO.N,+3.3V*%
X78125000Y-75900000D03*
X55750000Y-66775000D03*
X61900000Y-58200000D03*
X74046973Y-60056259D03*
X64887306Y-55812694D03*
X74377818Y-67575000D03*
X69975000Y-65675000D03*
X85650000Y-53280000D03*
X55425000Y-66000000D03*
X70100000Y-74300000D03*
X64500000Y-74600000D03*
%TO.N,/BTN_CAT_MOUSE*%
X74600000Y-61900000D03*
X76575000Y-63775000D03*
X62000000Y-59900000D03*
X79200000Y-77400000D03*
%TO.N,/Valim*%
X60600000Y-53900000D03*
X68875000Y-48750000D03*
X76150000Y-53750000D03*
X57125000Y-53900000D03*
X68396232Y-53803768D03*
X53650000Y-53250000D03*
X54625000Y-48875000D03*
X73125000Y-53775000D03*
%TO.N,Net-(U401-SW)*%
X60250000Y-73925000D03*
X53050003Y-77075000D03*
X59075000Y-73375000D03*
X59075000Y-73925000D03*
X59650000Y-73925000D03*
X52400000Y-77075000D03*
X53700006Y-77075000D03*
%TO.N,+5V*%
X55450000Y-71500000D03*
X60400000Y-79150000D03*
X55800000Y-75900000D03*
X55450000Y-73950000D03*
X58925000Y-79125000D03*
X61850000Y-79125000D03*
%TO.N,/USR_LED_1*%
X62750000Y-61955000D03*
X55300000Y-59400000D03*
%TO.N,/USR_LED_2*%
X55300000Y-61300000D03*
X62473731Y-62973731D03*
%TO.N,/SDO-MISO*%
X67075000Y-70300000D03*
X65225000Y-67675000D03*
%TO.N,/Interrupt2*%
X68300000Y-70150000D03*
X62728736Y-64600000D03*
%TO.N,/CS-NSS*%
X71300000Y-71700000D03*
X63300000Y-65100000D03*
%TO.N,/Interrupt1*%
X69987500Y-70162500D03*
X62125000Y-64125000D03*
%TO.N,/STLINK_TX*%
X71950000Y-56150000D03*
X85600000Y-46930000D03*
%TO.N,/STLINK_RX*%
X80596232Y-50200000D03*
X80600000Y-52250000D03*
%TO.N,/Encoder_Left_A*%
X66400000Y-53500000D03*
%TO.N,/Encoder_Left_B*%
X65500000Y-54575000D03*
%TO.N,/Encoder_Right_A*%
X68250000Y-52850000D03*
%TO.N,/Encoder_Right_B*%
X66400000Y-51250000D03*
%TO.N,/OLED_SDA*%
X64871232Y-56628768D03*
%TO.N,/OLED_SCL*%
X69725000Y-56787500D03*
%TO.N,Net-(J801-Pin_1)*%
X79725000Y-73925000D03*
X75477818Y-74550000D03*
%TO.N,Net-(U401-EN{slash}SYNC)*%
X50180288Y-76912662D03*
X53925000Y-72650000D03*
%TO.N,Net-(U401-BST)*%
X54125000Y-75225000D03*
X56350000Y-74750000D03*
%TO.N,/LEFT_FWD*%
X72400000Y-60405000D03*
X56000000Y-52850000D03*
%TO.N,/LEFT_REV*%
X71935000Y-59615000D03*
X63500000Y-52400000D03*
%TO.N,/RIGHT_REV*%
X78000000Y-52750000D03*
X73550000Y-60700000D03*
%TO.N,/RIGHT_FWD*%
X73510362Y-61454378D03*
X70775000Y-52750000D03*
%TO.N,/NRST*%
X48800000Y-81100000D03*
X60937500Y-64362500D03*
X81108591Y-48308591D03*
%TD*%
%TA.AperFunction,Conductor*%
%TO.N,GND*%
G36*
X85932681Y-36500312D02*
G01*
X85934107Y-36500499D01*
X85934108Y-36500500D01*
X85996949Y-36500500D01*
X86003032Y-36500648D01*
X86336929Y-36517052D01*
X86349037Y-36518245D01*
X86452146Y-36533539D01*
X86676699Y-36566849D01*
X86688617Y-36569219D01*
X87009951Y-36649709D01*
X87021588Y-36653240D01*
X87090229Y-36677800D01*
X87333467Y-36764832D01*
X87344688Y-36769479D01*
X87644163Y-36911120D01*
X87654871Y-36916844D01*
X87937261Y-37086102D01*
X87938988Y-37087137D01*
X87949106Y-37093897D01*
X88215170Y-37291224D01*
X88224576Y-37298944D01*
X88470013Y-37521395D01*
X88478604Y-37529986D01*
X88665755Y-37736475D01*
X88701055Y-37775423D01*
X88708775Y-37784829D01*
X88906102Y-38050893D01*
X88912862Y-38061011D01*
X89041776Y-38276092D01*
X89083148Y-38345116D01*
X89088883Y-38355844D01*
X89225647Y-38645008D01*
X89230514Y-38655297D01*
X89235170Y-38666540D01*
X89346759Y-38978411D01*
X89350292Y-38990055D01*
X89430777Y-39311369D01*
X89433151Y-39323305D01*
X89481754Y-39650962D01*
X89482947Y-39663071D01*
X89499351Y-39996966D01*
X89499500Y-40003051D01*
X89499500Y-88996948D01*
X89499351Y-89003033D01*
X89482947Y-89336928D01*
X89481754Y-89349037D01*
X89433151Y-89676694D01*
X89430777Y-89688630D01*
X89350292Y-90009944D01*
X89346759Y-90021588D01*
X89235170Y-90333459D01*
X89230514Y-90344702D01*
X89088885Y-90644151D01*
X89083148Y-90654883D01*
X88912862Y-90938988D01*
X88906102Y-90949106D01*
X88708775Y-91215170D01*
X88701055Y-91224576D01*
X88478611Y-91470006D01*
X88470006Y-91478611D01*
X88224576Y-91701055D01*
X88215170Y-91708775D01*
X87949106Y-91906102D01*
X87938988Y-91912862D01*
X87654883Y-92083148D01*
X87644151Y-92088885D01*
X87344702Y-92230514D01*
X87333459Y-92235170D01*
X87021588Y-92346759D01*
X87009944Y-92350292D01*
X86688630Y-92430777D01*
X86676694Y-92433151D01*
X86349037Y-92481754D01*
X86336928Y-92482947D01*
X86021989Y-92498419D01*
X86003031Y-92499351D01*
X85996949Y-92499500D01*
X40003051Y-92499500D01*
X39996968Y-92499351D01*
X39976900Y-92498365D01*
X39663071Y-92482947D01*
X39650962Y-92481754D01*
X39323305Y-92433151D01*
X39311369Y-92430777D01*
X38990055Y-92350292D01*
X38978411Y-92346759D01*
X38666540Y-92235170D01*
X38655301Y-92230515D01*
X38355844Y-92088883D01*
X38345121Y-92083150D01*
X38061011Y-91912862D01*
X38050893Y-91906102D01*
X37784829Y-91708775D01*
X37775423Y-91701055D01*
X37736475Y-91665755D01*
X37529986Y-91478604D01*
X37521395Y-91470013D01*
X37298944Y-91224576D01*
X37291224Y-91215170D01*
X37093897Y-90949106D01*
X37087137Y-90938988D01*
X36916844Y-90654871D01*
X36911120Y-90644163D01*
X36769479Y-90344688D01*
X36764829Y-90333459D01*
X36653240Y-90021588D01*
X36649707Y-90009944D01*
X36640958Y-89975015D01*
X36569219Y-89688617D01*
X36566848Y-89676694D01*
X36518245Y-89349037D01*
X36517052Y-89336927D01*
X36500649Y-89003032D01*
X36500500Y-88996948D01*
X36500500Y-88934108D01*
X36500311Y-88932672D01*
X36499251Y-88916492D01*
X36499251Y-81900000D01*
X38307090Y-81900000D01*
X38326700Y-82149181D01*
X38385054Y-82392240D01*
X38480704Y-82623162D01*
X38480706Y-82623165D01*
X38611305Y-82836283D01*
X38611306Y-82836285D01*
X38611307Y-82836287D01*
X38611309Y-82836289D01*
X38773643Y-83026357D01*
X38963711Y-83188691D01*
X38963713Y-83188692D01*
X38963714Y-83188693D01*
X38963716Y-83188694D01*
X39176834Y-83319293D01*
X39176837Y-83319295D01*
X39407759Y-83414945D01*
X39407764Y-83414947D01*
X39650814Y-83473299D01*
X39900000Y-83492910D01*
X40149186Y-83473299D01*
X40392236Y-83414947D01*
X40507701Y-83367120D01*
X40623162Y-83319295D01*
X40623163Y-83319294D01*
X40623166Y-83319293D01*
X40836289Y-83188691D01*
X41026357Y-83026357D01*
X41188691Y-82836289D01*
X41213546Y-82795730D01*
X52549500Y-82795730D01*
X52549500Y-84404269D01*
X52552353Y-84434699D01*
X52552353Y-84434701D01*
X52588458Y-84537880D01*
X52597207Y-84562882D01*
X52677850Y-84672150D01*
X52787118Y-84752793D01*
X52829845Y-84767744D01*
X52915299Y-84797646D01*
X52945730Y-84800500D01*
X52945734Y-84800500D01*
X54254270Y-84800500D01*
X54284699Y-84797646D01*
X54284701Y-84797646D01*
X54356145Y-84772646D01*
X54412882Y-84752793D01*
X54522150Y-84672150D01*
X54602793Y-84562882D01*
X54625219Y-84498790D01*
X54647646Y-84434701D01*
X54647646Y-84434699D01*
X54650500Y-84404269D01*
X54650500Y-82820730D01*
X61049500Y-82820730D01*
X61049500Y-84379269D01*
X61052353Y-84409699D01*
X61052353Y-84409701D01*
X61097206Y-84537880D01*
X61097207Y-84537882D01*
X61177850Y-84647150D01*
X61287118Y-84727793D01*
X61308089Y-84735131D01*
X61415299Y-84772646D01*
X61445730Y-84775500D01*
X61445734Y-84775500D01*
X62754270Y-84775500D01*
X62784699Y-84772646D01*
X62784701Y-84772646D01*
X62848790Y-84750219D01*
X62912882Y-84727793D01*
X63022150Y-84647150D01*
X63102793Y-84537882D01*
X63125219Y-84473790D01*
X63147646Y-84409701D01*
X63147646Y-84409699D01*
X63150500Y-84379269D01*
X63150500Y-83371530D01*
X63549500Y-83371530D01*
X63549500Y-83828469D01*
X63589868Y-84031412D01*
X63589870Y-84031420D01*
X63669058Y-84222596D01*
X63784024Y-84394657D01*
X63930342Y-84540975D01*
X63930345Y-84540977D01*
X64102402Y-84655941D01*
X64293580Y-84735130D01*
X64482187Y-84772646D01*
X64496530Y-84775499D01*
X64496534Y-84775500D01*
X64496535Y-84775500D01*
X64703466Y-84775500D01*
X64703467Y-84775499D01*
X64906420Y-84735130D01*
X65097598Y-84655941D01*
X65269655Y-84540977D01*
X65415977Y-84394655D01*
X65530941Y-84222598D01*
X65610130Y-84031420D01*
X65650500Y-83828465D01*
X65650500Y-83371535D01*
X65650499Y-83371530D01*
X66049500Y-83371530D01*
X66049500Y-83828469D01*
X66089868Y-84031412D01*
X66089870Y-84031420D01*
X66169058Y-84222596D01*
X66284024Y-84394657D01*
X66430342Y-84540975D01*
X66430345Y-84540977D01*
X66602402Y-84655941D01*
X66793580Y-84735130D01*
X66982187Y-84772646D01*
X66996530Y-84775499D01*
X66996534Y-84775500D01*
X66996535Y-84775500D01*
X67203466Y-84775500D01*
X67203467Y-84775499D01*
X67406420Y-84735130D01*
X67597598Y-84655941D01*
X67769655Y-84540977D01*
X67915977Y-84394655D01*
X68030941Y-84222598D01*
X68110130Y-84031420D01*
X68150500Y-83828465D01*
X68150500Y-83371535D01*
X68150499Y-83371530D01*
X68549500Y-83371530D01*
X68549500Y-83828469D01*
X68589868Y-84031412D01*
X68589870Y-84031420D01*
X68669058Y-84222596D01*
X68784024Y-84394657D01*
X68930342Y-84540975D01*
X68930345Y-84540977D01*
X69102402Y-84655941D01*
X69293580Y-84735130D01*
X69482187Y-84772646D01*
X69496530Y-84775499D01*
X69496534Y-84775500D01*
X69496535Y-84775500D01*
X69703466Y-84775500D01*
X69703467Y-84775499D01*
X69906420Y-84735130D01*
X70097598Y-84655941D01*
X70269655Y-84540977D01*
X70415977Y-84394655D01*
X70530941Y-84222598D01*
X70610130Y-84031420D01*
X70650500Y-83828465D01*
X70650500Y-83371535D01*
X70650499Y-83371530D01*
X73549500Y-83371530D01*
X73549500Y-83828469D01*
X73589868Y-84031412D01*
X73589870Y-84031420D01*
X73669058Y-84222596D01*
X73784024Y-84394657D01*
X73930342Y-84540975D01*
X73930345Y-84540977D01*
X74102402Y-84655941D01*
X74293580Y-84735130D01*
X74482187Y-84772646D01*
X74496530Y-84775499D01*
X74496534Y-84775500D01*
X74496535Y-84775500D01*
X74703466Y-84775500D01*
X74703467Y-84775499D01*
X74906420Y-84735130D01*
X75097598Y-84655941D01*
X75269655Y-84540977D01*
X75415977Y-84394655D01*
X75530941Y-84222598D01*
X75610130Y-84031420D01*
X75650500Y-83828465D01*
X75650500Y-83371535D01*
X75650499Y-83371530D01*
X76049500Y-83371530D01*
X76049500Y-83828469D01*
X76089868Y-84031412D01*
X76089870Y-84031420D01*
X76169058Y-84222596D01*
X76284024Y-84394657D01*
X76430342Y-84540975D01*
X76430345Y-84540977D01*
X76602402Y-84655941D01*
X76793580Y-84735130D01*
X76982187Y-84772646D01*
X76996530Y-84775499D01*
X76996534Y-84775500D01*
X76996535Y-84775500D01*
X77203466Y-84775500D01*
X77203467Y-84775499D01*
X77406420Y-84735130D01*
X77597598Y-84655941D01*
X77769655Y-84540977D01*
X77915977Y-84394655D01*
X78030941Y-84222598D01*
X78110130Y-84031420D01*
X78150500Y-83828465D01*
X78150500Y-83371535D01*
X78150499Y-83371530D01*
X78549500Y-83371530D01*
X78549500Y-83828469D01*
X78589868Y-84031412D01*
X78589870Y-84031420D01*
X78669058Y-84222596D01*
X78784024Y-84394657D01*
X78930342Y-84540975D01*
X78930345Y-84540977D01*
X79102402Y-84655941D01*
X79293580Y-84735130D01*
X79482187Y-84772646D01*
X79496530Y-84775499D01*
X79496534Y-84775500D01*
X79496535Y-84775500D01*
X79703466Y-84775500D01*
X79703467Y-84775499D01*
X79906420Y-84735130D01*
X80097598Y-84655941D01*
X80269655Y-84540977D01*
X80415977Y-84394655D01*
X80530941Y-84222598D01*
X80610130Y-84031420D01*
X80650500Y-83828465D01*
X80650500Y-83371535D01*
X80610130Y-83168580D01*
X80530941Y-82977402D01*
X80415977Y-82805345D01*
X80415975Y-82805342D01*
X80269657Y-82659024D01*
X80183626Y-82601541D01*
X80097598Y-82544059D01*
X80058466Y-82527850D01*
X79906420Y-82464870D01*
X79906412Y-82464868D01*
X79703469Y-82424500D01*
X79703465Y-82424500D01*
X79496535Y-82424500D01*
X79496530Y-82424500D01*
X79293587Y-82464868D01*
X79293579Y-82464870D01*
X79102403Y-82544058D01*
X78930342Y-82659024D01*
X78784024Y-82805342D01*
X78669058Y-82977403D01*
X78589870Y-83168579D01*
X78589868Y-83168587D01*
X78549500Y-83371530D01*
X78150499Y-83371530D01*
X78110130Y-83168580D01*
X78030941Y-82977402D01*
X77915977Y-82805345D01*
X77915975Y-82805342D01*
X77769657Y-82659024D01*
X77683626Y-82601541D01*
X77597598Y-82544059D01*
X77558466Y-82527850D01*
X77406420Y-82464870D01*
X77406412Y-82464868D01*
X77203469Y-82424500D01*
X77203465Y-82424500D01*
X76996535Y-82424500D01*
X76996530Y-82424500D01*
X76793587Y-82464868D01*
X76793579Y-82464870D01*
X76602403Y-82544058D01*
X76430342Y-82659024D01*
X76284024Y-82805342D01*
X76169058Y-82977403D01*
X76089870Y-83168579D01*
X76089868Y-83168587D01*
X76049500Y-83371530D01*
X75650499Y-83371530D01*
X75610130Y-83168580D01*
X75530941Y-82977402D01*
X75415977Y-82805345D01*
X75415975Y-82805342D01*
X75269657Y-82659024D01*
X75183626Y-82601541D01*
X75097598Y-82544059D01*
X75058466Y-82527850D01*
X74906420Y-82464870D01*
X74906412Y-82464868D01*
X74703469Y-82424500D01*
X74703465Y-82424500D01*
X74496535Y-82424500D01*
X74496530Y-82424500D01*
X74293587Y-82464868D01*
X74293579Y-82464870D01*
X74102403Y-82544058D01*
X73930342Y-82659024D01*
X73784024Y-82805342D01*
X73669058Y-82977403D01*
X73589870Y-83168579D01*
X73589868Y-83168587D01*
X73549500Y-83371530D01*
X70650499Y-83371530D01*
X70610130Y-83168580D01*
X70530941Y-82977402D01*
X70415977Y-82805345D01*
X70415975Y-82805342D01*
X70269657Y-82659024D01*
X70183626Y-82601541D01*
X70097598Y-82544059D01*
X70058466Y-82527850D01*
X69906420Y-82464870D01*
X69906412Y-82464868D01*
X69703469Y-82424500D01*
X69703465Y-82424500D01*
X69496535Y-82424500D01*
X69496530Y-82424500D01*
X69293587Y-82464868D01*
X69293579Y-82464870D01*
X69102403Y-82544058D01*
X68930342Y-82659024D01*
X68784024Y-82805342D01*
X68669058Y-82977403D01*
X68589870Y-83168579D01*
X68589868Y-83168587D01*
X68549500Y-83371530D01*
X68150499Y-83371530D01*
X68110130Y-83168580D01*
X68030941Y-82977402D01*
X67915977Y-82805345D01*
X67915975Y-82805342D01*
X67769657Y-82659024D01*
X67683626Y-82601541D01*
X67597598Y-82544059D01*
X67558466Y-82527850D01*
X67406420Y-82464870D01*
X67406412Y-82464868D01*
X67203469Y-82424500D01*
X67203465Y-82424500D01*
X66996535Y-82424500D01*
X66996530Y-82424500D01*
X66793587Y-82464868D01*
X66793579Y-82464870D01*
X66602403Y-82544058D01*
X66430342Y-82659024D01*
X66284024Y-82805342D01*
X66169058Y-82977403D01*
X66089870Y-83168579D01*
X66089868Y-83168587D01*
X66049500Y-83371530D01*
X65650499Y-83371530D01*
X65610130Y-83168580D01*
X65530941Y-82977402D01*
X65415977Y-82805345D01*
X65415975Y-82805342D01*
X65269657Y-82659024D01*
X65183626Y-82601541D01*
X65097598Y-82544059D01*
X65058466Y-82527850D01*
X64906420Y-82464870D01*
X64906412Y-82464868D01*
X64703469Y-82424500D01*
X64703465Y-82424500D01*
X64496535Y-82424500D01*
X64496530Y-82424500D01*
X64293587Y-82464868D01*
X64293579Y-82464870D01*
X64102403Y-82544058D01*
X63930342Y-82659024D01*
X63784024Y-82805342D01*
X63669058Y-82977403D01*
X63589870Y-83168579D01*
X63589868Y-83168587D01*
X63549500Y-83371530D01*
X63150500Y-83371530D01*
X63150500Y-82820730D01*
X63147646Y-82790300D01*
X63147646Y-82790298D01*
X63102793Y-82662119D01*
X63102792Y-82662117D01*
X63022150Y-82552850D01*
X62912882Y-82472207D01*
X62912880Y-82472206D01*
X62784700Y-82427353D01*
X62754270Y-82424500D01*
X62754266Y-82424500D01*
X61445734Y-82424500D01*
X61445730Y-82424500D01*
X61415300Y-82427353D01*
X61415298Y-82427353D01*
X61287119Y-82472206D01*
X61287117Y-82472207D01*
X61177850Y-82552850D01*
X61097207Y-82662117D01*
X61097206Y-82662119D01*
X61052353Y-82790298D01*
X61052353Y-82790300D01*
X61049500Y-82820730D01*
X54650500Y-82820730D01*
X54650500Y-82795730D01*
X54647646Y-82765300D01*
X54647646Y-82765298D01*
X54602793Y-82637119D01*
X54602792Y-82637117D01*
X54592493Y-82623162D01*
X54522150Y-82527850D01*
X54412882Y-82447207D01*
X54412880Y-82447206D01*
X54284700Y-82402353D01*
X54254270Y-82399500D01*
X54254266Y-82399500D01*
X52945734Y-82399500D01*
X52945730Y-82399500D01*
X52915300Y-82402353D01*
X52915298Y-82402353D01*
X52787119Y-82447206D01*
X52787117Y-82447207D01*
X52677850Y-82527850D01*
X52597207Y-82637117D01*
X52597206Y-82637119D01*
X52552353Y-82765298D01*
X52552353Y-82765300D01*
X52549500Y-82795730D01*
X41213546Y-82795730D01*
X41319293Y-82623166D01*
X41352061Y-82544058D01*
X41392178Y-82447206D01*
X41414947Y-82392236D01*
X41473299Y-82149186D01*
X41492910Y-81900000D01*
X41473299Y-81650814D01*
X41414947Y-81407764D01*
X41389390Y-81346063D01*
X41319295Y-81176837D01*
X41319293Y-81176834D01*
X41272209Y-81100000D01*
X48344867Y-81100000D01*
X48363302Y-81228225D01*
X48417117Y-81346061D01*
X48417118Y-81346063D01*
X48501951Y-81443967D01*
X48610931Y-81514004D01*
X48735225Y-81550499D01*
X48735227Y-81550500D01*
X48735228Y-81550500D01*
X48864773Y-81550500D01*
X48864773Y-81550499D01*
X48989069Y-81514004D01*
X49098049Y-81443967D01*
X49182882Y-81346063D01*
X49236697Y-81228226D01*
X49255133Y-81100000D01*
X49236697Y-80971774D01*
X49182882Y-80853937D01*
X49098049Y-80756033D01*
X48989069Y-80685996D01*
X48989065Y-80685994D01*
X48989064Y-80685994D01*
X48864774Y-80649500D01*
X48864772Y-80649500D01*
X48735228Y-80649500D01*
X48735226Y-80649500D01*
X48610935Y-80685994D01*
X48610932Y-80685995D01*
X48610931Y-80685996D01*
X48559677Y-80718934D01*
X48501950Y-80756033D01*
X48417118Y-80853937D01*
X48417117Y-80853938D01*
X48363302Y-80971774D01*
X48344867Y-81100000D01*
X41272209Y-81100000D01*
X41188694Y-80963716D01*
X41188693Y-80963714D01*
X41188692Y-80963713D01*
X41188691Y-80963711D01*
X41026357Y-80773643D01*
X40836289Y-80611309D01*
X40836287Y-80611307D01*
X40836285Y-80611306D01*
X40836283Y-80611305D01*
X40623165Y-80480706D01*
X40623162Y-80480704D01*
X40392240Y-80385054D01*
X40392236Y-80385053D01*
X40149186Y-80326701D01*
X40149184Y-80326700D01*
X40149181Y-80326700D01*
X39900000Y-80307090D01*
X39650818Y-80326700D01*
X39407759Y-80385054D01*
X39176837Y-80480704D01*
X39176834Y-80480706D01*
X38963716Y-80611305D01*
X38963714Y-80611306D01*
X38773643Y-80773643D01*
X38611306Y-80963714D01*
X38611305Y-80963716D01*
X38480706Y-81176834D01*
X38480704Y-81176837D01*
X38385054Y-81407759D01*
X38326700Y-81650818D01*
X38307090Y-81900000D01*
X36499251Y-81900000D01*
X36499251Y-79125000D01*
X58469867Y-79125000D01*
X58488302Y-79253225D01*
X58499720Y-79278226D01*
X58542118Y-79371063D01*
X58626951Y-79468967D01*
X58735931Y-79539004D01*
X58821079Y-79564005D01*
X58860225Y-79575499D01*
X58860227Y-79575500D01*
X58860228Y-79575500D01*
X58989773Y-79575500D01*
X58989773Y-79575499D01*
X59114069Y-79539004D01*
X59223049Y-79468967D01*
X59307882Y-79371063D01*
X59361697Y-79253226D01*
X59376539Y-79150000D01*
X59944867Y-79150000D01*
X59963302Y-79278225D01*
X60005700Y-79371061D01*
X60017118Y-79396063D01*
X60101951Y-79493967D01*
X60210931Y-79564004D01*
X60250084Y-79575500D01*
X60335225Y-79600499D01*
X60335227Y-79600500D01*
X60335228Y-79600500D01*
X60464773Y-79600500D01*
X60464773Y-79600499D01*
X60589069Y-79564004D01*
X60698049Y-79493967D01*
X60782882Y-79396063D01*
X60836697Y-79278226D01*
X60855133Y-79150000D01*
X60851539Y-79125000D01*
X61394867Y-79125000D01*
X61413302Y-79253225D01*
X61424720Y-79278226D01*
X61467118Y-79371063D01*
X61551951Y-79468967D01*
X61660931Y-79539004D01*
X61746079Y-79564005D01*
X61785225Y-79575499D01*
X61785227Y-79575500D01*
X61785228Y-79575500D01*
X61914773Y-79575500D01*
X61914773Y-79575499D01*
X62039069Y-79539004D01*
X62148049Y-79468967D01*
X62232882Y-79371063D01*
X62286697Y-79253226D01*
X62305133Y-79125000D01*
X62286697Y-78996774D01*
X62232882Y-78878937D01*
X62148049Y-78781033D01*
X62039069Y-78710996D01*
X62039065Y-78710994D01*
X62039064Y-78710994D01*
X61914774Y-78674500D01*
X61914772Y-78674500D01*
X61785228Y-78674500D01*
X61785226Y-78674500D01*
X61660935Y-78710994D01*
X61660932Y-78710995D01*
X61660931Y-78710996D01*
X61622033Y-78735994D01*
X61551950Y-78781033D01*
X61467118Y-78878937D01*
X61467117Y-78878938D01*
X61413302Y-78996774D01*
X61394867Y-79125000D01*
X60851539Y-79125000D01*
X60836697Y-79021774D01*
X60782882Y-78903937D01*
X60698049Y-78806033D01*
X60589069Y-78735996D01*
X60589065Y-78735994D01*
X60589064Y-78735994D01*
X60464774Y-78699500D01*
X60464772Y-78699500D01*
X60335228Y-78699500D01*
X60335226Y-78699500D01*
X60210935Y-78735994D01*
X60210932Y-78735995D01*
X60210931Y-78735996D01*
X60159677Y-78768934D01*
X60101950Y-78806033D01*
X60017118Y-78903937D01*
X60017117Y-78903938D01*
X59963302Y-79021774D01*
X59944867Y-79150000D01*
X59376539Y-79150000D01*
X59380133Y-79125000D01*
X59361697Y-78996774D01*
X59307882Y-78878937D01*
X59223049Y-78781033D01*
X59114069Y-78710996D01*
X59114065Y-78710994D01*
X59114064Y-78710994D01*
X58989774Y-78674500D01*
X58989772Y-78674500D01*
X58860228Y-78674500D01*
X58860226Y-78674500D01*
X58735935Y-78710994D01*
X58735932Y-78710995D01*
X58735931Y-78710996D01*
X58697033Y-78735994D01*
X58626950Y-78781033D01*
X58542118Y-78878937D01*
X58542117Y-78878938D01*
X58488302Y-78996774D01*
X58469867Y-79125000D01*
X36499251Y-79125000D01*
X36499251Y-77200000D01*
X38307090Y-77200000D01*
X38326700Y-77449181D01*
X38326700Y-77449184D01*
X38326701Y-77449186D01*
X38373968Y-77646063D01*
X38385054Y-77692240D01*
X38480704Y-77923162D01*
X38480706Y-77923165D01*
X38611305Y-78136283D01*
X38611306Y-78136285D01*
X38611307Y-78136287D01*
X38611309Y-78136289D01*
X38773643Y-78326357D01*
X38963711Y-78488691D01*
X38963713Y-78488692D01*
X38963714Y-78488693D01*
X38963716Y-78488694D01*
X39176834Y-78619293D01*
X39176837Y-78619295D01*
X39398225Y-78710996D01*
X39407764Y-78714947D01*
X39650814Y-78773299D01*
X39900000Y-78792910D01*
X40149186Y-78773299D01*
X40392236Y-78714947D01*
X40507701Y-78667120D01*
X40623162Y-78619295D01*
X40623163Y-78619294D01*
X40623166Y-78619293D01*
X40836289Y-78488691D01*
X41026357Y-78326357D01*
X41188691Y-78136289D01*
X41319293Y-77923166D01*
X41414947Y-77692236D01*
X41473299Y-77449186D01*
X41492910Y-77200000D01*
X41473299Y-76950814D01*
X41464139Y-76912662D01*
X49725155Y-76912662D01*
X49743590Y-77040887D01*
X49795219Y-77153937D01*
X49797406Y-77158725D01*
X49882239Y-77256629D01*
X49991219Y-77326666D01*
X50115513Y-77363161D01*
X50115515Y-77363162D01*
X50115516Y-77363162D01*
X50245061Y-77363162D01*
X50245061Y-77363161D01*
X50369357Y-77326666D01*
X50478337Y-77256629D01*
X50563170Y-77158725D01*
X50601406Y-77075000D01*
X51944867Y-77075000D01*
X51963302Y-77203225D01*
X51994608Y-77271774D01*
X52017118Y-77321063D01*
X52101951Y-77418967D01*
X52210931Y-77489004D01*
X52335225Y-77525499D01*
X52335227Y-77525500D01*
X52335228Y-77525500D01*
X52464773Y-77525500D01*
X52464773Y-77525499D01*
X52589069Y-77489004D01*
X52657963Y-77444728D01*
X52725001Y-77425044D01*
X52792038Y-77444727D01*
X52860934Y-77489004D01*
X52985228Y-77525499D01*
X52985230Y-77525500D01*
X52985231Y-77525500D01*
X53114776Y-77525500D01*
X53114776Y-77525499D01*
X53239072Y-77489004D01*
X53307966Y-77444728D01*
X53375004Y-77425044D01*
X53442041Y-77444727D01*
X53510937Y-77489004D01*
X53635231Y-77525499D01*
X53635233Y-77525500D01*
X53635234Y-77525500D01*
X53764779Y-77525500D01*
X53764779Y-77525499D01*
X53889075Y-77489004D01*
X53998055Y-77418967D01*
X54014490Y-77400000D01*
X78744867Y-77400000D01*
X78763302Y-77528225D01*
X78817117Y-77646061D01*
X78817118Y-77646063D01*
X78901951Y-77743967D01*
X79010931Y-77814004D01*
X79135225Y-77850499D01*
X79135227Y-77850500D01*
X79135228Y-77850500D01*
X79264773Y-77850500D01*
X79264773Y-77850499D01*
X79389069Y-77814004D01*
X79498049Y-77743967D01*
X79582882Y-77646063D01*
X79636697Y-77528226D01*
X79655133Y-77400000D01*
X79636697Y-77271774D01*
X79582882Y-77153937D01*
X79498049Y-77056033D01*
X79389069Y-76985996D01*
X79389065Y-76985994D01*
X79389064Y-76985994D01*
X79264774Y-76949500D01*
X79264772Y-76949500D01*
X79135228Y-76949500D01*
X79135226Y-76949500D01*
X79010935Y-76985994D01*
X79010932Y-76985995D01*
X79010931Y-76985996D01*
X78959677Y-77018934D01*
X78901950Y-77056033D01*
X78817118Y-77153937D01*
X78817117Y-77153938D01*
X78763302Y-77271774D01*
X78744867Y-77400000D01*
X54014490Y-77400000D01*
X54082888Y-77321063D01*
X54136703Y-77203226D01*
X54155139Y-77075000D01*
X54136703Y-76946774D01*
X54082888Y-76828937D01*
X53998055Y-76731033D01*
X53889075Y-76660996D01*
X53889071Y-76660994D01*
X53889070Y-76660994D01*
X53764780Y-76624500D01*
X53764778Y-76624500D01*
X53635234Y-76624500D01*
X53635232Y-76624500D01*
X53510939Y-76660994D01*
X53510938Y-76660994D01*
X53442042Y-76705271D01*
X53375002Y-76724955D01*
X53307965Y-76705271D01*
X53239072Y-76660996D01*
X53239068Y-76660994D01*
X53239067Y-76660994D01*
X53114777Y-76624500D01*
X53114775Y-76624500D01*
X52985231Y-76624500D01*
X52985229Y-76624500D01*
X52860936Y-76660994D01*
X52860935Y-76660994D01*
X52792039Y-76705271D01*
X52724999Y-76724955D01*
X52657962Y-76705271D01*
X52589069Y-76660996D01*
X52589065Y-76660994D01*
X52589064Y-76660994D01*
X52464774Y-76624500D01*
X52464772Y-76624500D01*
X52335228Y-76624500D01*
X52335226Y-76624500D01*
X52210935Y-76660994D01*
X52210932Y-76660995D01*
X52210931Y-76660996D01*
X52159677Y-76693934D01*
X52101950Y-76731033D01*
X52017118Y-76828937D01*
X52017117Y-76828938D01*
X51963302Y-76946774D01*
X51944867Y-77075000D01*
X50601406Y-77075000D01*
X50616985Y-77040888D01*
X50635421Y-76912662D01*
X50616985Y-76784436D01*
X50563170Y-76666599D01*
X50478337Y-76568695D01*
X50369357Y-76498658D01*
X50369353Y-76498656D01*
X50369352Y-76498656D01*
X50245062Y-76462162D01*
X50245060Y-76462162D01*
X50115516Y-76462162D01*
X50115514Y-76462162D01*
X49991223Y-76498656D01*
X49991220Y-76498657D01*
X49991219Y-76498658D01*
X49939965Y-76531596D01*
X49882238Y-76568695D01*
X49797406Y-76666599D01*
X49797405Y-76666600D01*
X49743590Y-76784436D01*
X49725155Y-76912662D01*
X41464139Y-76912662D01*
X41414947Y-76707764D01*
X41413914Y-76705271D01*
X41319295Y-76476837D01*
X41319293Y-76476834D01*
X41188694Y-76263716D01*
X41188693Y-76263714D01*
X41188692Y-76263713D01*
X41188691Y-76263711D01*
X41026357Y-76073643D01*
X40836289Y-75911309D01*
X40836287Y-75911307D01*
X40836285Y-75911306D01*
X40836283Y-75911305D01*
X40817835Y-75900000D01*
X55344867Y-75900000D01*
X55363302Y-76028225D01*
X55384044Y-76073643D01*
X55417118Y-76146063D01*
X55501951Y-76243967D01*
X55610931Y-76314004D01*
X55735225Y-76350499D01*
X55735227Y-76350500D01*
X55735228Y-76350500D01*
X55864773Y-76350500D01*
X55864773Y-76350499D01*
X55989069Y-76314004D01*
X56098049Y-76243967D01*
X56182882Y-76146063D01*
X56236697Y-76028226D01*
X56255133Y-75900000D01*
X77669867Y-75900000D01*
X77688302Y-76028225D01*
X77709044Y-76073643D01*
X77742118Y-76146063D01*
X77826951Y-76243967D01*
X77935931Y-76314004D01*
X78060225Y-76350499D01*
X78060227Y-76350500D01*
X78060228Y-76350500D01*
X78189773Y-76350500D01*
X78189773Y-76350499D01*
X78314069Y-76314004D01*
X78423049Y-76243967D01*
X78507882Y-76146063D01*
X78561697Y-76028226D01*
X78580133Y-75900000D01*
X78561697Y-75771774D01*
X78507882Y-75653937D01*
X78423049Y-75556033D01*
X78314069Y-75485996D01*
X78314065Y-75485994D01*
X78314064Y-75485994D01*
X78189774Y-75449500D01*
X78189772Y-75449500D01*
X78060228Y-75449500D01*
X78060226Y-75449500D01*
X77935935Y-75485994D01*
X77935932Y-75485995D01*
X77935931Y-75485996D01*
X77884677Y-75518934D01*
X77826950Y-75556033D01*
X77742118Y-75653937D01*
X77742117Y-75653938D01*
X77688302Y-75771774D01*
X77669867Y-75900000D01*
X56255133Y-75900000D01*
X56236697Y-75771774D01*
X56182882Y-75653937D01*
X56098049Y-75556033D01*
X55989069Y-75485996D01*
X55989065Y-75485994D01*
X55989064Y-75485994D01*
X55864774Y-75449500D01*
X55864772Y-75449500D01*
X55735228Y-75449500D01*
X55735226Y-75449500D01*
X55610935Y-75485994D01*
X55610932Y-75485995D01*
X55610931Y-75485996D01*
X55559677Y-75518934D01*
X55501950Y-75556033D01*
X55417118Y-75653937D01*
X55417117Y-75653938D01*
X55363302Y-75771774D01*
X55344867Y-75900000D01*
X40817835Y-75900000D01*
X40623165Y-75780706D01*
X40623162Y-75780704D01*
X40392240Y-75685054D01*
X40352441Y-75675499D01*
X40149186Y-75626701D01*
X40149184Y-75626700D01*
X40149181Y-75626700D01*
X39900000Y-75607090D01*
X39650818Y-75626700D01*
X39407759Y-75685054D01*
X39176837Y-75780704D01*
X39176834Y-75780706D01*
X38963716Y-75911305D01*
X38963714Y-75911306D01*
X38773643Y-76073643D01*
X38611306Y-76263714D01*
X38611305Y-76263716D01*
X38480706Y-76476834D01*
X38480704Y-76476837D01*
X38385054Y-76707759D01*
X38326700Y-76950818D01*
X38307090Y-77200000D01*
X36499251Y-77200000D01*
X36499251Y-75225000D01*
X53669867Y-75225000D01*
X53688302Y-75353225D01*
X53732270Y-75449500D01*
X53742118Y-75471063D01*
X53826951Y-75568967D01*
X53935931Y-75639004D01*
X53986793Y-75653938D01*
X54060225Y-75675499D01*
X54060227Y-75675500D01*
X54060228Y-75675500D01*
X54189773Y-75675500D01*
X54189773Y-75675499D01*
X54314069Y-75639004D01*
X54423049Y-75568967D01*
X54507882Y-75471063D01*
X54561697Y-75353226D01*
X54580133Y-75225000D01*
X54561697Y-75096774D01*
X54507882Y-74978937D01*
X54423049Y-74881033D01*
X54314069Y-74810996D01*
X54314065Y-74810994D01*
X54314064Y-74810994D01*
X54189774Y-74774500D01*
X54189772Y-74774500D01*
X54060228Y-74774500D01*
X54060226Y-74774500D01*
X53935935Y-74810994D01*
X53935932Y-74810995D01*
X53935931Y-74810996D01*
X53884677Y-74843934D01*
X53826950Y-74881033D01*
X53742118Y-74978937D01*
X53742117Y-74978938D01*
X53688302Y-75096774D01*
X53669867Y-75225000D01*
X36499251Y-75225000D01*
X36499251Y-74750000D01*
X55894867Y-74750000D01*
X55913302Y-74878225D01*
X55943326Y-74943966D01*
X55967118Y-74996063D01*
X56051951Y-75093967D01*
X56160931Y-75164004D01*
X56285225Y-75200499D01*
X56285227Y-75200500D01*
X56285228Y-75200500D01*
X56414773Y-75200500D01*
X56414773Y-75200499D01*
X56539069Y-75164004D01*
X56648049Y-75093967D01*
X56732882Y-74996063D01*
X56786697Y-74878226D01*
X56805133Y-74750000D01*
X56786697Y-74621774D01*
X56776753Y-74600000D01*
X64044867Y-74600000D01*
X64063302Y-74728225D01*
X64094283Y-74796062D01*
X64117118Y-74846063D01*
X64201951Y-74943967D01*
X64310931Y-75014004D01*
X64435225Y-75050499D01*
X64435227Y-75050500D01*
X64435228Y-75050500D01*
X64564773Y-75050500D01*
X64564773Y-75050499D01*
X64689069Y-75014004D01*
X64798049Y-74943967D01*
X64882882Y-74846063D01*
X64936697Y-74728226D01*
X64955133Y-74600000D01*
X64936697Y-74471774D01*
X64882882Y-74353937D01*
X64836146Y-74300000D01*
X69644867Y-74300000D01*
X69663302Y-74428225D01*
X69683191Y-74471774D01*
X69717118Y-74546063D01*
X69801951Y-74643967D01*
X69910931Y-74714004D01*
X70035225Y-74750499D01*
X70035227Y-74750500D01*
X70035228Y-74750500D01*
X70164773Y-74750500D01*
X70164773Y-74750499D01*
X70289069Y-74714004D01*
X70398049Y-74643967D01*
X70479471Y-74550000D01*
X75022685Y-74550000D01*
X75041120Y-74678225D01*
X75073899Y-74750000D01*
X75094936Y-74796063D01*
X75179769Y-74893967D01*
X75288749Y-74964004D01*
X75397935Y-74996063D01*
X75413043Y-75000499D01*
X75413045Y-75000500D01*
X75413046Y-75000500D01*
X75542591Y-75000500D01*
X75542591Y-75000499D01*
X75666887Y-74964004D01*
X75775867Y-74893967D01*
X75860700Y-74796063D01*
X75914515Y-74678226D01*
X75932951Y-74550000D01*
X75914515Y-74421774D01*
X75860700Y-74303937D01*
X75775867Y-74206033D01*
X75666887Y-74135996D01*
X75666883Y-74135994D01*
X75666882Y-74135994D01*
X75542592Y-74099500D01*
X75542590Y-74099500D01*
X75413046Y-74099500D01*
X75413044Y-74099500D01*
X75288753Y-74135994D01*
X75288750Y-74135995D01*
X75288749Y-74135996D01*
X75237495Y-74168934D01*
X75179768Y-74206033D01*
X75094936Y-74303937D01*
X75094935Y-74303938D01*
X75041120Y-74421774D01*
X75022685Y-74550000D01*
X70479471Y-74550000D01*
X70482882Y-74546063D01*
X70536697Y-74428226D01*
X70555133Y-74300000D01*
X70536697Y-74171774D01*
X70482882Y-74053937D01*
X70398049Y-73956033D01*
X70349761Y-73925000D01*
X79269867Y-73925000D01*
X79288302Y-74053225D01*
X79306426Y-74092910D01*
X79342118Y-74171063D01*
X79426951Y-74268967D01*
X79535931Y-74339004D01*
X79621079Y-74364005D01*
X79660225Y-74375499D01*
X79660227Y-74375500D01*
X79660228Y-74375500D01*
X79789773Y-74375500D01*
X79789773Y-74375499D01*
X79914069Y-74339004D01*
X80023049Y-74268967D01*
X80107882Y-74171063D01*
X80161697Y-74053226D01*
X80180133Y-73925000D01*
X80161697Y-73796774D01*
X80107882Y-73678937D01*
X80023049Y-73581033D01*
X79914069Y-73510996D01*
X79914065Y-73510994D01*
X79914064Y-73510994D01*
X79789774Y-73474500D01*
X79789772Y-73474500D01*
X79660228Y-73474500D01*
X79660226Y-73474500D01*
X79535935Y-73510994D01*
X79535932Y-73510995D01*
X79535931Y-73510996D01*
X79484677Y-73543934D01*
X79426950Y-73581033D01*
X79342118Y-73678937D01*
X79342117Y-73678938D01*
X79288302Y-73796774D01*
X79269867Y-73925000D01*
X70349761Y-73925000D01*
X70289069Y-73885996D01*
X70289065Y-73885994D01*
X70289064Y-73885994D01*
X70164774Y-73849500D01*
X70164772Y-73849500D01*
X70035228Y-73849500D01*
X70035226Y-73849500D01*
X69910935Y-73885994D01*
X69910932Y-73885995D01*
X69910931Y-73885996D01*
X69859677Y-73918934D01*
X69801950Y-73956033D01*
X69717118Y-74053937D01*
X69717117Y-74053938D01*
X69663302Y-74171774D01*
X69644867Y-74300000D01*
X64836146Y-74300000D01*
X64798049Y-74256033D01*
X64689069Y-74185996D01*
X64689065Y-74185994D01*
X64689064Y-74185994D01*
X64564774Y-74149500D01*
X64564772Y-74149500D01*
X64435228Y-74149500D01*
X64435226Y-74149500D01*
X64310935Y-74185994D01*
X64310932Y-74185995D01*
X64310931Y-74185996D01*
X64279753Y-74206033D01*
X64201950Y-74256033D01*
X64117118Y-74353937D01*
X64117117Y-74353938D01*
X64063302Y-74471774D01*
X64044867Y-74600000D01*
X56776753Y-74600000D01*
X56732882Y-74503937D01*
X56648049Y-74406033D01*
X56539069Y-74335996D01*
X56539065Y-74335994D01*
X56539064Y-74335994D01*
X56414774Y-74299500D01*
X56414772Y-74299500D01*
X56285228Y-74299500D01*
X56285226Y-74299500D01*
X56160935Y-74335994D01*
X56160932Y-74335995D01*
X56160931Y-74335996D01*
X56133013Y-74353938D01*
X56051950Y-74406033D01*
X55967118Y-74503937D01*
X55967117Y-74503938D01*
X55913302Y-74621774D01*
X55894867Y-74750000D01*
X36499251Y-74750000D01*
X36499251Y-72500000D01*
X38307090Y-72500000D01*
X38326700Y-72749181D01*
X38385054Y-72992240D01*
X38480704Y-73223162D01*
X38480706Y-73223165D01*
X38611305Y-73436283D01*
X38611306Y-73436285D01*
X38611307Y-73436287D01*
X38611309Y-73436289D01*
X38773643Y-73626357D01*
X38963711Y-73788691D01*
X38963713Y-73788692D01*
X38963714Y-73788693D01*
X38963716Y-73788694D01*
X39176834Y-73919293D01*
X39176837Y-73919295D01*
X39407759Y-74014945D01*
X39407764Y-74014947D01*
X39650814Y-74073299D01*
X39900000Y-74092910D01*
X40149186Y-74073299D01*
X40392236Y-74014947D01*
X40507701Y-73967120D01*
X40549033Y-73950000D01*
X54994867Y-73950000D01*
X55013302Y-74078225D01*
X55067117Y-74196061D01*
X55067118Y-74196063D01*
X55151951Y-74293967D01*
X55260931Y-74364004D01*
X55300084Y-74375500D01*
X55385225Y-74400499D01*
X55385227Y-74400500D01*
X55385228Y-74400500D01*
X55514773Y-74400500D01*
X55514773Y-74400499D01*
X55639069Y-74364004D01*
X55748049Y-74293967D01*
X55832882Y-74196063D01*
X55886697Y-74078226D01*
X55905133Y-73950000D01*
X55886697Y-73821774D01*
X55832882Y-73703937D01*
X55748049Y-73606033D01*
X55639069Y-73535996D01*
X55639065Y-73535994D01*
X55639064Y-73535994D01*
X55514774Y-73499500D01*
X55514772Y-73499500D01*
X55385228Y-73499500D01*
X55385226Y-73499500D01*
X55260935Y-73535994D01*
X55260932Y-73535995D01*
X55260931Y-73535996D01*
X55209677Y-73568934D01*
X55151950Y-73606033D01*
X55067118Y-73703937D01*
X55067117Y-73703938D01*
X55013302Y-73821774D01*
X54994867Y-73950000D01*
X40549033Y-73950000D01*
X40623162Y-73919295D01*
X40623163Y-73919294D01*
X40623166Y-73919293D01*
X40836289Y-73788691D01*
X41026357Y-73626357D01*
X41188691Y-73436289D01*
X41226249Y-73375000D01*
X58619867Y-73375000D01*
X58638302Y-73503225D01*
X58681808Y-73598488D01*
X58691752Y-73667647D01*
X58681808Y-73701512D01*
X58638302Y-73796774D01*
X58619867Y-73925000D01*
X58638302Y-74053225D01*
X58656426Y-74092910D01*
X58692118Y-74171063D01*
X58776951Y-74268967D01*
X58885931Y-74339004D01*
X58971079Y-74364005D01*
X59010225Y-74375499D01*
X59010227Y-74375500D01*
X59010228Y-74375500D01*
X59139773Y-74375500D01*
X59139773Y-74375499D01*
X59264066Y-74339005D01*
X59264067Y-74339005D01*
X59268750Y-74335996D01*
X59295460Y-74318829D01*
X59362499Y-74299145D01*
X59429537Y-74318828D01*
X59429540Y-74318830D01*
X59460932Y-74339005D01*
X59585225Y-74375499D01*
X59585227Y-74375500D01*
X59585228Y-74375500D01*
X59714773Y-74375500D01*
X59714773Y-74375499D01*
X59839069Y-74339004D01*
X59882962Y-74310795D01*
X59949999Y-74291111D01*
X60017034Y-74310793D01*
X60060931Y-74339004D01*
X60060933Y-74339004D01*
X60060934Y-74339005D01*
X60185225Y-74375499D01*
X60185227Y-74375500D01*
X60185228Y-74375500D01*
X60314773Y-74375500D01*
X60314773Y-74375499D01*
X60439069Y-74339004D01*
X60548049Y-74268967D01*
X60632882Y-74171063D01*
X60686697Y-74053226D01*
X60705133Y-73925000D01*
X60686697Y-73796774D01*
X60632882Y-73678937D01*
X60548049Y-73581033D01*
X60439069Y-73510996D01*
X60439065Y-73510994D01*
X60439064Y-73510994D01*
X60314774Y-73474500D01*
X60314772Y-73474500D01*
X60185228Y-73474500D01*
X60185226Y-73474500D01*
X60060935Y-73510994D01*
X60060932Y-73510995D01*
X60060931Y-73510996D01*
X60017037Y-73539204D01*
X59949999Y-73558888D01*
X59882962Y-73539204D01*
X59839069Y-73510996D01*
X59839065Y-73510994D01*
X59839064Y-73510994D01*
X59714774Y-73474500D01*
X59714772Y-73474500D01*
X59651886Y-73474500D01*
X59584847Y-73454815D01*
X59539092Y-73402011D01*
X59529148Y-73368147D01*
X59511697Y-73246774D01*
X59457882Y-73128938D01*
X59457882Y-73128937D01*
X59373049Y-73031033D01*
X59264069Y-72960996D01*
X59264065Y-72960994D01*
X59264064Y-72960994D01*
X59139774Y-72924500D01*
X59139772Y-72924500D01*
X59010228Y-72924500D01*
X59010226Y-72924500D01*
X58885935Y-72960994D01*
X58885932Y-72960995D01*
X58885931Y-72960996D01*
X58837314Y-72992240D01*
X58776950Y-73031033D01*
X58692118Y-73128937D01*
X58692117Y-73128938D01*
X58638302Y-73246774D01*
X58619867Y-73375000D01*
X41226249Y-73375000D01*
X41319293Y-73223166D01*
X41414947Y-72992236D01*
X41473299Y-72749186D01*
X41481105Y-72650000D01*
X53469867Y-72650000D01*
X53488302Y-72778225D01*
X53504129Y-72812880D01*
X53542118Y-72896063D01*
X53598380Y-72960994D01*
X53625454Y-72992240D01*
X53626951Y-72993967D01*
X53735931Y-73064004D01*
X53860225Y-73100499D01*
X53860227Y-73100500D01*
X53860228Y-73100500D01*
X53989773Y-73100500D01*
X53989773Y-73100499D01*
X54114069Y-73064004D01*
X54223049Y-72993967D01*
X54307882Y-72896063D01*
X54361697Y-72778226D01*
X54380133Y-72650000D01*
X54361697Y-72521774D01*
X54307882Y-72403937D01*
X54223049Y-72306033D01*
X54114069Y-72235996D01*
X54114065Y-72235994D01*
X54114064Y-72235994D01*
X53989774Y-72199500D01*
X53989772Y-72199500D01*
X53860228Y-72199500D01*
X53860226Y-72199500D01*
X53735935Y-72235994D01*
X53735932Y-72235995D01*
X53735931Y-72235996D01*
X53684677Y-72268934D01*
X53626950Y-72306033D01*
X53542118Y-72403937D01*
X53542117Y-72403938D01*
X53488302Y-72521774D01*
X53469867Y-72650000D01*
X41481105Y-72650000D01*
X41492910Y-72500000D01*
X41473299Y-72250814D01*
X41414947Y-72007764D01*
X41389390Y-71946063D01*
X41319295Y-71776837D01*
X41319293Y-71776834D01*
X41188694Y-71563716D01*
X41188693Y-71563714D01*
X41188692Y-71563713D01*
X41188691Y-71563711D01*
X41134276Y-71500000D01*
X54994867Y-71500000D01*
X55013302Y-71628225D01*
X55046081Y-71700000D01*
X55067118Y-71746063D01*
X55151951Y-71843967D01*
X55260931Y-71914004D01*
X55370117Y-71946063D01*
X55385225Y-71950499D01*
X55385227Y-71950500D01*
X55385228Y-71950500D01*
X55514773Y-71950500D01*
X55514773Y-71950499D01*
X55639069Y-71914004D01*
X55748049Y-71843967D01*
X55832882Y-71746063D01*
X55853919Y-71700000D01*
X70844867Y-71700000D01*
X70863302Y-71828225D01*
X70902477Y-71914004D01*
X70917118Y-71946063D01*
X71001951Y-72043967D01*
X71110931Y-72114004D01*
X71235225Y-72150499D01*
X71235227Y-72150500D01*
X71235228Y-72150500D01*
X71364773Y-72150500D01*
X71364773Y-72150499D01*
X71489069Y-72114004D01*
X71598049Y-72043967D01*
X71682882Y-71946063D01*
X71736697Y-71828226D01*
X71755133Y-71700000D01*
X71736697Y-71571774D01*
X71682882Y-71453937D01*
X71598049Y-71356033D01*
X71582017Y-71345730D01*
X79424500Y-71345730D01*
X79424500Y-72654269D01*
X79427353Y-72684699D01*
X79427353Y-72684701D01*
X79460080Y-72778226D01*
X79472207Y-72812882D01*
X79552850Y-72922150D01*
X79662118Y-73002793D01*
X79704845Y-73017744D01*
X79790299Y-73047646D01*
X79820730Y-73050500D01*
X79820734Y-73050500D01*
X81379270Y-73050500D01*
X81409699Y-73047646D01*
X81409701Y-73047646D01*
X81473790Y-73025219D01*
X81537882Y-73002793D01*
X81647150Y-72922150D01*
X81727793Y-72812882D01*
X81750219Y-72748790D01*
X81772646Y-72684701D01*
X81772646Y-72684699D01*
X81775500Y-72654269D01*
X81775500Y-71345730D01*
X81772646Y-71315300D01*
X81772646Y-71315298D01*
X81727793Y-71187119D01*
X81727792Y-71187117D01*
X81704851Y-71156033D01*
X81647150Y-71077850D01*
X81537882Y-70997207D01*
X81537880Y-70997206D01*
X81409700Y-70952353D01*
X81379270Y-70949500D01*
X81379266Y-70949500D01*
X79820734Y-70949500D01*
X79820730Y-70949500D01*
X79790300Y-70952353D01*
X79790298Y-70952353D01*
X79662119Y-70997206D01*
X79662117Y-70997207D01*
X79552850Y-71077850D01*
X79472207Y-71187117D01*
X79472206Y-71187119D01*
X79427353Y-71315298D01*
X79427353Y-71315300D01*
X79424500Y-71345730D01*
X71582017Y-71345730D01*
X71489069Y-71285996D01*
X71489065Y-71285994D01*
X71489064Y-71285994D01*
X71364774Y-71249500D01*
X71364772Y-71249500D01*
X71235228Y-71249500D01*
X71235226Y-71249500D01*
X71110935Y-71285994D01*
X71110932Y-71285995D01*
X71110931Y-71285996D01*
X71059677Y-71318934D01*
X71001950Y-71356033D01*
X70917118Y-71453937D01*
X70917117Y-71453938D01*
X70863302Y-71571774D01*
X70844867Y-71700000D01*
X55853919Y-71700000D01*
X55886697Y-71628226D01*
X55905133Y-71500000D01*
X55886697Y-71371774D01*
X55832882Y-71253937D01*
X55748049Y-71156033D01*
X55639069Y-71085996D01*
X55639065Y-71085994D01*
X55639064Y-71085994D01*
X55514774Y-71049500D01*
X55514772Y-71049500D01*
X55385228Y-71049500D01*
X55385226Y-71049500D01*
X55260935Y-71085994D01*
X55260932Y-71085995D01*
X55260931Y-71085996D01*
X55209677Y-71118934D01*
X55151950Y-71156033D01*
X55067118Y-71253937D01*
X55067117Y-71253938D01*
X55013302Y-71371774D01*
X54994867Y-71500000D01*
X41134276Y-71500000D01*
X41026357Y-71373643D01*
X40836289Y-71211309D01*
X40836287Y-71211307D01*
X40836285Y-71211306D01*
X40836283Y-71211305D01*
X40623165Y-71080706D01*
X40623162Y-71080704D01*
X40392240Y-70985054D01*
X40392236Y-70985053D01*
X40149186Y-70926701D01*
X40149184Y-70926700D01*
X40149181Y-70926700D01*
X39900000Y-70907090D01*
X39650818Y-70926700D01*
X39407759Y-70985054D01*
X39176837Y-71080704D01*
X39176834Y-71080706D01*
X38963716Y-71211305D01*
X38963714Y-71211306D01*
X38773643Y-71373643D01*
X38611306Y-71563714D01*
X38611305Y-71563716D01*
X38480706Y-71776834D01*
X38480704Y-71776837D01*
X38385054Y-72007759D01*
X38326700Y-72250818D01*
X38307090Y-72500000D01*
X36499251Y-72500000D01*
X36499251Y-70300000D01*
X66619867Y-70300000D01*
X66638302Y-70428225D01*
X66668326Y-70493966D01*
X66692118Y-70546063D01*
X66776951Y-70643967D01*
X66885931Y-70714004D01*
X67010225Y-70750499D01*
X67010227Y-70750500D01*
X67010228Y-70750500D01*
X67139773Y-70750500D01*
X67139773Y-70750499D01*
X67264069Y-70714004D01*
X67373049Y-70643967D01*
X67457882Y-70546063D01*
X67511697Y-70428226D01*
X67530133Y-70300000D01*
X67511697Y-70171774D01*
X67501753Y-70150000D01*
X67844867Y-70150000D01*
X67863302Y-70278225D01*
X67917117Y-70396061D01*
X67917118Y-70396063D01*
X68001951Y-70493967D01*
X68110931Y-70564004D01*
X68153507Y-70576505D01*
X68235225Y-70600499D01*
X68235227Y-70600500D01*
X68235228Y-70600500D01*
X68364773Y-70600500D01*
X68364773Y-70600499D01*
X68489069Y-70564004D01*
X68598049Y-70493967D01*
X68682882Y-70396063D01*
X68736697Y-70278226D01*
X68753336Y-70162500D01*
X69532367Y-70162500D01*
X69550802Y-70290725D01*
X69598908Y-70396061D01*
X69604618Y-70408563D01*
X69689451Y-70506467D01*
X69798431Y-70576504D01*
X69880156Y-70600500D01*
X69922725Y-70612999D01*
X69922727Y-70613000D01*
X69922728Y-70613000D01*
X70052273Y-70613000D01*
X70052273Y-70612999D01*
X70176569Y-70576504D01*
X70285549Y-70506467D01*
X70370382Y-70408563D01*
X70424197Y-70290726D01*
X70442633Y-70162500D01*
X70424197Y-70034274D01*
X70370382Y-69916437D01*
X70285549Y-69818533D01*
X70176569Y-69748496D01*
X70176565Y-69748494D01*
X70176564Y-69748494D01*
X70052274Y-69712000D01*
X70052272Y-69712000D01*
X69922728Y-69712000D01*
X69922726Y-69712000D01*
X69798435Y-69748494D01*
X69798432Y-69748495D01*
X69798431Y-69748496D01*
X69747177Y-69781434D01*
X69689450Y-69818533D01*
X69604618Y-69916437D01*
X69604617Y-69916438D01*
X69550802Y-70034274D01*
X69532367Y-70162500D01*
X68753336Y-70162500D01*
X68755133Y-70150000D01*
X68736697Y-70021774D01*
X68682882Y-69903937D01*
X68598049Y-69806033D01*
X68489069Y-69735996D01*
X68489065Y-69735994D01*
X68489064Y-69735994D01*
X68364774Y-69699500D01*
X68364772Y-69699500D01*
X68235228Y-69699500D01*
X68235226Y-69699500D01*
X68110935Y-69735994D01*
X68110932Y-69735995D01*
X68110931Y-69735996D01*
X68091484Y-69748494D01*
X68001950Y-69806033D01*
X67917118Y-69903937D01*
X67917117Y-69903938D01*
X67863302Y-70021774D01*
X67844867Y-70150000D01*
X67501753Y-70150000D01*
X67457882Y-70053937D01*
X67373049Y-69956033D01*
X67264069Y-69885996D01*
X67264065Y-69885994D01*
X67264064Y-69885994D01*
X67139774Y-69849500D01*
X67139772Y-69849500D01*
X67010228Y-69849500D01*
X67010226Y-69849500D01*
X66885935Y-69885994D01*
X66885932Y-69885995D01*
X66885931Y-69885996D01*
X66858013Y-69903938D01*
X66776950Y-69956033D01*
X66692118Y-70053937D01*
X66692117Y-70053938D01*
X66638302Y-70171774D01*
X66619867Y-70300000D01*
X36499251Y-70300000D01*
X36499251Y-69396530D01*
X79424500Y-69396530D01*
X79424500Y-69603469D01*
X79464868Y-69806412D01*
X79464870Y-69806420D01*
X79544058Y-69997596D01*
X79659024Y-70169657D01*
X79805342Y-70315975D01*
X79805345Y-70315977D01*
X79977402Y-70430941D01*
X80168580Y-70510130D01*
X80349224Y-70546062D01*
X80371530Y-70550499D01*
X80371534Y-70550500D01*
X80371535Y-70550500D01*
X80828466Y-70550500D01*
X80828467Y-70550499D01*
X81031420Y-70510130D01*
X81222598Y-70430941D01*
X81394655Y-70315977D01*
X81540977Y-70169655D01*
X81655941Y-69997598D01*
X81735130Y-69806420D01*
X81775500Y-69603465D01*
X81775500Y-69396535D01*
X81735130Y-69193580D01*
X81655941Y-69002402D01*
X81540977Y-68830345D01*
X81540975Y-68830342D01*
X81394657Y-68684024D01*
X81308626Y-68626541D01*
X81222598Y-68569059D01*
X81031420Y-68489870D01*
X81031412Y-68489868D01*
X80828469Y-68449500D01*
X80828465Y-68449500D01*
X80371535Y-68449500D01*
X80371530Y-68449500D01*
X80168587Y-68489868D01*
X80168579Y-68489870D01*
X79977403Y-68569058D01*
X79805342Y-68684024D01*
X79659024Y-68830342D01*
X79544058Y-69002403D01*
X79464870Y-69193579D01*
X79464868Y-69193587D01*
X79424500Y-69396530D01*
X36499251Y-69396530D01*
X36499251Y-67675000D01*
X64769867Y-67675000D01*
X64788302Y-67803225D01*
X64796449Y-67821063D01*
X64842118Y-67921063D01*
X64926951Y-68018967D01*
X65035931Y-68089004D01*
X65160225Y-68125499D01*
X65160227Y-68125500D01*
X65160228Y-68125500D01*
X65289773Y-68125500D01*
X65289773Y-68125499D01*
X65414069Y-68089004D01*
X65523049Y-68018967D01*
X65607882Y-67921063D01*
X65661697Y-67803226D01*
X65680133Y-67675000D01*
X65665755Y-67575000D01*
X73922685Y-67575000D01*
X73941120Y-67703225D01*
X73986790Y-67803226D01*
X73994936Y-67821063D01*
X74079769Y-67918967D01*
X74188749Y-67989004D01*
X74313043Y-68025499D01*
X74313045Y-68025500D01*
X74313046Y-68025500D01*
X74442591Y-68025500D01*
X74442591Y-68025499D01*
X74566887Y-67989004D01*
X74675867Y-67918967D01*
X74760700Y-67821063D01*
X74814515Y-67703226D01*
X74832951Y-67575000D01*
X74814515Y-67446774D01*
X74760700Y-67328937D01*
X74675867Y-67231033D01*
X74566887Y-67160996D01*
X74566883Y-67160994D01*
X74566882Y-67160994D01*
X74442592Y-67124500D01*
X74442590Y-67124500D01*
X74313046Y-67124500D01*
X74313044Y-67124500D01*
X74188753Y-67160994D01*
X74188750Y-67160995D01*
X74188749Y-67160996D01*
X74145168Y-67189004D01*
X74079768Y-67231033D01*
X73994936Y-67328937D01*
X73994935Y-67328938D01*
X73941120Y-67446774D01*
X73922685Y-67575000D01*
X65665755Y-67575000D01*
X65661697Y-67546774D01*
X65607882Y-67428937D01*
X65523049Y-67331033D01*
X65414069Y-67260996D01*
X65414065Y-67260994D01*
X65414064Y-67260994D01*
X65289774Y-67224500D01*
X65289772Y-67224500D01*
X65160228Y-67224500D01*
X65160226Y-67224500D01*
X65035935Y-67260994D01*
X65035932Y-67260995D01*
X65035931Y-67260996D01*
X64984677Y-67293934D01*
X64926950Y-67331033D01*
X64842118Y-67428937D01*
X64842117Y-67428938D01*
X64788302Y-67546774D01*
X64769867Y-67675000D01*
X36499251Y-67675000D01*
X36499251Y-66000000D01*
X54969867Y-66000000D01*
X54988302Y-66128225D01*
X55013785Y-66184023D01*
X55042118Y-66246063D01*
X55126951Y-66343967D01*
X55235931Y-66414004D01*
X55241653Y-66415684D01*
X55260580Y-66421242D01*
X55319358Y-66459015D01*
X55348384Y-66522571D01*
X55338441Y-66591729D01*
X55338441Y-66591730D01*
X55313302Y-66646776D01*
X55294867Y-66775000D01*
X55313302Y-66903225D01*
X55367117Y-67021061D01*
X55367118Y-67021063D01*
X55451951Y-67118967D01*
X55560931Y-67189004D01*
X55685225Y-67225499D01*
X55685227Y-67225500D01*
X55685228Y-67225500D01*
X55814773Y-67225500D01*
X55814773Y-67225499D01*
X55939069Y-67189004D01*
X56048049Y-67118967D01*
X56132882Y-67021063D01*
X56186697Y-66903226D01*
X56187660Y-66896530D01*
X79424500Y-66896530D01*
X79424500Y-67103469D01*
X79464868Y-67306412D01*
X79464870Y-67306420D01*
X79544058Y-67497596D01*
X79659024Y-67669657D01*
X79805342Y-67815975D01*
X79805345Y-67815977D01*
X79977402Y-67930941D01*
X80168580Y-68010130D01*
X80371530Y-68050499D01*
X80371534Y-68050500D01*
X80371535Y-68050500D01*
X80828466Y-68050500D01*
X80828467Y-68050499D01*
X81031420Y-68010130D01*
X81222598Y-67930941D01*
X81394655Y-67815977D01*
X81540977Y-67669655D01*
X81655941Y-67497598D01*
X81735130Y-67306420D01*
X81775500Y-67103465D01*
X81775500Y-66896535D01*
X81735130Y-66693580D01*
X81655941Y-66502402D01*
X81540977Y-66330345D01*
X81540975Y-66330342D01*
X81394657Y-66184024D01*
X81307067Y-66125499D01*
X81222598Y-66069059D01*
X81031420Y-65989870D01*
X81031412Y-65989868D01*
X80828469Y-65949500D01*
X80828465Y-65949500D01*
X80371535Y-65949500D01*
X80371530Y-65949500D01*
X80168587Y-65989868D01*
X80168579Y-65989870D01*
X79977403Y-66069058D01*
X79805342Y-66184024D01*
X79659024Y-66330342D01*
X79544058Y-66502403D01*
X79464870Y-66693579D01*
X79464868Y-66693587D01*
X79424500Y-66896530D01*
X56187660Y-66896530D01*
X56205133Y-66775000D01*
X56186697Y-66646774D01*
X56132882Y-66528937D01*
X56048049Y-66431033D01*
X55939069Y-66360996D01*
X55939067Y-66360995D01*
X55939065Y-66360994D01*
X55914417Y-66353757D01*
X55855639Y-66315982D01*
X55826615Y-66252426D01*
X55836558Y-66183271D01*
X55861697Y-66128226D01*
X55880133Y-66000000D01*
X55861697Y-65871774D01*
X55807882Y-65753937D01*
X55739484Y-65675000D01*
X69519867Y-65675000D01*
X69538302Y-65803225D01*
X69569608Y-65871774D01*
X69592118Y-65921063D01*
X69676951Y-66018967D01*
X69785931Y-66089004D01*
X69910225Y-66125499D01*
X69910227Y-66125500D01*
X69910228Y-66125500D01*
X70039773Y-66125500D01*
X70039773Y-66125499D01*
X70164069Y-66089004D01*
X70273049Y-66018967D01*
X70357882Y-65921063D01*
X70411697Y-65803226D01*
X70430133Y-65675000D01*
X70411697Y-65546774D01*
X70357882Y-65428937D01*
X70273049Y-65331033D01*
X70164069Y-65260996D01*
X70164065Y-65260994D01*
X70164064Y-65260994D01*
X70039774Y-65224500D01*
X70039772Y-65224500D01*
X69910228Y-65224500D01*
X69910226Y-65224500D01*
X69785935Y-65260994D01*
X69785932Y-65260995D01*
X69785931Y-65260996D01*
X69749045Y-65284701D01*
X69676950Y-65331033D01*
X69592118Y-65428937D01*
X69592117Y-65428938D01*
X69538302Y-65546774D01*
X69519867Y-65675000D01*
X55739484Y-65675000D01*
X55723049Y-65656033D01*
X55614069Y-65585996D01*
X55614065Y-65585994D01*
X55614064Y-65585994D01*
X55489774Y-65549500D01*
X55489772Y-65549500D01*
X55360228Y-65549500D01*
X55360226Y-65549500D01*
X55235935Y-65585994D01*
X55235932Y-65585995D01*
X55235931Y-65585996D01*
X55184677Y-65618934D01*
X55126950Y-65656033D01*
X55042118Y-65753937D01*
X55042117Y-65753938D01*
X54988302Y-65871774D01*
X54969867Y-66000000D01*
X36499251Y-66000000D01*
X36499251Y-63945730D01*
X44199500Y-63945730D01*
X44199500Y-65254269D01*
X44202353Y-65284699D01*
X44202353Y-65284701D01*
X44247206Y-65412880D01*
X44247207Y-65412882D01*
X44327850Y-65522150D01*
X44437118Y-65602793D01*
X44479845Y-65617744D01*
X44565299Y-65647646D01*
X44595730Y-65650500D01*
X44595734Y-65650500D01*
X46204270Y-65650500D01*
X46234699Y-65647646D01*
X46234701Y-65647646D01*
X46298790Y-65625219D01*
X46362882Y-65602793D01*
X46472150Y-65522150D01*
X46552793Y-65412882D01*
X46581433Y-65331033D01*
X46597646Y-65284701D01*
X46597646Y-65284699D01*
X46600500Y-65254269D01*
X46600500Y-64362500D01*
X60482367Y-64362500D01*
X60500802Y-64490725D01*
X60548508Y-64595185D01*
X60554618Y-64608563D01*
X60639451Y-64706467D01*
X60748431Y-64776504D01*
X60850291Y-64806412D01*
X60872725Y-64812999D01*
X60872727Y-64813000D01*
X60872728Y-64813000D01*
X61002273Y-64813000D01*
X61002273Y-64812999D01*
X61126569Y-64776504D01*
X61235549Y-64706467D01*
X61320382Y-64608563D01*
X61374197Y-64490726D01*
X61392633Y-64362500D01*
X61374197Y-64234274D01*
X61324293Y-64125000D01*
X61669867Y-64125000D01*
X61688302Y-64253225D01*
X61734297Y-64353937D01*
X61742118Y-64371063D01*
X61826951Y-64468967D01*
X61935931Y-64539004D01*
X62060225Y-64575499D01*
X62060227Y-64575500D01*
X62162634Y-64575500D01*
X62229673Y-64595185D01*
X62275428Y-64647989D01*
X62285372Y-64681854D01*
X62292038Y-64728225D01*
X62327746Y-64806412D01*
X62345854Y-64846063D01*
X62430687Y-64943967D01*
X62539667Y-65014004D01*
X62602909Y-65032573D01*
X62663961Y-65050499D01*
X62663963Y-65050500D01*
X62730303Y-65050500D01*
X62797342Y-65070185D01*
X62843097Y-65122989D01*
X62853041Y-65156853D01*
X62863302Y-65228225D01*
X62903377Y-65315975D01*
X62917118Y-65346063D01*
X63001951Y-65443967D01*
X63110931Y-65514004D01*
X63235225Y-65550499D01*
X63235227Y-65550500D01*
X63235228Y-65550500D01*
X63364773Y-65550500D01*
X63364773Y-65550499D01*
X63489069Y-65514004D01*
X63598049Y-65443967D01*
X63682882Y-65346063D01*
X63736697Y-65228226D01*
X63755133Y-65100000D01*
X63736697Y-64971774D01*
X63682882Y-64853937D01*
X63598049Y-64756033D01*
X63489069Y-64685996D01*
X63489065Y-64685994D01*
X63489064Y-64685994D01*
X63364774Y-64649500D01*
X63364772Y-64649500D01*
X63298433Y-64649500D01*
X63231394Y-64629815D01*
X63185639Y-64577011D01*
X63175695Y-64543147D01*
X63165433Y-64471774D01*
X63131072Y-64396535D01*
X63131070Y-64396530D01*
X79424500Y-64396530D01*
X79424500Y-64603469D01*
X79464868Y-64806412D01*
X79464870Y-64806420D01*
X79544059Y-64997598D01*
X79579406Y-65050499D01*
X79659024Y-65169657D01*
X79805342Y-65315975D01*
X79805345Y-65315977D01*
X79977402Y-65430941D01*
X80168580Y-65510130D01*
X80352803Y-65546774D01*
X80371530Y-65550499D01*
X80371534Y-65550500D01*
X80371535Y-65550500D01*
X80828466Y-65550500D01*
X80828467Y-65550499D01*
X81031420Y-65510130D01*
X81222598Y-65430941D01*
X81394655Y-65315977D01*
X81540977Y-65169655D01*
X81655941Y-64997598D01*
X81735130Y-64806420D01*
X81775500Y-64603465D01*
X81775500Y-64396535D01*
X81735130Y-64193580D01*
X81655941Y-64002402D01*
X81540977Y-63830345D01*
X81540975Y-63830342D01*
X81394657Y-63684024D01*
X81308626Y-63626541D01*
X81222598Y-63569059D01*
X81182266Y-63552353D01*
X81031420Y-63489870D01*
X81031412Y-63489868D01*
X80828469Y-63449500D01*
X80828465Y-63449500D01*
X80371535Y-63449500D01*
X80371530Y-63449500D01*
X80168587Y-63489868D01*
X80168579Y-63489870D01*
X79977403Y-63569058D01*
X79805342Y-63684024D01*
X79659024Y-63830342D01*
X79544058Y-64002403D01*
X79464870Y-64193579D01*
X79464868Y-64193587D01*
X79424500Y-64396530D01*
X63131070Y-64396530D01*
X63111618Y-64353937D01*
X63026785Y-64256033D01*
X62917805Y-64185996D01*
X62917801Y-64185994D01*
X62917800Y-64185994D01*
X62793510Y-64149500D01*
X62793508Y-64149500D01*
X62691102Y-64149500D01*
X62624063Y-64129815D01*
X62578308Y-64077011D01*
X62568364Y-64043146D01*
X62561697Y-63996774D01*
X62539648Y-63948494D01*
X62507882Y-63878937D01*
X62423049Y-63781033D01*
X62413661Y-63775000D01*
X76119867Y-63775000D01*
X76138302Y-63903225D01*
X76192117Y-64021061D01*
X76192118Y-64021063D01*
X76276951Y-64118967D01*
X76385931Y-64189004D01*
X76401516Y-64193580D01*
X76510225Y-64225499D01*
X76510227Y-64225500D01*
X76510228Y-64225500D01*
X76639773Y-64225500D01*
X76639773Y-64225499D01*
X76764069Y-64189004D01*
X76873049Y-64118967D01*
X76957882Y-64021063D01*
X77011697Y-63903226D01*
X77030133Y-63775000D01*
X77011697Y-63646774D01*
X76957882Y-63528937D01*
X76873049Y-63431033D01*
X76764069Y-63360996D01*
X76764065Y-63360994D01*
X76764064Y-63360994D01*
X76639774Y-63324500D01*
X76639772Y-63324500D01*
X76510228Y-63324500D01*
X76510226Y-63324500D01*
X76385935Y-63360994D01*
X76385932Y-63360995D01*
X76385931Y-63360996D01*
X76344324Y-63387735D01*
X76276950Y-63431033D01*
X76192118Y-63528937D01*
X76192117Y-63528938D01*
X76138302Y-63646774D01*
X76119867Y-63775000D01*
X62413661Y-63775000D01*
X62314069Y-63710996D01*
X62314065Y-63710994D01*
X62314064Y-63710994D01*
X62189774Y-63674500D01*
X62189772Y-63674500D01*
X62060228Y-63674500D01*
X62060226Y-63674500D01*
X61935935Y-63710994D01*
X61935932Y-63710995D01*
X61935931Y-63710996D01*
X61884677Y-63743934D01*
X61826950Y-63781033D01*
X61742118Y-63878937D01*
X61742117Y-63878938D01*
X61688302Y-63996774D01*
X61669867Y-64125000D01*
X61324293Y-64125000D01*
X61320382Y-64116437D01*
X61235549Y-64018533D01*
X61126569Y-63948496D01*
X61126565Y-63948494D01*
X61126564Y-63948494D01*
X61002274Y-63912000D01*
X61002272Y-63912000D01*
X60872728Y-63912000D01*
X60872726Y-63912000D01*
X60748435Y-63948494D01*
X60748432Y-63948495D01*
X60748431Y-63948496D01*
X60697177Y-63981434D01*
X60639450Y-64018533D01*
X60554618Y-64116437D01*
X60554617Y-64116438D01*
X60500802Y-64234274D01*
X60482367Y-64362500D01*
X46600500Y-64362500D01*
X46600500Y-63945730D01*
X46597646Y-63915300D01*
X46597646Y-63915298D01*
X46552793Y-63787119D01*
X46552792Y-63787117D01*
X46548302Y-63781033D01*
X46472150Y-63677850D01*
X46362882Y-63597207D01*
X46362880Y-63597206D01*
X46234700Y-63552353D01*
X46204270Y-63549500D01*
X46204266Y-63549500D01*
X44595734Y-63549500D01*
X44595730Y-63549500D01*
X44565300Y-63552353D01*
X44565298Y-63552353D01*
X44437119Y-63597206D01*
X44437117Y-63597207D01*
X44327850Y-63677850D01*
X44247207Y-63787117D01*
X44247206Y-63787119D01*
X44202353Y-63915298D01*
X44202353Y-63915300D01*
X44199500Y-63945730D01*
X36499251Y-63945730D01*
X36499251Y-62973731D01*
X62018598Y-62973731D01*
X62037033Y-63101956D01*
X62090848Y-63219792D01*
X62090849Y-63219794D01*
X62175682Y-63317698D01*
X62284662Y-63387735D01*
X62408956Y-63424230D01*
X62408958Y-63424231D01*
X62408959Y-63424231D01*
X62538504Y-63424231D01*
X62538504Y-63424230D01*
X62662800Y-63387735D01*
X62771780Y-63317698D01*
X62856613Y-63219794D01*
X62910428Y-63101957D01*
X62928864Y-62973731D01*
X62910428Y-62845505D01*
X62856613Y-62727668D01*
X62771780Y-62629764D01*
X62771779Y-62629763D01*
X62771777Y-62629761D01*
X62765079Y-62623957D01*
X62766440Y-62622385D01*
X62728404Y-62578492D01*
X62718457Y-62509334D01*
X62747480Y-62445777D01*
X62806256Y-62408000D01*
X62806263Y-62407998D01*
X62814771Y-62405500D01*
X62814772Y-62405500D01*
X62939069Y-62369004D01*
X63048049Y-62298967D01*
X63132882Y-62201063D01*
X63186697Y-62083226D01*
X63205133Y-61955000D01*
X63186697Y-61826774D01*
X63132882Y-61708937D01*
X63048049Y-61611033D01*
X62939069Y-61540996D01*
X62939065Y-61540994D01*
X62939064Y-61540994D01*
X62814774Y-61504500D01*
X62814772Y-61504500D01*
X62685228Y-61504500D01*
X62685226Y-61504500D01*
X62560935Y-61540994D01*
X62560932Y-61540995D01*
X62560931Y-61540996D01*
X62553047Y-61546063D01*
X62451950Y-61611033D01*
X62367118Y-61708937D01*
X62367117Y-61708938D01*
X62313302Y-61826774D01*
X62294867Y-61955000D01*
X62313302Y-62083225D01*
X62342000Y-62146063D01*
X62367118Y-62201063D01*
X62451950Y-62298966D01*
X62451953Y-62298969D01*
X62458652Y-62304774D01*
X62457289Y-62306346D01*
X62495324Y-62350232D01*
X62506534Y-62401754D01*
X62506534Y-62401755D01*
X62486849Y-62468794D01*
X62434045Y-62514549D01*
X62417468Y-62520732D01*
X62284666Y-62559725D01*
X62284663Y-62559726D01*
X62284662Y-62559727D01*
X62255463Y-62578492D01*
X62175681Y-62629764D01*
X62090849Y-62727668D01*
X62090848Y-62727669D01*
X62037033Y-62845505D01*
X62018598Y-62973731D01*
X36499251Y-62973731D01*
X36499251Y-61300000D01*
X54844867Y-61300000D01*
X54863302Y-61428225D01*
X54914803Y-61540994D01*
X54917118Y-61546063D01*
X55001951Y-61643967D01*
X55110931Y-61714004D01*
X55235225Y-61750499D01*
X55235227Y-61750500D01*
X55235228Y-61750500D01*
X55364773Y-61750500D01*
X55364773Y-61750499D01*
X55489069Y-61714004D01*
X55598049Y-61643967D01*
X55682882Y-61546063D01*
X55724754Y-61454378D01*
X73055229Y-61454378D01*
X73073664Y-61582603D01*
X73124346Y-61693579D01*
X73127480Y-61700441D01*
X73212313Y-61798345D01*
X73321293Y-61868382D01*
X73417176Y-61896535D01*
X73445587Y-61904877D01*
X73445589Y-61904878D01*
X73445590Y-61904878D01*
X73575135Y-61904878D01*
X73575135Y-61904877D01*
X73591745Y-61900000D01*
X74144867Y-61900000D01*
X74163302Y-62028225D01*
X74217117Y-62146061D01*
X74217118Y-62146063D01*
X74301951Y-62243967D01*
X74410931Y-62314004D01*
X74535225Y-62350499D01*
X74535227Y-62350500D01*
X74535228Y-62350500D01*
X74664773Y-62350500D01*
X74664773Y-62350499D01*
X74789069Y-62314004D01*
X74898049Y-62243967D01*
X74982882Y-62146063D01*
X75036697Y-62028226D01*
X75055133Y-61900000D01*
X75054634Y-61896530D01*
X79424500Y-61896530D01*
X79424500Y-62103469D01*
X79464868Y-62306412D01*
X79464870Y-62306420D01*
X79505910Y-62405500D01*
X79544059Y-62497598D01*
X79585571Y-62559725D01*
X79659024Y-62669657D01*
X79805342Y-62815975D01*
X79805345Y-62815977D01*
X79977402Y-62930941D01*
X80168580Y-63010130D01*
X80371530Y-63050499D01*
X80371534Y-63050500D01*
X80371535Y-63050500D01*
X80828466Y-63050500D01*
X80828467Y-63050499D01*
X81031420Y-63010130D01*
X81222598Y-62930941D01*
X81394655Y-62815977D01*
X81540977Y-62669655D01*
X81655941Y-62497598D01*
X81735130Y-62306420D01*
X81775500Y-62103465D01*
X81775500Y-61896535D01*
X81735130Y-61693580D01*
X81655941Y-61502402D01*
X81540977Y-61330345D01*
X81540975Y-61330342D01*
X81394657Y-61184024D01*
X81253826Y-61089925D01*
X81222598Y-61069059D01*
X81186090Y-61053937D01*
X81031420Y-60989870D01*
X81031412Y-60989868D01*
X80828469Y-60949500D01*
X80828465Y-60949500D01*
X80371535Y-60949500D01*
X80371530Y-60949500D01*
X80168587Y-60989868D01*
X80168579Y-60989870D01*
X79977403Y-61069058D01*
X79805342Y-61184024D01*
X79659024Y-61330342D01*
X79544058Y-61502403D01*
X79464870Y-61693579D01*
X79464868Y-61693587D01*
X79424500Y-61896530D01*
X75054634Y-61896530D01*
X75036697Y-61771774D01*
X74982882Y-61653937D01*
X74898049Y-61556033D01*
X74789069Y-61485996D01*
X74789065Y-61485994D01*
X74789064Y-61485994D01*
X74664774Y-61449500D01*
X74664772Y-61449500D01*
X74535228Y-61449500D01*
X74535226Y-61449500D01*
X74410935Y-61485994D01*
X74410932Y-61485995D01*
X74410931Y-61485996D01*
X74359677Y-61518934D01*
X74301950Y-61556033D01*
X74217118Y-61653937D01*
X74217117Y-61653938D01*
X74163302Y-61771774D01*
X74144867Y-61900000D01*
X73591745Y-61900000D01*
X73699431Y-61868382D01*
X73808411Y-61798345D01*
X73893244Y-61700441D01*
X73947059Y-61582604D01*
X73965495Y-61454378D01*
X73947059Y-61326152D01*
X73893244Y-61208315D01*
X73869803Y-61181262D01*
X73840779Y-61117708D01*
X73850723Y-61048550D01*
X73869799Y-61018865D01*
X73932882Y-60946063D01*
X73986697Y-60828226D01*
X74005133Y-60700000D01*
X73997715Y-60648406D01*
X74007659Y-60579247D01*
X74053414Y-60526443D01*
X74103502Y-60511736D01*
X74102968Y-60508021D01*
X74111740Y-60506759D01*
X74111745Y-60506759D01*
X74236042Y-60470263D01*
X74345022Y-60400226D01*
X74429855Y-60302322D01*
X74483670Y-60184485D01*
X74502106Y-60056259D01*
X74483670Y-59928033D01*
X74429855Y-59810196D01*
X74345022Y-59712292D01*
X74236042Y-59642255D01*
X74236038Y-59642253D01*
X74236037Y-59642253D01*
X74111747Y-59605759D01*
X74111745Y-59605759D01*
X73982201Y-59605759D01*
X73982199Y-59605759D01*
X73857908Y-59642253D01*
X73857905Y-59642254D01*
X73857904Y-59642255D01*
X73839725Y-59653938D01*
X73748923Y-59712292D01*
X73664091Y-59810196D01*
X73664090Y-59810197D01*
X73610275Y-59928033D01*
X73591840Y-60056259D01*
X73599258Y-60107853D01*
X73589314Y-60177012D01*
X73543559Y-60229816D01*
X73493470Y-60244522D01*
X73494005Y-60248238D01*
X73485225Y-60249500D01*
X73360935Y-60285994D01*
X73360932Y-60285995D01*
X73360931Y-60285996D01*
X73317350Y-60314004D01*
X73251950Y-60356033D01*
X73167118Y-60453937D01*
X73167117Y-60453938D01*
X73113302Y-60571774D01*
X73094867Y-60700000D01*
X73113302Y-60828225D01*
X73139685Y-60885994D01*
X73167118Y-60946063D01*
X73175757Y-60956033D01*
X73190558Y-60973115D01*
X73219581Y-61036671D01*
X73209636Y-61105830D01*
X73190557Y-61135517D01*
X73127482Y-61208310D01*
X73127479Y-61208316D01*
X73073664Y-61326152D01*
X73055229Y-61454378D01*
X55724754Y-61454378D01*
X55736697Y-61428226D01*
X55755133Y-61300000D01*
X55736697Y-61171774D01*
X55682882Y-61053937D01*
X55598049Y-60956033D01*
X55489069Y-60885996D01*
X55489065Y-60885994D01*
X55489064Y-60885994D01*
X55364774Y-60849500D01*
X55364772Y-60849500D01*
X55235228Y-60849500D01*
X55235226Y-60849500D01*
X55110935Y-60885994D01*
X55110932Y-60885995D01*
X55110931Y-60885996D01*
X55059677Y-60918934D01*
X55001950Y-60956033D01*
X54917118Y-61053937D01*
X54917117Y-61053938D01*
X54863302Y-61171774D01*
X54844867Y-61300000D01*
X36499251Y-61300000D01*
X36499251Y-59900000D01*
X61544867Y-59900000D01*
X61563302Y-60028225D01*
X61599668Y-60107853D01*
X61617118Y-60146063D01*
X61701951Y-60243967D01*
X61810931Y-60314004D01*
X61935225Y-60350499D01*
X61935227Y-60350500D01*
X61935228Y-60350500D01*
X62064773Y-60350500D01*
X62064773Y-60350499D01*
X62189069Y-60314004D01*
X62298049Y-60243967D01*
X62382882Y-60146063D01*
X62436697Y-60028226D01*
X62455133Y-59900000D01*
X62436697Y-59771774D01*
X62382882Y-59653937D01*
X62349143Y-59615000D01*
X71479867Y-59615000D01*
X71498302Y-59743225D01*
X71547294Y-59850500D01*
X71552118Y-59861063D01*
X71636951Y-59958967D01*
X71745931Y-60029004D01*
X71870228Y-60065500D01*
X71870232Y-60065500D01*
X71879005Y-60066762D01*
X71878686Y-60068978D01*
X71933880Y-60085185D01*
X71979635Y-60137989D01*
X71989579Y-60207147D01*
X71979635Y-60241011D01*
X71963303Y-60276772D01*
X71963302Y-60276773D01*
X71944867Y-60405000D01*
X71963302Y-60533225D01*
X72017117Y-60651061D01*
X72017118Y-60651063D01*
X72101951Y-60748967D01*
X72210931Y-60819004D01*
X72335225Y-60855499D01*
X72335227Y-60855500D01*
X72335228Y-60855500D01*
X72464773Y-60855500D01*
X72464773Y-60855499D01*
X72589069Y-60819004D01*
X72698049Y-60748967D01*
X72782882Y-60651063D01*
X72836697Y-60533226D01*
X72855133Y-60405000D01*
X72836697Y-60276774D01*
X72782882Y-60158937D01*
X72698049Y-60061033D01*
X72589069Y-59990996D01*
X72589065Y-59990994D01*
X72589064Y-59990994D01*
X72464774Y-59954500D01*
X72455995Y-59953238D01*
X72456313Y-59951021D01*
X72401120Y-59934815D01*
X72355365Y-59882011D01*
X72345421Y-59812853D01*
X72355365Y-59778989D01*
X72364007Y-59760064D01*
X72371697Y-59743226D01*
X72390133Y-59615000D01*
X72371697Y-59486774D01*
X72317882Y-59368937D01*
X72233049Y-59271033D01*
X72124069Y-59200996D01*
X72124065Y-59200994D01*
X72124064Y-59200994D01*
X71999774Y-59164500D01*
X71999772Y-59164500D01*
X71870228Y-59164500D01*
X71870226Y-59164500D01*
X71745935Y-59200994D01*
X71745932Y-59200995D01*
X71745931Y-59200996D01*
X71694677Y-59233934D01*
X71636950Y-59271033D01*
X71552118Y-59368937D01*
X71552117Y-59368938D01*
X71498302Y-59486774D01*
X71479867Y-59615000D01*
X62349143Y-59615000D01*
X62298049Y-59556033D01*
X62189069Y-59485996D01*
X62189065Y-59485994D01*
X62189064Y-59485994D01*
X62064774Y-59449500D01*
X62064772Y-59449500D01*
X61935228Y-59449500D01*
X61935226Y-59449500D01*
X61810935Y-59485994D01*
X61810932Y-59485995D01*
X61810931Y-59485996D01*
X61759677Y-59518934D01*
X61701950Y-59556033D01*
X61617118Y-59653937D01*
X61617117Y-59653938D01*
X61563302Y-59771774D01*
X61544867Y-59900000D01*
X36499251Y-59900000D01*
X36499251Y-59400000D01*
X54844867Y-59400000D01*
X54863302Y-59528225D01*
X54902932Y-59615000D01*
X54917118Y-59646063D01*
X55001951Y-59743967D01*
X55110931Y-59814004D01*
X55235225Y-59850499D01*
X55235227Y-59850500D01*
X55235228Y-59850500D01*
X55364773Y-59850500D01*
X55364773Y-59850499D01*
X55489069Y-59814004D01*
X55598049Y-59743967D01*
X55682882Y-59646063D01*
X55736697Y-59528226D01*
X55755133Y-59400000D01*
X55736697Y-59271774D01*
X55682882Y-59153937D01*
X55598049Y-59056033D01*
X55489069Y-58985996D01*
X55489065Y-58985994D01*
X55489064Y-58985994D01*
X55364774Y-58949500D01*
X55364772Y-58949500D01*
X55235228Y-58949500D01*
X55235226Y-58949500D01*
X55110935Y-58985994D01*
X55110932Y-58985995D01*
X55110931Y-58985996D01*
X55059677Y-59018934D01*
X55001950Y-59056033D01*
X54917118Y-59153937D01*
X54917117Y-59153938D01*
X54863302Y-59271774D01*
X54844867Y-59400000D01*
X36499251Y-59400000D01*
X36499251Y-58200000D01*
X61444867Y-58200000D01*
X61463302Y-58328225D01*
X61517117Y-58446061D01*
X61517118Y-58446063D01*
X61601951Y-58543967D01*
X61710931Y-58614004D01*
X61835225Y-58650499D01*
X61835227Y-58650500D01*
X61835228Y-58650500D01*
X61964773Y-58650500D01*
X61964773Y-58650499D01*
X62089069Y-58614004D01*
X62198049Y-58543967D01*
X62282882Y-58446063D01*
X62336697Y-58328226D01*
X62355133Y-58200000D01*
X62336697Y-58071774D01*
X62282882Y-57953937D01*
X62198049Y-57856033D01*
X62089069Y-57785996D01*
X62089065Y-57785994D01*
X62089064Y-57785994D01*
X61964774Y-57749500D01*
X61964772Y-57749500D01*
X61835228Y-57749500D01*
X61835226Y-57749500D01*
X61710935Y-57785994D01*
X61710932Y-57785995D01*
X61710931Y-57785996D01*
X61659677Y-57818934D01*
X61601950Y-57856033D01*
X61517118Y-57953937D01*
X61517117Y-57953938D01*
X61463302Y-58071774D01*
X61444867Y-58200000D01*
X36499251Y-58200000D01*
X36499251Y-56096530D01*
X44224500Y-56096530D01*
X44224500Y-56303469D01*
X44264868Y-56506412D01*
X44264870Y-56506420D01*
X44344058Y-56697596D01*
X44459024Y-56869657D01*
X44605342Y-57015975D01*
X44605345Y-57015977D01*
X44777402Y-57130941D01*
X44968580Y-57210130D01*
X45108688Y-57237999D01*
X45171530Y-57250499D01*
X45171534Y-57250500D01*
X45171535Y-57250500D01*
X45628466Y-57250500D01*
X45628467Y-57250499D01*
X45831420Y-57210130D01*
X46022598Y-57130941D01*
X46194655Y-57015977D01*
X46340977Y-56869655D01*
X46455941Y-56697598D01*
X46484451Y-56628768D01*
X64416099Y-56628768D01*
X64434534Y-56756993D01*
X64485986Y-56869655D01*
X64488350Y-56874831D01*
X64573183Y-56972735D01*
X64682163Y-57042772D01*
X64806457Y-57079267D01*
X64806459Y-57079268D01*
X64806460Y-57079268D01*
X64936005Y-57079268D01*
X64936005Y-57079267D01*
X65060301Y-57042772D01*
X65169281Y-56972735D01*
X65254114Y-56874831D01*
X65293997Y-56787500D01*
X69269867Y-56787500D01*
X69288302Y-56915725D01*
X69342117Y-57033561D01*
X69342118Y-57033563D01*
X69426951Y-57131467D01*
X69535931Y-57201504D01*
X69565313Y-57210131D01*
X69660225Y-57237999D01*
X69660227Y-57238000D01*
X69660228Y-57238000D01*
X69789773Y-57238000D01*
X69789773Y-57237999D01*
X69914069Y-57201504D01*
X70023049Y-57131467D01*
X70107882Y-57033563D01*
X70161697Y-56915726D01*
X70180133Y-56787500D01*
X70161697Y-56659274D01*
X70107882Y-56541437D01*
X70023049Y-56443533D01*
X69914069Y-56373496D01*
X69914065Y-56373494D01*
X69914064Y-56373494D01*
X69789774Y-56337000D01*
X69789772Y-56337000D01*
X69660228Y-56337000D01*
X69660226Y-56337000D01*
X69535935Y-56373494D01*
X69535932Y-56373495D01*
X69535931Y-56373496D01*
X69500819Y-56396061D01*
X69426950Y-56443533D01*
X69342118Y-56541437D01*
X69342117Y-56541438D01*
X69288302Y-56659274D01*
X69269867Y-56787500D01*
X65293997Y-56787500D01*
X65307929Y-56756994D01*
X65326365Y-56628768D01*
X65307929Y-56500542D01*
X65254114Y-56382705D01*
X65254112Y-56382703D01*
X65254111Y-56382700D01*
X65192163Y-56311208D01*
X65163138Y-56247652D01*
X65173082Y-56178494D01*
X65191394Y-56150000D01*
X71494867Y-56150000D01*
X71513302Y-56278225D01*
X71561018Y-56382706D01*
X71567118Y-56396063D01*
X71651951Y-56493967D01*
X71760931Y-56564004D01*
X71885225Y-56600499D01*
X71885227Y-56600500D01*
X71885228Y-56600500D01*
X72014773Y-56600500D01*
X72014773Y-56600499D01*
X72139069Y-56564004D01*
X72248049Y-56493967D01*
X72332882Y-56396063D01*
X72386697Y-56278226D01*
X72405133Y-56150000D01*
X72386697Y-56021774D01*
X72332882Y-55903937D01*
X72248049Y-55806033D01*
X72139069Y-55735996D01*
X72139065Y-55735994D01*
X72139064Y-55735994D01*
X72014774Y-55699500D01*
X72014772Y-55699500D01*
X71885228Y-55699500D01*
X71885226Y-55699500D01*
X71760935Y-55735994D01*
X71760932Y-55735995D01*
X71760931Y-55735996D01*
X71709677Y-55768934D01*
X71651950Y-55806033D01*
X71567118Y-55903937D01*
X71567117Y-55903938D01*
X71513302Y-56021774D01*
X71494867Y-56150000D01*
X65191394Y-56150000D01*
X65192163Y-56148804D01*
X65270185Y-56058761D01*
X65270185Y-56058759D01*
X65270188Y-56058757D01*
X65324003Y-55940920D01*
X65342439Y-55812694D01*
X65324003Y-55684468D01*
X65270188Y-55566631D01*
X65185355Y-55468727D01*
X65076375Y-55398690D01*
X65076371Y-55398688D01*
X65076370Y-55398688D01*
X64952080Y-55362194D01*
X64952078Y-55362194D01*
X64822534Y-55362194D01*
X64822532Y-55362194D01*
X64698241Y-55398688D01*
X64698238Y-55398689D01*
X64698237Y-55398690D01*
X64646983Y-55431628D01*
X64589256Y-55468727D01*
X64504424Y-55566631D01*
X64504423Y-55566632D01*
X64450608Y-55684468D01*
X64432173Y-55812694D01*
X64450608Y-55940919D01*
X64487534Y-56021774D01*
X64504424Y-56058757D01*
X64566375Y-56130253D01*
X64595399Y-56193809D01*
X64585455Y-56262967D01*
X64566375Y-56292656D01*
X64488352Y-56382701D01*
X64488349Y-56382706D01*
X64434534Y-56500542D01*
X64416099Y-56628768D01*
X46484451Y-56628768D01*
X46535130Y-56506420D01*
X46575500Y-56303465D01*
X46575500Y-56096535D01*
X46535130Y-55893580D01*
X46455941Y-55702402D01*
X46340977Y-55530345D01*
X46340975Y-55530342D01*
X46194657Y-55384024D01*
X46108626Y-55326541D01*
X46022598Y-55269059D01*
X45831420Y-55189870D01*
X45831412Y-55189868D01*
X45628469Y-55149500D01*
X45628465Y-55149500D01*
X45171535Y-55149500D01*
X45171530Y-55149500D01*
X44968587Y-55189868D01*
X44968579Y-55189870D01*
X44777403Y-55269058D01*
X44605342Y-55384024D01*
X44459024Y-55530342D01*
X44344058Y-55702403D01*
X44264870Y-55893579D01*
X44264868Y-55893587D01*
X44224500Y-56096530D01*
X36499251Y-56096530D01*
X36499251Y-53596530D01*
X44224500Y-53596530D01*
X44224500Y-53803469D01*
X44264868Y-54006412D01*
X44264870Y-54006420D01*
X44340499Y-54189005D01*
X44344059Y-54197598D01*
X44401541Y-54283626D01*
X44459024Y-54369657D01*
X44605342Y-54515975D01*
X44605345Y-54515977D01*
X44777402Y-54630941D01*
X44968580Y-54710130D01*
X45171530Y-54750499D01*
X45171534Y-54750500D01*
X45171535Y-54750500D01*
X45628466Y-54750500D01*
X45628467Y-54750499D01*
X45831420Y-54710130D01*
X46022598Y-54630941D01*
X46106320Y-54575000D01*
X65044867Y-54575000D01*
X65063302Y-54703225D01*
X65117117Y-54821061D01*
X65117118Y-54821063D01*
X65201951Y-54918967D01*
X65310931Y-54989004D01*
X65435225Y-55025499D01*
X65435227Y-55025500D01*
X65435228Y-55025500D01*
X65564773Y-55025500D01*
X65564773Y-55025499D01*
X65689069Y-54989004D01*
X65798049Y-54918967D01*
X65882882Y-54821063D01*
X65936697Y-54703226D01*
X65955133Y-54575000D01*
X65936697Y-54446774D01*
X65882882Y-54328937D01*
X65798049Y-54231033D01*
X65689069Y-54160996D01*
X65689065Y-54160994D01*
X65689064Y-54160994D01*
X65564774Y-54124500D01*
X65564772Y-54124500D01*
X65435228Y-54124500D01*
X65435226Y-54124500D01*
X65310935Y-54160994D01*
X65310932Y-54160995D01*
X65310931Y-54160996D01*
X65267350Y-54189004D01*
X65201950Y-54231033D01*
X65117118Y-54328937D01*
X65117117Y-54328938D01*
X65063302Y-54446774D01*
X65044867Y-54575000D01*
X46106320Y-54575000D01*
X46194655Y-54515977D01*
X46340977Y-54369655D01*
X46455941Y-54197598D01*
X46535130Y-54006420D01*
X46556298Y-53900000D01*
X56669867Y-53900000D01*
X56688302Y-54028225D01*
X56732270Y-54124500D01*
X56742118Y-54146063D01*
X56826951Y-54243967D01*
X56935931Y-54314004D01*
X56986793Y-54328938D01*
X57060225Y-54350499D01*
X57060227Y-54350500D01*
X57060228Y-54350500D01*
X57189773Y-54350500D01*
X57189773Y-54350499D01*
X57314069Y-54314004D01*
X57423049Y-54243967D01*
X57507882Y-54146063D01*
X57561697Y-54028226D01*
X57580133Y-53900000D01*
X60144867Y-53900000D01*
X60163302Y-54028225D01*
X60207270Y-54124500D01*
X60217118Y-54146063D01*
X60301951Y-54243967D01*
X60410931Y-54314004D01*
X60461793Y-54328938D01*
X60535225Y-54350499D01*
X60535227Y-54350500D01*
X60535228Y-54350500D01*
X60664773Y-54350500D01*
X60664773Y-54350499D01*
X60789069Y-54314004D01*
X60898049Y-54243967D01*
X60982882Y-54146063D01*
X61036697Y-54028226D01*
X61055133Y-53900000D01*
X61036697Y-53771774D01*
X60982882Y-53653937D01*
X60898049Y-53556033D01*
X60810860Y-53500000D01*
X65944867Y-53500000D01*
X65963302Y-53628225D01*
X66017117Y-53746061D01*
X66017118Y-53746063D01*
X66101951Y-53843967D01*
X66210931Y-53914004D01*
X66272201Y-53931994D01*
X66335225Y-53950499D01*
X66335227Y-53950500D01*
X66335228Y-53950500D01*
X66464773Y-53950500D01*
X66464773Y-53950499D01*
X66589069Y-53914004D01*
X66698049Y-53843967D01*
X66782882Y-53746063D01*
X66836697Y-53628226D01*
X66855133Y-53500000D01*
X66836697Y-53371774D01*
X66782882Y-53253937D01*
X66698049Y-53156033D01*
X66589069Y-53085996D01*
X66589065Y-53085994D01*
X66589064Y-53085994D01*
X66464774Y-53049500D01*
X66464772Y-53049500D01*
X66335228Y-53049500D01*
X66335226Y-53049500D01*
X66210935Y-53085994D01*
X66210932Y-53085995D01*
X66210931Y-53085996D01*
X66159677Y-53118934D01*
X66101950Y-53156033D01*
X66017118Y-53253937D01*
X66017117Y-53253938D01*
X65963302Y-53371774D01*
X65944867Y-53500000D01*
X60810860Y-53500000D01*
X60789069Y-53485996D01*
X60789065Y-53485994D01*
X60789064Y-53485994D01*
X60664774Y-53449500D01*
X60664772Y-53449500D01*
X60535228Y-53449500D01*
X60535226Y-53449500D01*
X60410935Y-53485994D01*
X60410932Y-53485995D01*
X60410931Y-53485996D01*
X60383013Y-53503938D01*
X60301950Y-53556033D01*
X60217118Y-53653937D01*
X60217117Y-53653938D01*
X60163302Y-53771774D01*
X60144867Y-53900000D01*
X57580133Y-53900000D01*
X57561697Y-53771774D01*
X57507882Y-53653937D01*
X57423049Y-53556033D01*
X57314069Y-53485996D01*
X57314065Y-53485994D01*
X57314064Y-53485994D01*
X57189774Y-53449500D01*
X57189772Y-53449500D01*
X57060228Y-53449500D01*
X57060226Y-53449500D01*
X56935935Y-53485994D01*
X56935932Y-53485995D01*
X56935931Y-53485996D01*
X56908013Y-53503938D01*
X56826950Y-53556033D01*
X56742118Y-53653937D01*
X56742117Y-53653938D01*
X56688302Y-53771774D01*
X56669867Y-53900000D01*
X46556298Y-53900000D01*
X46575500Y-53803465D01*
X46575500Y-53596535D01*
X46535130Y-53393580D01*
X46475657Y-53250000D01*
X53194867Y-53250000D01*
X53213302Y-53378225D01*
X53267117Y-53496061D01*
X53267118Y-53496063D01*
X53351951Y-53593967D01*
X53460931Y-53664004D01*
X53563108Y-53694005D01*
X53585225Y-53700499D01*
X53585227Y-53700500D01*
X53585228Y-53700500D01*
X53714773Y-53700500D01*
X53714773Y-53700499D01*
X53839069Y-53664004D01*
X53948049Y-53593967D01*
X54032882Y-53496063D01*
X54086697Y-53378226D01*
X54105133Y-53250000D01*
X54086697Y-53121774D01*
X54032882Y-53003937D01*
X53948049Y-52906033D01*
X53860860Y-52850000D01*
X55544867Y-52850000D01*
X55563302Y-52978225D01*
X55616160Y-53093966D01*
X55617118Y-53096063D01*
X55701951Y-53193967D01*
X55810931Y-53264004D01*
X55935225Y-53300499D01*
X55935227Y-53300500D01*
X55935228Y-53300500D01*
X56064773Y-53300500D01*
X56064773Y-53300499D01*
X56189069Y-53264004D01*
X56298049Y-53193967D01*
X56382882Y-53096063D01*
X56436697Y-52978226D01*
X56455133Y-52850000D01*
X56436697Y-52721774D01*
X56382882Y-52603937D01*
X56298049Y-52506033D01*
X56189069Y-52435996D01*
X56189065Y-52435994D01*
X56189064Y-52435994D01*
X56066477Y-52400000D01*
X63044867Y-52400000D01*
X63063302Y-52528225D01*
X63093326Y-52593966D01*
X63117118Y-52646063D01*
X63201951Y-52743967D01*
X63310931Y-52814004D01*
X63435225Y-52850499D01*
X63435227Y-52850500D01*
X63435228Y-52850500D01*
X63564773Y-52850500D01*
X63564773Y-52850499D01*
X63566473Y-52850000D01*
X67794867Y-52850000D01*
X67813302Y-52978225D01*
X67866160Y-53093966D01*
X67867118Y-53096063D01*
X67951951Y-53193967D01*
X68060931Y-53264004D01*
X68060933Y-53264004D01*
X68068392Y-53268798D01*
X68067291Y-53270511D01*
X68111302Y-53308643D01*
X68130990Y-53375682D01*
X68111309Y-53442722D01*
X68100704Y-53456889D01*
X68013352Y-53557700D01*
X68013349Y-53557706D01*
X67959534Y-53675542D01*
X67941099Y-53803768D01*
X67959534Y-53931993D01*
X68000211Y-54021061D01*
X68013350Y-54049831D01*
X68098183Y-54147735D01*
X68207163Y-54217772D01*
X68331457Y-54254267D01*
X68331459Y-54254268D01*
X68331460Y-54254268D01*
X68461005Y-54254268D01*
X68461005Y-54254267D01*
X68585301Y-54217772D01*
X68694281Y-54147735D01*
X68779114Y-54049831D01*
X68832929Y-53931994D01*
X68851365Y-53803768D01*
X68847229Y-53775000D01*
X72669867Y-53775000D01*
X72688302Y-53903225D01*
X72730700Y-53996061D01*
X72742118Y-54021063D01*
X72826951Y-54118967D01*
X72935931Y-54189004D01*
X73033912Y-54217773D01*
X73060225Y-54225499D01*
X73060227Y-54225500D01*
X73060228Y-54225500D01*
X73189773Y-54225500D01*
X73189773Y-54225499D01*
X73314069Y-54189004D01*
X73423049Y-54118967D01*
X73507882Y-54021063D01*
X73561697Y-53903226D01*
X73580133Y-53775000D01*
X73576539Y-53750000D01*
X75694867Y-53750000D01*
X75713302Y-53878225D01*
X75724720Y-53903226D01*
X75767118Y-53996063D01*
X75851951Y-54093967D01*
X75960931Y-54164004D01*
X76085225Y-54200499D01*
X76085227Y-54200500D01*
X76085228Y-54200500D01*
X76214773Y-54200500D01*
X76214773Y-54200499D01*
X76339069Y-54164004D01*
X76448049Y-54093967D01*
X76532882Y-53996063D01*
X76586697Y-53878226D01*
X76605133Y-53750000D01*
X76586697Y-53621774D01*
X76532882Y-53503937D01*
X76448049Y-53406033D01*
X76339069Y-53335996D01*
X76339065Y-53335994D01*
X76339064Y-53335994D01*
X76214774Y-53299500D01*
X76214772Y-53299500D01*
X76085228Y-53299500D01*
X76085226Y-53299500D01*
X75960935Y-53335994D01*
X75960932Y-53335995D01*
X75960931Y-53335996D01*
X75922033Y-53360994D01*
X75851950Y-53406033D01*
X75767118Y-53503937D01*
X75767117Y-53503938D01*
X75713302Y-53621774D01*
X75694867Y-53750000D01*
X73576539Y-53750000D01*
X73561697Y-53646774D01*
X73507882Y-53528937D01*
X73423049Y-53431033D01*
X73314069Y-53360996D01*
X73314065Y-53360994D01*
X73314064Y-53360994D01*
X73189774Y-53324500D01*
X73189772Y-53324500D01*
X73060228Y-53324500D01*
X73060226Y-53324500D01*
X72935935Y-53360994D01*
X72935932Y-53360995D01*
X72935931Y-53360996D01*
X72909121Y-53378226D01*
X72826950Y-53431033D01*
X72742118Y-53528937D01*
X72742117Y-53528938D01*
X72688302Y-53646774D01*
X72669867Y-53775000D01*
X68847229Y-53775000D01*
X68832929Y-53675542D01*
X68779114Y-53557705D01*
X68694281Y-53459801D01*
X68585301Y-53389764D01*
X68585298Y-53389763D01*
X68577840Y-53384970D01*
X68578939Y-53383258D01*
X68534923Y-53345115D01*
X68515806Y-53280000D01*
X85194867Y-53280000D01*
X85213302Y-53408225D01*
X85248819Y-53485994D01*
X85267118Y-53526063D01*
X85351951Y-53623967D01*
X85460931Y-53694004D01*
X85483055Y-53700500D01*
X85585225Y-53730499D01*
X85585227Y-53730500D01*
X85585228Y-53730500D01*
X85714773Y-53730500D01*
X85714773Y-53730499D01*
X85839069Y-53694004D01*
X85948049Y-53623967D01*
X86032882Y-53526063D01*
X86086697Y-53408226D01*
X86105133Y-53280000D01*
X86086697Y-53151774D01*
X86032882Y-53033937D01*
X85948049Y-52936033D01*
X85839069Y-52865996D01*
X85839065Y-52865994D01*
X85839064Y-52865994D01*
X85714774Y-52829500D01*
X85714772Y-52829500D01*
X85585228Y-52829500D01*
X85585226Y-52829500D01*
X85460935Y-52865994D01*
X85460932Y-52865995D01*
X85460931Y-52865996D01*
X85432879Y-52884024D01*
X85351950Y-52936033D01*
X85267118Y-53033937D01*
X85267117Y-53033938D01*
X85213302Y-53151774D01*
X85194867Y-53280000D01*
X68515806Y-53280000D01*
X68515241Y-53278075D01*
X68534928Y-53211036D01*
X68545528Y-53196877D01*
X68632879Y-53096067D01*
X68632879Y-53096065D01*
X68632882Y-53096063D01*
X68686697Y-52978226D01*
X68705133Y-52850000D01*
X68690755Y-52750000D01*
X70319867Y-52750000D01*
X70338302Y-52878225D01*
X70383972Y-52978226D01*
X70392118Y-52996063D01*
X70476951Y-53093967D01*
X70585931Y-53164004D01*
X70697889Y-53196877D01*
X70710225Y-53200499D01*
X70710227Y-53200500D01*
X70710228Y-53200500D01*
X70839773Y-53200500D01*
X70839773Y-53200499D01*
X70964069Y-53164004D01*
X71073049Y-53093967D01*
X71157882Y-52996063D01*
X71211697Y-52878226D01*
X71230133Y-52750000D01*
X77544867Y-52750000D01*
X77563302Y-52878225D01*
X77608972Y-52978226D01*
X77617118Y-52996063D01*
X77701951Y-53093967D01*
X77810931Y-53164004D01*
X77922889Y-53196877D01*
X77935225Y-53200499D01*
X77935227Y-53200500D01*
X77935228Y-53200500D01*
X78064773Y-53200500D01*
X78064773Y-53200499D01*
X78189069Y-53164004D01*
X78298049Y-53093967D01*
X78382882Y-52996063D01*
X78436697Y-52878226D01*
X78455133Y-52750000D01*
X78436697Y-52621774D01*
X78382882Y-52503937D01*
X78298049Y-52406033D01*
X78189069Y-52335996D01*
X78189065Y-52335994D01*
X78189064Y-52335994D01*
X78064774Y-52299500D01*
X78064772Y-52299500D01*
X77935228Y-52299500D01*
X77935226Y-52299500D01*
X77810935Y-52335994D01*
X77810932Y-52335995D01*
X77810931Y-52335996D01*
X77759677Y-52368934D01*
X77701950Y-52406033D01*
X77617118Y-52503937D01*
X77617117Y-52503938D01*
X77563302Y-52621774D01*
X77544867Y-52750000D01*
X71230133Y-52750000D01*
X71211697Y-52621774D01*
X71157882Y-52503937D01*
X71073049Y-52406033D01*
X70964069Y-52335996D01*
X70964065Y-52335994D01*
X70964064Y-52335994D01*
X70839774Y-52299500D01*
X70839772Y-52299500D01*
X70710228Y-52299500D01*
X70710226Y-52299500D01*
X70585935Y-52335994D01*
X70585932Y-52335995D01*
X70585931Y-52335996D01*
X70534677Y-52368934D01*
X70476950Y-52406033D01*
X70392118Y-52503937D01*
X70392117Y-52503938D01*
X70338302Y-52621774D01*
X70319867Y-52750000D01*
X68690755Y-52750000D01*
X68686697Y-52721774D01*
X68632882Y-52603937D01*
X68548049Y-52506033D01*
X68439069Y-52435996D01*
X68439065Y-52435994D01*
X68439064Y-52435994D01*
X68314774Y-52399500D01*
X68314772Y-52399500D01*
X68185228Y-52399500D01*
X68185226Y-52399500D01*
X68060935Y-52435994D01*
X68060932Y-52435995D01*
X68060931Y-52435996D01*
X68009677Y-52468934D01*
X67951950Y-52506033D01*
X67867118Y-52603937D01*
X67867117Y-52603938D01*
X67813302Y-52721774D01*
X67794867Y-52850000D01*
X63566473Y-52850000D01*
X63689069Y-52814004D01*
X63798049Y-52743967D01*
X63882882Y-52646063D01*
X63936697Y-52528226D01*
X63955133Y-52400000D01*
X63936697Y-52271774D01*
X63926753Y-52250000D01*
X80144867Y-52250000D01*
X80163302Y-52378225D01*
X80173247Y-52400000D01*
X80217118Y-52496063D01*
X80301951Y-52593967D01*
X80410931Y-52664004D01*
X80499018Y-52689868D01*
X80535225Y-52700499D01*
X80535227Y-52700500D01*
X80535228Y-52700500D01*
X80664773Y-52700500D01*
X80664773Y-52700499D01*
X80789069Y-52664004D01*
X80898049Y-52593967D01*
X80982882Y-52496063D01*
X81036697Y-52378226D01*
X81055133Y-52250000D01*
X81036697Y-52121774D01*
X80982882Y-52003937D01*
X80898049Y-51906033D01*
X80789069Y-51835996D01*
X80789065Y-51835994D01*
X80789064Y-51835994D01*
X80664774Y-51799500D01*
X80664772Y-51799500D01*
X80535228Y-51799500D01*
X80535226Y-51799500D01*
X80410935Y-51835994D01*
X80410932Y-51835995D01*
X80410931Y-51835996D01*
X80382498Y-51854269D01*
X80301950Y-51906033D01*
X80217118Y-52003937D01*
X80217117Y-52003938D01*
X80163302Y-52121774D01*
X80144867Y-52250000D01*
X63926753Y-52250000D01*
X63882882Y-52153937D01*
X63798049Y-52056033D01*
X63689069Y-51985996D01*
X63689065Y-51985994D01*
X63689064Y-51985994D01*
X63564774Y-51949500D01*
X63564772Y-51949500D01*
X63435228Y-51949500D01*
X63435226Y-51949500D01*
X63310935Y-51985994D01*
X63310932Y-51985995D01*
X63310931Y-51985996D01*
X63259677Y-52018934D01*
X63201950Y-52056033D01*
X63117118Y-52153937D01*
X63117117Y-52153938D01*
X63063302Y-52271774D01*
X63044867Y-52400000D01*
X56066477Y-52400000D01*
X56064774Y-52399500D01*
X56064772Y-52399500D01*
X55935228Y-52399500D01*
X55935226Y-52399500D01*
X55810935Y-52435994D01*
X55810932Y-52435995D01*
X55810931Y-52435996D01*
X55759677Y-52468934D01*
X55701950Y-52506033D01*
X55617118Y-52603937D01*
X55617117Y-52603938D01*
X55563302Y-52721774D01*
X55544867Y-52850000D01*
X53860860Y-52850000D01*
X53839069Y-52835996D01*
X53839065Y-52835994D01*
X53839064Y-52835994D01*
X53714774Y-52799500D01*
X53714772Y-52799500D01*
X53585228Y-52799500D01*
X53585226Y-52799500D01*
X53460935Y-52835994D01*
X53460932Y-52835995D01*
X53460931Y-52835996D01*
X53414253Y-52865994D01*
X53351950Y-52906033D01*
X53267118Y-53003937D01*
X53267117Y-53003938D01*
X53213302Y-53121774D01*
X53194867Y-53250000D01*
X46475657Y-53250000D01*
X46455941Y-53202402D01*
X46340977Y-53030345D01*
X46340975Y-53030342D01*
X46194657Y-52884024D01*
X46068156Y-52799500D01*
X46022598Y-52769059D01*
X45831420Y-52689870D01*
X45831412Y-52689868D01*
X45628469Y-52649500D01*
X45628465Y-52649500D01*
X45171535Y-52649500D01*
X45171530Y-52649500D01*
X44968587Y-52689868D01*
X44968579Y-52689870D01*
X44777403Y-52769058D01*
X44605342Y-52884024D01*
X44459024Y-53030342D01*
X44344058Y-53202403D01*
X44264870Y-53393579D01*
X44264868Y-53393587D01*
X44224500Y-53596530D01*
X36499251Y-53596530D01*
X36499251Y-50545730D01*
X44224500Y-50545730D01*
X44224500Y-51854269D01*
X44227353Y-51884699D01*
X44227353Y-51884701D01*
X44262799Y-51985996D01*
X44272207Y-52012882D01*
X44352850Y-52122150D01*
X44462118Y-52202793D01*
X44504845Y-52217744D01*
X44590299Y-52247646D01*
X44620730Y-52250500D01*
X44620734Y-52250500D01*
X46179270Y-52250500D01*
X46209699Y-52247646D01*
X46209701Y-52247646D01*
X46273790Y-52225219D01*
X46337882Y-52202793D01*
X46447150Y-52122150D01*
X46527793Y-52012882D01*
X46565181Y-51906033D01*
X46572646Y-51884701D01*
X46572646Y-51884699D01*
X46575500Y-51854269D01*
X46575500Y-51250000D01*
X65944867Y-51250000D01*
X65963302Y-51378225D01*
X66017117Y-51496061D01*
X66017118Y-51496063D01*
X66101951Y-51593967D01*
X66210931Y-51664004D01*
X66335225Y-51700499D01*
X66335227Y-51700500D01*
X66335228Y-51700500D01*
X66464773Y-51700500D01*
X66464773Y-51700499D01*
X66589069Y-51664004D01*
X66698049Y-51593967D01*
X66782882Y-51496063D01*
X66836697Y-51378226D01*
X66855133Y-51250000D01*
X66836697Y-51121774D01*
X66782882Y-51003937D01*
X66698049Y-50906033D01*
X66589069Y-50835996D01*
X66589065Y-50835994D01*
X66589064Y-50835994D01*
X66464774Y-50799500D01*
X66464772Y-50799500D01*
X66335228Y-50799500D01*
X66335226Y-50799500D01*
X66210935Y-50835994D01*
X66210932Y-50835995D01*
X66210931Y-50835996D01*
X66159677Y-50868934D01*
X66101950Y-50906033D01*
X66017118Y-51003937D01*
X66017117Y-51003938D01*
X65963302Y-51121774D01*
X65944867Y-51250000D01*
X46575500Y-51250000D01*
X46575500Y-50545730D01*
X46572646Y-50515300D01*
X46572646Y-50515298D01*
X46527793Y-50387119D01*
X46527792Y-50387117D01*
X46447150Y-50277850D01*
X46341666Y-50200000D01*
X80141099Y-50200000D01*
X80159534Y-50328225D01*
X80186430Y-50387117D01*
X80213350Y-50446063D01*
X80298183Y-50543967D01*
X80407163Y-50614004D01*
X80531457Y-50650499D01*
X80531459Y-50650500D01*
X80531460Y-50650500D01*
X80661005Y-50650500D01*
X80661005Y-50650499D01*
X80785301Y-50614004D01*
X80894281Y-50543967D01*
X80979114Y-50446063D01*
X81032929Y-50328226D01*
X81051365Y-50200000D01*
X81032929Y-50071774D01*
X80979114Y-49953937D01*
X80894281Y-49856033D01*
X80785301Y-49785996D01*
X80785297Y-49785994D01*
X80785296Y-49785994D01*
X80661006Y-49749500D01*
X80661004Y-49749500D01*
X80531460Y-49749500D01*
X80531458Y-49749500D01*
X80407167Y-49785994D01*
X80407164Y-49785995D01*
X80407163Y-49785996D01*
X80355909Y-49818934D01*
X80298182Y-49856033D01*
X80213350Y-49953937D01*
X80213349Y-49953938D01*
X80159534Y-50071774D01*
X80141099Y-50200000D01*
X46341666Y-50200000D01*
X46337882Y-50197207D01*
X46337880Y-50197206D01*
X46209700Y-50152353D01*
X46179270Y-50149500D01*
X46179266Y-50149500D01*
X44620734Y-50149500D01*
X44620730Y-50149500D01*
X44590300Y-50152353D01*
X44590298Y-50152353D01*
X44462119Y-50197206D01*
X44462117Y-50197207D01*
X44352850Y-50277850D01*
X44272207Y-50387117D01*
X44272206Y-50387119D01*
X44227353Y-50515298D01*
X44227353Y-50515300D01*
X44224500Y-50545730D01*
X36499251Y-50545730D01*
X36499251Y-48875000D01*
X54169867Y-48875000D01*
X54188302Y-49003225D01*
X54242117Y-49121061D01*
X54242118Y-49121063D01*
X54326951Y-49218967D01*
X54435931Y-49289004D01*
X54560225Y-49325499D01*
X54560227Y-49325500D01*
X54560228Y-49325500D01*
X54689773Y-49325500D01*
X54689773Y-49325499D01*
X54814069Y-49289004D01*
X54923049Y-49218967D01*
X55007882Y-49121063D01*
X55061697Y-49003226D01*
X55080133Y-48875000D01*
X55062161Y-48750000D01*
X68419867Y-48750000D01*
X68438302Y-48878225D01*
X68492117Y-48996061D01*
X68492118Y-48996063D01*
X68576951Y-49093967D01*
X68685931Y-49164004D01*
X68810225Y-49200499D01*
X68810227Y-49200500D01*
X68810228Y-49200500D01*
X68939773Y-49200500D01*
X68939773Y-49200499D01*
X69064069Y-49164004D01*
X69173049Y-49093967D01*
X69257882Y-48996063D01*
X69311697Y-48878226D01*
X69330133Y-48750000D01*
X69311697Y-48621774D01*
X69257882Y-48503937D01*
X69173049Y-48406033D01*
X69064069Y-48335996D01*
X69064065Y-48335994D01*
X69064064Y-48335994D01*
X68970736Y-48308591D01*
X80653458Y-48308591D01*
X80671893Y-48436816D01*
X80725708Y-48554652D01*
X80725709Y-48554654D01*
X80810542Y-48652558D01*
X80919522Y-48722595D01*
X81043816Y-48759090D01*
X81043818Y-48759091D01*
X81043819Y-48759091D01*
X81173364Y-48759091D01*
X81173364Y-48759090D01*
X81297660Y-48722595D01*
X81406640Y-48652558D01*
X81491473Y-48554654D01*
X81545288Y-48436817D01*
X81563724Y-48308591D01*
X81545288Y-48180365D01*
X81491473Y-48062528D01*
X81406640Y-47964624D01*
X81297660Y-47894587D01*
X81297656Y-47894585D01*
X81297655Y-47894585D01*
X81173365Y-47858091D01*
X81173363Y-47858091D01*
X81043819Y-47858091D01*
X81043817Y-47858091D01*
X80919526Y-47894585D01*
X80919523Y-47894586D01*
X80919522Y-47894587D01*
X80868268Y-47927525D01*
X80810541Y-47964624D01*
X80725709Y-48062528D01*
X80725708Y-48062529D01*
X80671893Y-48180365D01*
X80653458Y-48308591D01*
X68970736Y-48308591D01*
X68939774Y-48299500D01*
X68939772Y-48299500D01*
X68810228Y-48299500D01*
X68810226Y-48299500D01*
X68685935Y-48335994D01*
X68685932Y-48335995D01*
X68685931Y-48335996D01*
X68634677Y-48368934D01*
X68576950Y-48406033D01*
X68492118Y-48503937D01*
X68492117Y-48503938D01*
X68438302Y-48621774D01*
X68419867Y-48750000D01*
X55062161Y-48750000D01*
X55061697Y-48746774D01*
X55007882Y-48628937D01*
X54923049Y-48531033D01*
X54814069Y-48460996D01*
X54814065Y-48460994D01*
X54814064Y-48460994D01*
X54689774Y-48424500D01*
X54689772Y-48424500D01*
X54560228Y-48424500D01*
X54560226Y-48424500D01*
X54435935Y-48460994D01*
X54435932Y-48460995D01*
X54435931Y-48460996D01*
X54384677Y-48493934D01*
X54326950Y-48531033D01*
X54242118Y-48628937D01*
X54242117Y-48628938D01*
X54188302Y-48746774D01*
X54169867Y-48875000D01*
X36499251Y-48875000D01*
X36499251Y-46930000D01*
X85144867Y-46930000D01*
X85163302Y-47058225D01*
X85217117Y-47176061D01*
X85217118Y-47176063D01*
X85301951Y-47273967D01*
X85410931Y-47344004D01*
X85535225Y-47380499D01*
X85535227Y-47380500D01*
X85535228Y-47380500D01*
X85664773Y-47380500D01*
X85664773Y-47380499D01*
X85789069Y-47344004D01*
X85898049Y-47273967D01*
X85982882Y-47176063D01*
X86036697Y-47058226D01*
X86055133Y-46930000D01*
X86036697Y-46801774D01*
X85982882Y-46683937D01*
X85898049Y-46586033D01*
X85789069Y-46515996D01*
X85789065Y-46515994D01*
X85789064Y-46515994D01*
X85664774Y-46479500D01*
X85664772Y-46479500D01*
X85535228Y-46479500D01*
X85535226Y-46479500D01*
X85410935Y-46515994D01*
X85410932Y-46515995D01*
X85410931Y-46515996D01*
X85359677Y-46548934D01*
X85301950Y-46586033D01*
X85217118Y-46683937D01*
X85217117Y-46683938D01*
X85163302Y-46801774D01*
X85144867Y-46930000D01*
X36499251Y-46930000D01*
X36499251Y-45171530D01*
X45649500Y-45171530D01*
X45649500Y-45628469D01*
X45689868Y-45831412D01*
X45689870Y-45831420D01*
X45769058Y-46022596D01*
X45884024Y-46194657D01*
X46030342Y-46340975D01*
X46030345Y-46340977D01*
X46202402Y-46455941D01*
X46393580Y-46535130D01*
X46582187Y-46572646D01*
X46596530Y-46575499D01*
X46596534Y-46575500D01*
X46596535Y-46575500D01*
X46803466Y-46575500D01*
X46803467Y-46575499D01*
X47006420Y-46535130D01*
X47197598Y-46455941D01*
X47369655Y-46340977D01*
X47515977Y-46194655D01*
X47630941Y-46022598D01*
X47710130Y-45831420D01*
X47750500Y-45628465D01*
X47750500Y-45171535D01*
X47750499Y-45171530D01*
X48149500Y-45171530D01*
X48149500Y-45628469D01*
X48189868Y-45831412D01*
X48189870Y-45831420D01*
X48269058Y-46022596D01*
X48384024Y-46194657D01*
X48530342Y-46340975D01*
X48530345Y-46340977D01*
X48702402Y-46455941D01*
X48893580Y-46535130D01*
X49082187Y-46572646D01*
X49096530Y-46575499D01*
X49096534Y-46575500D01*
X49096535Y-46575500D01*
X49303466Y-46575500D01*
X49303467Y-46575499D01*
X49506420Y-46535130D01*
X49697598Y-46455941D01*
X49869655Y-46340977D01*
X50015977Y-46194655D01*
X50130941Y-46022598D01*
X50210130Y-45831420D01*
X50250500Y-45628465D01*
X50250500Y-45171535D01*
X50250499Y-45171530D01*
X50649500Y-45171530D01*
X50649500Y-45628469D01*
X50689868Y-45831412D01*
X50689870Y-45831420D01*
X50769058Y-46022596D01*
X50884024Y-46194657D01*
X51030342Y-46340975D01*
X51030345Y-46340977D01*
X51202402Y-46455941D01*
X51393580Y-46535130D01*
X51582187Y-46572646D01*
X51596530Y-46575499D01*
X51596534Y-46575500D01*
X51596535Y-46575500D01*
X51803466Y-46575500D01*
X51803467Y-46575499D01*
X52006420Y-46535130D01*
X52197598Y-46455941D01*
X52369655Y-46340977D01*
X52515977Y-46194655D01*
X52630941Y-46022598D01*
X52710130Y-45831420D01*
X52750500Y-45628465D01*
X52750500Y-45171535D01*
X52750499Y-45171530D01*
X53149500Y-45171530D01*
X53149500Y-45628469D01*
X53189868Y-45831412D01*
X53189870Y-45831420D01*
X53269058Y-46022596D01*
X53384024Y-46194657D01*
X53530342Y-46340975D01*
X53530345Y-46340977D01*
X53702402Y-46455941D01*
X53893580Y-46535130D01*
X54082187Y-46572646D01*
X54096530Y-46575499D01*
X54096534Y-46575500D01*
X54096535Y-46575500D01*
X54303466Y-46575500D01*
X54303467Y-46575499D01*
X54506420Y-46535130D01*
X54697598Y-46455941D01*
X54869655Y-46340977D01*
X55015977Y-46194655D01*
X55130941Y-46022598D01*
X55210130Y-45831420D01*
X55250500Y-45628465D01*
X55250500Y-45171535D01*
X55210130Y-44968580D01*
X55130941Y-44777402D01*
X55026257Y-44620730D01*
X58149500Y-44620730D01*
X58149500Y-46179269D01*
X58152353Y-46209699D01*
X58152353Y-46209701D01*
X58197206Y-46337880D01*
X58197207Y-46337882D01*
X58277850Y-46447150D01*
X58387118Y-46527793D01*
X58408089Y-46535131D01*
X58515299Y-46572646D01*
X58545730Y-46575500D01*
X58545734Y-46575500D01*
X59854270Y-46575500D01*
X59884699Y-46572646D01*
X59884701Y-46572646D01*
X59948790Y-46550219D01*
X60012882Y-46527793D01*
X60122150Y-46447150D01*
X60202793Y-46337882D01*
X60225219Y-46273790D01*
X60247646Y-46209701D01*
X60247646Y-46209699D01*
X60250500Y-46179269D01*
X60250500Y-45171530D01*
X64299500Y-45171530D01*
X64299500Y-45628469D01*
X64339868Y-45831412D01*
X64339870Y-45831420D01*
X64419058Y-46022596D01*
X64534024Y-46194657D01*
X64680342Y-46340975D01*
X64680345Y-46340977D01*
X64852402Y-46455941D01*
X65043580Y-46535130D01*
X65232187Y-46572646D01*
X65246530Y-46575499D01*
X65246534Y-46575500D01*
X65246535Y-46575500D01*
X65453466Y-46575500D01*
X65453467Y-46575499D01*
X65656420Y-46535130D01*
X65847598Y-46455941D01*
X66019655Y-46340977D01*
X66165977Y-46194655D01*
X66280941Y-46022598D01*
X66360130Y-45831420D01*
X66400500Y-45628465D01*
X66400500Y-45171535D01*
X66400499Y-45171530D01*
X66799500Y-45171530D01*
X66799500Y-45628469D01*
X66839868Y-45831412D01*
X66839870Y-45831420D01*
X66919058Y-46022596D01*
X67034024Y-46194657D01*
X67180342Y-46340975D01*
X67180345Y-46340977D01*
X67352402Y-46455941D01*
X67543580Y-46535130D01*
X67732187Y-46572646D01*
X67746530Y-46575499D01*
X67746534Y-46575500D01*
X67746535Y-46575500D01*
X67953466Y-46575500D01*
X67953467Y-46575499D01*
X68156420Y-46535130D01*
X68347598Y-46455941D01*
X68519655Y-46340977D01*
X68665977Y-46194655D01*
X68780941Y-46022598D01*
X68860130Y-45831420D01*
X68900500Y-45628465D01*
X68900500Y-45171535D01*
X68900499Y-45171530D01*
X69299500Y-45171530D01*
X69299500Y-45628469D01*
X69339868Y-45831412D01*
X69339870Y-45831420D01*
X69419058Y-46022596D01*
X69534024Y-46194657D01*
X69680342Y-46340975D01*
X69680345Y-46340977D01*
X69852402Y-46455941D01*
X70043580Y-46535130D01*
X70232187Y-46572646D01*
X70246530Y-46575499D01*
X70246534Y-46575500D01*
X70246535Y-46575500D01*
X70453466Y-46575500D01*
X70453467Y-46575499D01*
X70656420Y-46535130D01*
X70847598Y-46455941D01*
X71019655Y-46340977D01*
X71165977Y-46194655D01*
X71280941Y-46022598D01*
X71360130Y-45831420D01*
X71400500Y-45628465D01*
X71400500Y-45171535D01*
X71400499Y-45171530D01*
X71799500Y-45171530D01*
X71799500Y-45628469D01*
X71839868Y-45831412D01*
X71839870Y-45831420D01*
X71919058Y-46022596D01*
X72034024Y-46194657D01*
X72180342Y-46340975D01*
X72180345Y-46340977D01*
X72352402Y-46455941D01*
X72543580Y-46535130D01*
X72732187Y-46572646D01*
X72746530Y-46575499D01*
X72746534Y-46575500D01*
X72746535Y-46575500D01*
X72953466Y-46575500D01*
X72953467Y-46575499D01*
X73156420Y-46535130D01*
X73347598Y-46455941D01*
X73519655Y-46340977D01*
X73665977Y-46194655D01*
X73780941Y-46022598D01*
X73860130Y-45831420D01*
X73900500Y-45628465D01*
X73900500Y-45171535D01*
X73860130Y-44968580D01*
X73780941Y-44777402D01*
X73676257Y-44620730D01*
X76799500Y-44620730D01*
X76799500Y-46179269D01*
X76802353Y-46209699D01*
X76802353Y-46209701D01*
X76847206Y-46337880D01*
X76847207Y-46337882D01*
X76927850Y-46447150D01*
X77037118Y-46527793D01*
X77058089Y-46535131D01*
X77165299Y-46572646D01*
X77195730Y-46575500D01*
X77195734Y-46575500D01*
X78504270Y-46575500D01*
X78534699Y-46572646D01*
X78534701Y-46572646D01*
X78598790Y-46550219D01*
X78662882Y-46527793D01*
X78772150Y-46447150D01*
X78852793Y-46337882D01*
X78875219Y-46273790D01*
X78897646Y-46209701D01*
X78897646Y-46209699D01*
X78900500Y-46179269D01*
X78900500Y-44620730D01*
X78897646Y-44590300D01*
X78897646Y-44590298D01*
X78852793Y-44462119D01*
X78852792Y-44462117D01*
X78772150Y-44352850D01*
X78662882Y-44272207D01*
X78662880Y-44272206D01*
X78534700Y-44227353D01*
X78504270Y-44224500D01*
X78504266Y-44224500D01*
X77195734Y-44224500D01*
X77195730Y-44224500D01*
X77165300Y-44227353D01*
X77165298Y-44227353D01*
X77037119Y-44272206D01*
X77037117Y-44272207D01*
X76927850Y-44352850D01*
X76847207Y-44462117D01*
X76847206Y-44462119D01*
X76802353Y-44590298D01*
X76802353Y-44590300D01*
X76799500Y-44620730D01*
X73676257Y-44620730D01*
X73665977Y-44605345D01*
X73665975Y-44605342D01*
X73519657Y-44459024D01*
X73433626Y-44401541D01*
X73347598Y-44344059D01*
X73156420Y-44264870D01*
X73156412Y-44264868D01*
X72953469Y-44224500D01*
X72953465Y-44224500D01*
X72746535Y-44224500D01*
X72746530Y-44224500D01*
X72543587Y-44264868D01*
X72543579Y-44264870D01*
X72352403Y-44344058D01*
X72180342Y-44459024D01*
X72034024Y-44605342D01*
X71919058Y-44777403D01*
X71839870Y-44968579D01*
X71839868Y-44968587D01*
X71799500Y-45171530D01*
X71400499Y-45171530D01*
X71360130Y-44968580D01*
X71280941Y-44777402D01*
X71165977Y-44605345D01*
X71165975Y-44605342D01*
X71019657Y-44459024D01*
X70933626Y-44401541D01*
X70847598Y-44344059D01*
X70656420Y-44264870D01*
X70656412Y-44264868D01*
X70453469Y-44224500D01*
X70453465Y-44224500D01*
X70246535Y-44224500D01*
X70246530Y-44224500D01*
X70043587Y-44264868D01*
X70043579Y-44264870D01*
X69852403Y-44344058D01*
X69680342Y-44459024D01*
X69534024Y-44605342D01*
X69419058Y-44777403D01*
X69339870Y-44968579D01*
X69339868Y-44968587D01*
X69299500Y-45171530D01*
X68900499Y-45171530D01*
X68860130Y-44968580D01*
X68780941Y-44777402D01*
X68665977Y-44605345D01*
X68665975Y-44605342D01*
X68519657Y-44459024D01*
X68433626Y-44401541D01*
X68347598Y-44344059D01*
X68156420Y-44264870D01*
X68156412Y-44264868D01*
X67953469Y-44224500D01*
X67953465Y-44224500D01*
X67746535Y-44224500D01*
X67746530Y-44224500D01*
X67543587Y-44264868D01*
X67543579Y-44264870D01*
X67352403Y-44344058D01*
X67180342Y-44459024D01*
X67034024Y-44605342D01*
X66919058Y-44777403D01*
X66839870Y-44968579D01*
X66839868Y-44968587D01*
X66799500Y-45171530D01*
X66400499Y-45171530D01*
X66360130Y-44968580D01*
X66280941Y-44777402D01*
X66165977Y-44605345D01*
X66165975Y-44605342D01*
X66019657Y-44459024D01*
X65933626Y-44401541D01*
X65847598Y-44344059D01*
X65656420Y-44264870D01*
X65656412Y-44264868D01*
X65453469Y-44224500D01*
X65453465Y-44224500D01*
X65246535Y-44224500D01*
X65246530Y-44224500D01*
X65043587Y-44264868D01*
X65043579Y-44264870D01*
X64852403Y-44344058D01*
X64680342Y-44459024D01*
X64534024Y-44605342D01*
X64419058Y-44777403D01*
X64339870Y-44968579D01*
X64339868Y-44968587D01*
X64299500Y-45171530D01*
X60250500Y-45171530D01*
X60250500Y-44620730D01*
X60247646Y-44590300D01*
X60247646Y-44590298D01*
X60202793Y-44462119D01*
X60202792Y-44462117D01*
X60122150Y-44352850D01*
X60012882Y-44272207D01*
X60012880Y-44272206D01*
X59884700Y-44227353D01*
X59854270Y-44224500D01*
X59854266Y-44224500D01*
X58545734Y-44224500D01*
X58545730Y-44224500D01*
X58515300Y-44227353D01*
X58515298Y-44227353D01*
X58387119Y-44272206D01*
X58387117Y-44272207D01*
X58277850Y-44352850D01*
X58197207Y-44462117D01*
X58197206Y-44462119D01*
X58152353Y-44590298D01*
X58152353Y-44590300D01*
X58149500Y-44620730D01*
X55026257Y-44620730D01*
X55015977Y-44605345D01*
X55015975Y-44605342D01*
X54869657Y-44459024D01*
X54783626Y-44401541D01*
X54697598Y-44344059D01*
X54506420Y-44264870D01*
X54506412Y-44264868D01*
X54303469Y-44224500D01*
X54303465Y-44224500D01*
X54096535Y-44224500D01*
X54096530Y-44224500D01*
X53893587Y-44264868D01*
X53893579Y-44264870D01*
X53702403Y-44344058D01*
X53530342Y-44459024D01*
X53384024Y-44605342D01*
X53269058Y-44777403D01*
X53189870Y-44968579D01*
X53189868Y-44968587D01*
X53149500Y-45171530D01*
X52750499Y-45171530D01*
X52710130Y-44968580D01*
X52630941Y-44777402D01*
X52515977Y-44605345D01*
X52515975Y-44605342D01*
X52369657Y-44459024D01*
X52283626Y-44401541D01*
X52197598Y-44344059D01*
X52006420Y-44264870D01*
X52006412Y-44264868D01*
X51803469Y-44224500D01*
X51803465Y-44224500D01*
X51596535Y-44224500D01*
X51596530Y-44224500D01*
X51393587Y-44264868D01*
X51393579Y-44264870D01*
X51202403Y-44344058D01*
X51030342Y-44459024D01*
X50884024Y-44605342D01*
X50769058Y-44777403D01*
X50689870Y-44968579D01*
X50689868Y-44968587D01*
X50649500Y-45171530D01*
X50250499Y-45171530D01*
X50210130Y-44968580D01*
X50130941Y-44777402D01*
X50015977Y-44605345D01*
X50015975Y-44605342D01*
X49869657Y-44459024D01*
X49783626Y-44401541D01*
X49697598Y-44344059D01*
X49506420Y-44264870D01*
X49506412Y-44264868D01*
X49303469Y-44224500D01*
X49303465Y-44224500D01*
X49096535Y-44224500D01*
X49096530Y-44224500D01*
X48893587Y-44264868D01*
X48893579Y-44264870D01*
X48702403Y-44344058D01*
X48530342Y-44459024D01*
X48384024Y-44605342D01*
X48269058Y-44777403D01*
X48189870Y-44968579D01*
X48189868Y-44968587D01*
X48149500Y-45171530D01*
X47750499Y-45171530D01*
X47710130Y-44968580D01*
X47630941Y-44777402D01*
X47515977Y-44605345D01*
X47515975Y-44605342D01*
X47369657Y-44459024D01*
X47283626Y-44401541D01*
X47197598Y-44344059D01*
X47006420Y-44264870D01*
X47006412Y-44264868D01*
X46803469Y-44224500D01*
X46803465Y-44224500D01*
X46596535Y-44224500D01*
X46596530Y-44224500D01*
X46393587Y-44264868D01*
X46393579Y-44264870D01*
X46202403Y-44344058D01*
X46030342Y-44459024D01*
X45884024Y-44605342D01*
X45769058Y-44777403D01*
X45689870Y-44968579D01*
X45689868Y-44968587D01*
X45649500Y-45171530D01*
X36499251Y-45171530D01*
X36499251Y-40003051D01*
X36499400Y-39996967D01*
X36515809Y-39662950D01*
X36517002Y-39650840D01*
X36565624Y-39323053D01*
X36567993Y-39311142D01*
X36648515Y-38989681D01*
X36652046Y-38978045D01*
X36763679Y-38666051D01*
X36768324Y-38654836D01*
X36910022Y-38355239D01*
X36915737Y-38344547D01*
X37086110Y-38060299D01*
X37092847Y-38050216D01*
X37290264Y-37784028D01*
X37297962Y-37774647D01*
X37520512Y-37529103D01*
X37529103Y-37520512D01*
X37774647Y-37297962D01*
X37784028Y-37290264D01*
X38050216Y-37092847D01*
X38060299Y-37086110D01*
X38344547Y-36915737D01*
X38355239Y-36910022D01*
X38654836Y-36768324D01*
X38666051Y-36763679D01*
X38978048Y-36652045D01*
X38989681Y-36648515D01*
X39311142Y-36567993D01*
X39323053Y-36565624D01*
X39650840Y-36517001D01*
X39662946Y-36515809D01*
X39996967Y-36499399D01*
X40003051Y-36499251D01*
X40065892Y-36499251D01*
X85916494Y-36499251D01*
X85932681Y-36500312D01*
G37*
%TD.AperFunction*%
%TD*%
M02*
