%TF.GenerationSoftware,KiCad,Pcbnew,8.0.5*%
%TF.CreationDate,2024-10-22T23:27:25+02:00*%
%TF.ProjectId,TagBot,54616742-6f74-42e6-9b69-6361645f7063,rev?*%
%TF.SameCoordinates,Original*%
%TF.FileFunction,Paste,Top*%
%TF.FilePolarity,Positive*%
%FSLAX46Y46*%
G04 Gerber Fmt 4.6, Leading zero omitted, Abs format (unit mm)*
G04 Created by KiCad (PCBNEW 8.0.5) date 2024-10-22 23:27:25*
%MOMM*%
%LPD*%
G01*
G04 APERTURE LIST*
G04 Aperture macros list*
%AMRoundRect*
0 Rectangle with rounded corners*
0 $1 Rounding radius*
0 $2 $3 $4 $5 $6 $7 $8 $9 X,Y pos of 4 corners*
0 Add a 4 corners polygon primitive as box body*
4,1,4,$2,$3,$4,$5,$6,$7,$8,$9,$2,$3,0*
0 Add four circle primitives for the rounded corners*
1,1,$1+$1,$2,$3*
1,1,$1+$1,$4,$5*
1,1,$1+$1,$6,$7*
1,1,$1+$1,$8,$9*
0 Add four rect primitives between the rounded corners*
20,1,$1+$1,$2,$3,$4,$5,0*
20,1,$1+$1,$4,$5,$6,$7,0*
20,1,$1+$1,$6,$7,$8,$9,0*
20,1,$1+$1,$8,$9,$2,$3,0*%
G04 Aperture macros list end*
%ADD10RoundRect,0.400000X-1.850000X0.400000X-1.850000X-0.400000X1.850000X-0.400000X1.850000X0.400000X0*%
%ADD11R,1.300000X1.000000*%
%ADD12RoundRect,0.225000X-0.225000X-0.250000X0.225000X-0.250000X0.225000X0.250000X-0.225000X0.250000X0*%
%ADD13RoundRect,0.218750X-0.218750X-0.256250X0.218750X-0.256250X0.218750X0.256250X-0.218750X0.256250X0*%
%ADD14RoundRect,0.135000X-0.135000X-0.185000X0.135000X-0.185000X0.135000X0.185000X-0.135000X0.185000X0*%
%ADD15RoundRect,0.218750X0.218750X0.256250X-0.218750X0.256250X-0.218750X-0.256250X0.218750X-0.256250X0*%
%ADD16RoundRect,0.140000X0.140000X0.170000X-0.140000X0.170000X-0.140000X-0.170000X0.140000X-0.170000X0*%
%ADD17RoundRect,0.140000X0.170000X-0.140000X0.170000X0.140000X-0.170000X0.140000X-0.170000X-0.140000X0*%
%ADD18RoundRect,0.250000X-0.315000X-0.315000X0.315000X-0.315000X0.315000X0.315000X-0.315000X0.315000X0*%
%ADD19RoundRect,0.062500X-0.375000X-0.062500X0.375000X-0.062500X0.375000X0.062500X-0.375000X0.062500X0*%
%ADD20RoundRect,0.062500X-0.062500X-0.375000X0.062500X-0.375000X0.062500X0.375000X-0.062500X0.375000X0*%
%ADD21RoundRect,0.135000X0.135000X0.185000X-0.135000X0.185000X-0.135000X-0.185000X0.135000X-0.185000X0*%
%ADD22RoundRect,0.150000X0.150000X-0.325000X0.150000X0.325000X-0.150000X0.325000X-0.150000X-0.325000X0*%
%ADD23RoundRect,0.150000X0.325000X-0.150000X0.325000X0.150000X-0.325000X0.150000X-0.325000X-0.150000X0*%
%ADD24R,1.505000X0.802000*%
%ADD25R,1.567800X2.101200*%
%ADD26RoundRect,0.140000X-0.140000X-0.170000X0.140000X-0.170000X0.140000X0.170000X-0.140000X0.170000X0*%
%ADD27RoundRect,0.250000X-0.250000X-0.475000X0.250000X-0.475000X0.250000X0.475000X-0.250000X0.475000X0*%
%ADD28RoundRect,0.125000X0.125000X-0.537500X0.125000X0.537500X-0.125000X0.537500X-0.125000X-0.537500X0*%
%ADD29R,1.300000X1.550000*%
%ADD30RoundRect,0.135000X0.185000X-0.135000X0.185000X0.135000X-0.185000X0.135000X-0.185000X-0.135000X0*%
%ADD31RoundRect,0.225000X0.225000X0.250000X-0.225000X0.250000X-0.225000X-0.250000X0.225000X-0.250000X0*%
%ADD32RoundRect,0.135000X-0.185000X0.135000X-0.185000X-0.135000X0.185000X-0.135000X0.185000X0.135000X0*%
%ADD33RoundRect,0.150000X0.150000X-0.512500X0.150000X0.512500X-0.150000X0.512500X-0.150000X-0.512500X0*%
%ADD34RoundRect,0.250000X0.250000X0.475000X-0.250000X0.475000X-0.250000X-0.475000X0.250000X-0.475000X0*%
%ADD35R,2.400000X0.740000*%
%ADD36RoundRect,0.225000X0.250000X-0.225000X0.250000X0.225000X-0.250000X0.225000X-0.250000X-0.225000X0*%
G04 APERTURE END LIST*
D10*
%TO.C,L401*%
X60450000Y-75150000D03*
X60450000Y-79050000D03*
%TD*%
D11*
%TO.C,Y101*%
X58040000Y-62090000D03*
X60240000Y-62090000D03*
X60240000Y-60290000D03*
X58040000Y-60290000D03*
%TD*%
D12*
%TO.C,C202*%
X53775000Y-50050000D03*
X55325000Y-50050000D03*
%TD*%
D13*
%TO.C,D604*%
X50132500Y-56260000D03*
X51707500Y-56260000D03*
%TD*%
D14*
%TO.C,R102*%
X50712500Y-64660000D03*
X51732500Y-64660000D03*
%TD*%
%TO.C,R401*%
X48690000Y-76150000D03*
X49710000Y-76150000D03*
%TD*%
D15*
%TO.C,L101*%
X74937500Y-68750000D03*
X73362500Y-68750000D03*
%TD*%
D13*
%TO.C,D401*%
X50175000Y-68470000D03*
X51750000Y-68470000D03*
%TD*%
D16*
%TO.C,C103*%
X72680000Y-67300000D03*
X71720000Y-67300000D03*
%TD*%
D17*
%TO.C,C407*%
X52050000Y-70760000D03*
X52050000Y-69800000D03*
%TD*%
D13*
%TO.C,D101*%
X50155000Y-63170000D03*
X51730000Y-63170000D03*
%TD*%
D18*
%TO.C,U101*%
X65350000Y-59080000D03*
X65350000Y-60480000D03*
X65350000Y-61880000D03*
X65350000Y-63280000D03*
X66750000Y-59080000D03*
X66750000Y-60480000D03*
X66750000Y-61880000D03*
X66750000Y-63280000D03*
X68150000Y-59080000D03*
X68150000Y-60480000D03*
X68150000Y-61880000D03*
X68150000Y-63280000D03*
X69550000Y-59080000D03*
X69550000Y-60480000D03*
X69550000Y-61880000D03*
X69550000Y-63280000D03*
D19*
X64012500Y-58430000D03*
X64012500Y-58930000D03*
X64012500Y-59430000D03*
X64012500Y-59930000D03*
X64012500Y-60430000D03*
X64012500Y-60930000D03*
X64012500Y-61430000D03*
X64012500Y-61930000D03*
X64012500Y-62430000D03*
X64012500Y-62930000D03*
X64012500Y-63430000D03*
X64012500Y-63930000D03*
D20*
X64700000Y-64617500D03*
X65200000Y-64617500D03*
X65700000Y-64617500D03*
X66200000Y-64617500D03*
X66700000Y-64617500D03*
X67200000Y-64617500D03*
X67700000Y-64617500D03*
X68200000Y-64617500D03*
X68700000Y-64617500D03*
X69200000Y-64617500D03*
X69700000Y-64617500D03*
X70200000Y-64617500D03*
D19*
X70887500Y-63930000D03*
X70887500Y-63430000D03*
X70887500Y-62930000D03*
X70887500Y-62430000D03*
X70887500Y-61930000D03*
X70887500Y-61430000D03*
X70887500Y-60930000D03*
X70887500Y-60430000D03*
X70887500Y-59930000D03*
X70887500Y-59430000D03*
X70887500Y-58930000D03*
X70887500Y-58430000D03*
D20*
X70200000Y-57742500D03*
X69700000Y-57742500D03*
X69200000Y-57742500D03*
X68700000Y-57742500D03*
X68200000Y-57742500D03*
X67700000Y-57742500D03*
X67200000Y-57742500D03*
X66700000Y-57742500D03*
X66200000Y-57742500D03*
X65700000Y-57742500D03*
X65200000Y-57742500D03*
X64700000Y-57742500D03*
%TD*%
D16*
%TO.C,C101*%
X70230000Y-67250000D03*
X69270000Y-67250000D03*
%TD*%
D21*
%TO.C,R701*%
X81460000Y-77520000D03*
X80440000Y-77520000D03*
%TD*%
D14*
%TO.C,R803*%
X72390000Y-64500000D03*
X73410000Y-64500000D03*
%TD*%
%TO.C,R402*%
X48690000Y-75125000D03*
X49710000Y-75125000D03*
%TD*%
D13*
%TO.C,D602*%
X50162500Y-59330000D03*
X51737500Y-59330000D03*
%TD*%
D22*
%TO.C,U102*%
X66100000Y-73150000D03*
X66900000Y-73150000D03*
X67700000Y-73150000D03*
X68500000Y-73150000D03*
X69300000Y-73150000D03*
X70100000Y-73150000D03*
D23*
X70100000Y-72150000D03*
D22*
X70100000Y-71150000D03*
X69300000Y-71150000D03*
X68500000Y-71150000D03*
X67700000Y-71150000D03*
X66900000Y-71150000D03*
X66100000Y-71150000D03*
D23*
X66100000Y-72150000D03*
%TD*%
D24*
%TO.C,U201*%
X57052500Y-49002500D03*
X57052500Y-50272500D03*
X57052500Y-51542500D03*
X57052500Y-52812500D03*
X62047500Y-52812500D03*
X62047500Y-51542500D03*
X62047500Y-50272500D03*
X62047500Y-49002500D03*
D25*
X59550000Y-50907500D03*
%TD*%
D26*
%TO.C,C108*%
X71020000Y-65925000D03*
X71980000Y-65925000D03*
%TD*%
D16*
%TO.C,C110*%
X63980000Y-55800000D03*
X63020000Y-55800000D03*
%TD*%
D14*
%TO.C,R601*%
X53590000Y-61300000D03*
X54610000Y-61300000D03*
%TD*%
%TO.C,R604*%
X53510000Y-56260000D03*
X54530000Y-56260000D03*
%TD*%
D27*
%TO.C,C402*%
X51100000Y-78375000D03*
X53000000Y-78375000D03*
%TD*%
D28*
%TO.C,U401*%
X51100000Y-75937500D03*
X51750000Y-75937500D03*
X52400000Y-75937500D03*
X53050000Y-75937500D03*
X53050000Y-73662500D03*
X52400000Y-73662500D03*
X51750000Y-73662500D03*
X51100000Y-73662500D03*
%TD*%
D12*
%TO.C,C302*%
X68525000Y-50200000D03*
X70075000Y-50200000D03*
%TD*%
D14*
%TO.C,R101*%
X59490000Y-63510000D03*
X60510000Y-63510000D03*
%TD*%
D29*
%TO.C,CAT_MOUSE*%
X83650000Y-84175000D03*
X83650000Y-76225000D03*
X88150000Y-84175000D03*
X88150000Y-76225000D03*
%TD*%
D14*
%TO.C,R801*%
X72390000Y-62300000D03*
X73410000Y-62300000D03*
%TD*%
D16*
%TO.C,C111*%
X58480000Y-58900000D03*
X57520000Y-58900000D03*
%TD*%
D30*
%TO.C,R404*%
X50962500Y-71860000D03*
X50962500Y-70840000D03*
%TD*%
D13*
%TO.C,D501*%
X50195000Y-66420000D03*
X51770000Y-66420000D03*
%TD*%
D14*
%TO.C,R602*%
X53540000Y-59330000D03*
X54560000Y-59330000D03*
%TD*%
D31*
%TO.C,C107*%
X62575000Y-57100000D03*
X61025000Y-57100000D03*
%TD*%
D12*
%TO.C,C106*%
X68325000Y-75500000D03*
X69875000Y-75500000D03*
%TD*%
D26*
%TO.C,C403*%
X50975000Y-79950000D03*
X51935000Y-79950000D03*
%TD*%
D32*
%TO.C,R406*%
X49837500Y-70840000D03*
X49837500Y-71860000D03*
%TD*%
D16*
%TO.C,C702*%
X59810000Y-64625000D03*
X58850000Y-64625000D03*
%TD*%
D33*
%TO.C,U501*%
X56550000Y-70387500D03*
X57500000Y-70387500D03*
X58450000Y-70387500D03*
X58450000Y-68112500D03*
X56550000Y-68112500D03*
%TD*%
D12*
%TO.C,C301*%
X68525000Y-51700000D03*
X70075000Y-51700000D03*
%TD*%
D14*
%TO.C,R802*%
X72390000Y-63400000D03*
X73410000Y-63400000D03*
%TD*%
D30*
%TO.C,R405*%
X53213338Y-70834724D03*
X53213338Y-69814724D03*
%TD*%
D34*
%TO.C,C406*%
X57075000Y-79350000D03*
X55175000Y-79350000D03*
%TD*%
D29*
%TO.C,NRST*%
X49250000Y-83525000D03*
X49250000Y-91475000D03*
X44750000Y-83525000D03*
X44750000Y-91475000D03*
%TD*%
D12*
%TO.C,C502*%
X57075000Y-66400000D03*
X58625000Y-66400000D03*
%TD*%
%TO.C,C201*%
X53775000Y-51550000D03*
X55325000Y-51550000D03*
%TD*%
D21*
%TO.C,R501*%
X54410000Y-66400000D03*
X53390000Y-66400000D03*
%TD*%
D13*
%TO.C,D601*%
X50152500Y-61300000D03*
X51727500Y-61300000D03*
%TD*%
%TO.C,D603*%
X50112500Y-54350000D03*
X51687500Y-54350000D03*
%TD*%
D26*
%TO.C,C401*%
X52025000Y-71875000D03*
X52985000Y-71875000D03*
%TD*%
D34*
%TO.C,C405*%
X57125000Y-77350000D03*
X55225000Y-77350000D03*
%TD*%
D26*
%TO.C,C701*%
X80440000Y-79000000D03*
X81400000Y-79000000D03*
%TD*%
D16*
%TO.C,C112*%
X58480000Y-63500000D03*
X57520000Y-63500000D03*
%TD*%
D35*
%TO.C,ST_LINK*%
X87150000Y-54550000D03*
X83250000Y-54550000D03*
X87150000Y-53280000D03*
X83250000Y-53280000D03*
X87150000Y-52010000D03*
X83250000Y-52010000D03*
X87150000Y-50740000D03*
X83250000Y-50740000D03*
X87150000Y-49470000D03*
X83250000Y-49470000D03*
X87150000Y-48200000D03*
X83250000Y-48200000D03*
X87150000Y-46930000D03*
X83250000Y-46930000D03*
%TD*%
D14*
%TO.C,R702*%
X80440000Y-76220000D03*
X81460000Y-76220000D03*
%TD*%
D26*
%TO.C,C109*%
X72520000Y-59100000D03*
X73480000Y-59100000D03*
%TD*%
D14*
%TO.C,R603*%
X53490000Y-54350000D03*
X54510000Y-54350000D03*
%TD*%
D24*
%TO.C,U301*%
X71800000Y-48940000D03*
X71800000Y-50210000D03*
X71800000Y-51480000D03*
X71800000Y-52750000D03*
X76795000Y-52750000D03*
X76795000Y-51480000D03*
X76795000Y-50210000D03*
X76795000Y-48940000D03*
D25*
X74297500Y-50845000D03*
%TD*%
D26*
%TO.C,C404*%
X57420000Y-73550000D03*
X58380000Y-73550000D03*
%TD*%
D30*
%TO.C,R403*%
X57350000Y-75835000D03*
X57350000Y-74815000D03*
%TD*%
D36*
%TO.C,C105*%
X75850000Y-71975000D03*
X75850000Y-70425000D03*
%TD*%
%TO.C,C102*%
X74300000Y-71975000D03*
X74300000Y-70425000D03*
%TD*%
D21*
%TO.C,R407*%
X54492500Y-68470000D03*
X53472500Y-68470000D03*
%TD*%
D12*
%TO.C,C104*%
X62950000Y-73250000D03*
X64500000Y-73250000D03*
%TD*%
D14*
%TO.C,R804*%
X73740000Y-73250000D03*
X74760000Y-73250000D03*
%TD*%
D12*
%TO.C,C501*%
X56550000Y-72175000D03*
X58100000Y-72175000D03*
%TD*%
M02*
