M48
; DRILL file {KiCad 8.0.5} date 2024-10-22T23:26:27+0200
; FORMAT={-:-/ absolute / metric / decimal}
; #@! TF.CreationDate,2024-10-22T23:26:27+02:00
; #@! TF.GenerationSoftware,Kicad,Pcbnew,8.0.5
; #@! TF.FileFunction,Plated,1,4,PTH
FMAT,2
METRIC
; #@! TA.AperFunction,Plated,PTH,ViaDrill
T1C0.300
; #@! TA.AperFunction,Plated,PTH,ComponentDrill
T2C0.500
; #@! TA.AperFunction,Plated,PTH,ComponentDrill
T3C0.950
; #@! TA.AperFunction,Plated,PTH,ComponentDrill
T4C1.000
; #@! TA.AperFunction,Plated,PTH,ComponentDrill
T5C1.850
; #@! TA.AperFunction,Plated,PTH,ComponentDrill
T6C3.200
%
G90
G05
T1
X37.2Y-43.55
X37.25Y-47.75
X37.9Y-84.5
X40.0Y-45.75
X40.1Y-84.6
X41.1Y-70.1
X42.2Y-85.6
X42.8Y-70.1
X43.2Y-43.7
X43.25Y-47.75
X43.25Y-91.5
X44.4Y-70.1
X46.1Y-70.1
X46.7Y-91.5
X47.45Y-81.75
X47.6Y-91.5
X47.7Y-70.1
X47.75Y-44.0
X48.5Y-55.75
X48.6Y-59.325
X48.6Y-61.3
X48.6Y-63.4
X48.8Y-81.1
X48.875Y-72.4
X48.9Y-66.4
X48.9Y-68.5
X48.95Y-49.3
X48.96Y-54.35
X49.475Y-51.675
X49.725Y-79.95
X50.0Y-73.5
X50.18Y-76.913
X50.3Y-50.55
X51.0Y-69.75
X51.15Y-52.325
X51.8Y-58.2
X52.4Y-77.075
X52.625Y-79.95
X52.679Y-51.571
X52.7Y-50.05
X53.0Y-44.0
X53.0Y-65.25
X53.05Y-77.075
X53.25Y-48.5
X53.35Y-63.0
X53.525Y-79.825
X53.55Y-60.325
X53.65Y-53.25
X53.7Y-77.075
X53.925Y-72.65
X53.95Y-78.4
X54.025Y-79.55
X54.125Y-75.225
X54.15Y-77.6
X54.25Y-58.25
X54.35Y-71.275
X54.35Y-75.9
X54.5Y-74.0
X54.625Y-48.875
X54.85Y-63.0
X55.3Y-59.4
X55.3Y-61.3
X55.425Y-66.0
X55.45Y-71.5
X55.45Y-73.95
X55.75Y-66.775
X55.8Y-75.9
X56.0Y-52.85
X56.3Y-58.7
X56.35Y-64.85
X56.35Y-74.75
X56.5Y-55.5
X56.625Y-59.875
X56.7Y-63.5
X57.125Y-53.9
X57.45Y-43.95
X57.45Y-56.1
X57.925Y-64.55
X58.25Y-80.5
X58.45Y-51.008
X58.5Y-76.5
X58.5Y-77.75
X58.55Y-49.508
X58.55Y-52.307
X58.925Y-79.125
X59.075Y-73.375
X59.075Y-73.925
X59.175Y-55.875
X59.35Y-72.175
X59.5Y-68.75
X59.5Y-71.0
X59.55Y-49.508
X59.55Y-52.307
X59.65Y-73.925
X59.7Y-66.95
X60.25Y-73.925
X60.4Y-79.15
X60.55Y-49.508
X60.55Y-52.307
X60.6Y-53.9
X60.65Y-51.008
X60.75Y-77.0
X60.938Y-64.362
X61.0Y-72.7
X61.05Y-58.175
X61.25Y-65.5
X61.25Y-67.0
X61.25Y-68.75
X61.25Y-71.0
X61.85Y-79.125
X61.9Y-58.2
X62.0Y-59.9
X62.125Y-64.125
X62.2Y-55.8
X62.25Y-37.5
X62.25Y-40.75
X62.25Y-43.5
X62.474Y-62.974
X62.675Y-72.25
X62.729Y-64.6
X62.75Y-61.955
X62.75Y-68.75
X63.3Y-65.1
X63.5Y-52.4
X63.75Y-67.25
X63.75Y-77.0
X63.925Y-49.05
X63.95Y-66.05
X64.5Y-72.075
X64.5Y-74.6
X64.871Y-56.629
X64.887Y-55.813
X65.225Y-67.675
X65.5Y-54.575
X65.675Y-56.175
X66.0Y-59.8
X66.0Y-62.6
X66.0Y-77.25
X66.0Y-81.5
X66.4Y-51.25
X66.4Y-53.5
X66.5Y-44.25
X66.8Y-75.5
X66.9Y-74.25
X66.975Y-48.75
X67.075Y-70.3
X67.321Y-52.021
X67.45Y-50.2
X67.45Y-61.18
X68.125Y-74.075
X68.25Y-52.85
X68.3Y-70.15
X68.396Y-53.804
X68.8Y-62.6
X68.8Y-81.4
X68.875Y-48.75
X68.9Y-59.8
X69.0Y-77.75
X69.3Y-74.4
X69.725Y-56.787
X69.975Y-65.675
X69.987Y-70.162
X70.1Y-74.3
X70.775Y-52.75
X70.85Y-67.275
X71.0Y-81.75
X71.1Y-75.2
X71.25Y-73.25
X71.3Y-71.7
X71.5Y-44.25
X71.935Y-59.615
X71.95Y-56.15
X72.4Y-60.405
X72.95Y-78.5
X73.1Y-65.975
X73.125Y-53.775
X73.2Y-50.85
X73.3Y-49.45
X73.3Y-52.25
X73.51Y-61.454
X73.55Y-60.7
X73.55Y-67.225
X74.047Y-60.056
X74.2Y-74.4
X74.3Y-49.45
X74.3Y-52.25
X74.378Y-67.575
X74.5Y-59.346
X74.575Y-79.35
X74.6Y-61.9
X75.2Y-49.45
X75.2Y-52.25
X75.4Y-50.85
X75.478Y-74.55
X75.85Y-73.15
X75.95Y-60.5
X76.15Y-53.75
X76.4Y-43.65
X76.575Y-63.775
X77.35Y-65.35
X78.0Y-52.75
X78.1Y-69.9
X78.125Y-75.9
X78.14Y-48.94
X78.75Y-81.75
X78.95Y-75.25
X79.0Y-79.25
X79.15Y-68.05
X79.2Y-77.4
X79.725Y-73.925
X80.596Y-50.2
X80.6Y-52.25
X80.75Y-56.25
X81.109Y-48.309
X81.4Y-80.1
X83.25Y-85.75
X84.75Y-56.25
X85.2Y-50.7
X85.2Y-52.0
X85.3Y-48.2
X85.525Y-76.2
X85.6Y-46.93
X85.65Y-53.28
X86.5Y-75.5
X88.0Y-56.25
X88.7Y-85.8
T2
X37.6Y-40.0
X37.6Y-89.0
X38.303Y-38.303
X38.303Y-41.697
X38.303Y-87.303
X38.303Y-90.697
X40.0Y-37.6
X40.0Y-42.4
X40.0Y-86.6
X40.0Y-91.4
X41.697Y-38.303
X41.697Y-41.697
X41.697Y-87.303
X41.697Y-90.697
X42.4Y-40.0
X42.4Y-89.0
X83.6Y-40.0
X83.6Y-89.0
X84.303Y-38.303
X84.303Y-41.697
X84.303Y-87.303
X84.303Y-90.697
X86.0Y-37.6
X86.0Y-42.4
X86.0Y-86.6
X86.0Y-91.4
X87.697Y-38.303
X87.697Y-41.697
X87.697Y-87.303
X87.697Y-90.697
X88.4Y-40.0
X88.4Y-89.0
T3
X45.4Y-51.2
X45.4Y-53.7
X45.4Y-56.2
X45.4Y-58.7
X46.7Y-45.4
X49.2Y-45.4
X51.7Y-45.4
X54.2Y-45.4
X56.7Y-45.4
X59.2Y-45.4
X62.1Y-83.6
X64.6Y-83.6
X65.35Y-45.4
X67.1Y-83.6
X67.85Y-45.4
X69.6Y-83.6
X70.35Y-45.4
X72.1Y-83.6
X72.85Y-45.4
X74.6Y-83.6
X75.35Y-45.4
X77.1Y-83.6
X77.85Y-45.4
X79.6Y-83.6
X80.6Y-59.5
X80.6Y-62.0
X80.6Y-64.5
X80.6Y-67.0
X80.6Y-69.5
X80.6Y-72.0
T4
X45.4Y-64.6
X45.4Y-67.1
X53.6Y-83.6
X56.1Y-83.6
T5
X39.9Y-72.5
X39.9Y-77.2
X39.9Y-81.9
T6
X40.0Y-40.0
X40.0Y-89.0
X86.0Y-40.0
X86.0Y-89.0
M30
